<?xml version="1.0" encoding="UTF-8"?>
<svg width="50px" height="50px" viewBox="0 0 50 50" version="1.1" xmlns="http://www.w3.org/2000/svg" xmlns:xlink="http://www.w3.org/1999/xlink">
    <!-- Generator: Sketch 54 (76480) - https://sketchapp.com -->
    <title>188_sport_logo</title>
    <desc>Created with Sketch.</desc>
    <g id="页面1" stroke="none" stroke-width="1" fill="none" fill-rule="evenodd">
        <g id="画板复制" transform="translate(-429.000000, -751.000000)" fill="#FFFFFF">
            <g id="矩形-4" transform="translate(87.000000, 128.000000)">
                <g id="编组-3" transform="translate(342.000000, 623.000000)">
                    <path d="M43.642552,21.1305485 C43.6929448,20.8400213 43.7181411,20.5364092 43.7181411,20.2197119 C43.7181411,18.7446878 43.2307749,17.5509763 42.2560279,16.6385415 C41.2812809,15.7261068 39.8144735,15.2698962 37.8555617,15.2698962 C35.7930536,15.2698962 34.2532589,15.8182944 33.2361317,16.9151072 C32.2190044,18.0119199 31.7104483,19.3167293 31.7104483,20.8295745 C31.7104483,22.7679075 32.5768771,24.2854575 34.3097607,25.3822703 C33.0854408,26.0252295 32.2543284,26.7036359 31.8163986,27.4175097 C31.3784688,28.1313835 31.1595071,28.9563445 31.1595071,29.8924175 C31.1595071,31.4619944 31.6845441,32.7431659 32.7346339,33.7359706 C33.7847237,34.7287753 35.3739612,35.2251702 37.5023943,35.2251702 C38.0562711,35.2251702 38.5765252,35.1896392 39.0631572,35.118577 L35.4644506,46.1110362 C34.4533959,49.1993618 31.1674617,50.9214786 28.0525666,49.9955114 L6.54898173,43.6031244 C4.1223776,42.881766 2.40961458,40.7149743 2.26805141,38.1873815 L0.981086983,15.2087918 C0.872920184,13.277487 1.70248445,11.4124918 3.20924926,10.1995211 L14.4457543,1.15394793 C16.2111716,-0.267242285 18.626733,-0.572400865 20.6901238,0.365094924 L41.6964037,9.9092392 C44.4810742,11.1744464 45.8683162,14.3318214 44.9166863,17.2386306 L43.642552,21.1305482 Z M43.2392829,22.3623574 L42.334552,25.1259104 C42.0162595,24.8508724 41.6581075,24.5959373 41.2600958,24.3611049 C42.175514,23.8276292 42.8352416,23.1613824 43.2392829,22.3623574 Z M9.75625662,15.3975419 C8.64495087,16.872566 7.22758641,18.0639137 5.50412071,18.9716208 L5.50412071,22.7584425 C6.70960491,22.1438492 7.79264088,21.3354346 8.7532611,20.3331747 L8.7532611,31.7645541 L5.50412071,31.7645541 L5.50412071,34.9273302 L16.1839039,34.9273302 L16.1839039,31.7645541 L12.9912703,31.7645541 L12.9912703,15.3975419 L9.75625662,15.3975419 Z M27.4152803,24.3611049 C29.0539854,23.4061214 29.8733257,22.0256708 29.8733257,20.2197119 C29.8733257,18.7446878 29.3859595,17.5509763 28.4112125,16.6385415 C27.4364655,15.7261068 25.9696581,15.2698962 24.0107463,15.2698962 C21.9482381,15.2698962 20.4084435,15.8182944 19.3913162,16.9151072 C18.3741889,18.0119199 17.8656329,19.3167293 17.8656329,20.8295745 C17.8656329,22.7679075 18.7320617,24.2854575 20.4649452,25.3822703 C19.2406253,26.0252295 18.4095129,26.7036359 17.9715831,27.4175097 C17.5336533,28.1313835 17.3146917,28.9563445 17.3146917,29.8924175 C17.3146917,31.4619944 17.8397287,32.7431659 18.8898185,33.7359706 C19.9399082,34.7287753 21.5291458,35.2251702 23.6575788,35.2251702 C25.8707725,35.2251702 27.5471238,34.6578617 28.6866831,33.5232278 C29.8262424,32.3885939 30.3960135,31.0081434 30.3960135,29.3818348 C30.3960135,27.2071198 29.4024457,25.5335599 27.4152803,24.3611049 Z M24.8583481,23.0846481 C24.1614276,22.7915344 23.4857073,22.4133288 22.831167,21.9500199 C22.1766268,21.4867111 21.8493616,20.8863096 21.8493616,20.1487976 C21.8493616,19.5342042 22.0565511,19.0283542 22.4709363,18.6312324 C22.8853214,18.2341105 23.4221306,18.0355525 24.0813798,18.0355525 C24.7688825,18.0355525 25.2986283,18.2553846 25.6706332,18.6950552 C26.0426381,19.1347258 26.2286378,19.7091256 26.2286378,20.4182718 C26.2286378,21.3259789 25.7718791,22.2147622 24.8583481,23.0846481 Z M22.9088639,26.7721899 C24.4722262,27.4624255 25.449313,28.0533718 25.8401536,28.5450465 C26.2309942,29.0367212 26.4264115,29.5331161 26.4264115,30.034246 C26.4264115,30.6488394 26.1909689,31.1783273 25.7200766,31.6227255 C25.2491844,32.0671238 24.6134894,32.2893196 23.8129725,32.2893196 C22.9559486,32.2893196 22.2825827,32.0458498 21.7928548,31.5589027 C21.3031268,31.0719557 21.0582665,30.4219147 21.0582665,29.6087604 C21.0582665,28.4741265 21.6751261,27.5286125 22.9088639,26.7721899 Z M38.7031635,23.0846481 C38.006243,22.7915344 37.3305227,22.4133288 36.6759825,21.9500199 C36.0214422,21.4867111 35.694177,20.8863096 35.694177,20.1487976 C35.694177,19.5342042 35.9013665,19.0283542 36.3157517,18.6312324 C36.7301369,18.2341105 37.266946,18.0355525 37.9261952,18.0355525 C38.6136979,18.0355525 39.1434437,18.2553846 39.5154486,18.6950552 C39.8874535,19.1347258 40.0734532,19.7091256 40.0734532,20.4182718 C40.0734532,21.3259789 39.6166945,22.2147622 38.7031635,23.0846481 Z M36.7536793,26.7721899 C38.3170416,27.4624255 39.2941284,28.0533718 39.684969,28.5450465 C40.0758096,29.0367212 40.2712269,29.5331161 40.2712269,30.034246 C40.2712269,30.6488394 40.0357843,31.1783273 39.5648921,31.6227255 C39.0939998,32.0671238 38.4583048,32.2893196 37.6577879,32.2893196 C36.800764,32.2893196 36.1273982,32.0458498 35.6376702,31.5589027 C35.1479422,31.0719557 34.9030819,30.4219147 34.9030819,29.6087604 C34.9030819,28.4741265 35.5199416,27.5286125 36.7536793,26.7721899 Z" id="形状结合"></path>
                </g>
            </g>
        </g>
    </g>
</svg>