<?xml version="1.0" encoding="UTF-8"?>
<svg width="160px" height="50px" viewBox="0 0 160 50" version="1.1" xmlns="http://www.w3.org/2000/svg" xmlns:xlink="http://www.w3.org/1999/xlink">
    <!-- Generator: Sketch 54 (76480) - https://sketchapp.com -->
    <title>ag_logo</title>
    <desc>Created with Sketch.</desc>
    <g id="页面1" stroke="none" stroke-width="1" fill="none" fill-rule="evenodd">
        <g id="画板复制-2" transform="translate(-2081.000000, -762.000000)" fill="#FFFFFF">
            <g id="矩形-4" transform="translate(1739.000000, 139.000000)">
                <g id="编组-21" transform="translate(342.000000, 623.000000)">
                    <g id="编组" transform="translate(2.000000, 0.000000)">
                        <path d="M94.6428571,39.1428571 C93.5714286,39.1428571 92.6428571,39.1428571 91.7857143,39.1428571 C91.3571429,39.1428571 91.2857143,39.0714286 91.4285714,38.6428571 C91.8571429,37 91.8571429,37 93.5714286,37 C94.8571429,37 96.0714286,37 97.3571429,37 C97.7857143,37 97.8571429,37.1428571 97.7142857,37.5 C97.2142857,39 96.7142857,40.5714286 96.2142857,42.0714286 C96.1428571,42.2857143 96.0714286,42.4285714 95.8571429,42.5 C93.5,43.6428571 91.0714286,44.2142857 88.5,43.6428571 C86.5,43.2142857 85.5,41.8571429 85.3571429,39.5714286 C85.1428571,36 87.8571429,32.2857143 91.2857143,31.3571429 C92.6428571,31 94,31 95.2857143,31.2857143 C96.9285714,31.7142857 98,32.7142857 98.3571429,34.4285714 C98.5,34.8571429 98.3571429,35.0714286 97.9285714,35.0714286 C97.7857143,35.0714286 97.5714286,35.1428571 97.4285714,35.1428571 C96.5714286,35.2857143 95.9285714,35.3571429 95.4285714,34.2142857 C95,33.1428571 93.4285714,32.8571429 91.9285714,33.3571429 C89.4285714,34.0714286 87.4285714,37.4285714 88.0714286,40 C88.3571429,41.1428571 89.3571429,41.7857143 90.7857143,41.7142857 C91.7857143,41.6428571 92.7142857,41.5 93.6428571,41.0714286 C94.4285714,40.7857143 94.2142857,39.8571429 94.6428571,39.1428571 Z M113.785714,43.6428571 C114.357143,41.8571429 114.928571,40.1428571 115.5,38.4285714 C115.642857,38.0714286 115.714286,37.7857143 115.785714,37.4285714 C116,36.6428571 115.5,36.1428571 114.714286,36.3571429 C113.714286,36.5714286 113.071429,37.2142857 112.642857,38.1428571 C112,39.7142857 111.5,41.2857143 111.071429,42.9285714 C110.857143,43.5 110.642857,43.7142857 110,43.7142857 C108.214286,43.6428571 108.214286,43.7142857 108.714286,42 C109.428571,39.7857143 110.142857,37.5714286 110.857143,35.3571429 C111,34.9285714 111.214286,34.7142857 111.642857,34.7857143 C112.214286,34.8571429 112.785714,34.7857143 113.428571,34.7857143 C113.5,35.0714286 113.357143,35.2142857 113.214286,35.4285714 C113.357143,35.5714286 113.5,35.5 113.642857,35.4285714 C114.428571,34.9285714 115.285714,34.5714286 116.285714,34.5714286 C117.285714,34.5714286 118.071429,34.9285714 118.428571,36 C119.5,35.0714286 120.642857,34.5 122.071429,34.5714286 C123.571429,34.6428571 124.357143,35.6428571 124,37.0714286 C123.428571,39.1428571 122.714286,41.2142857 122.071429,43.2857143 C122,43.4285714 122,43.6428571 121.857143,43.6428571 C121.071429,43.6428571 120.285714,43.7142857 119.571429,43.6428571 C119.214286,43.5714286 119.5,43.2142857 119.571429,43.0714286 C120.142857,41.2857143 120.714286,39.5714286 121.285714,37.7857143 C121.428571,37.3571429 121.714286,36.9285714 121.214286,36.5 C120.714286,36.1428571 120.214286,36.2857143 119.785714,36.5 C119,36.8571429 118.5,37.5 118.214286,38.2857143 C117.571429,39.7857143 117.142857,41.4285714 116.642857,43 C116.5,43.5 116.285714,43.7142857 115.714286,43.6428571 C115.071429,43.5714286 114.5,43.6428571 113.785714,43.6428571 Z M134.642857,35.5714286 C135,35.6428571 135.214286,35.3571429 135.428571,35.2142857 C136.357143,34.7142857 137.285714,34.4285714 138.357143,34.5 C139.642857,34.5714286 140.428571,35.4285714 140.285714,36.7857143 C140.071429,38.3571429 139.357143,39.7857143 138.928571,41.3571429 C138.857143,41.5 138.857143,41.6428571 138.785714,41.7857143 C138.142857,43.7142857 138.142857,43.7142857 136.071429,43.6428571 C135.571429,43.6428571 135.571429,43.5 135.714286,43.0714286 C136.285714,41.2857143 136.857143,39.4285714 137.428571,37.6428571 C137.571429,37.2857143 137.642857,36.8571429 137.357143,36.5714286 C137,36.2142857 136.571429,36.2142857 136.142857,36.3571429 C134.928571,36.7142857 134.142857,37.5 133.785714,38.6428571 C133.285714,40.1428571 132.785714,41.6428571 132.285714,43.1428571 C132.142857,43.5 132.071429,43.6428571 131.642857,43.6428571 C131.142857,43.6428571 130.571429,43.6428571 130,43.6428571 C129.5,43.6428571 129.5,43.5 129.642857,43.0714286 C130.5,40.4285714 131.357143,37.8571429 132.142857,35.2142857 C132.285714,34.7857143 132.5,34.6428571 132.928571,34.7142857 C133.285714,34.7857143 133.571429,34.7142857 133.928571,34.7142857 C134.928571,34.7142857 134.928571,34.7142857 134.642857,35.5714286 Z M129.928571,34.7142857 C129.071429,37.2857143 128.285714,39.8571429 127.428571,42.3571429 C127.285714,42.7857143 127.357143,43.4285714 126.928571,43.5714286 C126.214286,43.7142857 125.428571,43.7142857 124.714286,43.6428571 C124.285714,43.5714286 124.571429,43.2142857 124.642857,43 C125.357143,40.8571429 126,38.7142857 126.714286,36.5 C127.285714,34.7142857 127.285714,34.7142857 129.214286,34.7142857 C129.428571,34.7142857 129.642857,34.7142857 129.928571,34.7142857 Z M131,31.3571429 C131,31.5 130.928571,31.5714286 130.928571,31.7142857 C130.357143,33.7142857 130.357143,33.7142857 128.214286,33.5 C127.857143,33.5 127.714286,33.3571429 127.857143,33.0714286 C127.857143,33.0714286 127.857143,33 127.857143,33 C128.428571,31.1428571 128.5,31.1428571 131,31.3571429 Z M151.571429,34.7142857 C152.071429,34.7857143 152.142857,34.9285714 151.928571,35.3571429 C151.428571,36.9285714 150.928571,38.5 150.428571,40.0714286 C150.071429,41.2857143 149.642857,42.4285714 149.285714,43.5714286 C148.357143,46.5 147,47.5714286 143.142857,47.2857143 C142.571429,47.2857143 142.071429,47.1428571 141.571429,46.9285714 C140.642857,46.4285714 140.142857,45.4285714 140.357143,44.4285714 C140.428571,44.1428571 140.571429,44.0714286 140.785714,44.1428571 C141.428571,44.2857143 142.071429,44.3571429 142.714286,44.4285714 C142.928571,44.5 143.142857,44.5714286 143.142857,44.8571429 C143.142857,45.2857143 143.5,45.4285714 143.857143,45.5 C145.071429,45.7857143 146.071429,45.2857143 146.5,44.0714286 C146.642857,43.7142857 146.714286,43.3571429 146.928571,42.7857143 C146,43.3571429 145.285714,43.7142857 144.357143,43.7142857 C142.642857,43.7142857 141.571429,42.9285714 141.357143,41.2142857 C141.142857,39.4285714 142,36.3571429 144.285714,35.1428571 C146.214286,34.0714286 147.857143,34.3571429 149.214286,36.0714286 C149.5,34.7142857 150.428571,34.6428571 151.571429,34.7142857 Z M148.285714,38.5 C148.428571,37.6428571 148.071429,36.7857143 147.5,36.5 C146.857143,36.2142857 146.071429,36.3571429 145.428571,36.9285714 C144.5,37.7857143 144.071429,38.9285714 143.928571,40.1428571 C143.928571,40.7857143 144.071429,41.3571429 144.642857,41.7142857 C145.285714,42.0714286 145.928571,41.9285714 146.5,41.5714286 C147.642857,40.8571429 148.071429,39.7142857 148.285714,38.5 Z M106.5,34.8571429 C107.642857,35.2142857 108.142857,36.2142857 107.642857,37.4285714 C107.285714,38.8571429 106.785714,40.2142857 106.357143,41.6428571 C106.214286,42.2857143 106.142857,42.8571429 106.357143,43.5714286 C105.714286,43.5714286 105.142857,43.5714286 104.642857,43.5714286 C104.071429,43.6428571 103.642857,43.5714286 103.785714,42.7142857 C103.071429,43.1428571 102.428571,43.5714286 101.642857,43.7142857 C100.142857,44 99,43.5 98.5714286,42.2857143 C98.1428571,41 98.8571429,39.3571429 100.142857,38.7857143 C101.071429,38.3571429 102,38.2857143 102.928571,38.2142857 C103.428571,38.2142857 104,38.0714286 104.5,38.0714286 C105.071429,38 105.214286,37.6428571 105.285714,37.1428571 C105.357143,36.6428571 105,36.3571429 104.571429,36.2857143 C103.857143,36.0714286 103.142857,36.2142857 102.642857,36.8571429 C102.357143,37.2142857 102.142857,37.2857143 101.785714,37.2142857 C101.357143,37.1428571 100.857143,37.1428571 100.428571,37.1428571 C100,37.1428571 99.9285714,36.9285714 100.142857,36.5714286 C100.571429,36 101.071429,35.5 101.714286,35.1428571 C103.285714,34.3571429 104.857143,34.2857143 106.5,34.8571429 Z M102.285714,42 C103.571429,41.7857143 104.285714,41 104.428571,39.5714286 C103.5,39.5714286 102.571429,39.7142857 101.714286,40.0714286 C101.214286,40.2857143 100.785714,40.7142857 101,41.3571429 C101.142857,41.9285714 101.714286,42.0714286 102.285714,42 Z" id="形状结合"></path>
                        <path d="M105.428571,28.5714286 C104.714286,28.5714286 104,28.5 103.285714,28.2857143 C102.714286,28.0714286 102.142857,27.7857143 101.785714,27.2857143 C101.5,26.9285714 101.071429,26.4285714 101.214286,26 C101.357143,25.6428571 102,25.7857143 102.357143,25.6428571 C102.571429,25.5714286 102.857143,25.5714286 103.142857,25.5 C103.5,25.4285714 103.642857,25.5 103.857143,25.8571429 C104.428571,26.8571429 106.214286,27.1428571 107.142857,26.3571429 C107.642857,25.9285714 107.571429,25.4285714 106.928571,25.2142857 C106.142857,24.8571429 105.285714,24.6428571 104.5,24.3571429 C103.714286,24.0714286 103,23.6428571 102.928571,22.7142857 C102.785714,21.6428571 103.214286,20.7857143 104.071429,20.2142857 C105.857143,19.0714286 107.785714,19 109.714286,19.6428571 C110.357143,19.8571429 110.785714,20.3571429 111.071429,21 C111.214286,21.4285714 111.214286,21.6428571 110.642857,21.7142857 C110.357143,21.7142857 110.071429,21.7857143 109.785714,21.8571429 C109.214286,22 108.714286,22.0714286 108.285714,21.4285714 C107.857143,20.7857143 106.357143,20.7857143 105.714286,21.2142857 C105.5,21.3571429 105.285714,21.5 105.285714,21.8571429 C105.285714,22.2142857 105.571429,22.3571429 105.785714,22.4285714 C106.5,22.6428571 107.214286,22.8571429 107.928571,23.0714286 C108.928571,23.4285714 109.928571,23.7857143 110.071429,25.0714286 C110.142857,26.3571429 109.428571,27.2142857 108.428571,27.8571429 C107.571429,28.4285714 106.571429,28.5714286 105.428571,28.5714286 Z M112.642857,28.4285714 C111.285714,28.4285714 111.285714,28.4285714 111.714286,27.2142857 C112.5,24.7857143 113.285714,22.4285714 114,20 C114.142857,19.6428571 114.285714,19.4285714 114.714286,19.4285714 C115.357143,19.5 116.285714,19.1428571 116.571429,19.5714286 C116.857143,19.9285714 116.285714,20.7142857 116.142857,21.3571429 C115.5,23.2857143 114.857143,25.2142857 114.285714,27.1428571 C113.928571,28.4285714 113.928571,28.4285714 112.642857,28.4285714 Z M115.857143,18.2857143 C114.571429,18.2857143 114.642857,18.2857143 114.928571,17.0714286 C115.142857,16.0714286 115.714286,16 116.571429,16 C117.928571,16.0714286 117.928571,16 117.5,17.2857143 C117.214286,18.2857143 117.214286,18.2857143 115.857143,18.2857143 Z M99.5714286,27.7857143 C99.6428571,28.3571429 99.4285714,28.4285714 99,28.3571429 C98.7142857,28.3571429 98.5,28.3571429 98.2142857,28.3571429 C97,28.3571429 97,28.3571429 96.9285714,27.1428571 C96.7857143,25.6428571 96.7857143,25.6428571 95.2857143,25.6428571 C94.2857143,25.6428571 93.2142857,25.6428571 92.2142857,25.6428571 C91.8571429,25.6428571 91.5714286,25.7142857 91.4285714,26.0714286 C91.2857143,26.3571429 91,26.5 90.9285714,26.7857143 C90.3571429,28.2857143 89.2142857,28.7142857 87.7857143,28.4285714 C87.5714286,28.3571429 87.2857143,28.5 87.2142857,28.2857143 C87.1428571,28.1428571 87.3571429,27.9285714 87.5,27.7857143 C89.4285714,25.0714286 91.3571429,22.2857143 93.2857143,19.5714286 C93.7857143,18.7857143 94.3571429,18.0714286 94.8571429,17.2857143 C95.3571429,16.4285714 96,15.7142857 96.9285714,16.0714286 C98.7142857,16.0714286 98.7142857,16.0714286 98.8571429,17.5714286 C99.1428571,20.9285714 99.2857143,24.3571429 99.5714286,27.7857143 Z M95.0714286,23.5714286 C96.7857143,23.5714286 96.7857143,23.5714286 96.6428571,21.8571429 C96.5714286,20.8571429 96.6428571,19.8571429 96.4285714,18.7857143 C95.2857143,20.4285714 94.1428571,21.9285714 92.9285714,23.5714286 C93.7857143,23.5714286 94.4285714,23.5714286 95.0714286,23.5714286 Z M124.571429,19.5 C125.785714,19.8571429 126.285714,20.7857143 126.142857,22 C125.857143,23.2857143 125.285714,24.5714286 124.928571,25.8571429 C124.714286,26.5 124.571429,27.1428571 124.642857,27.7857143 C124.714286,28.2857143 124.5,28.4285714 124.071429,28.3571429 C123.785714,28.3571429 123.428571,28.3571429 123.142857,28.3571429 C122.428571,28.4285714 121.928571,28.3571429 122.071429,27.4285714 C121.357143,27.9285714 120.785714,28.2857143 120.142857,28.4285714 C118.642857,28.8571429 117.285714,28.2857143 116.857143,27.0714286 C116.428571,25.7142857 117.142857,24.1428571 118.5,23.5 C119.5,23.0714286 120.642857,23.0714286 121.714286,22.9285714 C122.071429,22.8571429 122.5,22.7857143 122.857143,22.7857143 C123.428571,22.7857143 123.5,22.3571429 123.571429,21.9285714 C123.571429,21.4285714 123.285714,21.1428571 122.857143,21.0714286 C122.071429,20.9285714 121.357143,21 120.857143,21.7142857 C120.642857,22 120.428571,22 120.142857,22 C119.5,21.9285714 118.857143,21.8571429 118.142857,21.7857143 C118.571429,20.7857143 119.285714,20.0714286 120.142857,19.7142857 C121.571429,19.0714286 123.071429,19 124.571429,19.5 Z M120.285714,26.7142857 C121.571429,26.7142857 122.428571,25.8571429 122.714286,24.2142857 C121.714286,24.3571429 120.714286,24.4285714 119.785714,24.8571429 C119.357143,25.1428571 119.071429,25.5 119.214286,26.0714286 C119.357143,26.5714286 119.785714,26.7142857 120.285714,26.7142857 Z" id="形状结合"></path>
                        <path d="M20.6428571,28.5 C22.7857143,25.6428571 24.8571429,22.9285714 27,20 C28.1428571,22.8571429 29.2142857,25.6428571 30.3571429,28.5 C27.0714286,28.5 23.9285714,28.5 20.6428571,28.5 Z" id="路径"></path>
                        <path d="M86.9285714,0.0714285714 C82.6428571,0.0714285714 78.3571429,0.0714285714 74.0714286,0.0714285714 C64.3571429,0.0714285714 54.6428571,0.0714285714 44.9285714,0.0714285714 C44.4285714,0.0714285714 44.1428571,0.142857143 44,0.785714286 C44,0.857142857 44,0.928571429 44,0.928571429 L44,0.928571429 L43.7857143,1.92857143 C43.5714286,3.28571429 43.2857143,4.57142857 43.0714286,5.92857143 C43.0714286,5.92857143 43.0714286,5.92857143 43.0714286,5.92857143 L38.4285714,31 C38.2857143,31.7857143 38.1428571,32.5714286 38,33.4285714 C37.7142857,35.2857143 37.3571429,37.2142857 37,39.0714286 C36.7857143,40.5714286 36.3571429,42.0714286 36.2857143,43.6428571 C36.3571429,43.7857143 36.5,43.8571429 36.6428571,43.9285714 C39.2142857,44.0714286 41.7857143,44 44.3571429,44 C44.5,44 44.5714286,43.9285714 44.7142857,43.9285714 C45.0714286,43.9285714 45.3571429,43.8571429 45.7142857,43.8571429 C56.9285714,43.8571429 68.1428571,43.8571429 79.4285714,43.8571429 C80.0714286,43.8571429 80.2857143,43.7142857 80.4285714,43.0714286 C81.4285714,37.3571429 82.4285714,31.6428571 83.4285714,25.8571429 C84.8571429,17.5714286 86.3571429,9.28571429 87.8571429,1.07142857 C87.8571429,0.0714285714 87.8571429,0.0714285714 86.9285714,0.0714285714 L86.9285714,0.0714285714 Z M77.7142857,16.6428571 L77.7142857,16.6428571 C76.2142857,16.6428571 74.7142857,16.6428571 73.2857143,16.6428571 C73,16.6428571 72.7857143,16.5714286 72.6428571,16.2857143 C70.7142857,12.0714286 66,10.3571429 61.2857143,11.5714286 C56,12.9285714 51.7857143,17.5714286 51.2142857,23 C50.5714286,28.8571429 54.7142857,33.2857143 60.4285714,33.2857143 C64.5,33.2142857 67.7857143,31.4285714 70.4285714,28.4285714 C70.5,28.3571429 70.5714286,28.2857143 70.5714286,28.2142857 C70.5714286,28.1428571 70.5714286,28.1428571 70.5714286,28.0714286 C70.3571429,27.9285714 70.0714286,28 69.7857143,28 C67.2857143,28 64.8571429,28 62.3571429,28 C61.7857143,28 61.6428571,27.7857143 61.7857143,27.2857143 C62,26.0714286 62.2142857,24.8571429 62.4285714,23.5714286 C62.5,23.1428571 62.6428571,22.9285714 63.1428571,22.9285714 C67.6428571,22.9285714 72.1428571,22.9285714 76.6428571,22.9285714 C77.1428571,22.9285714 77.2857143,23.0714286 77.2142857,23.5714286 C77,24.6428571 76.7857143,25.7857143 76.6428571,26.8571429 C76.4285714,28.5714286 75.2857143,29.7857143 74.2857143,31 C71.1428571,34.7142857 67.2857143,37.2142857 62.4285714,38 C56.8571429,38.9285714 51.9285714,37.5714286 48.4285714,32.7857143 C46.0714286,29.5714286 45.5714286,25.8571429 46.3571429,22 C48,14.0714286 54.4285714,7.78571429 62.3571429,6.42857143 C66.7857143,5.64285714 70.9285714,6.5 74.4285714,9.57142857 C76.3571429,11.2857143 77.5714286,13.5 78.2142857,16 C78.2857143,16.4285714 78.2142857,16.6428571 77.7142857,16.6428571 Z" id="形状"></path>
                        <path d="M33.6428571,46 L34.8571429,39.7142857 L35,39.7142857 C34.3571429,38.0714286 33.7142857,36.4285714 33,34.7142857 C32.5,33.4285714 32.5,33.4285714 31.1428571,33.4285714 C26.7857143,33.4285714 22.4285714,33.4285714 18.0714286,33.4285714 C17.0714286,33.4285714 16.5,33.7857143 15.9285714,34.5 C13.9285714,37.2857143 11.7857143,40 9.78571429,42.7142857 C9.35714286,43.2857143 8.92857143,43.5714286 8.21428571,43.5 C7.07142857,43.4285714 5.85714286,43.5 4.71428571,43.5 C4.5,43.5 4.28571429,43.5714286 4,43.3571429 C12.2142857,32.4285714 20.4285714,21.4285714 28.6428571,10.5 C28.8571429,10.6428571 28.9285714,10.8571429 28.9285714,11 C31.5,17.4285714 34,23.7857143 36.5714286,30.2142857 L41.0714286,6 C33.7857143,6 26.4285714,6 19.1428571,6 C15.5714286,6 11.9285714,6 8.35714286,6 C7.92857143,6 7.64285714,6 7.57142857,6.57142857 C6.42857143,13.2857143 5.21428571,19.9285714 4.07142857,26.6428571 C2.78571429,34.0714286 1.42857143,41.5714286 0.142857143,49 C-2.03309591e-14,49.6428571 0.142857143,49.7857143 0.857142857,49.7857143 C14.9285714,49.7857143 29,49.7857143 43.1428571,49.7857143 C43.3571429,49.7857143 43.6428571,49.9285714 43.8571429,49.6428571 C44.0714286,48.4285714 44.2857143,47.2142857 44.5,46 L33.6428571,46 Z" id="路径"></path>
                    </g>
                </g>
            </g>
        </g>
    </g>
</svg>