<?xml version="1.0" encoding="UTF-8"?>
<svg width="110px" height="44px" viewBox="0 0 110 44" version="1.1" xmlns="http://www.w3.org/2000/svg" xmlns:xlink="http://www.w3.org/1999/xlink">
    <!-- Generator: Sketch 54 (76480) - https://sketchapp.com -->
    <title>bw_logo_gold@1x</title>
    <desc>Created with Sketch.</desc>
    <g id="页面1" stroke="none" stroke-width="1" fill="none" fill-rule="evenodd">
        <g id="3_交互" transform="translate(-905.000000, -20.000000)" fill="#E0C9B2">
            <g id="top_banner_hidden">
                <path d="M954.607843,26.4719254 C956.036925,27.7107185 958.487401,26.3317386 959.277071,28.1066031 L962.296718,34.8895678 L966.024569,28.0669073 C966.0615,28.0043239 966.108569,27.9456744 966.152741,27.8948924 C966.385913,27.6252475 966.626326,27.4460803 967.005411,27.3166221 C968.35701,26.854578 969.651403,27.467895 970.784314,26.4390244 L962.092511,42.3473601 C961.527323,43.2778854 960.237637,43.150573 959.174606,43.1384139 C958.161178,43.1266125 957.878403,43.414496 957.532266,43.6097561 L959.926259,39.2507348 L961.865857,35.692423 C961.623995,35.5196929 961.288358,35.3845129 960.864377,35.3251481 C959.739432,35.1670803 958.616297,35.146696 957.945747,33.9694134 L954.607843,26.4719254 Z M1007.9902,30.3006786 C1005.79565,30.3006786 1004.01592,31.935365 1004.01592,33.9510508 C1004.01592,35.9674115 1005.79565,37.6020979 1007.9902,37.6020979 C1010.18475,37.6020979 1011.96483,35.9674115 1011.96483,33.9510508 C1011.96483,31.935365 1010.18475,30.3006786 1007.9902,30.3006786 Z M1007.9902,27.5121951 C1011.86103,27.5121951 1015,30.3958441 1015,33.9510508 C1015,37.5069324 1011.86103,40.3902439 1007.9902,40.3902439 C1004.11936,40.3902439 1000.98039,37.5069324 1000.98039,33.9510508 C1000.98039,30.3958441 1004.11936,27.5121951 1007.9902,27.5121951 Z M977.783507,27.5121951 C980.960714,27.5121951 983.643815,29.4614001 984.497979,32.1304205 C984.748038,32.9119923 984.803922,33.6382196 984.803922,34.4221536 L984.803922,40.2353469 L981.781631,40.2353469 L981.781631,39.2357719 L981.781631,34.9836974 C981.781631,34.4167542 981.798255,33.7870422 981.670926,33.2153744 C981.300611,31.5520034 979.700866,30.3006786 977.783507,30.3006786 C975.592391,30.3006786 973.815093,31.935365 973.815093,33.9510508 C973.815093,35.967074 975.592391,37.6017604 977.783507,37.6017604 C977.956816,37.6017604 978.128002,37.5916365 978.295298,37.571726 C978.30697,37.5703761 978.318995,37.5690262 978.331021,37.5673389 C978.35012,37.5649766 978.368866,37.5626144 978.387965,37.5599146 L978.388672,37.5595772 C978.680821,37.5184063 978.962713,37.4478758 979.230104,37.3513605 C980.006102,37.0898242 980.620463,36.6889143 980.995022,36.4027429 L980.995022,36.4169165 C980.863803,36.6153467 980.689433,36.8610221 980.563519,37.1309951 C980.423811,37.4323524 980.369696,37.7900666 980.378539,38.0175188 C980.400821,38.585137 980.420981,38.9900965 980.019542,39.4827972 C979.321002,40.3402989 978.009869,40.3878816 977.809326,40.3902439 L977.808973,40.3902439 L977.783507,40.3902439 C973.918724,40.3902439 970.784314,37.5069324 970.784314,33.9510508 C970.784314,30.3955066 973.918724,27.5121951 977.783507,27.5121951 Z M992.821934,27.2436581 C996.73114,27.2436581 999.901961,30.4279422 999.901961,34.3537174 C999.901961,38.2798546 996.73114,41.4634146 992.821934,41.4634146 C990.658225,41.4634146 988.721525,40.4887594 987.423439,38.9521929 C986.731636,38.1346701 985.722091,37.077104 986.231035,35.9025937 C986.414589,35.4786259 986.489679,35.053572 986.49246,34.6513276 C986.500456,33.4453184 985.886525,32.2519812 985.886525,32.2519812 L987.534684,34.2519796 C988.357547,35.2501685 989.008328,36.2505297 989.860392,37.1582046 C990.092268,37.4047648 990.354388,37.6227226 990.640843,37.805561 L990.641538,37.8062851 L990.641538,37.8059231 C991.271461,38.2081675 992.019582,38.4416937 992.821934,38.4416937 C995.069771,38.4416937 996.892445,36.6111377 996.892445,34.3537174 C996.892445,32.0962971 995.069771,30.2661031 992.821934,30.2661031 C990.917912,30.2661031 989.350753,31.4442339 988.957225,33.0293159 L987.579529,31.3577025 L987.114388,30.7936189 L985.882353,29.2983269 L985.882353,23.5622708 C985.882353,21.8957262 986.587366,21.7737132 987.697031,21.2422148 C988.482349,20.8664004 988.766023,20 988.766023,20 L988.766023,28.5260611 C989.914972,27.7179517 991.313178,27.2436581 992.821934,27.2436581 Z M926.14905,37.7363961 L928.190732,36.6869259 L928.43561,34.9364097 L926.812691,33.8540561 L925.014859,34.2070279 L924.73054,36.5511945 L924.731911,36.5504948 L926.14905,37.7363961 Z M929.817767,34.4784908 L929.621933,32.5313738 C929.364365,32.348766 928.779949,31.9408719 928.435267,31.7390238 L926.817836,32.1332748 L926.84836,33.6630525 L928.612238,34.8391588 L929.817767,34.4784908 Z M926.033471,39.1738205 L927.552814,39.9563754 L929.119486,38.9796685 L929.402777,37.6398449 L928.2703,36.8478447 L926.191921,37.9165552 L926.033471,39.1738205 Z M923.881697,33.2124799 L922.422373,34.3144237 L922.422373,36.0236608 L923.528784,37.3442441 L924.536763,36.6785302 L924.839603,34.1884872 L923.881697,33.2124799 Z M924.928088,31.7967447 L924.909225,31.8047906 L924.657831,31.0456738 C923.521238,31.5616633 922.613748,32.5068862 922.13188,33.6794942 L922.404881,34.1041798 L923.755828,33.0837449 L923.747597,33.0742997 L924.928088,31.7967447 Z M925.071106,31.7320273 L925.070763,31.7323771 L926.798973,31.9520662 L928.182501,31.6148365 L928.120767,30.8494229 C927.654675,30.6989988 927.158059,30.6171402 926.643266,30.6171402 C925.997802,30.6171402 925.380462,30.7448257 924.816624,30.9774583 L925.071106,31.7320273 Z M930.672097,36.0999223 L930.679299,36.047099 L931.493503,36.2349541 C931.519225,36.0282085 931.532601,35.8179646 931.532601,35.6042225 C931.532601,34.3619996 931.086401,33.2264729 930.350394,32.3522642 L929.805763,32.5978402 L929.989936,34.4274166 L929.994395,34.426717 L930.672097,36.0999223 Z M931.468466,36.4126644 L930.708452,36.233205 L930.691646,36.3608905 L930.638143,36.3538941 L930.647404,36.2853287 L929.592437,37.5975163 L929.289255,39.0286438 L929.90831,39.259877 L929.948437,39.2787675 C930.737604,38.5392408 931.288066,37.5394456 931.468466,36.4126644 Z M923.933828,39.7548772 L924.187623,39.2423859 L923.537358,37.6328484 L922.37813,36.2475478 L921.861622,36.6473959 C922.131537,37.9392937 922.891208,39.0450855 923.933828,39.7548772 Z M924.096051,39.8237924 L923.945831,39.7629231 C924.718879,40.2862589 925.646261,40.5913049 926.643266,40.5913049 C926.843558,40.5913049 927.040421,40.5787113 927.234883,40.5542236 L927.412883,40.0854603 L925.883937,39.2983576 L924.320008,39.3665732 L924.096051,39.8237924 Z M926.643266,30.4096949 C929.455937,30.4096949 931.73598,32.7356707 931.73598,35.6042225 C931.73598,38.4724246 929.455937,40.7987502 926.643266,40.7987502 C923.830937,40.7987502 921.550894,38.4724246 921.550894,35.6042225 C921.550894,32.7356707 923.830937,30.4096949 926.643266,30.4096949 Z M926.647724,30.0000517 C923.61967,30.0000517 921.16437,32.5047872 921.16437,35.593378 C921.16437,38.6819688 923.61967,41.1863545 926.647724,41.1863545 C929.675778,41.1863545 932.131764,38.6819688 932.131764,35.593378 C932.131764,32.5047872 929.675778,30.0000517 926.647724,30.0000517 Z M922.316739,42.1948954 C921.522771,41.6824041 919.565116,40.5468773 919.304461,39.3910608 C919.304461,40.7718138 919.308577,42.1448706 919.308577,43.5231748 C919.243413,44.8213694 920.418417,45.5871329 920.418417,45.5871329 C920.937669,46.010769 921.761476,46.4889776 922.498854,47.0696844 C923.649851,47.9767765 924.105311,48.803759 924.105311,50.2467805 L924.105311,55.4066757 L924.785757,55.4066757 L926.063309,55.4066757 L926.14905,55.4066757 L926.14905,49.784314 C926.155224,48.1086599 926.137047,46.4826808 926.063309,45.5871329 C926.002261,44.8486557 925.686731,44.4215213 925.219953,44.0640018 C924.333384,43.386044 923.247894,42.7955421 922.316739,42.1948954 Z M931.106636,42.1948954 C930.175481,42.7955421 929.089991,43.386044 928.203422,44.0640018 C927.736644,44.4215213 927.421114,44.8486557 927.360409,45.5871329 C927.286328,46.4826808 927.268151,48.1086599 927.274325,49.784314 L927.274325,55.4066757 L927.360409,55.4066757 L928.637275,55.4066757 L929.318064,55.4066757 L929.318064,50.2467805 C929.318064,48.803759 929.773181,47.9767765 930.924521,47.0696844 C931.661899,46.4889776 932.486049,46.010769 933.005301,45.5871329 C933.005301,45.5871329 934.179962,44.8213694 934.114798,43.5231748 C934.114798,42.1448706 934.118914,40.7718138 934.118914,39.3910608 C933.858602,40.5468773 931.900604,41.6824041 931.106636,42.1948954 Z M912.373787,25.9952734 L920.069277,25.9952734 L925.510446,20.4449754 C926.092804,19.8516749 927.044537,19.8516749 927.626552,20.4449754 L933.067721,25.9952734 L940.763211,25.9952734 C941.585645,25.9952734 942.259232,26.6819767 942.259232,27.5215529 L942.259232,35.3705405 L947.700744,40.9204887 C948.282759,41.514139 948.282759,42.4852488 947.700744,43.0785493 L942.259232,48.6291971 L942.259232,56.4781847 C942.259232,57.3177609 941.585645,58.0044642 940.763211,58.0044642 L933.067721,58.0044642 L927.626552,63.5547623 C927.044537,64.1484126 926.092804,64.1484126 925.510446,63.5547623 L920.069277,58.0044642 L912.373787,58.0044642 C911.55101,58.0044642 910.877766,57.3177609 910.877766,56.4781847 L910.877766,48.6291971 L905.436254,43.0785493 C904.854582,42.4852488 904.854582,41.514139 905.436254,40.9204887 L910.877766,35.3705405 L910.877766,27.5215529 C910.877766,26.6819767 911.55101,25.9952734 912.373787,25.9952734 Z M970.083588,57.9651568 L956.764706,57.9651568 L956.764706,56.8501742 L960.702462,56.8501742 L960.702462,47.7073171 L957.112155,47.7073171 L957.112155,46.4808362 L969.736139,46.4808362 L969.736139,47.7073171 L966.145832,47.7073171 L966.145832,56.8501742 L970.083588,56.8501742 L970.083588,57.9651568 Z M964.350678,56.8501742 L964.350678,47.7073171 L962.497616,47.7073171 L962.497616,56.8501742 L964.350678,56.8501742 Z M959.949656,54.5644599 L958.444043,54.5644599 C957.942172,53.2264808 957.536815,51.4425087 957.227971,49.2125436 L958.907309,49.2125436 C959.023125,51.14518 959.370574,52.9291521 959.949656,54.5644599 Z M968.346343,54.5644599 L966.898638,54.5644599 C967.47772,52.9291521 967.825169,51.14518 967.940985,49.2125436 L969.562415,49.2125436 C969.330782,51.2195122 968.925425,53.0034843 968.346343,54.5644599 Z M977.264203,53.7839721 L975.700682,53.7839721 L975.700682,48.3763066 L979.175173,48.3763066 L979.175173,47.7073171 L975.237417,47.7073171 L975.237417,46.7595819 L979.175173,46.7595819 L979.175173,45.7560976 L980.854511,45.7560976 L980.854511,46.7595819 L982.128491,46.7595819 L982.128491,45.8675958 L983.692012,45.8675958 L983.692012,46.7595819 L984.850175,46.7595819 L984.850175,47.7073171 L980.854511,47.7073171 L980.854511,48.3763066 L984.271093,48.3763066 L984.271093,53.7839721 L982.707572,53.7839721 L982.707572,52.9477352 L980.854511,52.9477352 L980.854511,53.728223 L979.175173,53.728223 L979.175173,52.9477352 L977.264203,52.9477352 L977.264203,53.7839721 Z M974.310886,58.6341463 L972.57364,58.6341463 L972.57364,49.9372822 L971.473385,49.9372822 L971.473385,48.7665505 L972.57364,48.7665505 L972.57364,45.7560976 L974.310886,45.7560976 L974.310886,48.7665505 L975.237417,48.7665505 L975.237417,49.9372822 L974.310886,49.9372822 L974.310886,58.6341463 Z M979.175173,50.1602787 L979.175173,49.3240418 L977.264203,49.3240418 L977.264203,50.1602787 L979.175173,50.1602787 Z M982.707572,50.1602787 L982.707572,49.3240418 L980.854511,49.3240418 L980.854511,50.1602787 L982.707572,50.1602787 Z M979.175173,52.0557491 L979.175173,51.0522648 L977.264203,51.0522648 L977.264203,52.0557491 L979.175173,52.0557491 Z M982.707572,52.0557491 L982.707572,51.0522648 L980.854511,51.0522648 L980.854511,52.0557491 L982.707572,52.0557491 Z M981.491501,58.466899 L980.159612,58.466899 L980.159612,57.3519164 L980.854511,57.3519164 C981.394987,57.3890825 981.645922,57.1660859 981.607317,56.6829268 L981.607317,55.5121951 L974.947876,55.5121951 L974.947876,54.4529617 L981.607317,54.4529617 L981.607317,53.8397213 L983.344562,53.8397213 L983.344562,54.4529617 L985.0239,54.4529617 L985.0239,55.5121951 L983.344562,55.5121951 L983.344562,56.7944251 C983.383168,57.9465738 982.765481,58.504065 981.491501,58.466899 Z M978.827724,57.7421603 L977.090479,57.7421603 C976.974662,57.1475029 976.762332,56.5342625 976.453489,55.902439 L978.01701,55.902439 C978.403064,56.4970964 978.673302,57.1103368 978.827724,57.7421603 Z M996.431812,55.2891986 L994.984108,55.2891986 L994.984108,54.1184669 L995.736914,54.1184669 C996.315996,54.155633 996.586234,53.8768873 996.547629,53.28223 L996.547629,48.0418118 L990.004004,48.0418118 C989.231895,48.8966318 988.035125,49.5098722 986.413696,49.8815331 L986.413696,48.8780488 C987.880704,48.2833914 988.807235,47.261324 989.193289,45.8118467 L991.162167,45.8118467 C991.046351,46.1835075 990.911232,46.5180023 990.75681,46.815331 L998.458599,46.815331 L998.458599,53.28223 C998.497204,54.6202091 997.821609,55.2891986 996.431812,55.2891986 Z M997.589976,58.2439024 L989.888187,58.2439024 C988.536996,58.2810685 987.880704,57.6678281 987.919309,56.4041812 L987.919309,49.5470383 L994.636658,49.5470383 L994.636658,52.5017422 C994.675264,53.8025552 994.038274,54.4343786 992.725688,54.3972125 L989.772371,54.3972125 L989.772371,56.1811847 C989.733765,56.8501742 990.061912,57.1660859 990.75681,57.1289199 L997.184619,57.1289199 C997.802306,57.1660859 998.091847,56.9059233 998.053241,56.3484321 L998.053241,55.8466899 L999.558854,55.8466899 L999.558854,56.4599303 C999.59746,57.6864111 998.941167,58.2810685 997.589976,58.2439024 Z M992.146606,53.2264808 C992.725688,53.2264808 992.995927,52.9849013 992.957321,52.5017422 L992.957321,50.71777 L989.772371,50.71777 L989.772371,53.2264808 L992.146606,53.2264808 Z M1011.77748,58.466899 L1010.79304,58.466899 L1010.79304,57.2961672 L1011.31422,57.2961672 C1011.9319,57.3333333 1012.22144,57.0731707 1012.18284,56.5156794 L1012.18284,47.6515679 L1003.61243,47.6515679 L1003.61243,58.466899 L1001.87518,58.466899 L1001.87518,46.4250871 L1013.92008,46.4250871 L1013.92008,56.4599303 C1013.95869,57.8350755 1013.24449,58.504065 1011.77748,58.466899 Z M1007.83972,56.8501742 C1007.10622,55.9581882 1006.46923,55.1405343 1005.92875,54.3972125 C1005.50409,55.1405343 1004.88641,55.9581882 1004.07569,56.8501742 L1004.07569,55.4006969 C1004.61617,54.583043 1005.04083,53.8583043 1005.34967,53.2264808 C1004.73199,51.9628339 1004.28802,50.3461092 1004.01778,48.3763066 L1005.23386,48.3763066 C1005.46549,49.6399535 1005.71642,50.71777 1005.98666,51.6097561 C1006.17969,51.0150987 1006.39202,50.0116144 1006.62365,48.5993031 C1006.62365,48.6736353 1006.64296,48.5993031 1006.68156,48.3763066 L1007.89763,48.3763066 C1007.55018,50.5319396 1007.10622,52.1486643 1006.56574,53.2264808 C1006.91319,53.8954704 1007.33785,54.6202091 1007.83972,55.4006969 L1007.83972,56.8501742 Z M1011.71957,56.8501742 C1010.90886,55.9953542 1010.29117,55.1591173 1009.86651,54.3414634 C1009.48046,55.0847851 1008.88207,55.9210221 1008.07136,56.8501742 L1008.07136,55.4006969 C1008.10996,55.3635308 1008.14857,55.3077816 1008.18717,55.2334495 C1008.68904,54.3414634 1009.0558,53.6724739 1009.28743,53.2264808 C1008.70835,51.8885017 1008.28369,50.271777 1008.01345,48.3763066 L1009.17161,48.3763066 C1009.36464,49.6399535 1009.59627,50.7363531 1009.86651,51.6655052 C1010.17535,50.6620209 1010.40699,49.5842044 1010.56141,48.4320557 L1011.77748,48.4320557 C1011.43003,50.5505226 1010.98607,52.1486643 1010.44559,53.2264808 C1010.79304,53.8954704 1011.2177,54.6202091 1011.71957,55.4006969 L1011.71957,56.8501742 Z" id="bw_logo_gold"></path>
            </g>
        </g>
    </g>
</svg>