<?xml version="1.0" encoding="UTF-8"?>
<svg width="389px" height="86px" viewBox="0 0 389 86" version="1.1" xmlns="http://www.w3.org/2000/svg" xmlns:xlink="http://www.w3.org/1999/xlink">
    <!-- Generator: Sketch 54 (76480) - https://sketchapp.com -->
    <title>casino_title</title>
    <desc>Created with Sketch.</desc>
    <g id="页面1" stroke="none" stroke-width="1" fill="none" fill-rule="evenodd">
        <g id="画板复制-2" transform="translate(-1821.000000, -349.000000)" fill="#FFFFFF" fill-rule="nonzero">
            <g id="矩形-4" transform="translate(1739.000000, 139.000000)">
                <path d="M82.686,295 L82.686,211.677 L99.37,211.677 L99.37,280.838 L116.539,280.838 L116.539,295 L82.686,295 Z M117.509,295 L117.509,211.677 L133.611,211.677 L133.611,295 L117.509,295 Z M145.057,295 L134.775,211.58 L150.683,211.58 L156.794,268.325 L162.226,211.58 L178.134,211.58 L167.852,295 L145.057,295 Z M179.977,295 L179.977,211.677 L213.345,211.677 L213.345,227.779 L196.952,227.779 L196.952,243.978 L212.666,243.978 L212.666,259.692 L196.952,259.692 L196.952,278.801 L214.412,278.801 L214.412,295 L179.977,295 Z M256.219,295.776 C250.140303,295.776 245.274185,293.868352 241.6205,290.053 C237.966815,286.237648 236.14,280.9997 236.14,274.339 L236.14,235.927 C236.14,227.649625 237.788984,221.409354 241.087,217.206 C244.385016,213.002646 249.558298,210.901 256.607,210.901 C262.750364,210.901 267.697315,212.582317 271.448,215.945 C275.198685,219.307683 277.074,224.157635 277.074,230.495 L277.074,244.851 L260.487,244.851 L260.487,232.532 C260.487,230.139321 260.196003,228.490338 259.614,227.585 C259.031997,226.679662 258.029674,226.227 256.607,226.227 C255.119659,226.227 254.101169,226.744328 253.5515,227.779 C253.001831,228.813672 252.727,230.333323 252.727,232.338 L252.727,274.145 C252.727,276.343678 253.05033,277.944162 253.697,278.9465 C254.34367,279.948838 255.31366,280.45 256.607,280.45 C259.19368,280.45 260.487,278.348354 260.487,274.145 L260.487,259.11 L277.268,259.11 L277.268,274.824 C277.268,288.79207 270.251737,295.776 256.219,295.776 Z M277.656,295 L285.707,211.677 L313.934,211.677 L321.888,295 L306.077,295 L304.913,281.517 L294.825,281.517 L293.855,295 L277.656,295 Z M296.086,268.228 L303.652,268.228 L299.966,225.839 L299.19,225.839 L296.086,268.228 Z M343.81,295.776 C336.243962,295.776 330.779683,293.900685 327.417,290.15 C324.054317,286.399315 322.373,280.353042 322.373,272.011 L322.373,263.863 L338.766,263.863 L338.766,274.242 C338.766,278.380687 340.091653,280.45 342.743,280.45 C344.230341,280.45 345.264997,280.013504 345.847,279.1405 C346.429003,278.267496 346.72,276.796344 346.72,274.727 C346.72,272.010986 346.39667,269.763842 345.75,267.9855 C345.10333,266.207158 344.278838,264.719839 343.2765,263.5235 C342.274162,262.327161 340.47968,260.468013 337.893,257.946 L330.715,250.768 C325.153639,245.335973 322.373,239.322033 322.373,232.726 C322.373,225.612631 324.005817,220.196852 327.2715,216.4785 C330.537183,212.760148 335.306302,210.901 341.579,210.901 C349.080371,210.901 354.479984,212.88948 357.778,216.8665 C361.076016,220.84352 362.725,227.067624 362.725,235.539 L345.75,235.539 L345.653,229.816 C345.653,228.716661 345.345836,227.84367 344.7315,227.197 C344.117164,226.55033 343.260339,226.227 342.161,226.227 C340.86766,226.227 339.89767,226.582663 339.251,227.294 C338.60433,228.005337 338.281,228.975327 338.281,230.204 C338.281,232.920014 339.832984,235.732985 342.937,238.643 L352.637,247.955 C354.900345,250.153678 356.775659,252.239157 358.263,254.2115 C359.750341,256.183843 360.946662,258.51182 361.852,261.1955 C362.757338,263.87918 363.21,267.063982 363.21,270.75 C363.21,278.962708 361.706515,285.186812 358.6995,289.4225 C355.692485,293.658188 350.729368,295.776 343.81,295.776 Z M365.053,295 L365.053,211.677 L381.155,211.677 L381.155,295 L365.053,295 Z M384.938,295 L384.938,211.677 L402.107,211.677 L409.77,251.544 L409.77,211.677 L425.872,211.677 L425.872,295 L409.576,295 L401.234,253.29 L401.234,295 L384.938,295 Z M450.219,295.776 C443.493633,295.776 438.385017,293.722854 434.893,289.6165 C431.400983,285.510146 429.655,279.738704 429.655,272.302 L429.655,232.629 C429.655,225.450964 431.400983,220.035185 434.893,216.3815 C438.385017,212.727815 443.493633,210.901 450.219,210.901 C456.944367,210.901 462.052983,212.727815 465.545,216.3815 C469.037017,220.035185 470.783,225.450964 470.783,232.629 L470.783,272.302 C470.783,279.803371 469.037017,285.59098 465.545,289.665 C462.052983,293.73902 456.944367,295.776 450.219,295.776 Z M450.219,280.45 C451.706341,280.45 452.708664,279.80334 453.226,278.51 C453.743336,277.21666 454.002,275.406012 454.002,273.078 L454.002,232.338 C454.002,230.527324 453.759502,229.056172 453.2745,227.9245 C452.789498,226.792828 451.803341,226.227 450.316,226.227 C447.535319,226.227 446.145,228.328646 446.145,232.532 L446.145,273.175 C446.145,275.567679 446.435997,277.378327 447.018,278.607 C447.600003,279.835673 448.666992,280.45 450.219,280.45 Z" id="casino_title"></path>
            </g>
        </g>
    </g>
</svg>