<?xml version="1.0" encoding="UTF-8"?>
<svg width="464px" height="86px" viewBox="0 0 464 86" version="1.1" xmlns="http://www.w3.org/2000/svg" xmlns:xlink="http://www.w3.org/1999/xlink">
    <!-- Generator: Sketch 54 (76480) - https://sketchapp.com -->
    <title>CHESSGAMES</title>
    <desc>Created with Sketch.</desc>
    <g id="页面1" stroke="none" stroke-width="1" fill="none" fill-rule="evenodd">
        <g id="画板复制-2" transform="translate(-5141.000000, -345.000000)" fill="#FFFFFF" fill-rule="nonzero">
            <g id="矩形-4复制-6" transform="translate(5059.000000, 135.000000)">
                <path d="M102.086,295.776 C96.0073029,295.776 91.1411849,293.868352 87.4875,290.053 C83.8338151,286.237648 82.007,280.9997 82.007,274.339 L82.007,235.927 C82.007,227.649625 83.6559835,221.409354 86.954,217.206 C90.2520165,213.002646 95.4252981,210.901 102.474,210.901 C108.617364,210.901 113.564315,212.582317 117.315,215.945 C121.065685,219.307683 122.941,224.157635 122.941,230.495 L122.941,244.851 L106.354,244.851 L106.354,232.532 C106.354,230.139321 106.063003,228.490338 105.481,227.585 C104.898997,226.679662 103.896674,226.227 102.474,226.227 C100.986659,226.227 99.9681694,226.744328 99.4185,227.779 C98.8688306,228.813672 98.594,230.333323 98.594,232.338 L98.594,274.145 C98.594,276.343678 98.9173301,277.944162 99.564,278.9465 C100.21067,279.948838 101.18066,280.45 102.474,280.45 C105.06068,280.45 106.354,278.348354 106.354,274.145 L106.354,259.11 L123.135,259.11 L123.135,274.824 C123.135,288.79207 116.118737,295.776 102.086,295.776 Z M125.754,295 L125.754,211.677 L142.341,211.677 L142.341,241.456 L150.198,241.456 L150.198,211.677 L166.785,211.677 L166.785,295 L150.198,295 L150.198,257.17 L142.341,257.17 L142.341,295 L125.754,295 Z M171.247,295 L171.247,211.677 L204.615,211.677 L204.615,227.779 L188.222,227.779 L188.222,243.978 L203.936,243.978 L203.936,259.692 L188.222,259.692 L188.222,278.801 L205.682,278.801 L205.682,295 L171.247,295 Z M228.089,295.776 C220.522962,295.776 215.058683,293.900685 211.696,290.15 C208.333317,286.399315 206.652,280.353042 206.652,272.011 L206.652,263.863 L223.045,263.863 L223.045,274.242 C223.045,278.380687 224.370653,280.45 227.022,280.45 C228.509341,280.45 229.543997,280.013504 230.126,279.1405 C230.708003,278.267496 230.999,276.796344 230.999,274.727 C230.999,272.010986 230.67567,269.763842 230.029,267.9855 C229.38233,266.207158 228.557838,264.719839 227.5555,263.5235 C226.553162,262.327161 224.75868,260.468013 222.172,257.946 L214.994,250.768 C209.432639,245.335973 206.652,239.322033 206.652,232.726 C206.652,225.612631 208.284817,220.196852 211.5505,216.4785 C214.816183,212.760148 219.585302,210.901 225.858,210.901 C233.359371,210.901 238.758984,212.88948 242.057,216.8665 C245.355016,220.84352 247.004,227.067624 247.004,235.539 L230.029,235.539 L229.932,229.816 C229.932,228.716661 229.624836,227.84367 229.0105,227.197 C228.396164,226.55033 227.539339,226.227 226.44,226.227 C225.14666,226.227 224.17667,226.582663 223.53,227.294 C222.88333,228.005337 222.56,228.975327 222.56,230.204 C222.56,232.920014 224.111984,235.732985 227.216,238.643 L236.916,247.955 C239.179345,250.153678 241.054659,252.239157 242.542,254.2115 C244.029341,256.183843 245.225662,258.51182 246.131,261.1955 C247.036338,263.87918 247.489,267.063982 247.489,270.75 C247.489,278.962708 245.985515,285.186812 242.9785,289.4225 C239.971485,293.658188 235.008368,295.776 228.089,295.776 Z M269.896,295.776 C262.329962,295.776 256.865683,293.900685 253.503,290.15 C250.140317,286.399315 248.459,280.353042 248.459,272.011 L248.459,263.863 L264.852,263.863 L264.852,274.242 C264.852,278.380687 266.177653,280.45 268.829,280.45 C270.316341,280.45 271.350997,280.013504 271.933,279.1405 C272.515003,278.267496 272.806,276.796344 272.806,274.727 C272.806,272.010986 272.48267,269.763842 271.836,267.9855 C271.18933,266.207158 270.364838,264.719839 269.3625,263.5235 C268.360162,262.327161 266.56568,260.468013 263.979,257.946 L256.801,250.768 C251.239639,245.335973 248.459,239.322033 248.459,232.726 C248.459,225.612631 250.091817,220.196852 253.3575,216.4785 C256.623183,212.760148 261.392302,210.901 267.665,210.901 C275.166371,210.901 280.565984,212.88948 283.864,216.8665 C287.162016,220.84352 288.811,227.067624 288.811,235.539 L271.836,235.539 L271.739,229.816 C271.739,228.716661 271.431836,227.84367 270.8175,227.197 C270.203164,226.55033 269.346339,226.227 268.247,226.227 C266.95366,226.227 265.98367,226.582663 265.337,227.294 C264.69033,228.005337 264.367,228.975327 264.367,230.204 C264.367,232.920014 265.918984,235.732985 269.023,238.643 L278.723,247.955 C280.986345,250.153678 282.861659,252.239157 284.349,254.2115 C285.836341,256.183843 287.032662,258.51182 287.938,261.1955 C288.843338,263.87918 289.296,267.063982 289.296,270.75 C289.296,278.962708 287.792515,285.186812 284.7855,289.4225 C281.778485,293.658188 276.815368,295.776 269.896,295.776 Z M328.872,295.776 C322.85797,295.776 318.379848,293.658188 315.4375,289.4225 C312.495152,285.186812 311.024,278.76871 311.024,270.168 L311.024,234.278 C311.024,226.582628 312.73765,220.762686 316.165,216.818 C319.59235,212.873314 324.700966,210.901 331.491,210.901 C336.987694,210.901 341.255651,212.000322 344.295,214.199 C347.334349,216.397678 349.435994,219.598646 350.6,223.802 C351.764006,228.005354 352.346,233.404967 352.346,240.001 L336.05,240.001 L336.05,232.532 C336.05,230.527323 335.775169,228.975339 335.2255,227.876 C334.675831,226.776661 333.689674,226.227 332.267,226.227 C329.098317,226.227 327.514,228.296313 327.514,232.435 L327.514,272.787 C327.514,275.309013 327.83733,277.21666 328.484,278.51 C329.13067,279.80334 330.262325,280.45 331.879,280.45 C333.495675,280.45 334.62733,279.80334 335.274,278.51 C335.92067,277.21666 336.244,275.309013 336.244,272.787 L336.244,260.856 L331.782,260.856 L331.782,246.5 L352.152,246.5 L352.152,295 L345.459,295 L342.646,288.016 C339.671318,293.189359 335.080031,295.776 328.872,295.776 Z M353.607,295 L361.658,211.677 L389.885,211.677 L397.839,295 L382.028,295 L380.864,281.517 L370.776,281.517 L369.806,295 L353.607,295 Z M372.037,268.228 L379.603,268.228 L375.917,225.839 L375.141,225.839 L372.037,268.228 Z M399.973,295 L399.973,211.677 L425.387,211.677 L432.371,262.505 L439.355,211.677 L464.963,211.677 L464.963,295 L449.734,295 L449.734,234.957 L440.131,295 L425.193,295 L415.008,234.957 L415.008,295 L399.973,295 Z M469.425,295 L469.425,211.677 L502.793,211.677 L502.793,227.779 L486.4,227.779 L486.4,243.978 L502.114,243.978 L502.114,259.692 L486.4,259.692 L486.4,278.801 L503.86,278.801 L503.86,295 L469.425,295 Z M526.267,295.776 C518.700962,295.776 513.236683,293.900685 509.874,290.15 C506.511317,286.399315 504.83,280.353042 504.83,272.011 L504.83,263.863 L521.223,263.863 L521.223,274.242 C521.223,278.380687 522.548653,280.45 525.2,280.45 C526.687341,280.45 527.721997,280.013504 528.304,279.1405 C528.886003,278.267496 529.177,276.796344 529.177,274.727 C529.177,272.010986 528.85367,269.763842 528.207,267.9855 C527.56033,266.207158 526.735838,264.719839 525.7335,263.5235 C524.731162,262.327161 522.93668,260.468013 520.35,257.946 L513.172,250.768 C507.610639,245.335973 504.83,239.322033 504.83,232.726 C504.83,225.612631 506.462817,220.196852 509.7285,216.4785 C512.994183,212.760148 517.763302,210.901 524.036,210.901 C531.537371,210.901 536.936984,212.88948 540.235,216.8665 C543.533016,220.84352 545.182,227.067624 545.182,235.539 L528.207,235.539 L528.11,229.816 C528.11,228.716661 527.802836,227.84367 527.1885,227.197 C526.574164,226.55033 525.717339,226.227 524.618,226.227 C523.32466,226.227 522.35467,226.582663 521.708,227.294 C521.06133,228.005337 520.738,228.975327 520.738,230.204 C520.738,232.920014 522.289984,235.732985 525.394,238.643 L535.094,247.955 C537.357345,250.153678 539.232659,252.239157 540.72,254.2115 C542.207341,256.183843 543.403662,258.51182 544.309,261.1955 C545.214338,263.87918 545.667,267.063982 545.667,270.75 C545.667,278.962708 544.163515,285.186812 541.1565,289.4225 C538.149485,293.658188 533.186368,295.776 526.267,295.776 Z" id="CHESSGAMES"></path>
            </g>
        </g>
    </g>
</svg>