<?xml version="1.0" encoding="UTF-8"?>
<svg width="312px" height="86px" viewBox="0 0 312 86" version="1.1" xmlns="http://www.w3.org/2000/svg" xmlns:xlink="http://www.w3.org/1999/xlink">
    <!-- Generator: Sketch 54 (76480) - https://sketchapp.com -->
    <title>E-SPORTS</title>
    <desc>Created with Sketch.</desc>
    <g id="页面1" stroke="none" stroke-width="1" fill="none" fill-rule="evenodd">
        <g id="画板复制-2" transform="translate(-3505.000000, -345.000000)" fill="#FFFFFF" fill-rule="nonzero">
            <g id="矩形-4复制-5" transform="translate(3423.000000, 135.000000)">
                <path d="M82.686,295 L82.686,211.677 L116.054,211.677 L116.054,227.779 L99.661,227.779 L99.661,243.978 L115.375,243.978 L115.375,259.692 L99.661,259.692 L99.661,278.801 L117.121,278.801 L117.121,295 L82.686,295 Z M118.867,270.847 L118.867,259.886 L143.311,259.886 L143.311,270.847 L118.867,270.847 Z M166.785,295.776 C159.218962,295.776 153.754683,293.900685 150.392,290.15 C147.029317,286.399315 145.348,280.353042 145.348,272.011 L145.348,263.863 L161.741,263.863 L161.741,274.242 C161.741,278.380687 163.066653,280.45 165.718,280.45 C167.205341,280.45 168.239997,280.013504 168.822,279.1405 C169.404003,278.267496 169.695,276.796344 169.695,274.727 C169.695,272.010986 169.37167,269.763842 168.725,267.9855 C168.07833,266.207158 167.253838,264.719839 166.2515,263.5235 C165.249162,262.327161 163.45468,260.468013 160.868,257.946 L153.69,250.768 C148.128639,245.335973 145.348,239.322033 145.348,232.726 C145.348,225.612631 146.980817,220.196852 150.2465,216.4785 C153.512183,212.760148 158.281302,210.901 164.554,210.901 C172.055371,210.901 177.454984,212.88948 180.753,216.8665 C184.051016,220.84352 185.7,227.067624 185.7,235.539 L168.725,235.539 L168.628,229.816 C168.628,228.716661 168.320836,227.84367 167.7065,227.197 C167.092164,226.55033 166.235339,226.227 165.136,226.227 C163.84266,226.227 162.87267,226.582663 162.226,227.294 C161.57933,228.005337 161.256,228.975327 161.256,230.204 C161.256,232.920014 162.807984,235.732985 165.912,238.643 L175.612,247.955 C177.875345,250.153678 179.750659,252.239157 181.238,254.2115 C182.725341,256.183843 183.921662,258.51182 184.827,261.1955 C185.732338,263.87918 186.185,267.063982 186.185,270.75 C186.185,278.962708 184.681515,285.186812 181.6745,289.4225 C178.667485,293.658188 173.704368,295.776 166.785,295.776 Z M188.804,211.677 L210.823,211.677 C217.4837,211.677 222.236652,213.827145 225.082,218.1275 C227.927348,222.427855 229.35,228.716625 229.35,236.994 C229.35,245.271375 228.089013,251.511646 225.567,255.715 C223.044987,259.918354 218.518366,262.02 211.987,262.02 L205.197,262.02 L205.197,295 L188.804,295 L188.804,211.677 Z M206.167,246.985 C208.171677,246.985 209.642829,246.61317 210.5805,245.8695 C211.518171,245.12583 212.132499,244.05884 212.4235,242.6685 C212.714501,241.27816 212.86,239.28968 212.86,236.703 C212.86,233.210983 212.472004,230.689008 211.696,229.137 C210.919996,227.584992 209.368012,226.809 207.04,226.809 L205.197,226.809 L205.197,246.985 L206.167,246.985 Z M251.563,295.776 C244.837633,295.776 239.729017,293.722854 236.237,289.6165 C232.744983,285.510146 230.999,279.738704 230.999,272.302 L230.999,232.629 C230.999,225.450964 232.744983,220.035185 236.237,216.3815 C239.729017,212.727815 244.837633,210.901 251.563,210.901 C258.288367,210.901 263.396983,212.727815 266.889,216.3815 C270.381017,220.035185 272.127,225.450964 272.127,232.629 L272.127,272.302 C272.127,279.803371 270.381017,285.59098 266.889,289.665 C263.396983,293.73902 258.288367,295.776 251.563,295.776 Z M251.563,280.45 C253.050341,280.45 254.052664,279.80334 254.57,278.51 C255.087336,277.21666 255.346,275.406012 255.346,273.078 L255.346,232.338 C255.346,230.527324 255.103502,229.056172 254.6185,227.9245 C254.133498,226.792828 253.147341,226.227 251.66,226.227 C248.879319,226.227 247.489,228.328646 247.489,232.532 L247.489,273.175 C247.489,275.567679 247.779997,277.378327 248.362,278.607 C248.944003,279.835673 250.010992,280.45 251.563,280.45 Z M275.91,211.677 L301.518,211.677 C305.59202,211.677 308.744489,212.598491 310.9755,214.4415 C313.206511,216.284509 314.709996,218.87115 315.486,222.2015 C316.262004,225.53185 316.65,229.783641 316.65,234.957 C316.65,239.67769 316.035673,243.363653 314.807,246.015 C313.578327,248.666347 311.444349,250.509328 308.405,251.544 C310.927013,252.061336 312.753828,253.322323 313.8855,255.327 C315.017172,257.331677 315.583,260.04765 315.583,263.475 L315.389,295 L299.093,295 L299.093,262.408 C299.093,260.079988 298.640338,258.59267 297.735,257.946 C296.829662,257.29933 295.180679,256.976 292.788,256.976 L292.788,295 L275.91,295 L275.91,211.677 Z M296.862,242.523 C299.190012,242.523 300.354,240.001025 300.354,234.957 C300.354,232.758322 300.257001,231.109339 300.063,230.01 C299.868999,228.910661 299.513336,228.150835 298.996,227.7305 C298.478664,227.310165 297.735005,227.1 296.765,227.1 L292.885,227.1 L292.885,242.523 L296.862,242.523 Z M326.447,295 L326.447,227.682 L316.553,227.682 L316.553,211.677 L353.025,211.677 L353.025,227.682 L343.131,227.682 L343.131,295 L326.447,295 Z M374.559,295.776 C366.992962,295.776 361.528683,293.900685 358.166,290.15 C354.803317,286.399315 353.122,280.353042 353.122,272.011 L353.122,263.863 L369.515,263.863 L369.515,274.242 C369.515,278.380687 370.840653,280.45 373.492,280.45 C374.979341,280.45 376.013997,280.013504 376.596,279.1405 C377.178003,278.267496 377.469,276.796344 377.469,274.727 C377.469,272.010986 377.14567,269.763842 376.499,267.9855 C375.85233,266.207158 375.027838,264.719839 374.0255,263.5235 C373.023162,262.327161 371.22868,260.468013 368.642,257.946 L361.464,250.768 C355.902639,245.335973 353.122,239.322033 353.122,232.726 C353.122,225.612631 354.754817,220.196852 358.0205,216.4785 C361.286183,212.760148 366.055302,210.901 372.328,210.901 C379.829371,210.901 385.228984,212.88948 388.527,216.8665 C391.825016,220.84352 393.474,227.067624 393.474,235.539 L376.499,235.539 L376.402,229.816 C376.402,228.716661 376.094836,227.84367 375.4805,227.197 C374.866164,226.55033 374.009339,226.227 372.91,226.227 C371.61666,226.227 370.64667,226.582663 370,227.294 C369.35333,228.005337 369.03,228.975327 369.03,230.204 C369.03,232.920014 370.581984,235.732985 373.686,238.643 L383.386,247.955 C385.649345,250.153678 387.524659,252.239157 389.012,254.2115 C390.499341,256.183843 391.695662,258.51182 392.601,261.1955 C393.506338,263.87918 393.959,267.063982 393.959,270.75 C393.959,278.962708 392.455515,285.186812 389.4485,289.4225 C386.441485,293.658188 381.478368,295.776 374.559,295.776 Z" id="E-SPORTS"></path>
            </g>
        </g>
    </g>
</svg>