<?xml version="1.0" encoding="UTF-8"?>
<svg width="190px" height="50px" viewBox="0 0 190 50" version="1.1" xmlns="http://www.w3.org/2000/svg" xmlns:xlink="http://www.w3.org/1999/xlink">
    <!-- Generator: Sketch 54 (76480) - https://sketchapp.com -->
    <title>ebet_logo</title>
    <desc>Created with Sketch.</desc>
    <g id="页面1" stroke="none" stroke-width="1" fill="none" fill-rule="evenodd">
        <g id="3_1" transform="translate(-282.000000, -3340.000000)" fill="#FFFFFF">
            <g id="主流场馆" transform="translate(200.000000, 2433.000000)">
                <g id="矩形-4" transform="translate(0.000000, 284.000000)">
                    <g id="编组-22" transform="translate(82.000000, 623.000000)">
                        <path d="M44.5444444,15.1744333 C44.6444444,16.0744333 44.6444444,17.0744333 44.3444444,18.3744333 C44.3444444,18.8744333 44.2444444,19.4744333 44.1444444,19.9744333 C44.1444444,20.0744333 44.1444444,20.1744333 44.1444444,20.2744333 C44.0444444,20.9744333 43.9444444,21.6744333 43.7444444,22.3744333 C43.6444444,23.0744333 43.4444444,23.8744333 43.1444444,24.5744333 C43.0444444,25.2744333 42.7444444,25.8744333 42.5444444,26.4744333 C42.4444444,26.9744333 42.4444444,26.9744333 41.9444444,26.9744333 C37.6444444,26.9744333 33.3444444,26.9744333 29.0444444,26.9744333 C23.8444444,27.0744333 18.5444444,27.0744333 13.2444444,27.0744333 C12.6444444,27.0744333 12.1444444,27.0744333 11.6444444,27.0744333 C11.4444444,27.0744333 11.3444444,27.0744333 11.3444444,27.2744333 C11.3444444,27.6744333 11.2444444,27.9744333 11.2444444,28.3744333 C11.2444444,29.0744333 11.2444444,29.7744333 11.3444444,30.4744333 C11.5444444,31.2744333 11.7444444,32.0744333 12.1444444,32.7744333 C12.1444444,32.8744333 12.2444444,33.0744333 12.3444444,33.1744333 C12.8444444,33.7744333 13.4444444,34.3744333 14.1444444,34.8744333 C14.4444444,35.0744333 14.7444444,35.2744333 15.0444444,35.3744333 C17.9444444,36.5744333 20.8444444,36.3744333 23.7444444,35.5744333 C23.8444444,35.5744333 23.9444444,35.4744333 24.0444444,35.4744333 C25.5444444,34.9744333 26.9444444,34.2744333 28.2444444,33.4744333 C28.8444444,33.0744333 29.4444444,32.6744333 29.9444444,32.2744333 C30.0444444,32.1744333 30.2444444,32.1744333 30.3444444,32.1744333 C33.0444444,32.0744333 35.6444444,32.0744333 38.2444444,32.0744333 C38.3444444,32.0744333 38.3444444,32.0744333 38.4444444,32.0744333 C39.4444444,32.0744333 40.3444444,32.0744333 41.2444444,32.0744333 C41.3444444,32.0744333 41.5444444,31.9744333 41.5444444,32.0744333 C41.6444444,32.1744333 41.5444444,32.2744333 41.4444444,32.3744333 C41.4444444,32.4744333 41.3444444,32.4744333 41.3444444,32.5744333 C40.9444444,32.8744333 40.6444444,33.1744333 40.3444444,33.4744333 C39.7444444,34.1744333 39.0444444,34.8744333 38.3444444,35.4744333 C37.6444444,36.1744333 36.8444444,36.8744333 36.0444444,37.4744333 C34.9444444,38.4744333 33.7444444,39.2744333 32.5444444,39.9744333 C32.3444444,40.0744333 32.0444444,40.2744333 31.8444444,40.3744333 C30.8444444,40.9744333 29.6444444,41.5744333 28.5444444,42.0744333 C27.9444444,42.3744333 27.4444444,42.5744333 26.9444444,42.7744333 C25.5444444,43.3744333 24.1444444,43.8744333 22.6444444,44.1744333 C19.9444444,44.7744333 17.0444444,44.8744333 14.2444444,44.5744333 C12.2444444,44.3744333 10.3444444,43.8744333 8.54444444,42.9744333 C8.34444444,42.9744333 8.24444444,42.8744333 8.14444444,42.7744333 C7.04444444,42.1744333 6.04444444,41.3744333 5.24444444,40.3744333 C4.44444444,39.5744333 3.84444444,38.5744333 3.34444444,37.5744333 C2.94444444,36.8744333 2.64444444,36.0744333 2.44444444,35.2744333 C2.24444444,34.5744333 2.04444444,33.8744333 2.04444444,33.0744333 C2.04444444,33.0744333 2.04444444,32.9744333 2.04444444,32.9744333 C2.04444444,32.7744333 2.04444444,32.6744333 2.04444444,32.5744333 C2.04444444,31.8744333 1.94444444,31.0744333 2.04444444,30.3744333 C2.04444444,29.6744333 2.04444444,28.8744333 2.24444444,28.1744333 C2.34444444,27.4744333 2.44444444,26.8744333 2.64444444,26.1744333 C2.84444444,25.2744333 3.14444444,24.3744333 3.44444444,23.5744333 C3.44444444,23.0744333 3.64444444,22.6744333 3.84444444,22.2744333 C4.04444444,21.7744333 4.24444444,21.2744333 4.44444444,20.8744333 C4.54444444,20.5744333 4.74444444,20.3744333 4.84444444,20.0744333 C5.14444444,19.4744333 5.34444444,18.8744333 5.74444444,18.3744333 C6.04444444,17.7744333 6.34444444,17.2744333 6.74444444,16.6744333 C7.04444444,16.1744333 7.34444444,15.6744333 7.74444444,15.2744333 C8.34444444,14.4744333 8.94444444,13.6744333 9.64444444,12.9744333 C10.3444444,12.1744333 11.0444444,11.4744333 11.8444444,10.7744333 C12.7444444,9.97443332 13.6444444,9.17443332 14.6444444,8.47443332 C16.0444444,7.37443332 17.5444444,6.47443332 19.1444444,5.67443332 C21.3444444,4.57443332 23.6444444,3.77443332 26.0444444,3.37443332 C28.2444444,2.97443332 30.5444444,2.87443332 32.7444444,3.17443332 C34.9444444,3.47443332 37.1444444,4.07443332 39.0444444,5.27443332 C39.4444444,5.57443332 39.8444444,5.87443332 40.2444444,6.17443332 C40.6444444,6.37443332 40.9444444,6.77443332 41.2444444,7.07443332 C41.8444444,7.67443332 42.3444444,8.27443332 42.7444444,9.07443332 C43.2444444,9.87443332 43.7444444,10.8744333 43.9444444,11.8744333 C43.9444444,11.9744333 43.9444444,11.9744333 43.9444444,11.9744333 C44.2444444,12.6744333 44.3444444,13.5744333 44.4444444,14.3744333 C44.5444444,14.6744333 44.5444444,14.8744333 44.5444444,15.1744333 Z M35.3444444,18.4744333 C35.3444444,18.2744333 35.3444444,18.1744333 35.0444444,17.9744333 C35.0444444,17.8744333 35.0444444,17.8744333 35.0444444,17.7744333 C35.0444444,17.6744333 35.0444444,17.5744333 35.0444444,17.4744333 C34.9444444,16.2744333 34.5444444,15.1744333 33.8444444,14.1744333 C33.8444444,14.1744333 33.9444444,14.1744333 33.9444444,14.1744333 C33.8444444,14.0744333 33.8444444,13.9744333 33.7444444,13.8744333 C33.4444444,13.3744333 32.9444444,13.0744333 32.5444444,12.6744333 C31.8444444,11.9744333 31.0444444,11.5744333 30.1444444,11.3744333 C29.4444444,11.2744333 28.7444444,11.1744333 28.0444444,11.0744333 C26.8444444,10.8744333 25.5444444,10.9744333 24.3444444,11.2744333 C23.0444444,11.5744333 21.7444444,12.1744333 20.5444444,12.8744333 C20.3444444,13.0744333 20.0444444,13.1744333 19.8444444,13.3744333 C17.6444444,14.7744333 15.9444444,16.6744333 14.3444444,18.7744333 C15.9444444,18.7744333 17.4444444,18.7744333 18.9444444,18.7744333 C19.0444444,18.7744333 19.0444444,18.7744333 19.1444444,18.7744333 C22.6444444,18.7744333 26.1444444,18.7744333 29.6444444,18.7744333 C31.4444444,18.7744333 33.2444444,18.7744333 35.0444444,18.7744333 C35.2444444,18.7744333 35.3444444,18.6744333 35.3444444,18.4744333 Z M141.990426,4 C142.490426,4 142.890426,4 143.190426,4.1 C142.890426,4.5 142.590426,4.8 142.290426,5.1 C141.890426,5.6 141.490426,6.1 141.090426,6.6 C140.090426,7.8 138.990426,9 137.990426,10.2 C137.590426,10.7 137.090426,11.3 136.590426,11.8 C136.590426,11.9 136.490426,11.9 136.390426,11.9 C130.390426,12 124.490426,12 118.490426,12 C118.390426,12 118.390426,12 118.290426,12 C116.390426,12 114.490426,12 112.590426,12 C111.890426,12 111.090426,12 110.290426,12 C109.490426,12 108.790426,12 107.990426,12 C107.490426,12 106.890426,12 106.390426,12 C106.190426,12 106.090426,12 105.990426,12.2 C105.390426,13.7 104.790426,15.1 104.190426,16.6 C104.090426,16.7 104.090426,16.8 103.990426,16.9 C103.890426,17.3 103.690426,17.6 103.590426,18 C103.290426,18.7 103.090426,19.3 102.790426,20 C102.690426,20.1 102.690426,20.3 102.590426,20.4 C103.590426,20.4 104.490426,20.4 105.490426,20.4 C109.290426,20.4 112.990426,20.4 116.790426,20.4 C119.790426,20.4 122.790426,20.4 125.790426,20.4 C125.890426,20.4 125.990426,20.4 126.090426,20.4 C127.390426,20.4 128.790426,20.4 130.090426,20.4 C129.890426,20.8 129.590426,21.1 129.290426,21.4 C129.190426,21.6 128.990426,21.7 128.890426,21.9 C128.490426,22.4 128.090426,22.9 127.690426,23.4 C126.690426,24.6 125.590426,25.8 124.590426,27 C124.590426,27.1 124.490426,27.2 124.390426,27.3 C124.190426,27.6 123.890426,27.9 123.690426,28.2 C123.690426,28.3 123.590426,28.3 123.490426,28.3 C121.090426,28.3 118.690426,28.3 116.290426,28.3 C116.190426,28.3 116.190426,28.3 116.190426,28.3 C115.390426,28.3 114.690426,28.3 113.890426,28.3 C109.390426,28.3 104.790426,28.3 100.190426,28.3 C99.4904261,28.3 99.4904261,28.3 99.2904261,28.9 C98.2904261,31.4 97.2904261,33.8 96.2904261,36.3 C96.1904261,36.6 95.9904261,37 95.8904261,37.3 C95.7904261,37.3 95.7904261,37.4 95.7904261,37.4 C95.8904261,37.6 95.9904261,37.5 96.0904261,37.5 C97.0904261,37.5 97.9904261,37.5 98.8904261,37.5 C100.490426,37.5 102.090426,37.5 103.690426,37.5 C105.090426,37.5 106.490426,37.5 107.890426,37.5 C110.390426,37.5 112.990426,37.5 115.490426,37.5 C115.490426,37.5 115.590426,37.5 115.690426,37.5 C117.290426,37.5 118.990426,37.5 120.690426,37.5 C124.490426,37.5 128.390426,37.5 132.290426,37.5 C132.390426,37.5 132.490426,37.5 132.590426,37.5 C132.990426,37.5 133.490426,37.5 133.990426,37.5 C133.690426,37.9 133.390426,38.3 133.090426,38.6 C132.590426,39.2 132.090426,39.9 131.490426,40.5 C130.990426,41.2 130.390426,41.9 129.790426,42.6 C129.090426,43.4 128.490426,44.2 127.790426,45 C127.790426,45 127.790426,45.1 127.690426,45.1 C127.590426,45.3 127.390426,45.3 127.190426,45.3 C120.690426,45.4 114.090426,45.4 107.590426,45.4 C107.190426,45.4 106.790426,45.4 106.390426,45.4 C105.790426,45.4 105.090426,45.4 104.390426,45.4 C102.490426,45.4 100.490426,45.4 98.4904261,45.4 C96.8904261,45.4 95.1904261,45.4 93.4904261,45.4 C90.2904261,45.4 87.0904261,45.4 83.8904261,45.4 C83.7904261,45.4 83.6904261,45.4 83.5904261,45.4 C83.2904261,45.4 82.8904261,45.4 82.5904261,45.4 C81.8904261,45.4 81.8904261,45.4 82.1904261,44.8 C82.1904261,44.7 82.2904261,44.7 82.2904261,44.6 C82.8904261,43.3 83.3904261,41.9 83.9904261,40.5 C84.4904261,39.4 84.8904261,38.2 85.3904261,37.1 C85.3904261,37.1 85.4904261,37 85.4904261,36.9 C85.5904261,36.7 85.5904261,36.5 85.6904261,36.4 C85.6904261,36.3 85.6904261,36.3 85.6904261,36.3 C86.2904261,34.9 86.7904261,33.6 87.3904261,32.2 C87.4904261,32.1 87.4904261,31.9 87.5904261,31.8 C88.0904261,30.5 88.6904261,29.1 89.1904261,27.8 C89.5904261,26.8 89.9904261,25.8 90.3904261,24.8 C90.3904261,24.7 90.4904261,24.6 90.4904261,24.5 C90.5904261,23.9 90.8904261,23.4 91.0904261,22.9 C91.3904261,22 91.6904261,21.2 92.0904261,20.4 C92.4904261,19.4 92.8904261,18.4 93.2904261,17.4 C93.6904261,16.2 94.1904261,15 94.6904261,13.9 C94.8904261,13.4 95.0904261,12.9 95.2904261,12.4 C95.2904261,12.2 95.3904261,12 95.4904261,11.9 C95.3904261,11.9 95.3904261,11.8 95.4904261,11.8 C95.7904261,10.9 96.0904261,10.1 96.4904261,9.3 C96.6904261,8.4 97.2904261,7.8 97.8904261,7.2 C99.3904261,5.8 101.290426,4.9 103.290426,4.2 C103.390426,4.1 103.590426,4.1 103.690426,4.1 C111.090426,4 118.390426,4 125.790426,4 C126.190426,4 126.590426,4 126.990426,4 C127.090426,4 127.190426,4 127.290426,4 C127.290426,4 127.390426,4 127.490426,4 C127.990426,4 128.390426,4 128.890426,4 C130.890426,4 132.890426,4 134.890426,4 C135.190426,4 135.490426,4 135.790426,4 C137.890426,4 139.890426,4 141.990426,4 Z M185.528,4 C186.028,4 186.428,4 186.528,4.3 C186.428,4.6 186.128,4.7 185.928,5 C185.628,5.3 185.328,5.7 185.028,6 C185.028,6.1 184.928,6.2 184.828,6.3 C183.828,7.6 182.728,8.8 181.628,10.1 C181.128,10.7 180.628,11.3 180.128,11.9 C180.128,12 180.028,12 179.928,12 C178.028,12 176.228,12 174.428,12 C174.328,12 174.228,12 174.128,12 C173.828,12 173.428,12 173.128,12 C172.828,12 172.628,12 172.328,12 C170.228,12 168.228,12 166.128,12 C166.028,12 165.828,12 165.628,12 C165.428,12 165.328,12.1 165.228,12.3 C164.728,13.6 164.128,14.8 163.628,16.1 C163.628,16.1 163.628,16.2 163.628,16.2 C163.128,17.3 162.728,18.5 162.228,19.6 C161.928,20.2 161.728,20.9 161.428,21.5 C161.428,21.5 161.328,21.6 161.328,21.6 C161.128,22.2 160.828,22.8 160.628,23.4 C160.228,24.5 159.728,25.5 159.328,26.6 C158.828,27.7 158.428,28.9 157.928,30 C157.828,30.2 157.628,30.4 157.628,30.6 C156.428,33.7 155.128,36.8 153.928,39.9 C153.328,41.5 152.728,43.1 151.928,44.6 C151.828,44.8 151.728,45.1 151.528,45.2 C151.528,45.2 151.428,45.2 151.428,45.2 C150.128,45.2 148.828,45.2 147.528,45.2 C145.628,45.2 143.728,45.2 141.828,45.2 C141.428,45.2 140.928,45.2 140.428,45.2 C140.628,45 140.728,44.9 140.828,44.7 C141.028,44.4 141.128,44.2 141.328,43.9 C141.928,42.7 142.428,41.6 142.928,40.4 C143.428,39 144.028,37.6 144.628,36.2 C145.028,35.1 145.528,34 145.928,32.9 C146.328,32.1 146.628,31.2 147.028,30.3 C147.028,30.1 147.128,29.9 147.228,29.8 C147.228,29.8 147.328,29.7 147.328,29.7 C147.728,28.6 148.228,27.5 148.628,26.4 C148.928,25.7 149.228,24.9 149.528,24.2 C149.928,23.2 150.328,22.2 150.728,21.2 C151.228,19.8 151.828,18.4 152.428,17 C152.928,15.9 153.328,14.9 153.728,13.8 C153.928,13.2 154.228,12.7 154.428,12.1 C154.528,11.9 154.328,11.9 154.228,11.9 C153.128,11.9 152.028,11.9 150.928,11.9 C150.828,11.9 150.728,11.9 150.628,11.9 C148.828,11.9 147.128,11.9 145.328,11.9 C144.128,11.9 143.028,11.9 141.828,11.9 C141.828,11.9 141.728,11.9 141.628,11.9 C141.628,12 141.528,12 141.428,12 C141.328,12 141.328,12 141.228,11.9 C141.028,11.9 140.928,11.9 140.828,11.9 C140.328,11.9 139.728,11.9 139.128,11.9 C139.128,11.9 138.928,12 139.028,11.8 C139.128,11.6 139.328,11.4 139.528,11.2 C139.628,11 139.828,10.9 139.928,10.7 C140.428,10.2 140.828,9.7 141.228,9.2 C142.328,7.9 143.428,6.6 144.528,5.3 C144.928,4.9 145.228,4.5 145.628,4.1 C146.028,4.1 146.428,4.1 146.828,4.1 C146.928,4.1 147.028,4.1 147.128,4.1 C147.228,4.1 147.328,4.1 147.428,4.1 C147.628,4.1 147.728,4.1 147.828,4.1 C148.828,4.1 149.928,4.1 151.028,4.1 C151.128,4.1 151.328,4.1 151.428,4.1 C153.128,4.1 154.928,4.1 156.728,4.1 C162.828,4 169.028,4 175.128,4 C178.528,4 181.928,4 185.328,4 C185.428,4 185.428,4 185.528,4 Z M94.6,7.5 C94.6,7.6 94.6,7.6 94.8,7.4 C94.9,7.6 94.9,7.7 94.8,7.8 C94.8,7.8 94.8,7.9 94.8,7.9 C94.8,8.2 94.6,8.5 94.6,8.8 C94.5,8.9 94.7,9.2 94.4,9.2 C94.1,9.8 93.9,10.3 93.7,10.9 C93.5,11.4 93.3,11.9 93.1,12.4 C92.6,13.7 92.1,15 91.5,16.3 C91,17.3 90.6,18.3 90.2,19.3 C90.2,19.3 90.2,19.4 90.2,19.4 C90.1,19.5 90.2,19.7 90,19.7 C90,19.8 90,19.8 90,19.8 C89.8,20 89.6,20.4 89.4,20.6 C89.3,20.7 89.2,20.9 89.1,21 C88,22.1 86.8,22.8 85.4,23.3 C85.4,23.3 85.3,23.3 85.3,23.3 C84.6,23.6 83.8,23.8 83,23.9 C82.9,23.9 82.9,23.9 82.8,23.9 C82.7,24 82.5,24 82.3,24 C82.2,24 82.2,24.1 82.2,24.1 C82.5,24.1 82.8,24.1 83,24.2 C83.1,24.2 83.1,24.2 83.1,24.2 C83.6,24.3 84,24.4 84.5,24.6 C85.5,24.9 86.4,25.5 86.7,26.6 C86.8,26.7 86.8,26.9 86.8,27 C86.8,27.4 86.7,27.9 86.6,28.3 C86,30.2 85.2,32 84.4,33.9 C84.4,34 84.3,34.1 84.3,34.2 C83.8,35.3 83.4,36.5 82.9,37.6 C82.4,38.7 82,39.7 81.6,40.7 C81.4,41.2 81.1,41.6 80.7,42 C80.4,42.2 80.1,42.6 79.7,42.8 C79,43.3 78.1,43.7 77.3,44 C76.6,44.2 75.9,44.5 75.2,44.6 C74.8,44.7 74.4,44.8 74,44.8 C73.9,44.8 73.8,44.8 73.7,44.8 C73.6,44.8 73.5,44.8 73.4,44.8 C71.6,44.8 69.9,44.8 68.1,44.8 C64.1,44.8 60,44.8 56,44.8 C55.9,44.8 55.8,44.8 55.7,44.8 C54.1,44.8 52.5,44.8 50.9,44.8 C48.9,44.8 46.9,44.8 44.9,44.8 C44.9,44.8 44.8,44.8 44.8,44.8 C43.2,44.8 41.6,44.8 40,44.8 C39.7,44.8 39.3,44.8 39,44.8 C38.3,44.8 37.7,44.8 37,44.8 C37.4,44.6 37.7,44.3 38.1,44.1 C38.4,43.9 38.7,43.6 39,43.4 C39.2,43.2 39.4,43 39.6,42.8 C40.8,41.3 41.5,39.5 42.2,37.7 C42.2,37.6 42.3,37.5 42.3,37.4 C42.5,36.8 42.8,36.1 43,35.5 C43.6,33.8 44.3,32.2 44.9,30.5 C44.9,30.4 45,30.4 45,30.3 C45.4,29.3 45.8,28.2 46.2,27.2 C46.7,26 47.1,24.7 47.6,23.5 C47.7,23.5 47.7,23.4 47.7,23.4 C47.9,22.6 48.2,21.9 48.5,21.2 C48.9,20.1 49.3,18.9 49.8,17.8 C50.2,16.8 50.6,15.7 51,14.7 C51.1,14.3 51.3,14 51.4,13.6 C51.6,12.8 51.9,12.1 52.2,11.4 C52.6,10.5 52.9,9.5 53.3,8.5 C53.6,7.9 53.6,7.3 53.2,6.7 C53,6.4 52.6,6.1 52.3,5.8 C52.2,5.8 52.2,5.8 52.2,5.8 C51.7,5.5 51.1,5.2 50.6,4.9 C49.9,4.6 49.2,4.3 48.5,4.1 C48.4,4.1 48.4,4.1 48.4,4.1 C48.4,4.1 48.5,4.1 48.6,4.1 C53.3,4.1 58,4.1 62.7,4.1 C68,4 73.2,4 78.5,4 C78.6,4 78.7,4 78.8,4 C78.9,4 79.1,4 79.2,4 C79.8,4 80.3,4 80.9,4 C83.7,4 86.5,4 89.3,4 C89.5,4 89.7,4 89.9,4.1 C91.2,4.2 92.4,4.5 93.5,5.3 C94.1,5.7 94.5,6.3 94.6,7 C94.6,7.2 94.6,7.3 94.6,7.4 C94.6,7.4 94.6,7.5 94.6,7.5 Z M75.4,28.3 C75.4,28.1 75.3,28.2 75.1,28.4 C74.9,28.3 74.7,28.3 74.5,28.3 C72,28.3 69.6,28.3 67.2,28.3 C63.7,28.3 60.2,28.3 56.7,28.3 C56.5,28.3 56.3,28.3 56.2,28.4 C56.1,28.4 56,28.5 56,28.6 C55.8,29 55.7,29.4 55.5,29.8 C54.9,31.3 54.2,32.9 53.6,34.5 C53.5,34.5 53.4,34.6 53.4,34.7 C53.2,35.3 52.9,35.9 52.7,36.5 C52.6,36.6 52.5,36.8 52.5,36.9 C52.5,37.1 52.3,37.2 52.4,37.4 C52.3,37.7 52.6,37.5 52.7,37.6 C52.9,37.7 53.1,37.7 53.3,37.7 C56.5,37.7 59.6,37.7 62.8,37.6 C64.4,37.6 66,37.6 67.6,37.6 C68.4,37.6 69.1,37.6 69.8,37.6 C70.4,37.6 71,37.6 71.6,37.6 C71.8,37.6 71.8,37.5 71.9,37.4 C72.2,36.6 72.5,35.7 72.9,34.9 C73.7,32.9 74.5,30.9 75.3,28.9 C75.3,28.7 75.4,28.5 75.4,28.3 Z M82,12.2 C82,12.1 82,12 81.8,11.8 C81.7,11.8 81.7,11.8 81.6,11.8 C81.5,11.7 81.4,11.7 81.3,11.7 C79,11.6 76.6,11.7 74.2,11.7 C72.5,11.7 70.8,11.7 69.1,11.7 C69,11.7 68.8,11.7 68.7,11.7 C66.7,11.7 64.8,11.7 62.8,11.7 C62.7,11.7 62.6,11.8 62.5,11.9 C62.1,13 61.7,14 61.3,15 C60.8,16.2 60.3,17.4 59.8,18.6 C59.7,19.1 59.4,19.6 59.3,20.1 C59.3,20.1 59.3,20.2 59.3,20.2 C59.6,20.4 59.9,20.3 60.2,20.3 C63.6,20.3 67.1,20.4 70.5,20.3 C73.1,20.3 75.7,20.3 78.3,20.3 C78.3,20.3 78.4,20.3 78.4,20.3 C78.5,20.3 78.6,20.2 78.6,20.1 C78.8,19.7 78.9,19.4 79.1,19 C79.5,18 80,16.9 80.4,15.9 C80.4,15.8 80.5,15.8 80.5,15.7 C81,14.6 81.5,13.4 82,12.2 Z" id="形状结合"></path>
                    </g>
                </g>
            </g>
        </g>
    </g>
</svg>