<?xml version="1.0" encoding="UTF-8"?>
<svg width="36px" height="36px" viewBox="0 0 36 36" version="1.1" xmlns="http://www.w3.org/2000/svg" xmlns:xlink="http://www.w3.org/1999/xlink">
    <!-- Generator: Sketch 54 (76480) - https://sketchapp.com -->
    <title>email_gold</title>
    <desc>Created with Sketch.</desc>
    <g id="页面1" stroke="none" stroke-width="1" fill="none" fill-rule="evenodd">
        <g id="画板复制" transform="translate(-1814.000000, -1104.000000)" fill="#E0C9B2">
            <g id="形状结合-3复制" transform="translate(1814.000000, 1104.000000)">
                <path d="M18,36 C8.0588745,36 0,27.9411255 0,18 C0,8.0588745 8.0588745,0 18,0 C27.9411255,0 36,8.0588745 36,18 C36,27.9411255 27.9411255,36 18,36 Z M8.40960458,14.6860364 L8.4,24.0029941 C8.4,25.0393048 9.26354542,25.8836411 10.3190887,25.8836411 L25.681005,25.8836411 C26.7364546,25.8836411 27.6,25.0393048 27.6,24.0029941 L27.6,14.6764084 L18.2254851,19.6947544 C18.0815335,19.7715208 17.9088619,19.7715208 17.7649338,19.6947544 C17.7649338,19.704359 8.40960458,14.6860364 8.40960458,14.6860364 Z M10.3190887,10.8 C9.26354542,10.8 8.41920916,11.6348254 8.40960458,12.6710424 L18.0047672,17.9292219 L27.6,12.6614378 C27.5903954,11.6348254 26.72685,10.8 25.681005,10.8 L10.3190887,10.8 Z" id="形状结合"></path>
            </g>
        </g>
    </g>
</svg>