<?xml version="1.0" encoding="UTF-8"?>
<svg width="180px" height="50px" viewBox="0 0 180 50" version="1.1" xmlns="http://www.w3.org/2000/svg" xmlns:xlink="http://www.w3.org/1999/xlink">
    <!-- Generator: Sketch 54 (76480) - https://sketchapp.com -->
    <title>footer_logo_4</title>
    <desc>Created with Sketch.</desc>
    <g id="页面1" stroke="none" stroke-width="1" fill="none" fill-rule="evenodd">
        <g id="3_1" transform="translate(-1226.000000, -12907.000000)">
            <g id="页尾" transform="translate(0.000000, 12848.000000)">
                <g id="编组" transform="translate(498.000000, 59.000000)">
                    <g id="item" transform="translate(728.000000, 0.000000)">
                        <rect id="矩形" fill="#D8D8D8" opacity="0" x="0" y="0" width="180" height="50"></rect>
                        <g id="logo/logo_license_pagcor" transform="translate(69.300000, 3.300000)" fill="#222222">
                            <path d="M31.6436007,18.5701582 C31.9576762,18.0729818 32.783418,18.0206673 33.1432216,18.4935682 C33.3159725,18.7048964 33.3067516,18.9914973 33.3441998,19.2479891 C33.6274135,21.7381991 33.1575235,24.3049991 32.0178944,26.5360827 C31.3026153,27.9474464 30.3233171,29.2231309 29.1488744,30.2831591 C29.0736016,30.3721691 28.9512835,30.3505282 28.8498535,30.3552327 C27.929268,30.35448 27.0086825,30.3682173 26.0880971,30.3623836 C27.7663025,29.3704773 29.2011889,27.9611836 30.1701371,26.2664182 C31.3968944,24.1505018 31.9059262,21.6224673 31.5611771,19.1988736 C31.5252344,18.9875455 31.520718,18.7553291 31.6436007,18.5701582 Z M7.94417073,18.8567591 C7.98011345,18.5263118 8.25429436,18.2528836 8.57552073,18.1905955 C8.95828255,18.1049727 9.41499982,18.2489318 9.60863891,18.6068536 C9.72117164,18.8023745 9.68711073,19.0353436 9.65775436,19.2485536 C9.29776255,21.8565655 9.93381709,24.5778627 11.3745371,26.7767673 C12.3225971,28.2483491 13.6351653,29.4647564 15.1334689,30.3623836 C14.188608,30.3674645 13.2431825,30.3552327 12.2985098,30.35448 C12.2126989,30.3650182 12.1347916,30.33171 12.0760789,30.2707391 C10.4396498,28.8004745 9.19068709,26.90379 8.487828,24.8185473 C7.83878891,22.9113245 7.64985436,20.8497927 7.94417073,18.8567591 Z M34.1358807,18.6623673 C34.0703935,18.2462973 34.4106262,17.8648527 34.8090071,17.7988009 C35.2408844,17.6889027 35.7805898,17.9295873 35.8624489,18.3968427 C36.2909389,21.1651855 35.9343344,24.0477545 34.8620744,26.6354427 C34.311078,27.9696518 33.5671953,29.2212491 32.669568,30.3512809 C31.885038,30.3563618 31.100508,30.3525982 30.3167307,30.3531627 C31.9949362,28.6631018 33.2224462,26.5289318 33.832908,24.2257745 C34.3182289,22.4186645 34.4172125,20.5120064 34.1358807,18.6623673 Z M5.36231618,18.4013591 C5.45000891,17.9118982 6.03167891,17.6738482 6.47654073,17.8104682 C6.87830891,17.8962791 7.17808255,18.3117845 7.08380345,18.7225855 C6.70235891,21.2756482 7.07721709,23.9314582 8.13122345,26.2861773 C8.79926891,27.7942664 9.75184527,29.1689345 10.8995662,30.3518455 C10.1261389,30.3571145 9.35346436,30.3492109 8.58003709,30.3557973 C5.90202164,27.0530182 4.70612618,22.6025182 5.36231618,18.4013591 Z M36.8065571,17.8484809 C37.0944753,17.2184482 38.2309053,17.2041464 38.4318835,17.9041827 C38.8662071,20.4813327 38.7013598,23.1567136 37.9567244,25.6625427 C37.4751671,27.3087573 36.7502907,28.8770645 35.8769389,30.3512809 C35.1735153,30.3571145 34.4695271,30.3512809 33.7661035,30.3539848 C36.2595125,26.9698418 37.3549189,22.5946145 36.7510435,18.43542 C36.7162298,18.2391464 36.7096435,18.0291355 36.8065571,17.8484809 Z M2.79175255,17.9107691 C2.90428527,17.4350455 3.50552618,17.2878873 3.92027891,17.4297764 C4.30699255,17.5357227 4.57063527,17.9512282 4.48557709,18.3469745 C3.86006073,22.5325145 4.95603164,26.9404855 7.45866164,30.3518455 C6.75467345,30.3531627 6.05068527,30.3571145 5.34669709,30.3499636 C4.18203982,28.3780064 3.29081073,26.2291582 2.863638,23.9732345 C2.48087618,21.9777545 2.45735345,19.9141527 2.79175255,17.9107691 Z M39.4459953,17.2165664 C39.8266871,16.9463373 40.3901035,16.9339173 40.7723007,17.20791 C41.0000007,17.3650418 41.0050816,17.6627455 41.0415889,17.9100164 C41.4134362,20.6345127 41.2190444,23.4340936 40.4745971,26.0814355 C39.392928,29.9638145 37.1462253,33.5069018 34.1129225,36.1580073 C31.1680653,38.7488945 27.4680344,40.4716991 23.5841498,41.0330455 C22.9847907,36.4118645 22.3848671,31.7906836 21.7841907,27.1700673 C21.7345107,26.7918218 21.7640553,26.3823382 21.9785825,26.0558427 C22.1716571,25.7496709 22.5354125,25.5611127 22.8978507,25.5906573 C23.5854671,25.6358209 24.0113225,26.2906936 24.161868,26.9024727 C24.6611144,28.4105618 25.1708989,29.9148873 25.6693925,31.4235409 C29.1232816,31.4367136 32.5766062,31.4171427 36.0304953,31.41639 C38.7164144,27.5548991 39.8869053,22.6627364 39.1823525,18.00693 C39.1089616,17.7195764 39.1966544,17.3911991 39.4459953,17.2165664 Z M0.851786182,17.0338418 C1.24884982,16.9593218 1.72777255,17.0568 1.96205891,17.4139691 C2.09416255,17.6083609 2.07534436,17.8518682 2.03337982,18.0716645 C1.34764527,22.7071473 2.524158,27.5673191 5.18956527,31.4137555 C8.64420709,31.4229764 12.0988489,31.4301273 15.5534907,31.4274927 C16.0395644,29.9619327 16.5329771,28.4995718 17.020368,27.0353291 C17.1244325,26.7231355 17.210808,26.3953227 17.4142325,26.1297982 C17.6609389,25.7842964 18.0835953,25.5422945 18.5160371,25.5953618 C18.8459198,25.6279173 19.144188,25.8413155 19.2979325,26.13168 C19.4693662,26.4451909 19.4889371,26.81685 19.4418916,27.1642336 C18.8444144,31.7872964 18.2510771,36.4105473 17.653788,41.0330455 C13.1961371,40.3932273 8.99159073,38.2097536 5.87078345,34.96851 C2.90673164,31.9162009 0.893562545,27.9434945 0.241888909,23.7344318 C-0.0772674545,21.6917182 -0.0825365455,19.59876 0.237937091,17.5560464 C0.285735273,17.2604127 0.578169818,17.0842745 0.851786182,17.0338418 Z M3.49047164,12.0306518 C3.92103164,12.2609864 4.34237073,12.5082573 4.77029618,12.7438609 C4.88075891,12.5312155 5.01098073,12.3087845 4.99272709,12.0594436 L3.49047164,12.0306518 Z M3.37662164,10.0003582 C3.83465618,9.73144636 4.41105709,9.72034364 4.89901255,9.91341818 C5.54616982,10.1509036 6.17300345,10.5820282 6.45170073,11.2344545 C6.71477891,11.8409645 6.59622436,12.5475873 6.29400436,13.1168373 C6.24037255,13.2391555 6.14684618,13.3543227 6.12915709,13.4864264 C6.59039073,13.7624891 7.06423255,14.0176636 7.53788618,14.2715209 C7.27932436,14.73012 7.01511709,15.1862727 6.76521164,15.6495764 C4.99404436,14.6693373 3.22814618,13.6795009 1.449828,12.7111173 C1.689948,12.2615509 1.93853618,11.8166891 2.18185527,11.3697573 C2.47692436,10.83852 2.84331436,10.3149982 3.37662164,10.0003582 Z M36.1287262,11.9448409 C36.2491625,12.1516527 36.3622598,12.3859391 36.5833735,12.5024236 C37.0348216,12.7523291 37.6885653,12.3774709 37.6943989,11.8584655 C37.7009853,11.62098 37.5654944,11.4149209 37.4576662,11.2141309 C37.0192025,11.4666709 36.5743407,11.7067909 36.1287262,11.9448409 Z M32.5380289,12.1294473 C34.3137125,11.1539127 36.0835625,10.1659582 37.8586816,9.18778909 C38.1537507,9.70604182 38.4377171,10.2301282 38.7277053,10.7508273 C39.016188,11.2880864 39.2455816,11.8977955 39.1625935,12.51729 C39.0455444,13.3242136 38.2807735,13.9235727 37.4962435,14.0065609 C37.1140462,14.04909 36.7286498,13.9201855 36.4388498,13.6708445 C35.8827725,14.4875536 35.3180389,15.2980527 34.7672307,16.1179609 C34.4687744,15.6221018 34.2006153,15.1083655 33.9145789,14.6051673 C34.4682098,13.8245891 35.0229698,13.0441991 35.5771653,12.2636209 C34.8195453,12.6817609 34.0638071,13.1023473 33.3056225,13.5184173 C33.0489425,13.0558664 32.7913216,12.5940682 32.5380289,12.1294473 Z M8.46957436,6.29524636 C8.754858,6.94089818 9.03938891,7.58673818 9.33201164,8.22919091 C9.64269982,7.95651545 9.95602255,7.68628636 10.2682162,7.41530455 L8.46957436,6.29524636 Z M6.63498982,5.43544364 C7.08305073,5.03894455 7.53600436,4.64846727 7.98801709,4.25648455 C9.814698,5.36017091 11.6545516,6.44108727 13.4866898,7.53498818 C13.0672325,7.90213091 12.6458935,8.26776818 12.2264362,8.63566364 C12.0209416,8.50995818 11.8156353,8.38500545 11.6095762,8.26137 C11.0741989,8.72975455 10.5437144,9.20340818 10.0019389,9.66407727 C10.0836098,9.88989545 10.1739371,10.1123264 10.2636998,10.3353218 C9.84424255,10.6913618 9.44115709,11.06622 9.01586618,11.4162382 C8.222868,9.42264 7.42723527,7.42960636 6.63498982,5.43544364 Z M30.696858,4.87334455 C29.9366035,5.04609545 29.3588853,5.85753545 29.5131944,6.63547909 C29.612178,7.36035545 30.3579425,7.91059909 31.0790553,7.8039 C31.7973453,7.73069727 32.3842844,7.07845909 32.4320825,6.36788455 C32.4633207,5.95294364 32.3069416,5.52652364 32.0067916,5.23785273 C31.6691935,4.90420636 31.1580916,4.75949455 30.696858,4.87334455 Z M30.5241071,3.20436 C32.0577889,2.86807909 33.7248916,3.99152455 34.0141271,5.52840545 C34.1913944,6.34944273 34.0395316,7.23615545 33.5814971,7.94334273 C33.0079189,8.88952091 31.9256853,9.49452545 30.8212462,9.50581636 C30.0314471,9.49847727 29.2542562,9.16483091 28.701378,8.60160273 C27.9926853,7.91398636 27.7028853,6.85847455 27.8859862,5.89667727 C28.0988198,4.57187727 29.1914035,3.42603818 30.5241071,3.20436 Z M22.6086153,0.972523636 C23.5096298,0.192698182 24.8462853,0.0252163636 25.9428207,0.456340909 C25.8878716,1.05626455 25.8348044,1.65562364 25.7811725,2.25573545 C25.4422571,2.05927364 25.0610007,1.91945455 24.6643135,1.92848727 C24.161868,1.91945455 23.6502016,2.16540818 23.3799725,2.59521545 C23.0397398,3.13887273 23.1229162,3.91418182 23.5965698,4.35584455 C24.0879125,4.84794 24.8690553,4.91342727 25.5019107,4.68817364 C25.374888,5.29280182 25.2493707,5.89799455 25.1249825,6.50318727 C24.2437271,6.57526091 23.3146735,6.34756091 22.609368,5.80183364 C21.9968362,5.32347545 21.5958207,4.58617909 21.5324035,3.81143455 C21.4400062,2.77323545 21.7836262,1.64922545 22.6086153,0.972523636 Z M15.1564271,0.713397273 C16.0664744,0.14697 17.2401644,0.0297327273 18.2444907,0.405343636 C18.1456953,0.928112727 18.0455825,1.45012909 17.9514916,1.97365091 C17.3939089,1.81915364 16.7730971,1.73409545 16.2286871,1.98080182 C15.7138216,2.20003364 15.3551471,2.72863636 15.3342589,3.28678364 C15.314688,3.80503636 15.5109616,4.36694727 15.9610925,4.65957 C16.4695598,5.02069091 17.1852153,4.95576818 17.691048,4.62343909 C17.5766335,4.13209636 17.4659825,3.64018909 17.3547671,3.14809364 C17.8696325,3.03349091 18.3831807,2.91456 18.8987989,2.80127455 C19.1146435,3.74406545 19.3359453,4.68629182 19.5544244,5.62908273 C18.7687653,6.16634182 17.8289853,6.47834727 16.8811135,6.53913 C16.0487853,6.59558455 15.1857835,6.30183273 14.6106998,5.68666636 C14.0256425,5.06378455 13.7522144,4.19626636 13.733208,3.35283545 C13.710438,2.30598 14.2678325,1.26834545 15.1564271,0.713397273 Z M20.3336665,9.44490191 C20.4174074,8.89861009 20.4631355,8.34573191 20.5724692,7.80320373 C20.8976474,10.1385401 21.2058892,12.4755701 21.5310674,14.8107183 C22.3378028,13.8005583 23.1353174,12.7838119 23.9446874,11.7755337 C23.834601,13.1095546 23.7038146,14.4416937 23.5899646,15.7757146 C25.0758483,14.8210683 26.554581,13.8560719 28.0430992,12.9053774 C27.0846892,14.3886265 26.1247737,15.8699937 25.1714446,17.3564419 C26.5703883,17.1915946 27.9691437,17.0280646 29.3673346,16.8605828 C28.2459592,17.6940401 27.1106583,18.5099965 25.9939874,19.3507928 C27.6067055,19.6974237 29.2246928,20.0214728 30.8355292,20.3780774 C29.1763301,20.799981 27.5020765,21.1637365 25.8394901,21.5726555 C26.9674519,22.3891765 28.0980483,23.2017455 29.220741,24.0261701 C27.7636492,23.8692265 26.3086274,23.6977928 24.8528528,23.5368974 C25.8146501,24.9755474 26.809191,26.3921801 27.7649665,27.8342174 C26.353791,26.968581 24.9522128,26.0860083 23.5495055,25.2053174 C22.9232365,24.8579337 22.0662565,25.0861983 21.6650528,25.6712555 C21.5284328,25.8601901 21.4550419,26.0871374 21.4236155,26.3176601 C21.1411546,28.3942465 20.8532365,30.4697037 20.5719046,32.5462901 C20.2570765,30.4311265 20.0045365,28.3052365 19.6964828,26.1887555 C19.5348346,25.2805901 18.3910655,24.755751 17.5901637,25.200801 C16.1808701,26.0807392 14.7794801,26.9751674 13.358331,27.8360992 C14.3338655,26.4000837 15.3193737,24.971031 16.2960374,23.5368974 C14.8312301,23.6964755 13.3675519,23.8731783 11.9012392,24.025041 C13.0331528,23.2090846 14.1645019,22.391811 15.2903937,21.5687037 C13.625361,21.1742746 11.9595755,20.7817274 10.2949192,20.3852283 C11.9025565,20.0135692 13.5265655,19.7098437 15.1360846,19.3442065 C14.0284465,18.5145128 12.9042483,17.7058955 11.8005619,16.8716855 C13.1934837,17.020161 14.5832065,17.1968637 15.9755637,17.3564419 C15.0280683,15.8765801 14.0630719,14.4081974 13.1229155,12.9251365 C14.6048474,13.8600237 16.0651383,14.8302892 17.541801,15.7743974 C17.427951,14.4443283 17.2971646,13.116141 17.1885837,11.7853192 C18.0056692,12.7843765 18.7928337,13.8069565 19.6027683,14.8112828 C19.8462755,13.0226146 20.0903474,11.2337583 20.3336665,9.44490191 Z" id="形状结合"></path>
                        </g>
                    </g>
                </g>
            </g>
        </g>
    </g>
</svg>