<?xml version="1.0" encoding="UTF-8"?>
<svg width="180px" height="50px" viewBox="0 0 180 50" version="1.1" xmlns="http://www.w3.org/2000/svg" xmlns:xlink="http://www.w3.org/1999/xlink">
    <!-- Generator: Sketch 54 (76480) - https://sketchapp.com -->
    <title>footer_logo_2</title>
    <desc>Created with Sketch.</desc>
    <g id="页面1" stroke="none" stroke-width="1" fill="none" fill-rule="evenodd">
        <g id="3_1" transform="translate(-733.000000, -12907.000000)">
            <g id="页尾" transform="translate(0.000000, 12848.000000)">
                <g id="编组" transform="translate(498.000000, 59.000000)">
                    <g id="编组-9" transform="translate(235.000000, 0.000000)">
                        <rect id="矩形" fill="#D8D8D8" opacity="0" x="0" y="0" width="180" height="50"></rect>
                        <g id="item" transform="translate(12.000000, 10.000000)" fill="#333333">
                            <g id="icon" transform="translate(0.000000, 0.400000)">
                                <path d="M14.8531399,14.8723511 L9.72561373,0.695059631 C9.72561373,0.695059631 9.46006834,0.218885461 9.72561373,0.0688338007 C9.9911783,-0.081237048 10.195475,0.143475867 10.3793362,0.286504649 C10.5631975,0.429495055 12.9328816,2.08418878 13.2188816,2.32931793 C13.5048624,2.57446627 14.8531399,3.61632753 14.8531399,5.80215041 L14.8531399,14.8723511 Z M14.8531399,14.8723511 L0.675848413,19.9998773 C0.675848413,19.9998773 0.199693432,20.2654419 0.049622583,19.9998773 C-0.100429077,19.7343128 0.124283838,19.5300161 0.267293432,19.3461548 C0.410283838,19.1623128 2.06497756,16.7926094 2.31010672,16.5066286 C2.55525506,16.2206286 3.59711631,14.8723511 5.78295838,14.8723511 C3.59711631,14.8723511 2.55525506,13.5240737 2.31010672,13.2380737 C2.06497756,12.9520928 0.410283838,10.5823895 0.267293432,10.3985475 C0.124283838,10.2146862 -0.100429077,10.0103895 0.049622583,9.74482494 C0.199693432,9.47926037 0.675848413,9.74482494 0.675848413,9.74482494 L14.8531399,14.8723511 Z M14.8531399,14.8723511 L14.8531399,23.9425519 C14.8531399,26.1283939 13.5048624,27.170236 13.2188816,27.4153844 C12.9328816,27.6605135 10.5631975,29.3152072 10.3793362,29.4582168 C10.195475,29.6012264 9.9911783,29.8259393 9.72561373,29.6758685 C9.46006834,29.5258168 9.72561373,29.0496427 9.72561373,29.0496427 L14.8531399,14.8723511 Z M18.356614,6.88485373 L22.5240015,6.88485373 L23.0960015,8.68255705 C23.0960015,8.68255705 25.4656856,6.45586332 28.5299439,6.45586332 C31.5942022,6.45586332 32.7382022,8.90725077 32.7382022,8.90725077 C32.7382022,8.90725077 35.3325993,6.45586332 38.3968576,6.45586332 C44.0555321,6.45586332 44.0963838,11.8285379 44.0963838,11.8285379 L44.0963838,22.9211356 L38.8667188,22.9211356 L38.8667188,12.3392316 C38.8667188,12.3392316 38.5602834,10.8275475 36.8238672,10.8275475 C35.0874701,10.8275475 33.7800443,12.0123799 33.7800443,12.0123799 L33.7800443,22.9211356 L28.5299439,22.9211356 L28.5299439,12.3392316 C28.5299439,12.3392316 28.4686568,10.8479637 26.466676,10.8479637 C24.4646952,10.8479637 23.4228531,11.9715283 23.4228531,11.9715283 L23.4228531,22.9211356 L18.356614,22.9211356 L18.356614,6.88485373 Z M53.8866828,27.6707255 C55.1889854,27.6707255 57.4412186,27.4255963 57.4412186,26.0773188 C57.4412186,24.7290413 54.2084304,24.4226251 52.798885,24.3153823 C51.3893204,24.2081203 50.6232511,23.7178428 50.6232511,23.7178428 C50.224885,24.0395904 49.7958946,24.591155 49.7958946,25.3725365 C49.7958946,27.057893 52.584361,27.6707255 53.8866828,27.6707255 Z M53.5189603,10.158507 C51.9561972,10.158507 51.1288407,11.8438443 51.1288407,12.7095004 C51.1288407,13.5751565 51.8182917,15.2604937 53.5189603,15.2604937 C55.2196289,15.2604937 56.0163418,14.0041469 56.0163418,12.7478 C56.0163418,11.4914531 54.7140201,10.158507 53.5189603,10.158507 Z M60.1683979,22.231679 C61.8077795,23.4114074 62.175502,24.3153823 62.175502,25.4644672 C62.175502,26.6135712 61.3481455,30.9954635 53.9939256,30.9954635 C46.6397057,30.9954635 45.3986902,27.6707255 45.3986902,26.2305173 C45.3986902,24.7903284 46.3179581,23.1203225 48.2790872,22.5687387 C47.2832009,21.5269159 47.1912703,21.2664362 47.1912703,20.5769852 C47.1912703,19.8875151 47.7734784,18.447307 49.3822164,17.6506133 C48.0492703,16.6394148 46.5018193,15.3677365 46.5018193,12.6099137 C46.5018193,9.85207159 48.723409,6.45585756 53.5955596,6.45585756 C55.1123861,6.45585756 56.3380894,6.9767786 56.9662533,7.45684797 C56.9662533,7.45684797 58.5801145,5.35272841 62.7066311,5.80215424 C62.298057,7.10956089 61.6443537,9.27498672 61.6443537,9.27498672 C61.6443537,9.27498672 60.5820954,9.13197712 59.4585308,9.27498672 C59.764947,9.90825461 60.5820954,10.8786015 60.5820954,12.9316421 C60.5820954,14.9847018 59.2031551,18.9069601 53.7181529,18.9069601 C52.8754843,18.9069601 51.833623,18.6464996 51.833623,18.6464996 C51.833623,18.6464996 51.5731625,18.8456731 51.5731625,19.4432125 C51.5731625,20.0407328 52.0940835,20.5310103 53.1359448,20.7455151 C54.1777869,20.9600199 58.5290164,21.0519506 60.1683979,22.231679 Z M72.6705737,18.7537444 L72.6705737,15.7354418 C72.6705737,15.7354418 70.8933058,15.6128868 69.820801,15.8886787 C68.7483346,16.1644514 68.0741767,17.0684071 68.0741767,17.7119023 C68.0741767,18.3553783 68.5797855,19.4278831 70.280435,19.4278831 C71.9811036,19.4278831 72.6705737,18.7537444 72.6705737,18.7537444 Z M77.6959612,11.4914359 C77.6959612,13.5138713 77.6193427,21.8639776 77.9870461,22.9824189 L73.8503021,22.9824189 L73.0076335,21.6188292 C73.0076335,21.6188292 71.2916527,23.3654536 68.6717162,23.3654536 C66.0517796,23.3654536 63.0334962,21.5115864 63.0334962,18.0030063 C63.0334962,14.4944263 66.6033442,12.1655938 72.7318416,12.7095023 C72.6859051,11.6293414 72.1802962,10.3117075 69.928063,10.2963953 C67.6758298,10.2810639 65.7912999,11.3382373 65.7912999,11.3382373 L64.014032,8.13609269 C64.014032,8.13609269 67.1242652,6.49671114 70.8320379,6.49671114 C74.5397723,6.49671114 77.282283,8.1820676 77.6959612,11.4914359 Z" id="形状结合"></path>
                            </g>
                        </g>
                        <text id="malta-gaming-authoui" font-family="PingFangSC-Regular, PingFang SC" font-size="10" font-weight="normal" line-spacing="9" letter-spacing="-0.3" fill="#333333">
                            <tspan x="94" y="27">MALTA GAMING</tspan>
                            <tspan x="94" y="36">AUTHOUITY</tspan>
                        </text>
                    </g>
                </g>
            </g>
        </g>
    </g>
</svg>