<?xml version="1.0" encoding="UTF-8"?>
<svg width="180px" height="50px" viewBox="0 0 180 50" version="1.1" xmlns="http://www.w3.org/2000/svg" xmlns:xlink="http://www.w3.org/1999/xlink">
    <!-- Generator: Sketch 54 (76480) - https://sketchapp.com -->
    <title>footer_logo_1</title>
    <desc>Created with Sketch.</desc>
    <g id="页面1" stroke="none" stroke-width="1" fill="none" fill-rule="evenodd">
        <g id="3_1" transform="translate(-498.000000, -12907.000000)">
            <g id="页尾" transform="translate(0.000000, 12848.000000)">
                <g id="编组" transform="translate(498.000000, 59.000000)">
                    <g id="item">
                        <rect id="矩形" fill="#D8D8D8" opacity="0" x="0" y="0" width="180" height="50"></rect>
                        <g id="logo/logo_license_gambling-commission" transform="translate(43.400000, 14.000000)" fill="#333333">
                            <path d="M56.7302444,18.8696128 C57.7655641,19.6026245 58.0213568,20.6413559 57.8388736,21.8041559 C57.6681232,22.8925647 56.9752196,23.6011953 55.9579568,23.9927895 C55.6311845,24.1186055 55.2949261,24.2195413 54.963078,24.3318771 L54.6302312,24.3318771 L53.2156327,24.3318771 L52.6331509,24.3318771 C52.2569509,24.1234318 51.8259145,24.1131136 51.4225874,24.0036902 C50.4398575,23.73708 50.434532,23.7467326 50.8143101,22.8192552 C51.0875772,22.1520639 51.0837495,22.1605515 51.7340488,22.4603632 C52.6673509,22.890734 53.633605,23.1378727 54.6700896,22.9204406 C55.2553174,22.7975369 55.7031626,22.497642 55.8477013,21.8899472 C55.9872473,21.3027223 55.8198254,20.7963793 55.3431889,20.4035369 C54.7458123,19.9110902 54.0214546,19.6588756 53.332878,19.3418391 C52.8292809,19.1100114 52.3179451,18.8910815 51.8913188,18.5321895 C50.3197831,17.2102055 50.6028692,14.8768669 52.4469232,13.9479749 C53.6647261,13.3344552 54.9572531,13.3555909 56.261513,13.542734 C56.6571013,13.5994844 57.0476969,13.6844435 57.419986,13.8466231 C57.6339232,13.9398201 57.6845991,14.0647209 57.5888225,14.2659267 C57.5710152,14.303372 57.552875,14.340734 57.5372312,14.3790946 C57.3967699,14.7244231 57.34884,15.1952347 57.0929641,15.3832099 C56.7824181,15.6114596 56.4907612,15.1236727 56.1538371,15.0228201 C55.3270458,14.7750158 54.5100736,14.650115 53.6765422,14.9831282 C52.7367495,15.3586625 52.5531845,16.4260187 53.327386,17.0804785 C53.843132,17.5162581 54.4802006,17.7311107 55.0833188,18.004461 C55.6494911,18.2610858 56.2172444,18.5064771 56.7302444,18.8696128 Z M64.1687527,18.657032 C65.3820622,19.3435283 65.8005337,20.4165429 65.6096461,21.7473473 C65.4329045,22.9801283 64.6325746,23.6816028 63.5088009,24.0798539 C63.2426067,24.1742159 62.945541,24.1678086 62.7017308,24.3318188 L62.3688841,24.3318188 L60.9542855,24.3318188 L60.3718038,24.3318188 C60.0134943,24.1136378 59.5913615,24.1239561 59.2034286,24.0088743 C58.2410023,23.7234582 58.237341,23.7356072 58.5731834,22.8352568 C58.8400432,22.1197196 58.832887,22.134448 59.5187177,22.4652977 C60.4345454,22.9070685 61.3933104,23.1287444 62.4153994,22.925375 C63.002541,22.8085458 63.4623688,22.5098991 63.6056593,21.9083619 C63.7510301,21.2980874 63.5821104,20.7542991 63.0622038,20.3567969 C62.4614155,19.8974685 61.7570286,19.6370159 61.0750257,19.3362889 C60.4120782,19.0437999 59.7616958,18.7274291 59.2777366,18.1730728 C58.1419804,16.8721415 58.5390666,14.8778072 60.0891337,14.0218086 C61.3461293,13.3275736 62.6917454,13.3549502 64.0531717,13.5446728 C64.4629892,13.6017561 64.8667323,13.6976159 65.2480082,13.8745239 C65.4071089,13.9483327 65.4511279,14.0258028 65.3796491,14.192559 C65.2270388,14.5484553 65.0788388,14.9071809 64.951941,15.272813 C64.8675644,15.5156247 64.773452,15.5195356 64.569833,15.3858977 C63.7600169,14.8545079 62.8693191,14.67294 61.9133001,14.8361181 C61.0170272,14.9891444 60.5491279,15.5102159 60.6159469,16.2653619 C60.6536418,16.6914889 60.9113483,16.9689166 61.2402841,17.1969166 C61.8943279,17.6501707 62.6577118,17.8819984 63.3600184,18.2373955 C63.6310388,18.3744451 63.9045556,18.5075838 64.1687527,18.657032 Z M8.6205635,22.4833879 C8.66458248,22.6416565 8.74454891,22.7901061 8.80978686,22.9423835 C9.08654891,23.588855 9.08871241,23.5936813 8.42160438,23.8650346 C7.98582482,24.0423587 7.53132263,24.1587718 7.06650219,24.2328302 C6.98911533,24.2452288 6.89475328,24.2207645 6.86671095,24.3318521 L6.36744088,24.3318521 L4.95284234,24.3318521 L4.45357226,24.3318521 C4.28407007,24.143128 4.03401898,24.1626828 3.82024818,24.1000244 C1.81809197,23.5132156 0.472226277,22.2598813 0.101518248,20.1810872 C-0.339170803,17.7101164 0.646721168,15.1249791 3.21995912,13.9808185 C3.29218686,13.948782 3.37672993,13.9442886 3.4556146,13.9269806 L3.60040292,13.8399412 C3.60048613,13.8399412 3.60048613,13.8399412 3.60056934,13.839858 C4.60942774,13.4316215 5.65207007,13.381528 6.70736058,13.4660711 C6.74205985,13.4685674 6.7765927,13.4704813 6.81129197,13.4736434 C6.92021606,13.4835455 7.03330073,13.4533397 7.13773139,13.5072609 C7.72121168,13.5348039 8.27981168,13.6641981 8.82035474,13.8891193 C8.98969051,13.9595164 9.01556934,14.0280828 8.949,14.1929251 C8.7894,14.5885966 8.64843942,14.9919236 8.5029854,15.3932536 C8.44199124,15.5615076 8.38207883,15.6651893 8.18952701,15.5037587 C7.90128175,15.262112 7.55578686,15.1192375 7.20105547,15.0007441 C6.94800876,14.9593047 6.68722336,14.9561426 6.44774015,14.8478842 C5.71264818,14.7798171 4.99702774,14.8800039 4.29530365,15.0983514 C2.07921022,16.4359791 1.3972073,19.0623893 2.7103708,21.2021777 C3.54290365,22.5588609 5.21204672,23.193766 6.95965839,22.8152361 C7.4064219,22.7184609 7.84211825,22.583658 8.23238102,22.3393485 C8.44074307,22.2087893 8.55291241,22.2399937 8.6205635,22.4833879 Z M91.077812,22.0018336 C91.1052718,22.0018336 91.1326485,22.0019168 91.1601083,22.0019168 L91.1601083,24.0822088 L91.1235784,24.0832073 L91.0869653,24.0828745 C90.5316105,24.237981 89.9661039,24.1321358 89.4055901,24.1382102 C89.2241886,24.1401241 89.1581185,23.9366715 89.0663361,23.8017854 C87.6189521,21.6731474 86.173482,19.5430117 84.7241842,17.4156219 C84.4671434,17.0384234 84.1968718,16.6701285 83.9277653,16.3012511 C83.8842455,16.2415051 83.8402266,16.1443971 83.7353799,16.1949898 C83.6584091,16.232019 83.676882,16.3158131 83.678047,16.380635 C83.7058397,17.8206131 83.6439302,19.2605912 83.7147434,20.7011518 C83.767666,21.779908 83.7475288,22.8622423 83.76492,23.9428292 C83.7672499,24.0840394 83.7139112,24.1501927 83.576612,24.1504423 C83.1191974,24.1514409 82.6617828,24.1473635 82.2044514,24.1530219 C81.9587273,24.1561007 81.9940923,23.9834365 81.9960893,23.836235 C82.0059915,23.143581 81.9955901,22.4495124 82.0372791,21.7586891 C82.1269813,20.2771883 82.0932806,18.7955212 82.0807988,17.313854 C82.0712295,16.1928263 82.0418558,15.0716321 81.9946747,13.9515197 C81.9819434,13.6495445 82.0668193,13.5666657 82.3570616,13.5823095 C82.7717054,13.6048599 83.1909258,13.6164263 83.6034893,13.5798131 C83.9845156,13.5460292 84.2045273,13.7032161 84.4197959,13.9977854 C85.9963244,16.154965 87.5187653,18.3493401 89.0029288,20.5707591 C89.0779857,20.6829285 89.1233361,20.824638 89.2712864,20.8837182 C89.4281404,20.8131547 89.3598236,20.6686993 89.3592412,20.5604409 C89.3478412,18.3986015 89.3425156,16.2366788 89.304155,14.0752555 C89.2969988,13.6685168 89.4013463,13.5362934 89.8029258,13.5808949 C90.1177988,13.615927 90.4406601,13.6036117 90.7581127,13.5831416 C91.0122412,13.5667489 91.0973667,13.6457168 91.0849682,13.9065022 C91.0460251,14.7220599 91.0413653,15.5391985 91.0238076,16.3552555 C90.9868616,18.0730774 91.0131565,19.7923139 91.0116587,21.5110511 C91.0114923,21.678473 91.0178996,21.8433153 91.077812,22.0018336 Z M45.7302928,18.5370158 C45.8340578,20.2774712 45.9762666,22.0157632 46.1199731,23.7533895 C46.1460184,24.0687618 46.0684651,24.176188 45.7479337,24.1590464 C45.305414,24.1354143 44.8600651,24.1394917 44.4171293,24.1582143 C44.1483556,24.1694479 44.056906,24.088899 44.0615658,23.8091413 C44.0762111,22.9357515 44.0802053,22.0614464 44.055325,21.1883895 C44.0113892,19.6379895 43.9434885,18.0882552 43.8844914,16.5382712 C43.8804972,16.4318435 43.9081235,16.3132669 43.7576768,16.2060902 C43.4368126,17.0726566 43.1169469,17.9211661 42.8083147,18.7736698 C42.2108549,20.424007 41.6137279,22.0744274 41.0310797,23.730007 C40.9170797,24.0540333 40.7490753,24.2084742 40.3956753,24.1578815 C40.2053702,24.1306712 40.0079921,24.1527223 39.8138593,24.1527223 C39.0052914,24.1526391 39.0047089,24.1528888 38.758652,23.4081442 C38.0003439,21.1125836 37.242868,18.8168566 36.4835615,16.5216289 C36.4710797,16.4838508 36.4407907,16.4518143 36.418906,16.417115 C36.3653177,16.4702041 36.3117293,16.5232099 36.2583074,16.576299 C36.2536476,16.5831223 36.2482388,16.5891136 36.2409994,16.5933574 C36.0640914,18.1057296 35.9193863,19.6211807 35.8241921,21.1412085 C35.7670257,22.0527092 35.705033,22.9640435 35.655522,23.8760435 C35.645287,24.0655165 35.5831279,24.1562172 35.3863323,24.1538873 C34.9564607,24.1487282 34.526506,24.150226 34.0966345,24.1534712 C33.8988403,24.1549691 33.8393439,24.0897311 33.870798,23.8757107 C34.179014,21.7791924 34.3866272,19.6725223 34.5264228,17.5573647 C34.6077206,16.3272464 34.6866885,15.0973778 34.732122,13.8656785 C34.7402768,13.6457501 34.8070126,13.5802625 35.0208666,13.5842566 C35.616995,13.5956566 36.214122,13.6038114 36.8095848,13.5814274 C37.1040709,13.5702771 37.2460301,13.6513253 37.3330695,13.9511369 C38.0853031,16.5415165 39.0677001,19.0539267 39.9482461,21.6008698 C39.9932636,21.7310961 40.042941,21.8595749 40.094033,21.9985384 C40.3049746,21.872972 40.323198,21.6507136 40.39476,21.4659004 C41.3579352,18.9784537 42.2421425,16.462299 43.0996388,13.9369077 C43.1892578,13.6727939 43.3118286,13.5675311 43.6010724,13.5809282 C44.1545965,13.606807 44.7103673,13.5962391 45.2648067,13.5841734 C45.4923907,13.5793472 45.5813439,13.644918 45.5798461,13.8875632 C45.5706928,15.4391282 45.6381775,16.9891953 45.7302928,18.5370158 Z M32.743987,20.1691463 C32.8157987,21.3843696 32.9358731,22.596847 33.049041,23.809158 C33.0730892,24.0670309 33.0035242,24.1633069 32.7419067,24.1563171 C32.2707622,24.1438353 31.7985359,24.1379273 31.3279739,24.1583974 C31.0417257,24.1709623 30.9838936,24.0534674 30.9812308,23.7932645 C30.9660031,22.2417828 30.9716615,20.6885536 30.8951067,19.1397346 C30.8490074,18.2056003 30.9055914,17.2621463 30.7282673,16.280082 C30.4497578,16.585885 30.4712264,16.9838032 30.2517972,17.2594003 C30.1846454,17.562374 30.0966907,17.8575258 29.9262731,18.1214733 C29.9382556,18.1427755 29.9341782,18.1604996 29.9139578,18.1744791 C29.3943009,19.6308499 28.8761418,21.0878032 28.3539885,22.5432587 C28.195387,22.9855288 28.0064965,23.4179799 27.8688644,23.8664076 C27.7953885,24.1053083 27.6690731,24.162558 27.4461491,24.1558178 C27.0582162,24.1441682 26.6691184,24.1404236 26.2816016,24.1568996 C26.010914,24.1683828 25.9014074,24.0542164 25.8174469,23.8005039 C25.0275184,21.4134105 24.2220293,19.0314762 23.4206177,16.6482105 C23.3733534,16.507666 23.3599564,16.3501463 23.1854615,16.2135127 C23.0997534,17.0318996 22.9980688,17.8167521 22.9387388,18.6048499 C22.8078469,20.3441404 22.6261126,22.0802689 22.5905812,23.8257171 C22.5863374,24.0410689 22.5305855,24.1630572 22.2837797,24.1557346 C21.8681374,24.1433361 21.4516629,24.1443346 21.0359374,24.1557346 C20.8071885,24.1619755 20.7488571,24.0723565 20.7808936,23.8560893 C21.1897126,21.1017828 21.4078104,18.3285039 21.5927899,15.5523127 C21.6304848,14.9862236 21.5887126,14.4176382 21.664352,13.8508835 C21.6941418,13.6271273 21.7809315,13.5820266 21.9790585,13.5847726 C22.6029797,13.5936762 23.2271505,13.5930105 23.8510717,13.5856879 C24.0422921,13.5834412 24.1289987,13.6328689 24.1914074,13.8403156 C24.9881593,16.488028 26.001095,19.0617653 26.8891301,21.6785229 C26.9200016,21.7694733 26.8882147,21.9334003 27.052641,21.9221667 C27.1743797,21.9139288 27.1648104,21.7793755 27.1974293,21.6937507 C27.6342907,20.5438485 28.0681564,19.3928645 28.5052673,18.2431288 C28.5784104,18.0504105 28.6634527,17.8621857 28.7429199,17.6718806 C28.7498264,17.6450864 28.7566498,17.6183755 28.7635564,17.5914981 C28.8438556,17.3000908 28.9067636,17.002193 29.0790118,16.7452353 C29.4162688,15.7523536 29.7555228,14.7602207 30.0888688,13.7660908 C30.1468673,13.5929273 30.2734323,13.5870193 30.4178877,13.5875185 C31.0140994,13.5894324 31.6106439,13.6000003 32.2063564,13.5831915 C32.4613169,13.5759521 32.497514,13.6851258 32.4961826,13.902974 C32.483368,15.9953317 32.6206673,18.0823638 32.743987,20.1691463 Z M49.3192042,23.1184511 C49.3192874,23.1322642 49.3196203,23.1461606 49.3192874,23.1599737 C49.313213,23.4744307 49.5313108,23.8792555 49.3212013,24.0771328 C49.0873765,24.2973942 48.6610831,24.1265606 48.3196655,24.1512745 C48.1956801,24.1603445 48.0704466,24.1527723 47.9457955,24.1527723 C47.3094758,24.1526891 47.2870086,24.1506088 47.3440086,23.5372555 C47.4427809,22.4728949 47.3984291,21.4067869 47.4091634,20.3420934 C47.4272203,18.5419752 47.4035882,16.7414409 47.3904407,14.9411562 C47.3881108,14.6239533 47.3742977,14.3032555 47.3238714,13.9910453 C47.266705,13.6376453 47.4156539,13.5556818 47.7291123,13.5842234 C47.9488743,13.6041942 48.1719648,13.5880511 48.3935575,13.5880511 C48.5735444,13.5880511 48.757775,13.6126818 48.9328524,13.5830584 C49.348994,13.5128277 49.413067,13.7217723 49.3766203,14.0674336 C49.2358261,15.4060599 49.2968203,16.7500117 49.293575,18.0917168 C49.2895809,19.7672672 49.3096349,21.4428175 49.3192042,23.1184511 Z M67.9777923,13.5880261 C68.8016711,13.5880261 68.792601,13.5875269 68.7455032,14.4094086 C68.6209353,16.5825648 68.6518069,18.7579677 68.6737747,20.9327882 C68.6833441,21.887559 68.7168784,22.842413 68.7585674,23.7964349 C68.7706331,24.0726145 68.6843426,24.1673926 68.4102434,24.1571575 C67.9673908,24.1405152 67.522458,24.1354393 67.0801879,24.1587385 C66.7745514,24.1748816 66.7005762,24.0531429 66.7178842,23.7723867 C66.8613412,21.4467035 66.7916098,19.1181911 66.797185,16.7908436 C66.7993485,15.8774291 66.7600726,14.9631823 66.7155543,14.0505166 C66.6990784,13.7145911 66.7427645,13.5155488 67.1470901,13.5827006 C67.3358974,13.6139882 67.534274,13.5880261 67.7283236,13.5880261 L67.9777923,13.5880261 Z M17.6151469,21.3778292 C18.4887863,19.8666219 18.5154972,18.2729518 17.7973804,16.720638 C17.181614,15.3894175 16.0430286,14.7620015 14.5660213,14.8369752 C13.1947761,14.9063737 12.2219483,15.5829679 11.6745819,16.8496161 C11.2497031,17.8330949 11.189125,18.8590949 11.3693615,19.9006555 C11.6713366,21.6464365 12.8809016,22.9632613 14.7406826,22.9444555 C16.0037527,22.954108 17.003125,22.4365314 17.6151469,21.3778292 Z M19.1020564,15.1466891 C19.7631731,15.897092 20.1765688,16.762327 20.3060461,17.7424774 C20.5640023,19.6950394 20.1715761,21.4616234 18.6900753,22.871562 C17.915541,23.6086511 16.9777454,24.0271226 15.9368505,24.2317401 C15.8483133,24.2491314 15.7352286,24.2114365 15.6871323,24.3318438 L15.3542855,24.3318438 L14.189322,24.3318438 L13.6068403,24.3318438 C13.4346753,24.146365 13.186122,24.1567664 12.9701045,24.1025956 C10.8051031,23.5603883 9.32951036,21.8288365 9.1744038,19.6049212 C9.02087825,17.4019752 9.69289577,15.5577547 11.6002739,14.3050861 C13.738814,12.900473 17.3656782,13.1759869 19.1020564,15.1466891 Z M77.828707,21.8932673 C78.609815,21.0406804 78.8482165,19.9894673 78.8569537,19.1551038 C78.8572866,18.1392556 78.739542,17.4362834 78.4198428,16.7770804 C77.8546691,15.6118673 76.9312691,14.9348571 75.6360793,14.8423257 C74.2723231,14.7448016 73.1453041,15.2157797 72.4553128,16.4439009 C71.6763683,17.8302907 71.6588107,19.2950658 72.1899508,20.7687447 C73.0367128,23.1178104 76.1404253,23.7361564 77.828707,21.8932673 Z M77.6061158,13.8001826 C79.6282428,14.5272863 80.7501026,16.0073724 80.9364968,18.1386731 C81.1317946,20.3726571 80.4135114,22.2243666 78.4716836,23.4912644 C77.8842092,23.8745374 77.2240077,24.0759096 76.5469975,24.2291023 C76.4713581,24.2461607 76.3739172,24.2186177 76.3484545,24.3318688 L75.9323961,24.3318688 L74.6842209,24.3318688 L74.1849508,24.3318688 C73.9031128,24.1177651 73.5490472,24.1116907 73.2294311,24.0134177 C71.2474953,23.4044746 69.8917274,21.6747534 69.7594209,19.6087739 C69.6817844,18.394133 69.8449625,17.2396542 70.4336019,16.1625622 C71.1347435,14.8796045 72.2090895,14.0674585 73.6058807,13.6730352 C74.9513304,13.2930907 76.2991099,13.3302031 77.6061158,13.8001826 Z M33.4789958,8.82806015 C33.5357461,9.39123679 33.5433184,9.95907328 33.5876702,10.5235813 C33.6080571,10.7828689 33.5079534,10.8639171 33.2563213,10.8550134 C32.8133023,10.8394528 32.3691184,10.8430309 31.9258498,10.8535156 C31.6767972,10.8593404 31.5703695,10.7614003 31.5814366,10.5106835 C31.592587,10.2617142 31.5782746,10.0116631 31.5845155,9.76227766 C31.6268702,8.08581197 31.5080439,6.41242511 31.4769228,4.73737401 C31.4664381,4.17411416 31.4246658,3.60636088 31.4037797,3.04027182 L31.4036965,3.04018861 C31.3251447,3.03852438 31.2466761,3.03677693 31.1681242,3.03502949 C30.5282264,4.79969956 29.8884118,6.56436964 29.2482644,8.32903971 C28.9891432,9.04366161 28.7248629,9.75645285 28.4728147,10.4735711 C28.380533,10.7361039 28.2522206,10.9165069 27.9375972,10.8519346 C27.8977388,10.8438631 27.8546352,10.8509361 27.8131126,10.8510193 C26.5403899,10.8522674 26.5424702,10.8515185 26.1407242,9.63371562 C25.4404147,7.51023679 24.738441,5.38734044 24.0314746,3.26619153 C23.9931972,3.15152584 24.0144162,2.93517547 23.8147082,2.97586599 C23.6475359,3.00998277 23.6940512,3.1982908 23.6823184,3.33126307 C23.5446031,4.88490832 23.3837549,6.43713898 23.2793242,7.99303095 C23.2266512,8.77813314 23.1297928,9.56423387 23.1710658,10.3544952 C23.189622,10.709393 23.0773695,10.9022777 22.672295,10.8573434 C22.3710688,10.8238091 22.0621038,10.8357083 21.7583812,10.8552631 C21.4762936,10.8735696 21.3854264,10.7603185 21.4197096,10.4923769 C21.5144045,9.75312438 21.6107636,9.01387182 21.6890658,8.27287182 C21.8036483,7.18854044 21.9208104,6.10395942 22.0046877,5.01696526 C22.1196031,3.52947328 22.2348512,2.04131562 22.2635593,0.548747737 C22.2673038,0.353865985 22.3395315,0.277893723 22.5345797,0.279807591 C23.1583345,0.286131679 23.7825885,0.295201752 24.4056775,0.276063066 C24.7019111,0.266826569 24.7468454,0.472692263 24.8030965,0.663829489 C25.1624045,1.88337985 25.5805432,3.08304263 26.00226,4.28170686 C26.4745695,5.62374482 26.9373096,6.96919445 27.4145286,8.30956818 C27.4607943,8.43921197 27.4447345,8.66371708 27.6341242,8.66646307 C27.795222,8.66870978 27.7921432,8.46059737 27.8372439,8.34135504 C28.3897695,6.88223825 28.9436264,5.42353752 29.4768469,3.95734774 C29.8872469,2.82908058 30.2728498,1.69182657 30.6597009,0.55532146 C30.7286834,0.352534599 30.8328644,0.272484964 31.0496308,0.277477664 C31.6038206,0.290375474 32.1585928,0.287546277 32.7128658,0.278809051 C32.9164848,0.275563796 32.9957023,0.332397372 33.0200001,0.554572555 C33.0577782,0.899235328 33.0697607,1.24223387 33.0796629,1.58764555 C33.1489782,4.00452876 33.2361841,6.42041343 33.4789958,8.82806015 Z M63.7055632,1.24466365 C63.7040654,4.29512058 63.6985734,7.34557752 63.7138012,10.3960345 C63.7155486,10.760252 63.6141968,10.8226607 63.2580508,10.8693425 C62.2892172,10.9962403 61.7303676,10.6308578 61.2055515,9.78983737 C59.7330377,7.42995416 58.1645807,5.12865197 56.5424523,2.86629285 L56.5424523,2.86620964 C56.4625691,2.8687892 56.3827691,2.87120234 56.3029691,2.87361547 C56.3017209,4.01061985 56.2307413,5.15303299 56.3167822,6.28338044 C56.4262888,7.72127825 56.2756756,9.16200526 56.4383545,10.59516 C56.4585749,10.7736491 56.3606347,10.8492053 56.1927968,10.8495381 C55.7491121,10.8503702 55.3053442,10.844795 54.8616596,10.8517848 C54.6004581,10.8559454 54.6232581,10.6826155 54.6287501,10.5131133 C54.6537968,9.75264175 54.6964844,8.99225343 54.7005618,8.2317819 C54.7107968,6.3045162 54.719118,4.37700088 54.6948201,2.44998482 C54.6870815,1.84295562 54.6401501,1.23476146 54.6219267,0.626234453 C54.6134391,0.342482628 54.7155399,0.248453431 54.9799034,0.280489927 C55.0482201,0.288811095 55.1207807,0.293470949 55.1873501,0.279824234 C56.3309282,0.0454169343 57.0139296,0.566488467 57.6424274,1.50844467 C58.9553413,3.47615124 60.3797588,5.36996584 61.6791092,7.34940526 C61.7437647,7.44792788 61.7883661,7.62100818 61.9330712,7.58780672 C62.122045,7.54437022 62.0365034,7.35581255 62.036753,7.23382423 C62.0406639,5.07231766 62.0736158,2.91006219 61.9497136,0.750885547 C61.9266639,0.349638832 62.0655442,0.226818394 62.4356698,0.279574599 C62.5307807,0.293221314 62.6294698,0.281738102 62.7264946,0.281738102 C63.7091413,0.281738102 63.7060625,0.281738102 63.7055632,1.24466365 Z M74.2717323,7.99115036 C74.2718987,8.68430365 74.2609147,9.37778978 74.2777235,10.070527 C74.2837147,10.318581 74.2064943,10.4372409 73.9670943,10.5142117 C73.2922476,10.7313109 72.5964315,10.8324964 71.8992009,10.923946 C70.7636943,11.0730613 69.6333469,11.0347007 68.5376155,10.6819664 C66.5386213,10.0384073 65.1430782,8.75752993 64.8267074,6.63313577 C64.4548345,4.13520438 65.5939191,1.60631825 68.1807206,0.602286131 C70.1108155,-0.146868613 72.0428242,-0.0323693431 73.9755819,0.608610219 C74.2109877,0.686662774 74.2433571,0.79750073 74.1623921,1.00311679 C74.0508885,1.28578686 73.9446272,1.57087007 73.8471863,1.85869927 C73.758233,2.12139854 73.6840914,2.22699416 73.3567366,2.0619854 C72.1020709,1.43007591 70.7723483,1.29851825 69.415998,1.67347007 C67.9368272,2.08228905 67.1201877,3.1107854 66.8727162,4.59103796 C66.6656855,5.82981022 66.8177965,7.02048613 67.5580476,8.07952117 C68.2072651,9.00824672 69.1061177,9.53622482 70.2369644,9.59813431 C70.812706,9.62950511 71.3982666,9.67377372 71.9734257,9.5261562 C72.1397658,9.48355182 72.2540987,9.43254307 72.2699089,9.24307007 C72.363106,8.12520438 72.397306,7.0067562 72.2850534,5.88889051 C72.2591746,5.63143358 72.2955381,5.49912701 72.5968476,5.51202482 C73.0535133,5.53149635 73.5119264,5.52741898 73.9690082,5.51310657 C74.2094067,5.50553431 74.278722,5.59972993 74.2754768,5.82864526 C74.2651585,6.54934161 74.2716491,7.27028759 74.2717323,7.99115036 Z M9.44853635,7.63319036 C9.42440496,8.45157723 9.52775387,9.26364 9.53099912,10.0802794 C9.53199766,10.314021 9.47000496,10.4402531 9.24500058,10.5024123 C7.43531299,11.0028473 5.60773489,11.2518166 3.77632905,10.6738283 C1.77151007,10.0411699 0.378796204,8.73774219 0.0854750365,6.60585898 C-0.255443212,4.12848088 0.808667737,1.73206774 3.30992759,0.637334891 C4.59080496,0.0767378102 5.92951445,0.0346327007 7.29776409,0.16893635 C7.93757869,0.231677956 8.5426108,0.396769927 9.14922394,0.585161168 C9.38995533,0.659885255 9.50628526,0.750419562 9.38937285,1.0278473 C9.24491737,1.37042978 9.1368254,1.72882248 9.02224292,2.08347066 C8.96873781,2.24864584 8.88544292,2.27078015 8.74789401,2.18074511 C7.96911591,1.67099036 7.08158015,1.48642686 6.18322686,1.47011737 C4.30264292,1.43575095 2.48455095,2.24656555 2.11633927,4.65338015 C1.87743854,6.2148473 2.17949693,7.60672905 3.37025606,8.70728672 C3.9832765,9.27387504 4.72061518,9.61912029 5.58160642,9.60672175 C6.11973635,9.59889985 6.65778307,9.64466628 7.19624584,9.53324584 C7.46402102,9.47782686 7.53907796,9.35925022 7.53633197,9.11652175 C7.53000788,8.56199912 7.53425168,8.00731007 7.53475095,7.45262102 C7.53516701,6.91191153 7.54432029,6.3708692 7.53084,5.83049255 C7.52509839,5.60215971 7.58825606,5.50455241 7.83123416,5.51220788 C8.28848234,5.52668672 8.74681226,5.52976555 9.2038108,5.51195825 C9.46825752,5.50164 9.55188526,5.60665314 9.52400934,5.85229401 C9.45702394,6.44409547 9.46609401,7.03889255 9.44853635,7.63319036 Z M50.0673771,9.36690569 C50.3116034,9.34294073 50.4261026,9.38271591 50.3212559,9.68643854 C49.9205085,10.8474079 49.9309099,10.850986 48.7146048,10.850986 L46.8024004,10.850986 C45.9155304,10.850986 45.0284107,10.8385874 44.1419566,10.8575597 C43.8223406,10.8643831 43.7037639,10.7870794 43.7229858,10.4434152 C43.8247537,8.61833343 43.8112734,6.79075533 43.8195946,4.96351007 C43.8259187,3.55107504 43.7747435,2.14055387 43.7203231,0.730448759 C43.7054282,0.34634365 43.8282486,0.249984526 44.1858092,0.274948029 C44.5995377,0.303905693 45.0170107,0.288594745 45.4324866,0.279108613 C45.6410982,0.274365547 45.7288866,0.33793927 45.7233946,0.56344292 C45.6916909,1.84823124 45.6382691,3.13193781 45.5903391,4.41606044 C45.5557231,5.3398765 45.5341712,6.26727066 45.6228749,7.19474803 C45.6792924,7.78555095 45.6672267,8.38592321 45.6446764,8.98038745 C45.6303639,9.35517285 45.7670807,9.45652467 46.1250574,9.44545752 C47.4387201,9.40493343 48.7550457,9.49580058 50.0673771,9.36690569 Z M53.2333235,7.80278409 C53.2559571,8.66036365 53.2662753,9.51869212 53.3008914,10.3758556 C53.315287,10.7301709 53.2190943,10.887025 52.8391498,10.8572352 C52.4670272,10.8280279 52.0896622,10.8321053 51.7167907,10.8564031 C51.3982564,10.877206 51.2671147,10.7883359 51.2930768,10.445587 C51.3421717,9.79778409 51.3781191,9.14731839 51.3801162,8.49793445 C51.3865235,6.32095051 51.3833615,4.14396657 51.3649717,1.96723226 C51.3612272,1.52687606 51.2950739,1.08693591 51.2929104,0.643334453 C51.291579,0.38546146 51.3464155,0.26305708 51.6353264,0.276204526 C52.0919921,0.296924234 52.5504053,0.289102336 53.0077366,0.278784088 C53.2245031,0.273874599 53.3039702,0.356587007 53.297979,0.571273139 C53.2871615,0.959122774 53.2949001,1.34755489 53.2949001,1.9118965 C53.1890549,3.75736511 53.1799016,5.78098993 53.2333235,7.80278409 Z M40.8043861,7.81107197 C40.8413321,7.15919168 40.4439131,6.59942672 39.8039321,6.3428019 C38.9430241,5.99755664 38.0434226,6.04082672 37.1463175,6.03283839 C36.9357088,6.03092453 36.8921058,6.14725445 36.8932708,6.32349679 C36.8964328,6.7945581 36.8944358,7.26561942 36.8944358,7.73668073 L36.9038387,7.73668073 C36.9038387,8.20774204 36.905919,8.67872015 36.9026737,9.14969825 C36.901592,9.31969971 36.9253905,9.45175664 37.1427394,9.45100774 C37.9990708,9.44817854 38.8598124,9.50467927 39.6971715,9.25787343 C40.3429774,9.06756832 40.7645277,8.51371139 40.8043861,7.81107197 Z M36.8939365,3.17493328 C36.8939365,3.57701212 36.8946022,3.97909095 36.8936869,4.38116978 C36.8932708,4.54151869 36.8951015,4.69471139 37.1207715,4.69279752 C37.8937248,4.68639022 38.6748328,4.76544131 39.4155832,4.44932015 C40.0481584,4.17921504 40.4200314,3.66147197 40.3839175,3.0902238 C40.3419788,2.42669387 39.9568752,1.9623727 39.2619745,1.75958584 C38.5867117,1.56254058 37.8926431,1.59948657 37.2009044,1.61496394 C36.9641672,1.62028949 36.8981803,1.75492599 36.9019248,1.96894642 C36.9089978,2.37085883 36.9039219,2.77293766 36.9039219,3.17493328 L36.8939365,3.17493328 Z M40.5841248,5.26546029 C41.7272036,5.50020044 42.6525175,6.47211285 42.7192533,7.50809825 C42.8058766,8.85446321 42.0519788,9.99962234 40.7982285,10.4365669 C39.9821715,10.7209012 39.1395701,10.8419742 38.2799934,10.8489639 C37.3102445,10.8567858 36.340246,10.8420574 35.3705803,10.8557873 C35.0441409,10.8604472 34.9397102,10.8086895 34.9629263,10.4213391 C35.0230883,9.41322964 35.0030343,8.3997946 35.0020358,7.38852307 C34.9998723,5.24107927 34.9901365,3.09371869 34.9819818,0.946274891 C34.9794022,0.281829635 34.9771555,0.281746423 35.6708912,0.281829635 C36.5992007,0.281996058 37.528592,0.252871971 38.4554036,0.290150803 C39.5264212,0.333254453 40.5856226,0.488194599 41.4510241,1.20323255 C42.5034854,2.0727946 42.5112241,3.56128511 41.4823117,4.46504715 C41.2129555,4.70170117 40.9220474,4.91580482 40.5724752,5.02872307 L40.5724752,5.02880628 C40.5763861,5.10769095 40.5802971,5.18657562 40.5841248,5.26546029 Z M16.7827888,6.5085346 C17.0505639,6.50920029 17.1198793,6.42349226 17.0144501,6.15330394 C16.7138063,5.38326307 16.4662515,4.59158715 16.146053,3.83011708 C15.9339464,3.32577109 15.8641318,2.76550686 15.5433508,2.27106307 C15.4810253,2.32881197 15.4523172,2.34320759 15.4429143,2.36575796 C14.9074472,3.65171124 14.3738939,4.93849664 13.839342,6.22486599 C13.7298355,6.48831416 13.9054953,6.50637109 14.0860647,6.50678715 C14.9850004,6.5092835 15.883853,6.50637109 16.7827888,6.5085346 Z M16.9536223,1.0436908 C18.1284048,4.20373752 19.3784939,7.33349518 20.7246924,10.4246426 C20.9075917,10.844612 20.9012676,10.8479404 20.4458501,10.8507696 C20.2240077,10.8520178 20.0022486,10.8510193 19.7804063,10.8510193 C18.7821158,10.8510193 18.7757917,10.8535988 18.4042515,9.95433022 C18.1670982,9.38025285 17.9445902,8.79976818 17.7300705,8.21670394 C17.6374559,7.96532146 17.5086442,7.85256964 17.2162384,7.85706307 C15.9965216,7.87595212 14.7763055,7.86971124 13.5563391,7.86105723 C13.3061216,7.85922657 13.1668253,7.91614336 13.0643917,8.17984117 C12.7444428,9.00405285 12.3744836,9.80879299 12.0409712,10.628012 C11.9686603,10.8057521 11.865561,10.8534324 11.6968909,10.8519346 C11.2671026,10.8482733 10.8370647,10.8414499 10.4076092,10.8541813 C10.1474895,10.8618368 10.0923201,10.7951842 10.2084004,10.548628 C10.6971026,9.51147766 11.1797304,8.47116526 11.6496267,7.42544409 C12.301507,5.97473168 12.9413216,4.51869372 13.583799,3.06382073 C13.963161,2.20449372 14.3451026,1.34616526 14.7097362,0.480680584 C14.8074267,0.248603212 14.9471391,0.166806131 15.1865391,0.188191533 C15.365361,0.204168175 15.5467625,0.191436788 15.726999,0.191436788 C16.6455727,0.19152 16.637834,0.194349197 16.9536223,1.0436908 Z" id="形状结合"></path>
                        </g>
                    </g>
                </g>
            </g>
        </g>
    </g>
</svg>