<?xml version="1.0" encoding="UTF-8"?>
<svg width="180px" height="50px" viewBox="0 0 180 50" version="1.1" xmlns="http://www.w3.org/2000/svg" xmlns:xlink="http://www.w3.org/1999/xlink">
    <!-- Generator: Sketch 54 (76480) - https://sketchapp.com -->
    <title>footer_logo_3</title>
    <desc>Created with Sketch.</desc>
    <g id="页面1" stroke="none" stroke-width="1" fill="none" fill-rule="evenodd">
        <g id="3_1" transform="translate(-989.000000, -12907.000000)">
            <g id="页尾" transform="translate(0.000000, 12848.000000)">
                <g id="编组" transform="translate(498.000000, 59.000000)">
                    <g id="编组-10" transform="translate(491.000000, 0.000000)">
                        <rect id="矩形" fill="#D8D8D8" opacity="0" x="0" y="0" width="180" height="50"></rect>
                        <text id="British-Virgin-Islan" font-family="PingFangSC-Regular, PingFang SC" font-size="9" font-weight="normal" line-spacing="12" letter-spacing="-0.27" fill="#333333">
                            <tspan x="46.072" y="21">British Virgin Islands</tspan>
                            <tspan x="126.172" y="21" font-size="8" letter-spacing="-0.24"></tspan>
                            <tspan x="46" y="33" font-size="10" letter-spacing="-0.36">Financial Services Commission</tspan>
                            <tspan x="179.17" y="33" font-size="10" letter-spacing="-0.24"> </tspan>
                        </text>
                        <g id="item" transform="translate(15.000000, 1.000000)" fill="#383838">
                            <g id="icon" transform="translate(-14.850000, 4.150000)">
                                <g id="编组">
                                    <path d="M9.50298521,7.13636364 L8.95454545,7.56645001 L9.86363636,8.04545455 C9.74175568,7.74061404 9.61315826,7.41777132 9.50298521,7.13636364" id="Fill-1"></path>
                                    <path d="M8.04545455,31.6818182 C7.74066125,31.8178378 7.41785923,31.9615524 7.13636364,32.0847622 L7.60389111,32.5909091 L8.04545455,31.6818182 Z" id="Fill-3"></path>
                                    <path d="M28.398472,34.4958775 C28.0559932,34.6685185 27.9019811,35.0894809 28.2161203,35.6141361 C28.5286148,36.136083 29.0706514,36.3632402 29.5048965,36.1442856 C29.8750401,35.9578318 30.00202,35.5650368 29.6778439,35.0235507 C29.3250751,34.4342808 28.799106,34.2939471 28.398472,34.4958775" id="Fill-5"></path>
                                    <path d="M35.4421723,12.4660748 L35.5142171,12.5909091 L36.0558662,12.2938462 C36.2479115,12.188453 36.2704833,12.1179024 36.1638778,11.9333021 C36.0467635,11.7304149 35.8206015,11.5942189 35.5404152,11.7478722 C35.2682955,11.8971972 35.2590448,12.1488134 35.4421723,12.4660748" id="Fill-7"></path>
                                    <path d="M5.7901365,11.4740686 C6.07779768,11.6900329 6.3619321,11.7445636 6.62758935,11.6048475 C6.78506699,11.5255771 6.91613223,11.3750239 7.03401045,11.175855 C7.11317094,11.042097 7.13958333,10.9588545 7.13605656,10.9133043 C7.13605656,10.8746622 7.11405263,10.840942 7.01112482,10.7636578 L5.92384682,9.94729403 C5.72592642,9.7986837 5.61422003,9.85217824 5.48223477,10.0750937 C5.16559279,10.6101254 5.32832223,11.1272824 5.7901365,11.4740686" id="Fill-9"></path>
                                    <path d="M21.6851928,3.92353185 C21.6483111,4.24883541 21.9192631,4.38602271 22.2277285,4.40615827 C22.3439132,4.4137552 22.413352,4.40601076 22.4434793,4.38963679 C22.481916,4.37068134 22.4974171,4.34106806 22.5063581,4.26203784 L22.5909091,3.51716978 L22.3986284,3.50459428 C22.1903122,3.49098618 22.0553222,3.50669634 21.9479327,3.56396835 C21.7816976,3.64192909 21.7038524,3.75934963 21.6851928,3.92353185" id="Fill-11"></path>
                                    <path d="M14.9613704,36.2560091 C14.866319,36.2272847 14.806068,36.2218099 14.7762989,36.2320295 C14.738815,36.2430886 14.7176412,36.2686741 14.6879979,36.3428028 L14.4090909,37.0417146 L14.5664059,37.0893088 C14.7368025,37.1408083 14.853992,37.150736 14.959861,37.1156243 C15.1206979,37.0714975 15.2187263,36.9732432 15.2801512,36.8192191 C15.4019948,36.5139448 15.2137368,36.3323277 14.9613704,36.2560091" id="Fill-13"></path>
                                    <path d="M34.6211169,11.7559004 C34.4193349,11.8818822 34.3335306,12.1165897 34.4891933,12.4236925 C34.5345932,12.5132549 34.5723599,12.5654219 34.6087678,12.5848515 C34.639061,12.5996233 34.6755888,12.5893762 34.7678274,12.5317972 L35.3181818,12.188009 L35.2355347,12.0248537 C35.0571322,11.6730363 34.8574284,11.6082711 34.6211169,11.7559004" id="Fill-15"></path>
                                    <path d="M37.6910751,21.6931792 C37.9750568,21.7049752 38.1175249,21.7013867 38.2092969,21.698829 C38.3705469,21.6992108 38.4211665,21.6223268 38.449454,21.395836 L38.5379048,21.399539 L38.5061053,22.1663934 L38.4176926,22.162805 C38.4100577,21.9663959 38.3658896,21.8887103 38.2117401,21.869661 C38.1111497,21.8560708 37.9693688,21.8438167 37.6821804,21.8319826 L36.877381,21.7986178 C36.7890066,21.7948767 36.7382724,21.7991141 36.6664276,21.8530169 C36.5850391,21.9097827 36.563394,21.9752906 36.5412145,22.1292875 L36.4527637,22.1255846 L36.4724237,21.6522177 L38.1153107,20.379815 L37.3420819,20.3477482 C37.048671,20.3355704 36.9126163,20.3362576 36.8175613,20.3418693 C36.6752077,20.3453813 36.6279474,20.4161955 36.6017596,20.6680343 L36.5133469,20.6643314 L36.5456809,19.8847648 L36.6340554,19.8884677 C36.6477983,20.0913283 36.6766202,20.158974 36.8213787,20.1743966 C36.92216,20.1817262 37.0545117,20.1935985 37.3480753,20.2057381 L38.6136053,20.258152 L38.6086808,20.3781353 L36.9020419,21.6605398 L37.6910751,21.6931792 Z M38.2983203,23.7136162 C38.1859721,24.3095241 37.6508008,24.6587085 37.0673384,24.5486889 C36.5116291,24.4439374 36.0707493,23.9526283 36.1942063,23.2975877 C36.2942241,22.7668441 36.790419,22.3686051 37.4081241,22.4849999 C38.0754181,22.6108239 38.4060112,23.1424837 38.2983203,23.7136162 L38.2983203,23.7136162 Z M37.6671396,25.9987569 L37.5824299,25.9731798 C37.6302628,25.716989 37.6254146,25.6891978 37.3684988,25.611474 L36.1681712,25.2483558 C35.9082013,25.1697158 35.8887704,25.1902156 35.7865385,25.4299912 L35.7019434,25.4043378 L35.9469869,24.5940787 L36.0316202,24.6196557 C35.9829856,24.8788241 35.9877575,24.9067299 36.2477273,24.9852935 L37.448093,25.3484118 C37.7080247,25.42709 37.7244398,25.4056357 37.8275497,25.1629588 L37.9122594,25.1885741 L37.6671396,25.9987569 Z M37.3303622,27.0540979 C37.2609988,27.2305035 37.1510174,27.3636952 37.0565732,27.4656981 C36.9649538,27.4568416 36.75129,27.4136278 36.5844664,27.3717882 L36.5967587,27.2714268 C36.8168359,27.2899797 37.1233789,27.2611578 37.2434766,26.9555307 C37.3267356,26.7438517 37.2305735,26.5567191 37.0395091,26.4816675 C36.8131712,26.392644 36.6746733,26.4773538 36.4318821,26.680558 C36.143014,26.9234258 35.9337784,27.0414239 35.6603711,26.9339238 C35.3987598,26.8311192 35.2373189,26.5165592 35.3898269,26.128551 C35.4544949,25.9639033 35.5620712,25.8195646 35.5981845,25.7624552 C35.7085476,25.7922696 35.8308212,25.8267033 36.0311621,25.8783155 L36.0129528,25.9763483 C35.7992889,25.9501604 35.5758904,25.9572991 35.4672834,26.233608 C35.3771529,26.4628855 35.513513,26.6081405 35.6664027,26.6681894 C35.8691486,26.7478982 36.0229545,26.6590274 36.2452459,26.4647179 C36.5661426,26.183599 36.7613681,26.0839248 37.0406925,26.1936772 C37.3493732,26.3149584 37.4793963,26.6748699 37.3303622,27.0540979 L37.3303622,27.0540979 Z M36.6123722,28.6394954 C36.5267081,28.8085332 36.404549,28.9307306 36.3009047,29.0233807 C36.2105833,29.0059349 36.0019203,28.9424884 35.8397923,28.88515 L35.8614755,28.7864301 C36.0788423,28.8257501 36.3867596,28.8261318 36.5353356,28.5331024 C36.6381783,28.3302799 36.5601873,28.1349397 36.3771014,28.0420987 C36.1601545,27.9321554 36.0142507,28.0033132 35.7533647,28.1825818 C35.4427752,28.396933 35.2232706,28.4945459 34.961392,28.3617359 C34.7106987,28.2345758 34.5797594,27.9061202 34.7683043,27.5343363 C34.8482804,27.3765601 34.9691415,27.243063 35.0103702,27.1896183 C35.1175266,27.2297781 35.2359446,27.275626 35.4304448,27.3459821 L35.4029972,27.4419152 C35.1928835,27.3954566 34.9697905,27.3815228 34.8354537,27.6462647 C34.7239835,27.8659604 34.8460662,28.0234694 34.9925808,28.0977957 C35.1868519,28.1963629 35.348331,28.122342 35.5879918,27.949983 C35.9340838,27.7005492 36.1378986,27.6198096 36.4055415,27.7555208 C36.7013192,27.9055095 36.7966415,28.2760718 36.6123722,28.6394954 L36.6123722,28.6394954 Z M35.6696475,30.1871381 L35.5945579,30.140374 C35.7072115,29.9054466 35.7099219,29.8773882 35.4819425,29.7354926 L34.4172496,29.0729316 C34.1866362,28.9294709 34.1624716,28.9441681 34.0015652,29.1491284 L33.9264755,29.1023643 L34.3737305,28.3836101 L34.4487438,28.430336 C34.3343723,28.6679738 34.3318146,28.6960704 34.5624663,28.8396075 L35.6271591,29.5022067 C35.8577725,29.6456674 35.8791504,29.6292904 36.041851,29.4216579 L36.1169407,29.4683838 L35.6696475,30.1871381 Z M34.9334863,31.258169 L34.8614125,31.2069766 C34.9881525,30.9793406 34.9925808,30.9513585 34.773687,30.7959109 L33.7514826,30.0698271 C33.5300311,29.9125471 33.505103,29.9257556 33.3319425,30.1204468 L33.2598686,30.0692163 L33.7500701,29.3791313 L33.8220676,29.4304 C33.6934952,29.6605556 33.6891815,29.6884613 33.910633,29.8457795 L34.9327992,30.5719014 C35.1542507,30.7292196 35.1766211,30.7141787 35.351614,30.5168916 L35.4236497,30.5680458 L34.9334863,31.258169 Z M34.1104013,32.2854134 L34.0449316,32.2257844 C34.2006463,32.0172358 34.1930495,31.9975376 33.9410582,31.7722302 L32.9901642,30.9022276 C33.2432244,31.4829419 33.6305069,32.3994796 33.7615607,32.6683825 L33.7063219,32.7290804 C33.421424,32.6150524 32.5388627,32.2940409 31.9545224,32.0866756 C32.7357298,32.8707087 32.9182049,33.0410826 32.9625639,33.0814334 C33.0954501,33.1982099 33.1673331,33.1568285 33.3283159,33.0128715 L33.3937092,33.0724241 L32.8896884,33.6259962 L32.8242951,33.5664054 C32.9336275,33.4182492 32.9566087,33.3366316 32.8475053,33.2030963 C32.7574893,33.0954817 32.6755282,33.0166508 31.8783256,32.1796312 C31.7653667,32.0597624 31.704478,32.0469739 31.4986017,32.2354427 L31.4331321,32.1759664 L31.8032741,31.7694816 L33.4574228,32.3316049 L32.7772257,30.6998632 L33.149391,30.2911261 L33.2148224,30.3506024 C33.0552521,30.5727795 33.0529235,30.6175584 33.2206632,30.7618208 L34.1260147,31.5691023 C34.3844576,31.7872711 34.402476,31.790974 34.6107191,31.6045285 L34.6760742,31.664043 L34.1104013,32.2854134 Z M31.8809215,34.457595 L31.8266752,34.3877352 C32.0157164,34.2089247 32.0115936,34.1881576 31.8017472,33.9231485 L31.0136683,32.9035008 C31.163695,33.5188397 31.3885822,34.4880203 31.4718413,34.7753235 L31.4069824,34.8257905 C31.1458292,34.6646549 30.3311044,34.1977013 29.7908176,33.8934485 C30.4266175,34.7994118 30.5771404,34.9983786 30.6139409,35.0457535 C30.7249911,35.1836025 30.8028675,35.155086 30.9860298,35.0408289 L31.0402761,35.1106505 L30.4491406,35.5698546 L30.3948562,35.4999949 C30.5278951,35.3726439 30.5645046,35.296218 30.4799094,35.1460004 C30.4095534,35.024681 30.3423278,34.9328707 29.6998855,33.9720122 C29.609106,33.8345831 29.5511568,33.8115637 29.3162296,33.9621631 L29.261907,33.8923415 L29.6959153,33.555182 L31.2296609,34.3915909 L30.83837,32.667619 L31.2749361,32.3285891 L31.3292205,32.3984107 C31.133995,32.5899716 31.1240696,32.6337962 31.2646289,32.8044755 L32.0187704,33.7545688 C32.2360609,34.0137372 32.2532395,34.0203796 32.49019,33.8722997 L32.5444363,33.9421213 L31.8809215,34.457595 Z M29.1318457,36.3656837 C28.600301,36.6576061 27.9907271,36.4663506 27.7048366,35.945876 C27.4325746,35.4503677 27.5317525,34.7976939 28.1158638,34.4767969 C28.5891921,34.2168269 29.2120508,34.3467356 29.5146236,34.8976354 C29.8416282,35.4927798 29.6412109,36.0858628 29.1318457,36.3656837 L29.1318457,36.3656837 Z M27.5365243,37.0793989 C27.4577699,37.1297896 27.2478853,37.2708071 27.0236088,37.3564713 C26.318331,37.6257178 25.7791895,37.2939792 25.5820552,36.7776657 C25.3521671,36.1756498 25.6506934,35.5848955 26.3116504,35.3325604 C26.5654359,35.2356347 26.7922701,35.2099049 26.8952654,35.18742 C26.9577956,35.3158017 27.0460174,35.4848776 27.1259934,35.6234138 L27.0423908,35.6790344 C26.9078249,35.5038123 26.7908958,35.4098643 26.6166664,35.4053978 C26.5264977,35.3992899 26.3976199,35.4248288 26.2855007,35.4676227 C25.7986204,35.6535337 25.6793244,36.1115544 25.8652353,36.5984734 C26.0827166,37.1679643 26.5175266,37.4211775 26.9955504,37.2387022 C27.2965199,37.1237198 27.3910787,36.9287613 27.4289098,36.5761411 L27.5286985,36.5718656 C27.541487,36.7292601 27.5459153,36.9710208 27.5365243,37.0793989 L27.5365243,37.0793989 Z M24.0225417,38.2523182 C23.8371271,38.2916 23.6653027,38.2730089 23.5281028,38.2504476 C23.4851181,38.1691354 23.4035769,37.9668092 23.3466202,37.804452 L23.4371706,37.7594821 C23.5428001,37.9534862 23.7356969,38.1935673 24.0570517,38.1255399 C24.2796103,38.0785467 24.3828347,37.8951934 24.3403462,37.6943178 C24.2899938,37.4563746 24.1430211,37.3873546 23.8396848,37.2965751 C23.4779794,37.1891132 23.2642392,37.0793607 23.2033887,36.7919812 C23.1452104,36.5168939 23.3189817,36.2089 23.7268786,36.1225869 C23.8999245,36.0859773 24.0797275,36.096399 24.1472585,36.0950629 C24.1831428,36.2036319 24.221661,36.3246459 24.2888867,36.5202533 L24.1970384,36.5591152 C24.1013343,36.3662564 23.9723038,36.1837047 23.681756,36.2451279 C23.4407209,36.2961293 23.3946058,36.4899426 23.4286195,36.6506583 C23.4737038,36.8638643 23.6325488,36.9432677 23.9171795,37.0218696 C24.3285502,37.1350195 24.5193475,37.2431686 24.5814577,37.5367325 C24.6501341,37.8612179 24.4212003,38.167952 24.0225417,38.2523182 L24.0225417,38.2523182 Z M22.9319283,38.4113924 L21.4055504,38.5746276 L21.3961213,38.4867112 C21.6858674,38.4335338 21.704802,38.4028413 21.6772781,38.1453525 L21.5446209,36.9047876 C21.5147683,36.6252339 21.4785023,36.6132088 21.2405593,36.6164155 L21.2312065,36.5284609 L22.192255,36.4257326 C22.48746,36.3941621 22.6096191,36.3778996 22.6469922,36.3707228 C22.658521,36.4489047 22.6962757,36.6831068 22.7266246,36.8482508 L22.6340891,36.8739806 C22.5943874,36.7702598 22.5559073,36.7076913 22.514335,36.6454283 C22.4530265,36.5471283 22.3784331,36.532851 22.1899645,36.5530072 L21.8916291,36.5849595 C21.7942454,36.595343 21.7889391,36.6054594 21.7986737,36.6965443 L21.8729235,37.3905995 L22.2215732,37.3533409 C22.4571112,37.3281074 22.4677619,37.2793201 22.4826119,37.061724 L22.5799956,37.0513405 L22.6491681,37.6983262 L22.5517844,37.7087097 C22.4868111,37.4870289 22.4583327,37.4583215 22.2322239,37.4824098 L21.8867045,37.5193629 L21.9535485,38.14436 C21.9770259,38.3642084 22.0481836,38.375699 22.2055398,38.3620324 L22.4976527,38.3308055 C22.6892134,38.3102675 22.7176154,38.278697 22.7779315,38.1895971 C22.8306126,38.1172559 22.8827592,37.9815447 22.9166584,37.8825575 L23.013584,37.8975602 C23.0034677,37.9812775 22.9532298,38.3138177 22.9319283,38.4113924 L22.9319283,38.4113924 Z M20.7658567,38.5728334 C20.6738938,38.5903556 20.4267507,38.6433804 20.1867081,38.6396011 C19.4319176,38.6276524 19.0545224,38.1194701 19.0632262,37.5668142 C19.0733425,36.9225389 19.5698429,36.485018 20.2772585,36.4961269 C20.5488716,36.5003261 20.7690634,36.5606422 20.8730131,36.5781262 C20.8834348,36.7204799 20.9025604,36.9102848 20.9253125,37.0686336 L20.8270508,37.0891717 C20.7672692,36.8765383 20.6934775,36.7459043 20.5334872,36.677037 C20.451946,36.6377934 20.322801,36.6137433 20.2028178,36.6117964 C19.6816948,36.6035888 19.4008816,36.9845728 19.392674,37.5056964 C19.3831303,38.1152327 19.6927654,38.5117538 20.2044212,38.5198087 C20.5265012,38.5248478 20.6867587,38.3789439 20.8527805,38.0656437 L20.9470721,38.098703 C20.9004226,38.2496078 20.8147585,38.4757169 20.7658567,38.5728334 L20.7658567,38.5728334 Z M18.8119984,36.5662157 C18.5483256,36.5640779 18.5217942,36.5737743 18.4903001,36.8435171 L18.3449308,38.0890448 C18.3134366,38.3588258 18.3374103,38.3712326 18.594517,38.4297926 L18.5842862,38.5177091 L17.7434881,38.4195236 L17.7537189,38.3317599 C18.0142995,38.3334396 18.0408691,38.3238577 18.0719815,38.0571689 L18.2173509,36.8116412 C18.248845,36.541822 18.2251767,36.5264376 17.9712385,36.4681066 L17.9814693,36.3802665 L18.8222674,36.4784519 L18.8119984,36.5662157 Z M17.4315625,36.7378876 C17.3036772,36.9232642 16.6516912,37.8639283 16.416764,38.2134181 L16.3149521,38.1911241 C16.2415803,37.6545016 16.1341566,36.8744005 16.0581507,36.3791976 C16.0216939,36.1319779 15.9760369,36.0896039 15.7918058,36.0299368 L15.8107404,35.9435473 L16.5945437,36.1149519 L16.5756472,36.2014178 C16.3418652,36.1761461 16.3214418,36.210427 16.3396893,36.334075 C16.3675186,36.5762175 16.4584508,37.239542 16.5407937,37.7943357 C16.7914489,37.4320191 17.1051305,36.9736167 17.3352095,36.6165682 C17.4422514,36.4523786 17.4112917,36.4165707 17.1650266,36.3303721 L17.1839231,36.2439444 L17.8936293,36.3992012 L17.874771,36.4855906 C17.6619087,36.4681066 17.6033869,36.4844454 17.4315625,36.7378876 L17.4315625,36.7378876 Z M15.4761772,36.3720589 C15.3870011,36.6285933 15.1669238,36.7327722 14.9129474,36.7514778 C14.9345543,36.8626427 14.9933816,37.1071138 15.0362518,37.2724868 C15.0917196,37.4689723 15.1225266,37.5633784 15.1652441,37.6617548 C15.2157111,37.776279 15.2729732,37.8328922 15.3353507,37.8746554 L15.2943892,37.9540207 C15.2556037,37.940545 15.2238042,37.9261913 15.1860494,37.9096998 C14.9734162,37.8191111 14.8767578,37.7220327 14.8097612,37.491419 C14.7522319,37.300927 14.710087,37.0755814 14.667484,36.8902812 C14.6409908,36.7740391 14.6084277,36.7426976 14.456187,36.6898637 L14.3518173,36.6535595 L14.1890403,37.1219256 C14.1009712,37.375635 14.1286097,37.4019374 14.3589941,37.5087122 L14.3299432,37.5922004 L13.5333132,37.3154716 L13.562326,37.2319071 C13.8193182,37.2911543 13.8443608,37.2865351 13.932468,37.0328257 L14.3460529,35.842346 C14.4341602,35.5886748 14.4044602,35.5682895 14.178046,35.4595296 L14.2070969,35.3760796 L14.9679572,35.6404016 C15.185744,35.7159876 15.3226385,35.7936351 15.4100968,35.9077012 C15.5054954,36.0276845 15.5393945,36.1899653 15.4761772,36.3720589 L15.4761772,36.3720589 Z M12.9298473,35.944578 L12.6167765,35.7939786 L12.3442472,36.3604156 C12.2484286,36.559726 12.3028276,36.6068718 12.4437686,36.6781823 L12.7084721,36.8055332 C12.8821289,36.8890978 12.9228995,36.8771491 13.021123,36.8332863 C13.1039622,36.7994634 13.2198606,36.711547 13.3008292,36.6453901 L13.3752317,36.7092183 C13.3225888,36.7749553 13.1046875,37.031146 13.0351332,37.1028764 L11.6517578,36.4373759 L11.6901234,36.3577052 C11.9644087,36.4650908 11.9966664,36.4490956 12.1089764,36.2156951 L12.6497976,35.0913723 C12.7716895,34.8380065 12.7472195,34.8086882 12.5433665,34.6861091 L12.5816557,34.6064002 L13.4526882,35.0253681 C13.7202548,35.1540934 13.8326412,35.2046368 13.8681818,35.2182652 C13.836764,35.290759 13.7454501,35.5097676 13.6842942,35.666055 L13.5920259,35.6392182 C13.6129457,35.5301147 13.6132511,35.4566283 13.6106934,35.3818058 C13.6103498,35.2659836 13.554462,35.214524 13.3836683,35.132372 L13.1132386,35.0023488 C13.0250169,34.9598603 13.015206,34.9657392 12.9755043,35.0482348 L12.6728933,35.6772402 L12.9888654,35.8292521 C13.2023384,35.9319804 13.2370774,35.8961724 13.3643901,35.7189652 L13.4526119,35.7614156 L13.1705389,36.3477798 L13.0823171,36.3053676 C13.1438929,36.0826561 13.1348074,36.0431452 12.9298473,35.944578 L12.9298473,35.944578 Z M10.681891,35.9120531 C10.5210227,35.8119208 10.4098961,35.6794925 10.3266752,35.568175 C10.3519087,35.4797622 10.4332209,35.2773597 10.5046076,35.1208432 L10.6010751,35.1510776 C10.5428968,35.3641691 10.5156783,35.6709032 10.7946209,35.8444838 C10.9877086,35.9646961 11.1891566,35.9039601 11.297611,35.7296542 C11.4261452,35.5231288 11.3678906,35.3716513 11.2120233,35.0960678 C11.0255779,34.7679176 10.9473961,34.5407397 11.1026527,34.2913822 C11.2511905,34.0526754 11.5898002,33.9508634 11.9438326,34.1711699 C12.0940119,34.2645835 12.2164764,34.39663 12.2661035,34.4424778 C12.2167436,34.545626 12.1607413,34.6595777 12.0737029,34.8472447 L11.9805185,34.8116277 C12.0451101,34.6062857 12.078513,34.3852539 11.8264071,34.2282793 C11.6172097,34.0981034 11.449699,34.2058707 11.3628897,34.3454376 C11.2477548,34.5303943 11.3073455,34.6977142 11.4581738,34.9516145 C11.6765332,35.3180922 11.7392161,35.5282442 11.5806765,35.7830606 C11.4054164,36.0646376 11.0278684,36.1272442 10.681891,35.9120531 L10.681891,35.9120531 Z M9.93240678,32.9135408 C9.7217587,32.7716071 9.68698153,32.7591621 9.51351563,32.9682452 L8.69268288,33.9575821 C8.56964577,34.1057765 8.56082741,34.1560527 8.69737837,34.2733637 C8.69978338,34.2754251 8.87282937,34.4230087 8.88737393,34.4350719 C9.01140359,34.5380674 9.05992365,34.5536809 9.16624023,34.5392508 C9.27946644,34.5264623 9.41116921,34.4716052 9.52225763,34.411938 L9.58150479,34.4938611 C9.50439187,34.5572311 9.22166992,34.7495174 9.13486062,34.8046035 L8.00458363,33.8668407 L8.06104403,33.7986988 C8.3003995,33.9604452 8.32994673,33.9643772 8.50135121,33.7577755 L9.30206587,32.7927559 C9.47350852,32.5861541 9.45926935,32.5538201 9.28095526,32.3730626 L9.33741566,32.3049589 L9.98886719,32.8455134 L9.93240678,32.9135408 Z M7.78740767,33.6836783 L7.24807528,33.119799 L7.31197976,33.0587194 C7.47219904,33.1895824 7.51247337,33.1860704 7.56866655,33.071088 C7.629288,32.9562202 7.69972035,32.8014215 7.79767667,32.6159304 L7.32602805,32.1228653 C7.1884082,32.1846321 7.06663086,32.235519 6.94244851,32.2931247 C6.7460396,32.3848205 6.75837003,32.4342568 6.91458097,32.6433017 L6.85067649,32.7043432 L6.34627397,32.1771116 L6.41017844,32.1159557 C6.56600763,32.2422759 6.61689453,32.2635775 6.89873846,32.1469536 L8.54910778,31.4730547 L8.6327104,31.5330272 C8.37995561,32.0502569 8.09918058,32.6203587 7.84188299,33.1419022 C7.71315785,33.4049262 7.71453214,33.4429483 7.85131214,33.622446 L7.78740767,33.6836783 Z M6.24812678,31.8815245 L6.17853427,31.9360762 L5.65596058,31.2701177 L5.72555309,31.2154896 C5.90779918,31.4017442 5.93333807,31.4138838 6.14455877,31.2480908 L7.13106978,30.4740214 C7.34473366,30.3062815 7.33908381,30.2785666 7.20157848,30.0573058 L7.27117099,30.0026777 L7.79374467,30.6686363 L7.72415217,30.7232262 C7.53992099,30.5346047 7.51442028,30.522427 7.30071822,30.6901668 L6.31420721,31.4642745 C6.10046697,31.6320143 6.10863636,31.6576678 6.24812678,31.8815245 L6.24812678,31.8815245 Z M4.92086825,30.2909353 C4.51728516,29.6528443 4.73579723,29.0586924 5.20294123,28.7632198 C5.74750355,28.4188072 6.3856321,28.5944492 6.76382901,29.1924186 C6.90904563,29.4220015 6.97921076,29.639254 7.02158469,29.7358362 C6.90816761,29.8224547 6.75982067,29.9424761 6.63987571,30.048182 L6.56887074,29.9772915 C6.71393466,29.8108114 6.7828782,29.677467 6.75283469,29.5058715 C6.74092418,29.4162371 6.69038086,29.2949559 6.62624734,29.1935256 C6.34764826,28.7530653 5.87508345,28.7268011 5.4345854,29.0054004 C4.91937944,29.3312601 4.75721325,29.8076047 5.03073509,30.2400483 C5.2029794,30.5123488 5.41282582,30.5664424 5.76590376,30.5337649 L5.78987749,30.6306906 C5.63809482,30.6744388 5.40202237,30.7265855 5.29394975,30.7388396 C5.22893821,30.6715375 5.04917347,30.4937195 4.92086825,30.2909353 L4.92086825,30.2909353 Z M3.92618786,28.5403174 L4.87253906,26.6268079 L4.15332741,26.9528967 C3.89438832,27.070284 3.76886985,27.1376243 3.6880158,27.181258 C3.54386808,27.2534847 3.53337003,27.3450277 3.61002486,27.5599898 L3.52947621,27.5964848 L3.21247337,26.8973524 L3.29306019,26.8608573 C3.38830611,27.0327201 3.4627468,27.0821564 3.60895597,27.0297806 C3.7049272,26.9967213 3.83697354,26.9436965 4.09877575,26.8250494 L4.83241744,26.4924328 C4.91296609,26.4558995 4.95637074,26.4292536 4.99618697,26.3487812 C5.04333274,26.2615137 5.03321644,26.1933336 4.98370384,26.0458263 L5.06421431,26.0092931 L5.2598979,26.4407442 L4.36584606,28.3166897 L5.07070401,27.9972052 C5.3382706,27.8758095 5.4593608,27.8139664 5.54174183,27.7662098 C5.66729847,27.6988695 5.67760565,27.6144651 5.58766602,27.3777817 L5.66817649,27.3412102 L5.99037109,28.0518333 L5.90978427,28.0883665 C5.80617809,27.9133735 5.74998491,27.8659986 5.61377752,27.91742 C5.52040217,27.9562437 5.39694513,28.0053364 5.12941673,28.1265794 L3.97573864,28.6496881 L3.92618786,28.5403174 Z M3.10295011,26.5962681 L2.87699396,25.8496081 L2.96162731,25.8239547 C3.04526811,26.0131488 3.08279386,26.0282278 3.18487305,25.9511148 C3.29088423,25.8761396 3.42369407,25.7699374 3.59498402,25.6487707 L3.39739169,24.9958679 C3.24671609,24.9886147 3.11508967,24.9789183 2.97834783,24.9741083 C2.76170632,24.9671223 2.75033026,25.0167877 2.79514737,25.273742 L2.71047585,25.2993572 L2.49914063,24.6010265 L2.58381214,24.5754112 C2.66562056,24.7585737 2.70142844,24.8005277 3.00549006,24.8240434 L4.78202681,24.9694892 L4.82940163,25.060765 C4.37012163,25.407659 3.86186346,25.7891393 3.39651367,26.1379039 C3.16276989,26.3141949 3.14681286,26.3487048 3.18758345,26.570691 L3.10295011,26.5962681 Z M2.34766335,23.9737007 L3.75902077,22.3723844 L2.97979847,22.5001934 C2.69929066,22.546194 2.56056374,22.5784899 2.47119673,22.5995623 C2.31326793,22.6318963 2.27925426,22.717446 2.29738725,22.9449293 L2.21011985,22.9592449 L2.08589933,22.2018196 L2.17316673,22.187504 C2.22042702,22.3781869 2.27944513,22.4453363 2.43424361,22.4327768 C2.53552113,22.4257527 2.67680575,22.408994 2.96044389,22.3624971 L3.75524148,22.2321685 C3.84250888,22.2178148 3.89133434,22.2034229 3.9507342,22.136159 C4.01895241,22.0641614 4.02689276,21.9955614 4.0174636,21.8403047 L4.10469283,21.8259891 L4.18142401,22.2935535 L2.83030629,23.8721559 L3.5939533,23.7469427 C3.88381392,23.6994151 4.01681463,23.6711658 4.10877752,23.6465049 C4.24754261,23.6141327 4.2794185,23.5353019 4.25410866,23.2833867 L4.34137607,23.2690712 L4.46761985,24.0389414 L4.38035245,24.0532569 C4.32580078,23.8573441 4.28392312,23.797028 4.1390119,23.8111526 C4.03872692,23.8244375 3.90683327,23.8397074 3.61693448,23.8872731 L2.36705611,24.0921952 L2.34766335,23.9737007 Z M2.02272017,20.875705 L2.11105646,20.870895 C2.15354492,21.1279638 2.16755504,21.1525101 2.43565607,21.137851 L3.68782493,21.06948 C3.95909446,21.0546301 3.970356,21.0287858 3.98459517,20.7685485 L4.07289329,20.7637385 L4.11908469,21.6090802 L4.0307484,21.6139284 C3.98806907,21.3536147 3.97405895,21.3290684 3.70282759,21.3439565 L2.45062056,21.4123275 C2.17935103,21.427063 2.17125799,21.4528309 2.15720969,21.7162367 L2.0688734,21.7210086 L2.02272017,20.875705 Z M2.05173295,18.9821227 L2.14006925,18.985024 C2.15075817,19.2413293 2.17190696,19.2704948 2.44344371,19.2793513 L3.69366566,19.3199693 C3.96837092,19.3289404 3.98199929,19.2977516 4.01547852,19.0460273 L4.10385298,19.0488522 L4.07132813,20.0497179 C4.06208984,20.3338907 4.06174627,20.4413145 4.06312056,20.4950645 C3.94939808,20.4946064 3.72794656,20.4999509 3.57589666,20.5107925 L3.56646751,20.4125307 C3.65579634,20.3869918 3.73237482,20.3642015 3.80330344,20.3223238 C3.91259766,20.2657488 3.93939631,20.2192901 3.94512251,20.0425028 L3.95615501,19.7046181 C3.95909446,19.6131132 3.94993253,19.6032641 3.85838956,19.6003247 L3.12906161,19.5766182 L3.11634943,19.9681002 C3.10894354,20.1954309 3.14631658,20.2124187 3.36578303,20.2669704 L3.36269087,20.3616438 L2.70284091,20.3402277 L2.70600941,20.2423477 C2.92833896,20.2084485 2.9796076,20.188025 2.98689897,19.9638628 L2.99964933,19.5723808 L2.43451083,19.5539805 C2.15980558,19.5450476 2.1461772,19.5761982 2.11155273,19.8627379 L2.02317827,19.8598366 L2.05173295,18.9821227 Z M3.97031783,11.9863701 C4.05605824,11.8173323 4.17829368,11.6951731 4.28189986,11.602523 C4.37222124,11.620007 4.58088423,11.6834535 4.74305043,11.7408301 L4.72125266,11.8395882 C4.50396218,11.8002301 4.19600675,11.799772 4.04739258,12.092725 C3.94451172,12.2955093 4.02246449,12.4909259 4.20555043,12.583805 C4.42245916,12.6938247 4.56832475,12.6227051 4.82928711,12.4433601 C5.13991477,12.2290852 5.35941939,12.1314724 5.62137429,12.2643969 C5.87206765,12.391557 6.00293058,12.7200507 5.8143093,13.091911 C5.73425692,13.2496109 5.61339577,13.3830698 5.57212891,13.4365145 C5.46504883,13.3963547 5.34663086,13.3504304 5.15213068,13.2800744 L5.17954013,13.1841794 C5.38969194,13.2306381 5.61282315,13.2446482 5.74715998,12.9798681 C5.85863015,12.7601724 5.73662376,12.6026634 5.5901092,12.5283371 C5.39583807,12.4297317 5.23435902,12.5036762 4.9946218,12.6759971 C4.64849165,12.9254309 4.44463867,13.0061323 4.17703391,12.8703829 C3.88129439,12.7203561 3.7860103,12.3496793 3.97031783,11.9863701 L3.97031783,11.9863701 Z M5.24275746,9.944708 L5.65275391,9.32971272 L5.72631658,9.37876728 C5.59667525,9.61881013 5.60805131,9.64160046 5.82354759,9.78525205 L6.87216886,10.4843081 C7.09816317,10.6349839 7.12969549,10.6105139 7.28739524,10.4194874 L7.36095792,10.468542 L6.87388672,11.1991304 C6.62685813,11.5697309 6.39735174,11.7545349 6.13367898,11.8140875 C5.92169478,11.8587901 5.67462802,11.8307317 5.42233132,11.6625719 C5.11487216,11.4575735 4.94930842,11.164964 4.93178622,10.8610166 C4.91514205,10.561383 5.02726119,10.2679336 5.24275746,9.944708 L5.24275746,9.944708 Z M6.19200994,8.62661012 L8.32437322,8.72407026 L7.73674982,8.19657153 C7.52518555,8.0066903 7.41306641,7.91877385 7.34068714,7.86227521 C7.21658114,7.75939425 7.12858842,7.78649833 6.96256658,7.94312934 L6.89675337,7.884073 L7.40943981,7.31282599 L7.47529119,7.37192051 C7.35622425,7.52816977 7.34083984,7.61623893 7.44757635,7.72904532 C7.51644354,7.80360062 7.61802646,7.9032749 7.83191939,8.09521756 L8.43133878,8.6332907 C8.49715199,8.69230887 8.53899148,8.72139803 8.62866388,8.72552091 C8.7275364,8.73361395 8.78594371,8.69692802 8.90104048,8.59225284 L8.96689187,8.65130919 L8.65042347,9.00396756 L6.5734517,8.93929952 L7.14935547,9.45622386 C7.36794389,9.65244209 7.47326793,9.73844981 7.55011364,9.79468122 C7.66223278,9.88259767 7.74365945,9.85812766 7.92418768,9.68057688 L7.99000089,9.73970957 L7.46887784,10.3202712 L7.40306463,10.2611767 C7.5216353,10.0959945 7.54244052,10.0254858 7.44062855,9.9214214 C7.36752397,9.85152343 7.27300337,9.75822433 7.05441495,9.5620061 L6.11184304,8.71597722 L6.19200994,8.62661012 Z M8.23309748,6.58487162 L8.2905886,6.65209736 C8.15102184,6.8047582 8.15231978,6.84518526 8.26394265,6.90763916 C8.37522195,6.9745595 8.52589755,7.05350489 8.70566229,7.16161579 L9.2241131,6.71817786 C9.17013406,6.57727484 9.12604226,6.45286332 9.07549893,6.32570322 C8.99483576,6.12452227 8.94478871,6.13406596 8.72746005,6.2784047 L8.66996893,6.21121714 L9.22445668,5.736934 L9.28190962,5.80412157 C9.1471147,5.95269771 9.12310281,6.00236306 9.22388406,6.29027705 L9.80490323,7.97538701 L9.74042614,8.05551581 C9.23812322,7.7744351 8.68443714,7.46239467 8.17801136,7.17650395 C7.92258434,7.03334862 7.88456232,7.0326233 7.69769709,7.15921078 L7.64020597,7.09206139 L8.23309748,6.58487162 Z M10.8669238,4.63906628 L10.9157493,4.71278172 C10.6918164,4.89521887 10.679486,4.92239929 10.8277566,5.14614152 L11.5201696,6.19151896 C11.668402,6.41533754 11.7034846,6.41106197 11.9280664,6.29260571 L11.9768919,6.36632116 L11.2711941,6.83373284 L11.2223686,6.76001739 C11.4190829,6.5994162 11.4410716,6.56971624 11.2910831,6.34326361 L10.5812243,5.27158376 C10.4748313,5.1109444 10.4293271,5.08800137 10.2775062,5.18485072 C10.2748722,5.18656859 10.0835405,5.30949129 10.067698,5.31998935 C9.9334375,5.40893652 9.90442472,5.4508524 9.88747514,5.55682552 C9.86697532,5.66886842 9.88144354,5.8108785 9.90648615,5.934412 L9.81089666,5.96747134 C9.7726456,5.87531748 9.67022283,5.54922874 9.64250799,5.45008891 L10.8669238,4.63906628 Z M11.8140385,4.07156039 C11.9816637,3.98314767 12.1519611,3.9540585 12.2900772,3.93840686 C12.3536763,4.00483093 12.487326,4.17715176 12.5864276,4.3177112 L12.5116051,4.38570044 C12.3570739,4.22800053 12.1059988,4.04972444 11.8154128,4.20288155 C11.6142702,4.30889284 11.5649485,4.51339499 11.6606907,4.69506864 C11.7740696,4.9101452 11.9342889,4.93637125 12.2508336,4.94087587 C12.6281525,4.94557137 12.8636905,4.99271719 13.0006614,5.25257273 C13.1317534,5.50124308 13.0486852,5.84493038 12.6798793,6.03931622 C12.5234393,6.12181186 12.3476829,6.16086464 12.2830913,6.18067733 C12.2189196,6.0859276 12.1488308,5.98010718 12.0307564,5.81022953 L12.1085183,5.74785198 C12.2532005,5.90715523 12.4271626,6.04756197 12.6898047,5.90910214 C12.9077441,5.79423431 12.8992312,5.59526749 12.8226527,5.44993621 C12.7210316,5.2571537 12.5465732,5.22417072 12.2513299,5.2263085 C11.8247275,5.22974423 11.6117125,5.17782657 11.4718022,4.91239751 C11.3171564,4.61902453 11.4535929,4.26151797 11.8140385,4.07156039 L11.8140385,4.07156039 Z M13.4885724,3.34681271 L13.523426,3.4281631 C13.2965918,3.5562394 13.2783061,3.57780814 13.3840501,3.82456974 L13.8779545,4.97714189 C13.9849583,5.22680478 14.0131694,5.22848446 14.2624121,5.15259306 L14.2972275,5.23386711 L13.5191886,5.5672854 L13.484335,5.48601135 C13.7141468,5.35667529 13.7323944,5.33506838 13.6253906,5.08536732 L13.1314862,3.93283334 C13.0245206,3.68313228 12.9975311,3.68439205 12.7453871,3.76150505 L12.7105336,3.68026917 L13.4885724,3.34681271 Z M15.0210201,2.77094655 L16.7424325,4.03338564 L16.5453746,3.26866899 C16.474446,2.99339084 16.4297816,2.85809952 16.400807,2.77098473 C16.3545011,2.61656785 16.2662029,2.59037997 16.0412393,2.62882195 L16.0191744,2.54311963 L16.7624743,2.35159689 L16.7845392,2.43722286 C16.5988192,2.5014328 16.5372434,2.56617718 16.5636603,2.71925794 C16.5796555,2.81954301 16.6090501,2.95872816 16.6807422,3.23706029 L16.8817321,4.01704685 C16.9037971,4.10271099 16.9225408,4.15008586 16.9949201,4.20318694 C17.0727583,4.26468647 17.1417401,4.26648068 17.295546,4.24319409 L17.317611,4.32882006 L16.8587891,4.44704727 L15.1653968,3.24267198 L15.3584846,3.99204238 C15.4318182,4.27655882 15.4717871,4.4064675 15.5046174,4.49587278 C15.5492818,4.6311641 15.6306703,4.65586317 15.8793022,4.60810655 L15.9013672,4.69373252 L15.1458132,4.88842376 L15.1237482,4.80275962 C15.314011,4.73091473 15.3703569,4.68380709 15.343291,4.54072811 C15.3211115,4.44208455 15.2941602,4.31198499 15.2208265,4.02750673 L14.9047399,2.80091373 L15.0210201,2.77094655 Z M18.0785094,2.17129753 L18.0911452,2.25883224 C17.8388485,2.32395837 17.8156383,2.34006811 17.8539657,2.60580257 L18.0329288,3.84690197 C18.0716761,4.11576676 18.098513,4.12466148 18.3589027,4.11588128 L18.3715385,4.20341599 L17.533718,4.32416274 L17.5210822,4.23662803 C17.7765092,4.17108198 17.7997195,4.15497223 17.7609339,3.88610744 L17.5819709,2.64500804 C17.5432235,2.37614326 17.5168448,2.37037887 17.2532866,2.37965533 L17.2406889,2.29212062 L18.0785094,2.17129753 Z M18.7221733,2.72433518 L18.7112935,2.45924969 C18.7067889,2.34881013 18.699383,2.24474576 18.6801048,2.16018868 C18.873956,2.10800379 19.1267489,2.02810403 19.3918723,2.0172624 C20.1082591,1.98790602 20.5620037,2.4150815 20.5880007,3.04943138 C20.6152193,3.71535177 20.0886754,4.13523588 19.4574947,4.16108019 C19.1355673,4.17425048 18.8962882,4.12088218 18.7977974,4.109048 C18.7866886,3.99253866 18.7630584,3.80067235 18.7296555,3.60285078 L18.8235653,3.58006045 C18.9102983,3.84522228 19.0064604,3.95508922 19.2080229,4.01322937 C19.2816238,4.03552343 19.411685,4.04602148 19.5031898,4.04224218 C19.9860618,4.02246766 20.2849316,3.67828409 20.2613015,3.10073825 C20.2407635,2.59896929 19.9615536,2.11090507 19.3493075,2.13594771 C19.2419984,2.14041416 19.1450728,2.16644934 19.0832298,2.20061574 C19.0185236,2.2411955 18.9788983,2.27757604 18.9842045,2.40698846 L18.9947789,2.66577511 C19.0042081,2.89615974 19.0305105,2.92036254 19.3343812,2.93005892 L19.3381223,3.02160198 L18.5270241,3.05477584 L18.523283,2.96327096 C18.7179359,2.92998258 18.7297701,2.91055163 18.7221733,2.72433518 L18.7221733,2.72433518 Z M20.8400302,1.99660986 C20.8809535,2.00012194 20.9153107,2.00626807 20.9559286,2.01294865 C21.1843279,2.04845117 21.3019442,2.11880724 21.4235689,2.32586711 C21.5262207,2.49639373 21.6224592,2.70440796 21.7093448,2.87363664 C21.7635911,2.9796861 21.802911,3.00213286 21.9633975,3.01595212 L22.0735698,3.02541946 L22.1160964,2.53132363 C22.1391158,2.26383313 22.1058656,2.24508933 21.8562411,2.19824891 L21.8638379,2.11017975 L22.7041397,2.18244456 L22.696543,2.27059006 C22.4329084,2.2764308 22.4097745,2.28711973 22.3867551,2.55461023 L22.2786444,3.81033056 C22.255625,4.0778974 22.2894096,4.09026602 22.5355984,4.13996955 L22.5280398,4.22811506 L21.7254927,4.15905693 C21.4957573,4.13924423 21.3439746,4.09763375 21.2311683,4.00872475 C21.1092001,3.91573105 21.0364009,3.76681134 21.0529306,3.57483051 C21.0762553,3.30413333 21.2639604,3.14910566 21.50553,3.06848058 C21.4572772,2.96605772 21.340119,2.74349891 21.2578525,2.5938157 C21.1557733,2.41695207 21.1027486,2.33308213 21.0371262,2.24821966 C20.9600515,2.14961427 20.8906117,2.10876728 20.8198739,2.0836483 L20.8400302,1.99660986 Z M22.8219087,4.19715533 C23.0849325,4.21620453 23.1120366,4.20834054 23.1607475,3.94111726 L23.3856729,2.70750011 C23.4343839,2.44035319 23.41125,2.42641941 23.158457,2.35144419 L23.1742995,2.26452028 L24.0070046,2.4163031 L23.9911239,2.50326518 C23.7312305,2.4847886 23.7041264,2.49269078 23.6559881,2.75678372 L23.4310627,3.99040087 C23.3823517,4.25762414 23.4049512,4.27453556 23.654652,4.34893815 L23.6388095,4.43593841 L22.8060662,4.28411742 L22.8219087,4.19715533 Z M24.2107813,4.11450699 C24.3502717,3.93771971 25.0611612,3.04084206 25.3180007,2.70704202 L25.4181712,2.73582578 C25.4569949,3.27607489 25.5141424,4.06140591 25.5583105,4.56042628 C25.5788485,4.80955472 25.6217569,4.85467728 25.8017125,4.9260259 L25.7773189,5.01104107 L25.0061515,4.78970385 L25.0305451,4.70468868 C25.2621893,4.74488669 25.2847887,4.71194188 25.2745197,4.58741583 C25.2622275,4.34401361 25.2139746,3.67626083 25.1674015,3.11730609 C24.8940323,3.46278761 24.5516433,3.90015575 24.2991557,4.24174344 C24.1818066,4.39867985 24.2103995,4.43647286 24.450633,4.53828493 L24.4262393,4.62333828 L23.7279093,4.42292082 L23.7523411,4.33786747 C23.9636,4.3689799 24.0230762,4.3564204 24.2107813,4.11450699 L24.2107813,4.11450699 Z M26.5203897,5.19847911 C26.7665785,5.2919309 26.7961639,5.28895327 26.9137802,5.05108639 L27.4749103,3.9156547 C27.5924503,3.67778782 27.5711106,3.65667718 27.3514915,3.51646131 L27.3907351,3.43717235 L28.1496103,3.8122393 L28.1103667,3.89149008 C27.8614293,3.80364998 27.8359668,3.79811464 27.7184268,4.03598152 L27.438568,4.60230399 L28.406946,5.08086269 L28.6868049,4.51454023 C28.8029705,4.27949828 28.7844558,4.25983828 28.5663255,4.1167593 L28.6054927,4.03747034 L29.361543,4.41112482 L29.3222994,4.49037561 C29.0803098,4.40249733 29.0506863,4.39841263 28.9331845,4.63627952 L28.3720543,5.77178755 C28.2545144,6.00961626 28.2729909,6.03633859 28.4911594,6.17235524 L28.4519922,6.25160603 L27.6959419,5.87802789 L27.7351092,5.7987771 C27.9714489,5.89085461 28.0095854,5.88501387 28.1257129,5.65001009 L28.3481951,5.19977705 L27.3798171,4.72121834 L27.1572585,5.17145138 C27.041131,5.40645516 27.0625089,5.44169046 27.2792267,5.57343153 L27.2399831,5.6527205 L26.4811843,5.2777299 L26.5203897,5.19847911 Z M29.4566744,5.11499092 C29.6381951,4.83742229 30.017041,4.78332867 30.3579794,5.00626923 C30.5166335,5.11006638 30.6247061,5.24486143 30.7054075,5.3580114 C30.6781507,5.44585151 30.592334,5.64634531 30.5174734,5.80122029 L30.421693,5.76873357 C30.4846813,5.55713092 30.5187331,5.25104574 30.243837,5.07124266 C30.053536,4.94679296 29.850752,5.00287167 29.7384038,5.17469624 C29.6052122,5.37824402 29.6600692,5.53105756 29.8097141,5.810115 C29.9886772,6.14231171 30.0617054,6.37116935 29.9009517,6.61697659 C29.7469931,6.85224759 29.4062456,6.94634836 29.0572905,6.71821603 C28.9092871,6.62132851 28.7898002,6.48660981 28.741242,6.43976938 C28.7928924,6.33765192 28.8514142,6.2250364 28.94269,6.0393544 L29.0349964,6.0771474 C28.9657857,6.28092424 28.9274964,6.50123074 29.1758993,6.66366431 C29.3821573,6.79853571 29.552073,6.69450951 29.6418981,6.5570804 C29.7611941,6.3747196 29.7054208,6.20613989 29.5603951,5.94895658 C29.3503578,5.57759258 29.2924086,5.36614262 29.4566744,5.11499092 L29.4566744,5.11499092 Z M31.1344531,5.59973394 L31.8036941,6.11795621 L31.7495623,6.18789236 C31.5274237,6.05187572 31.4996325,6.04634038 31.3353285,6.25866835 L30.5675586,7.25010487 C30.4013077,7.46491421 30.4135236,7.49037677 30.6009233,7.67140145 L30.5468297,7.74133759 L29.8774361,7.22307714 L29.931606,7.153141 C30.1563406,7.2911809 30.1840554,7.29663989 30.3503445,7.08186873 L31.1179998,6.09039404 C31.2843652,5.87562288 31.2701642,5.85264168 31.0802832,5.66967009 L31.1344531,5.59973394 Z M32.4580469,6.67389514 L33.1283949,7.30274785 L33.0679261,7.36730136 C32.8406339,7.18009237 32.8007031,7.18589493 32.6299476,7.36783581 L31.5775471,8.48971546 L31.7871644,8.68635361 C31.9138663,8.80522979 31.9637225,8.82595868 32.0676341,8.79358649 C32.1385627,8.7734684 32.2088805,8.73548452 32.3187855,8.67833691 L32.3878817,8.74319582 C32.2422452,8.87069949 32.0922567,9.00286049 31.9642951,9.12540145 L31.9113468,9.07569792 C31.9286781,8.98804868 31.9011541,8.96651812 31.836677,8.90601114 L30.9243395,8.0502477 C30.8599006,7.98974071 30.8328347,7.98168584 30.7571724,7.99302374 L30.7019336,7.94118243 C30.8034783,7.83291883 30.9498784,7.65838385 31.0637154,7.51396876 L31.1393013,7.57187986 C31.0908194,7.66506444 31.0471857,7.7670292 31.0335955,7.83223168 C31.0121413,7.92904286 31.0200817,7.96679769 31.1467072,8.08559752 L31.3771298,8.30178115 L32.4295304,7.17982515 C32.5981099,7.00013659 32.6034544,6.95753356 32.39754,6.73841048 L32.4580469,6.67389514 Z M33.6586035,7.97889908 L33.724913,7.92037719 L34.284707,8.55549055 L34.2183212,8.61389793 C34.0257298,8.43840859 33.9995801,8.42779601 33.7980939,8.60530861 L32.8573926,9.43442607 C32.6536159,9.61403829 32.6607928,9.64137141 32.8107049,9.85446288 L32.7444336,9.9129466 L32.1847159,9.27787141 L32.2510636,9.21942586 C32.4457546,9.39728204 32.4719043,9.40793279 32.6756809,9.22832058 L33.6164586,8.39916494 C33.8202734,8.21955273 33.8106534,8.19435739 33.6586035,7.97889908 L33.6586035,7.97889908 Z M34.4255336,8.7840428 L34.504517,8.74239415 C34.5286435,8.77560618 34.5465092,8.80557336 34.5680016,8.84069414 C34.6905424,9.03664514 34.7142489,9.1715929 34.6372887,9.39907625 C34.5754838,9.58823215 34.4810778,9.79708623 34.4099964,9.97352994 C34.3652175,10.0840077 34.3739213,10.1283286 34.4685183,10.2587335 L34.533339,10.3482533 L34.934937,10.057209 C35.1522656,9.89962361 35.144707,9.86221236 35.0167836,9.64278388 L35.0884375,9.59094256 L35.5834109,10.2737362 L35.5117951,10.3256539 C35.3348935,10.1300846 35.3117596,10.1195484 35.0943546,10.2771337 L34.0739444,11.0168078 C33.8565394,11.1744313 33.8692898,11.2080633 33.9927086,11.4268046 L33.9210547,11.4787223 L33.4483372,10.826583 C33.3130078,10.6398703 33.2452477,10.4978602 33.2386816,10.3543994 C33.2292143,10.2012805 33.2942259,10.0488106 33.4502077,9.93573693 C33.6701705,9.77631916 33.9102512,9.81686075 34.1292214,9.94676943 C34.1751074,9.84327768 34.2668031,9.60911374 34.3262029,9.44897065 C34.3931614,9.25614997 34.421907,9.16117119 34.4432466,9.05599974 C34.4673349,8.93319156 34.4528667,8.85397895 34.4255336,8.7840428 L34.4255336,8.7840428 Z M35.7900506,20.3182009 C35.7900506,28.863085 28.8630575,35.7900848 20.3181818,35.7900848 C11.7732679,35.7900848 4.84627486,28.863085 4.84627486,20.3182009 C4.84627486,11.7733169 11.7732679,4.84627884 20.3181818,4.84627884 C28.8630575,4.84627884 35.7900506,11.7733169 35.7900506,20.3182009 L35.7900506,20.3182009 Z M36.2415811,11.3911494 L36.6226412,12.0683313 L36.5454901,12.1116597 C36.391875,11.8900934 36.359312,11.8902461 36.141907,12.0126726 L35.0381232,12.6337758 C34.8096857,12.7623102 34.8043413,12.7979272 34.9105433,13.0317094 L34.8334686,13.0751141 L34.4276332,12.3539167 C34.3114675,12.1474676 34.274438,11.9979753 34.2854324,11.8758161 C34.2973047,11.7422808 34.3619345,11.6189763 34.5023411,11.5399164 C34.7610893,11.3943179 34.9986887,11.5396874 35.1240163,11.6721538 C35.0193413,11.3830945 35.0251438,11.0972038 35.2921378,10.9469098 C35.4793084,10.8415856 35.6868262,10.8625436 35.8662473,10.9753882 C36.0266193,11.0735736 36.1331268,11.1984432 36.2415811,11.3911494 L36.2415811,11.3911494 Z M20.3181818,0.772727273 C9.5235174,0.772727273 0.772727273,9.52352595 0.772727273,20.3182009 C0.772727273,31.1128759 9.5235174,39.8636364 20.3181818,39.8636364 C31.1128462,39.8636364 39.8636364,31.1128759 39.8636364,20.3182009 C39.8636364,9.52352595 31.1128462,0.772727273 20.3181818,0.772727273 L20.3181818,0.772727273 Z" id="Fill-17"></path>
                                    <path d="M37.3175696,22.6275965 C36.6989627,22.4732443 36.3102773,22.8243846 36.2374531,23.3351517 C36.1753533,23.7718354 36.3956011,24.2386799 36.9464924,24.3760576 C37.494449,24.5127161 37.9546906,24.2158076 38.0335653,23.662125 C38.1007374,23.1903896 37.8861054,22.7694336 37.3175696,22.6275965" id="Fill-19"></path>
                                    <path d="M4.40909091,24.4992081 C4.10393954,24.4701103 3.7809068,24.4388026 3.5,24.4090909 L3.680465,25.3181818 L4.40909091,24.4992081 Z" id="Fill-21"></path>
                                    <path d="M34.0721474,9.8847139 C33.9376714,9.83704451 33.8165133,9.87150098 33.6897476,9.97522642 C33.4385295,10.180818 33.4677939,10.4438898 33.5988353,10.6479385 C33.6481466,10.724803 33.6865233,10.7621473 33.7124582,10.7691889 C33.744281,10.7795931 33.7728445,10.7683186 33.8338967,10.7183943 L34.4090909,10.2477134 L34.327431,10.1205291 C34.2389369,9.9827032 34.164006,9.91062549 34.0721474,9.8847139" id="Fill-23"></path>
                                    <path d="M17.7059588,12.58106 C17.5197532,12.4406436 17.4161166,12.2850875 17.4161166,12.1213792 C17.4161166,11.4979237 18.9173971,10.9924912 20.7693256,10.9924912 C22.621254,10.9924912 24.1225345,11.4979237 24.1225345,12.1213792 C24.1225345,12.2889473 24.0139886,12.4479306 23.819472,12.5909091 C24.1922311,12.4077688 24.4090909,12.1889588 24.4090909,11.953911 C24.4090909,11.7498414 24.2455763,11.5580166 23.958556,11.3911141 L23.9584014,11.3910475 C23.8452168,11.3252315 23.7127816,11.2633085 23.5635697,11.2060439 L20.6981986,9.86363636 L17.8829643,11.2457731 C17.7736067,11.2916247 17.6745702,11.3401715 17.5870918,11.3910142 L17.5868599,11.3911141 L17.5868985,11.3911141 C17.2998782,11.5580166 17.1363636,11.7498414 17.1363636,11.953911 C17.1363636,12.1847663 17.3453763,12.3999494 17.7059588,12.58106" id="Fill-25"></path>
                                    <path d="M23.4906455,13.4452508 L23.5184455,13.5547492 C23.5184455,13.5178806 23.5088455,13.4813402 23.4906455,13.4452508" id="Fill-27"></path>
                                    <path d="M17.1548091,13.4452508 C17.1367091,13.4813402 17.1270091,13.5178806 17.1270091,13.5547492 L17.1548091,13.4452508 Z" id="Fill-29"></path>
                                    <path d="M23.4906455,14.3543417 L23.5184455,14.4638401 C23.5184455,14.4269715 23.5088455,14.3904721 23.4906455,14.3543417" id="Fill-31"></path>
                                    <path d="M17.1548091,14.3543417 C17.1367091,14.3904721 17.1270091,14.4269715 17.1270091,14.4638401 L17.1548091,14.3543417 Z" id="Fill-33"></path>
                                    <path d="M20.0275568,12.9037341 C20.2662186,12.8790755 20.5157813,12.8659429 20.7727273,12.8659429 C21.0296733,12.8659429 21.279236,12.8790755 21.5178977,12.9037341 L21.5178977,13.9792778 C21.2757569,13.9580327 21.0256144,13.9468279 20.7696348,13.9468279 C20.5158199,13.9468279 20.2678035,13.9579123 20.0275568,13.9787557 L20.0275568,12.9037341 Z M20.0275568,11.7218048 C20.2662186,11.6971462 20.5157813,11.6839735 20.7727273,11.6839735 C21.0296733,11.6839735 21.279236,11.6971462 21.5178977,11.7218048 L21.5178977,12.689276 C21.279236,12.6646174 21.0297119,12.6514446 20.7727273,12.6514446 C20.5157426,12.6514446 20.2662186,12.6646174 20.0275568,12.689276 L20.0275568,11.7218048 Z M20.7696348,15.0918094 C22.4382568,15.0918094 23.860138,15.5643401 24.4090909,16.2272727 L24.4090909,15.0812471 C24.0079969,14.5976722 23.1416402,14.2158644 22.0544034,14.04482 L22.0544034,12.9818065 C23.0443045,13.1704413 23.7530611,13.5707631 23.8469177,14.043816 C23.8539144,14.0084344 23.857664,13.9726914 23.857664,13.9365468 C23.857664,13.4173091 23.1183693,12.9700395 22.0544034,12.7673484 L22.0544034,11.7998371 C23.0443045,11.9884719 23.7530611,12.3888339 23.8469177,12.8618867 C23.8539144,12.8265051 23.857664,12.7907621 23.857664,12.7546175 C23.857664,12.2353798 23.1183693,11.7881102 22.0544034,11.585379 L22.0544034,10.7727273 L21.5178977,10.7727273 L21.5178977,11.5073467 C21.279236,11.4826881 21.0297119,11.4695154 20.7727273,11.4695154 C20.5157426,11.4695154 20.2662186,11.4826881 20.0275568,11.5073467 L20.0275568,10.7727273 L19.4910512,10.7727273 L19.4910512,11.585379 C18.4270852,11.7881102 17.6877905,12.2353798 17.6877905,12.7546175 C17.6877905,12.7907621 17.6915401,12.8265051 17.6985369,12.8618867 C17.7923935,12.3888339 18.50115,11.9884719 19.4910512,11.7998371 L19.4910512,12.7673484 C18.4270852,12.9700395 17.6877905,13.4173091 17.6877905,13.9365468 C17.6877905,13.9726914 17.6915401,14.0084344 17.6985369,14.043816 C17.7923935,13.5707631 18.50115,13.1704413 19.4910512,12.9818065 L19.4910512,14.0438561 C18.4064043,14.2135753 17.5408593,14.5929734 17.1363636,15.073978 L17.1363636,16.2197627 C17.6898006,15.560806 19.107275,15.0918094 20.7696348,15.0918094 L20.7696348,15.0918094 Z" id="Fill-35"></path>
                                    <path d="M20.3147001,17.0134314 C22.1918977,17.0134314 23.7915132,17.4428936 24.4090909,18.0454545 L24.4090909,17.2583714 C23.7909237,16.6562396 22.1910871,16.2272727 20.3147001,16.2272727 C18.4452029,16.2272727 16.8503402,16.6531032 16.2272727,17.2517354 L16.2272727,18.0386534 C16.8498612,17.4396581 18.4445765,17.0134314 20.3147001,17.0134314" id="Fill-37"></path>
                                    <path d="M9.86363636,21.0099372 L9.86363636,25.3181818 L11.3757839,25.3181818 L11.3757839,22.8572977 L16.2115429,22.8572977 L16.2115429,21.4153889 L11.3757839,21.4153889 L11.3757839,20.9628995 C11.3757839,20.6674194 11.6165117,20.4279211 11.9134582,20.4279211 L16.2272727,20.4279211 L16.2272727,18.9545455 L11.9292289,18.9545455 C10.7884279,18.9545455 9.86363636,19.87477 9.86363636,21.0099372" id="Fill-39"></path>
                                    <path d="M23.8908156,20.6059719 L19.4081189,20.6059719 C19.166037,20.6059719 18.9697306,20.811192 18.9697306,21.0642278 C18.9697306,21.3173786 19.166037,21.5225221 19.4081189,21.5225221 L22.1373356,21.5225221 C23.1057733,21.5225221 23.8908156,22.3432875 23.8908156,23.3556225 C23.8908156,24.3679958 23.1057733,25.1887996 22.1373356,25.1887996 L17.499083,25.1887996 L17.499083,23.7695521 L21.8262237,23.7695521 C22.0605296,23.7695521 22.2504539,23.5710039 22.2504539,23.3260588 C22.2504539,23.0811521 22.0605296,22.8825655 21.8262237,22.8825655 L19.2783117,22.8825655 C18.3425184,22.8825655 17.5839217,22.0894848 17.5839217,21.1112766 L17.5839217,20.9581667 C17.5839217,19.9798434 18.3425184,19.1868011 19.2783117,19.1868011 L23.8908156,19.1868011 L23.8908156,20.6059719 Z M24.2028078,18.7625184 L24.1886497,18.7625184 C24.1886497,17.8644119 22.6628368,17.1363636 20.7806866,17.1363636 C18.8984998,17.1363636 17.3726869,17.8644119 17.3726869,18.7625184 C17.3726869,18.7930023 17.3745942,18.8232179 17.3780421,18.85328 L16.2272727,30.7664388 L16.2460524,30.7667455 C16.6682653,29.9404584 18.5379078,29.3176276 20.7806866,29.3176276 C23.0287472,29.3176276 24.9018376,29.9434493 25.3181818,30.7727273 L24.2028078,18.7625184 Z" id="Fill-41"></path>
                                    <path d="M26.446279,23.6966612 C26.1335737,23.6966612 25.8800916,23.4541889 25.8800916,23.1550565 L25.8800916,21.056527 C25.8800916,20.7573946 26.1335737,20.5149223 26.446279,20.5149223 L30.7087761,20.5149223 L30.7087761,18.9545455 L26.4582232,18.9545455 C25.3265119,18.9545455 24.4090909,19.8322624 24.4090909,20.9150749 L24.4090909,23.357692 C24.4090909,24.4404252 25.3265119,25.3181818 26.4582232,25.3181818 L30.7727273,25.3181818 L30.7727273,23.6966612 L26.446279,23.6966612 Z" id="Fill-43"></path>
                                    <path d="M18.6013361,7.07458272 C19.2604449,6.97573998 19.9308733,6.92596547 20.6096099,6.92596547 C21.4172513,6.92596547 22.2131378,6.99655782 22.9921902,7.13636364 L23.6883777,6.47732233 L24.4090909,5.79504172 C23.1793253,5.47826738 21.9075104,5.31818182 20.6096099,5.31818182 C19.4261382,5.31818182 18.2643623,5.45129498 17.1363636,5.71486441 L17.9916414,6.50870045 L18.6013361,7.07458272 Z" id="Fill-45"></path>
                                    <path d="M24.9969086,8.4499352 C25.0920339,8.48967674 25.1868578,8.53049239 25.2812673,8.5726606 C26.5095701,9.12128492 27.6379255,9.85970597 28.6473083,10.7727273 L29.8780976,10.4815279 L30.7727273,10.269931 C30.7366738,10.2310647 30.7005074,10.1923177 30.6641149,10.1538093 C29.311942,8.72597784 27.7370065,7.6048604 25.98316,6.82148645 C25.4670724,6.59103321 24.9420562,6.39292219 24.4090909,6.22727273 L24.6949942,7.30821103 L24.9969086,8.4499352 Z" id="Fill-47"></path>
                                    <path d="M8.33453975,15.6526968 C8.42435718,15.4139111 8.52221395,15.177213 8.62818698,14.9427825 C9.16212951,13.7614878 9.88182295,12.6769456 10.7727273,11.7076929 L10.4717331,10.8950871 L10.0896532,9.86363636 C8.7412377,11.1412517 7.67996875,12.6239261 6.9349264,14.27221 C6.64651051,14.9102438 6.4106003,15.5628192 6.22727273,16.2272727 L7.42421024,15.900913 L8.33453975,15.6526968 Z" id="Fill-49"></path>
                                    <path d="M30.7727273,12.8390313 C31.4135752,13.7673412 31.9405951,14.7867245 32.3451083,15.8844125 C32.42392,16.0984426 32.4975715,16.3142419 32.5661296,16.5316949 L33.5239334,16.8459903 L34.4090909,17.1363636 C34.2535115,16.4679666 34.0571188,15.8110307 33.8200805,15.167902 C33.2205149,13.5407347 32.3858545,12.064523 31.3359697,10.7727273 L31.0903533,11.673846 L30.7727273,12.8390313 Z" id="Fill-51"></path>
                                    <path d="M34.9216238,17.1363636 L34.2388219,17.8538605 L33.5167749,18.6125682 C33.6174245,19.2912166 33.6681635,19.9814146 33.6681635,20.6801247 C33.6681635,21.4162958 33.6117293,22.1429423 33.5,22.8566518 L34.2570465,23.7095558 L34.8779952,24.4090909 C35.170452,23.1996883 35.3181818,21.9519998 35.3181818,20.6801247 C35.3181818,19.4730095 35.1851214,18.2877935 34.9216238,17.1363636" id="Fill-53"></path>
                                    <path d="M12.2334518,10.7727273 C13.2557647,9.94091053 14.3870661,9.26224836 15.6110079,8.74859582 C15.9204951,8.61871081 16.2335345,8.50064081 16.5497629,8.39402537 L16.7870351,7.517632 L17.1363636,6.22727273 C16.3618585,6.42103889 15.601643,6.6738801 14.8589867,6.98555605 C12.9883793,7.77059336 11.3078965,8.89265883 9.86363636,10.3206329 L11.05581,10.5480819 L12.2334518,10.7727273 Z" id="Fill-55"></path>
                                    <path d="M28.6472491,30.7727273 C27.7108903,31.4888967 26.6753489,32.0793645 25.5549798,32.5341787 C25.7486366,32.7875583 25.8537143,33.0591777 25.8537143,33.3415814 C25.8537143,33.723298 25.6615121,34.085041 25.3181818,34.4090909 C25.5511136,34.3320402 25.7825141,34.2498227 26.0119624,34.1618837 C27.7941486,33.4790729 29.3943915,32.501791 30.7682868,31.2572937 C30.7697797,31.2559067 30.7712344,31.2545196 30.7727273,31.2531326 L29.8263775,31.0392839 L28.6472491,30.7727273 Z" id="Fill-57"></path>
                                    <path d="M32.5807522,24.9419685 C32.527783,25.1064934 32.4720786,25.2701579 32.4134055,25.4326883 C31.9949887,26.5924577 31.4447159,27.6660344 30.7727273,28.6393006 L31.0595216,29.8125621 L31.2942139,30.7727273 C32.3933586,29.4255942 33.2631812,27.8758457 33.881767,26.1613376 C34.0887405,25.5875146 34.2645263,25.002937 34.4090909,24.4090909 L33.5662532,24.6547246 L32.5807522,24.9419685 Z" id="Fill-59"></path>
                                    <path d="M7.13636364,22.911298 C7.01133274,22.17545 6.94818651,21.4250794 6.94818651,20.6642628 C6.94818651,19.9493797 7.00396795,19.2437417 7.11437156,18.5506971 L6.52921195,17.9526501 L5.7305417,17.1363636 C5.45644206,18.2816469 5.31818182,19.461799 5.31818182,20.6642628 C5.31818182,21.9428701 5.47471764,23.1961447 5.78441376,24.4090909 L6.42879853,23.695227 L7.13636364,22.911298 Z" id="Fill-61"></path>
                                    <path d="M10.7727273,28.7457166 C9.8519565,27.7265743 9.10928801,26.5843937 8.55940014,25.3394684 C8.49817502,25.2009096 8.43977568,25.0615239 8.38380965,24.9214243 L7.26645131,24.6559564 L6.22727273,24.4090909 C6.39434665,24.9613722 6.59576157,25.5053858 6.83175299,26.0396285 C7.60456308,27.7891832 8.71065757,29.3602686 10.1192669,30.7090285 C10.1415984,30.7304118 10.1641261,30.7514568 10.186536,30.7727273 L10.468721,29.7969527 L10.7727273,28.7457166 Z" id="Fill-63"></path>
                                    <path d="M15.0705123,32.42603 C14.0065845,31.9900449 13.015706,31.4364253 12.1089885,30.7727273 L10.9034952,31.0582487 L9.86363636,31.3045587 C11.2448731,32.5123027 12.8337046,33.4680879 14.5915001,34.1478887 C14.8318286,34.2409106 15.074243,34.32755 15.3181818,34.4090909 C14.9586318,34.0664212 14.7572951,33.6838063 14.7572951,33.2801734 C14.7572951,32.9814103 14.8674506,32.6941649 15.0705123,32.42603" id="Fill-65"></path>
                                    <path d="M20.7726689,35.3181818 C19.5358928,35.3181818 18.3212088,35.1564023 17.1406356,34.8361536 L17.9893586,33.9055451 L18.7311209,33.0922193 C19.4018224,33.2056326 20.0832201,33.2628552 20.7726689,33.2628552 C21.6321658,33.2628552 22.4791774,33.1739904 23.3085307,32.9978515 L24.0703239,33.868099 L24.8144199,34.7181831 C23.505805,35.1166775 22.1530057,35.3181818 20.7726689,35.3181818 L20.7726689,35.3181818 Z M25.330048,33.5195184 L25.6600313,32.242866 C25.7627135,32.1981111 25.8650845,32.1519805 25.9669889,32.1042592 C26.0542688,32.0634597 26.1409652,32.0214133 26.2272727,31.9786791 C25.4567283,30.7487591 23.3057303,29.8636364 20.7726689,29.8636364 C18.2396465,29.8636364 16.0886874,30.7487161 15.3181818,31.9785931 C15.4044504,32.0213273 15.4910691,32.0634597 15.578349,32.1042592 C15.8781888,32.2444567 16.1814903,32.3718855 16.4878645,32.4868465 L16.7363632,33.5284178 L17.0418039,34.8090256 C16.5407225,34.6690861 16.0460198,34.4999119 15.5583182,34.3028788 C17.1274114,34.9521035 18.4803273,35.2173222 20.7862432,35.2173222 C23.0918479,35.2173222 24.5650266,34.8858096 25.9866696,34.3033087 C25.6734111,34.4297486 25.3573132,34.5450107 25.038376,34.6479769 L25.330048,33.5195184 Z" id="Fill-67"></path>
                                    <path d="M25.8574008,32.5909091 C25.7522104,32.6345715 25.6466884,32.6775749 25.5403609,32.7192167 C25.4161226,32.7678866 25.2915052,32.815107 25.1663666,32.8608778 L24.7644163,34.1652142 L24.4090909,35.3181818 C24.7975844,35.2128914 25.1827137,35.0952578 25.5642419,34.9659398 C25.9892204,34.5555399 26.2272727,34.0972169 26.2272727,33.6136803 C26.2272727,33.2559476 26.0972063,32.9119637 25.8574008,32.5909091" id="Fill-69"></path>
                                    <path d="M22.9819044,33.5 C22.1958958,33.6380514 21.3931518,33.7076498 20.5785751,33.7076498 C19.9251959,33.7076498 19.2794104,33.6628117 18.643725,33.5738767 L17.9407664,34.2111768 L17.1363636,34.9404439 C18.2552362,35.1913821 19.4064368,35.3181818 20.5785751,35.3181818 C21.886771,35.3181818 23.1688686,35.1602548 24.4090909,34.8480391 L23.7038838,34.1819024 L22.9819044,33.5 Z" id="Fill-71"></path>
                                    <path d="M16.8624015,34.0842479 L16.6395763,33.0805555 C16.364777,32.9699087 16.0927683,32.8471243 15.8238641,32.7119951 C15.7455892,32.672724 15.6679073,32.6320858 15.5905393,32.5909091 C15.4140023,32.8937277 15.3181818,33.2180874 15.3181818,33.5555375 C15.3181818,34.0113809 15.4932538,34.4434462 15.8058999,34.8305238 C16.2432835,35.0203757 16.6869458,35.1833426 17.1363636,35.3181818 L16.8624015,34.0842479 Z" id="Fill-73"></path>
                                </g>
                            </g>
                        </g>
                    </g>
                </g>
            </g>
        </g>
    </g>
</svg>