<?xml version="1.0" encoding="UTF-8"?>
<svg width="144px" height="50px" viewBox="0 0 144 50" version="1.1" xmlns="http://www.w3.org/2000/svg" xmlns:xlink="http://www.w3.org/1999/xlink">
    <!-- Generator: Sketch 54 (76480) - https://sketchapp.com -->
    <title>im_board</title>
    <desc>Created with Sketch.</desc>
    <g id="页面1" stroke="none" stroke-width="1" fill="none" fill-rule="evenodd">
        <g id="画板复制-2" transform="translate(-5141.000000, -758.000000)" fill="#FFFFFF">
            <g id="矩形-4复制-6" transform="translate(5059.000000, 135.000000)">
                <g id="编组-22" transform="translate(82.000000, 623.000000)">
                    <path d="M37.6305588,0 C44.8826583,6.03447671e-16 50.7622165,5.9082509 50.7622165,13.1916513 L50.7622165,36.805631 C50.7622165,44.0917491 44.8826583,50 37.6333205,50 L14.1316577,50 C6.87955818,50 1,44.0917491 1,36.8083487 L1,13.1916513 C1,5.90553321 6.87955818,0 14.128896,0 L37.6305588,0 Z M45.5980218,35.1808787 L45.5980218,35.1840581 C46.2715621,34.2811112 46.263669,32.9139732 45.5717117,32.1382019 L32.7323505,16.145867 C32.0482862,15.3700957 30.9432592,15.4718362 30.2697189,16.3779626 C29.5935476,17.2840889 29.6040717,18.6480475 30.288136,19.4301776 L43.1327592,35.4129742 C43.8194546,36.1951043 44.9218506,36.0901844 45.5980218,35.1808787 Z M33.9365891,35.1811361 C34.6075916,34.2784963 34.5996974,32.9118234 33.9129066,32.1363159 L21.0717601,16.149421 C20.7828406,15.828724 20.4062948,15.6477051 20.0139443,15.6408915 C19.9797364,15.6377132 19.9481598,15.625 19.9113204,15.625 C19.8902694,15.625 19.8692183,15.6345349 19.8455358,15.6345349 L19.8060651,15.6408915 C19.088853,15.7092644 18.4727135,16.2826869 18.2351298,17.1029137 C18.2017315,17.2104448 18.1753374,17.3209622 18.1561883,17.4334579 L18.1430314,17.4906675 C18.1155826,17.6559272 18.1032289,17.8243257 18.106192,17.9928403 L18.106192,33.4394227 C18.106192,34.7234596 18.9140264,35.7723016 19.9113204,35.7723016 C20.9112458,35.7723016 21.7217116,34.7266379 21.7217116,33.4394227 L21.7217116,23.2879033 L31.4630895,35.4131526 C32.1577745,36.1950167 33.2603238,36.0901325 33.9365891,35.1811361 Z M13.4405541,33.5854926 L13.4371662,33.5854926 L13.4371662,17.973803 C13.4371662,16.682442 12.3970654,15.625 11.1096442,15.625 C9.82222302,15.625 8.77534632,16.6792377 8.77534632,17.973803 L8.77534632,33.5854926 C8.77534632,34.880058 9.82222302,35.9375 11.1096442,35.9375 C12.3970654,35.9375 13.4405541,34.8832623 13.4405541,33.5854926 Z M62.5807429,25.4954498 L62.5807429,10.6454498 L69.6420014,10.6454498 C70.4767668,10.6454498 71.2567817,10.7004493 71.9820696,10.8104498 C72.7073576,10.9204504 73.3402644,11.1163859 73.8808092,11.3982623 C74.421354,11.6801388 74.8455726,12.0616974 75.1534779,12.5429498 C75.4613831,13.0242023 75.6153335,13.6360711 75.6153335,14.3785748 C75.6153335,14.7635768 75.5605956,15.1210732 75.4511181,15.4510748 C75.3416407,15.7810765 75.1945326,16.080136 75.0097895,16.3482623 C74.8250463,16.6163887 74.6163581,16.8570113 74.3837186,17.0701373 C74.1510791,17.2832634 73.918443,17.4654491 73.6858035,17.6166998 C74.4931995,17.8229509 75.1055797,18.2388842 75.5229623,18.8645123 C75.940345,19.4901405 76.1490332,20.2085708 76.1490332,21.0198248 C76.1490332,21.844829 75.998504,22.5426345 75.6974411,23.1132623 C75.3963782,23.6838902 74.9687384,24.1445106 74.414509,24.4951373 C73.8602795,24.8457641 73.1897404,25.1001366 72.4028714,25.2582623 C71.6160024,25.4163881 70.7436173,25.4954498 69.7856898,25.4954498 L62.5807429,25.4954498 Z M67.4250947,14.1104498 L67.4250947,16.5854498 L69.4367323,16.5854498 C69.915696,16.5854498 70.3125457,16.4788884 70.6272933,16.2657623 C70.9420409,16.0526363 71.0994123,15.726077 71.0994123,15.2860748 C71.0994123,14.9973234 71.0446744,14.7738881 70.935197,14.6157623 C70.8257196,14.4576366 70.6786115,14.3407627 70.4938683,14.2651373 C70.3091252,14.189512 70.100437,14.1448249 69.8677975,14.1310748 C69.6351579,14.1173248 69.3888374,14.1104498 69.1288285,14.1104498 L67.4250947,14.1104498 Z M67.4250947,19.2873248 L67.4250947,22.0304498 L69.5393668,22.0304498 C69.8404297,22.0304498 70.1175403,22.0132625 70.3707069,21.9788873 C70.6238734,21.9445122 70.842825,21.8757629 71.0275681,21.7726373 C71.2123113,21.6695118 71.3594193,21.5285757 71.4688968,21.3498248 C71.5783742,21.171074 71.6331121,20.9442012 71.6331121,20.6691998 C71.6331121,20.3391982 71.5646897,20.0848257 71.4278429,19.9060748 C71.2909962,19.727324 71.1062558,19.5898253 70.8736163,19.4935748 C70.6409767,19.3973244 70.360445,19.3388874 70.0320128,19.3182623 C69.7035805,19.2976372 69.3477842,19.2873248 68.9646132,19.2873248 L67.4250947,19.2873248 Z M93.4482458,25.4954498 L99.1797868,10.4954498 L104.511453,10.4954498 L110.242994,25.4954498 L105.022404,25.4954498 L104.400376,23.5162832 L99.1797868,23.5162832 L98.5799743,25.4954498 L93.4482458,25.4954498 Z M101.81431,14.8704498 L100.290551,19.8704498 L103.400689,19.8704498 L101.81431,14.8704498 Z M82.1695694,25.9288141 L82.8545662,24.9814918 L80.3384113,23.1446628 L79.5820783,24.1906402 C77.7789306,22.4812634 76.6534977,20.0579141 76.6534977,17.3704498 C76.6534977,17.1118254 76.6639202,16.8556468 76.6843663,16.6023152 L78.4043684,17.1638482 L79.3654541,14.1917966 L77.4531041,13.5674673 C78.7026974,10.7417545 81.3021115,8.65214531 84.428844,8.12507241 L84.428844,10.4954498 L87.5389826,10.4954498 L87.5389826,8.12507241 C90.6657151,8.65214531 93.2651292,10.7417545 94.5147225,13.5674673 L92.6023725,14.1917966 L93.5634582,17.1638482 L95.2834603,16.6023152 C95.3039063,16.8556468 95.3143289,17.1118254 95.3143289,17.3704498 C95.3143289,20.0579141 94.1888959,22.4812634 92.3857482,24.1906402 L91.6294153,23.1446628 L89.1132604,24.9814918 L89.7982572,25.9288141 C88.6337966,26.4535742 87.3427785,26.7454498 85.9839133,26.7454498 C84.6250481,26.7454498 83.3340299,26.4535742 82.1695694,25.9288141 Z M85.6728994,22.9954498 C88.592959,22.9954498 90.9601349,20.6169626 90.9601349,17.6829498 C90.9601349,14.7489371 88.592959,12.3704498 85.6728994,12.3704498 C82.7528399,12.3704498 80.3856639,14.7489371 80.3856639,17.6829498 C80.3856639,20.6169626 82.7528399,22.9954498 85.6728994,22.9954498 Z M88.0145367,15.5511598 C88.6681336,16.0746093 89.7151667,16.8567352 89.7160795,17.9410856 C89.7160795,18.8207595 88.9994963,19.5950467 87.9259907,19.5950467 C87.2459213,19.5950467 86.6726547,19.2919512 86.4490077,18.8590819 C86.3860215,18.7449856 86.376893,18.6918568 86.3056911,18.6918568 C86.2427048,18.6918568 86.2518333,18.8137918 86.2518333,18.8285982 C86.3056911,19.6176918 86.6370538,20.0357546 87.1382056,20.391979 C87.2367929,20.4677529 87.1738066,20.5435268 87.1382056,20.5435268 L84.829621,20.5435268 C84.79402,20.5435268 84.7219053,20.4677529 84.829621,20.391979 C85.3307728,20.0348837 85.6621355,19.6176918 85.7159933,18.8285982 C85.7159933,18.8129208 85.7251218,18.6918568 85.6621355,18.6918568 C85.5900207,18.6918568 85.5818051,18.7449856 85.5188188,18.8590819 C85.2951718,19.2910802 84.7219053,19.5950467 84.0418358,19.5950467 C82.9765459,19.5950467 82.2517471,18.8216305 82.2517471,17.9410856 C82.2517471,16.8567352 83.2987801,16.0746093 83.952377,15.5511598 C84.7492906,14.9066463 85.6438786,14.0644239 85.9661128,13.6315546 C85.9752413,13.6167482 85.9925853,13.6167482 86.0017138,13.6315546 C86.323948,14.0644239 87.218536,14.9066463 88.0145367,15.5511598 Z M116.463271,10.4954498 L119.573409,10.4954498 C122.665237,10.4954498 125.171659,13.0138481 125.171659,16.1204498 C125.171659,18.0694519 124.185135,19.786938 122.686451,20.7962781 L125.171659,25.4954498 L120.195437,25.4954498 L118.212209,21.7454498 L116.463271,21.7454498 L116.463271,25.4954498 L111.487049,25.4954498 L111.487049,10.4954498 L116.463271,10.4954498 Z M116.463271,14.2454498 L116.463271,17.9954498 L118.320437,17.9954498 C119.355971,17.9954498 120.195437,17.1559838 120.195437,16.1204498 C120.195437,15.0849159 119.355971,14.2454498 118.320437,14.2454498 L116.463271,14.2454498 Z M126.450548,25.4954498 L126.450548,10.6454498 L132.937053,10.6454498 C134.12762,10.6454498 135.19843,10.7863859 136.149515,11.0682623 C137.1006,11.3501388 137.911405,11.7832594 138.581954,12.3676373 C139.252503,12.9520153 139.765671,13.6910704 140.121473,14.5848248 C140.477274,15.4785793 140.655172,16.5373187 140.655172,17.7610748 C140.655172,19.1635819 140.470432,20.352945 140.100946,21.3291998 C139.731459,22.3054547 139.204607,23.1029468 138.520373,23.7216998 C137.836139,24.3404529 137.01165,24.7907609 136.04688,25.0726373 C135.08211,25.3545138 134.004458,25.4954498 132.813891,25.4954498 L126.450548,25.4954498 Z M131.916927,22.0304498 L132.943273,22.0304498 C134.065417,22.0304498 134.927538,21.714203 135.529664,21.0816998 C136.13179,20.4491967 136.432848,19.4317069 136.432848,18.0291998 C136.432848,17.259196 136.367847,16.6198274 136.237843,16.1110748 C136.107838,15.6023223 135.89915,15.2001388 135.611772,14.9045123 C135.324394,14.6088859 134.951492,14.4026379 134.493055,14.2857623 C134.034618,14.1688868 133.483818,14.1104498 132.840638,14.1104498 L131.916927,14.1104498 L131.916927,22.0304498 Z M79.658727,41.1204498 L76.6186641,41.1204498 L81.5443356,28.5554498 L84.8730119,28.5554498 L89.7409606,41.1204498 L86.6046933,41.1204498 L85.7196117,38.5304498 L80.6207722,38.5304498 L79.658727,41.1204498 Z M80.9380245,36.3604498 L85.3693499,36.3604498 L83.2142245,31.3904498 L83.1657947,31.3904498 L80.9380245,36.3604498 Z M106.274457,41.1204498 L103.460747,41.1204498 L103.460747,30.6204498 L103.420551,30.6204498 L100.727428,41.1204498 L97.7730328,41.1204498 L95.140204,30.6204498 L95.1000082,30.6204498 L95.1000082,41.1204498 L92.286298,41.1204498 L92.286298,28.5554498 L96.6877446,28.5554498 L99.3004755,38.4604498 L99.3406713,38.4604498 L101.913206,28.5554498 L106.274457,28.5554498 L106.274457,41.1204498 Z M118.973775,30.7779498 L112.337983,30.7779498 L112.337983,33.4204498 L118.433855,33.4204498 L118.433855,35.6429498 L112.337983,35.6429498 L112.337983,38.8979498 L119.26986,38.8979498 L119.26986,41.1204498 L109.777717,41.1204498 L109.777717,28.5554498 L118.973775,28.5554498 L118.973775,30.7779498 Z M124.253546,37.2529498 C124.253546,37.4279507 124.285476,37.6321153 124.349338,37.8654498 C124.4132,38.0987843 124.538019,38.3204488 124.723799,38.5304498 C124.909579,38.7404509 125.176633,38.9183658 125.52497,39.0641998 C125.873308,39.2100339 126.331945,39.2829498 126.900896,39.2829498 C127.214399,39.2829498 127.524995,39.2596167 127.832693,39.2129498 C128.140391,39.1662829 128.419057,39.0846171 128.668699,38.9679498 C128.91834,38.8512826 129.121534,38.6879509 129.278286,38.4779498 C129.435037,38.2679488 129.513412,37.9937849 129.513412,37.6554498 C129.513412,37.4104486 129.45826,37.206284 129.347953,37.0429498 C129.237646,36.8796157 129.080897,36.7425337 128.8777,36.6316998 C128.674503,36.520866 128.433573,36.4246169 128.154904,36.3429498 C127.876234,36.2612828 127.574346,36.1796169 127.249231,36.0979498 L125.90814,35.7829498 C125.397245,35.6662826 124.903775,35.5379505 124.427714,35.3979498 C123.951653,35.2579491 123.530751,35.0567012 123.164997,34.7941998 C122.799243,34.5316985 122.503161,34.1875353 122.276742,33.7616998 C122.050323,33.3358644 121.937115,32.7787866 121.937115,32.0904498 C121.937115,31.8571153 121.96324,31.6004512 122.01549,31.3204498 C122.067741,31.0404484 122.157727,30.7575346 122.28545,30.4716998 C122.413174,30.1858651 122.590243,29.9058679 122.816662,29.6316998 C123.043081,29.3575318 123.336261,29.1183675 123.696209,28.9141998 C124.056158,28.7100322 124.485767,28.5437838 124.98505,28.4154498 C125.484334,28.2871159 126.070693,28.2229498 126.744145,28.2229498 C127.696267,28.2229498 128.485819,28.3629484 129.112826,28.6429498 C129.739833,28.9229512 130.239109,29.2671145 130.610669,29.6754498 C130.982229,30.0837852 131.243478,30.5241975 131.394424,30.9966998 C131.54537,31.4692022 131.620842,31.8979479 131.620842,32.2829498 L129.112826,32.2829498 L129.077993,32.0967499 C129.057093,31.9945501 129.030968,31.8787005 128.999617,31.7491998 C128.947367,31.5333654 128.834159,31.3262842 128.65999,31.1279498 C128.485822,30.9296155 128.233281,30.7575339 127.90236,30.6116998 C127.57144,30.4658658 127.121511,30.3929498 126.55256,30.3929498 C126.308724,30.3929498 126.056183,30.4191996 125.794931,30.4716998 C125.533678,30.5242001 125.298553,30.6087826 125.089551,30.7254498 C124.880549,30.8421171 124.709285,30.9966989 124.575756,31.1891998 C124.442227,31.3817008 124.375463,31.6179484 124.375463,31.8979498 C124.375463,32.1429511 124.419005,32.3441991 124.506089,32.5016998 C124.593173,32.6592006 124.703479,32.784616 124.837008,32.8779498 C124.970537,32.9712836 125.115675,33.0412829 125.272427,33.0879498 L125.699138,33.2104498 L128.747074,33.9629498 C129.17669,34.0679504 129.588883,34.1962824 129.983665,34.3479498 C130.378447,34.4996173 130.726779,34.7037819 131.028672,34.9604498 C131.330564,35.2171178 131.571494,35.5379479 131.751468,35.9229498 C131.931442,36.3079518 132.021428,36.780447 132.021428,37.3404498 C132.021428,37.970453 131.925637,38.5100309 131.734051,38.9591998 C131.542466,39.4083688 131.292828,39.784615 130.98513,40.0879498 C130.677432,40.3912847 130.337808,40.6333656 129.966248,40.8141998 C129.594689,40.9950341 129.226037,41.132116 128.860283,41.2254498 C128.494529,41.3187836 128.154905,41.380033 127.841402,41.4091998 L127.549186,41.4335055 C127.368568,41.4464684 127.216334,41.4529498 127.09248,41.4529498 C125.954579,41.4529498 125.034401,41.307118 124.331921,41.0154498 C123.629441,40.7237817 123.086624,40.3650353 122.703453,39.9391998 C122.320282,39.5133644 122.064838,39.0554523 121.937115,38.5654498 C121.809391,38.0754474 121.74553,37.6379518 121.74553,37.2529498 L124.253546,37.2529498 Z M69.4901446,36.2669495 L69.4901446,34.1875449 L74.8612383,34.1875449 L74.8612383,39.104032 C74.3392799,39.609153 73.5830128,40.0539335 72.5924142,40.4383868 C71.6018157,40.82284 70.5986042,41.0150638 69.5827496,41.0150638 C68.2918847,41.0150638 67.1666041,40.7442668 66.2068741,40.2026648 C65.2471441,39.6610628 64.5259543,38.8865554 64.043283,37.8791195 C63.5606118,36.8716836 63.3192798,35.775868 63.3192798,34.5916397 C63.3192798,33.3063873 63.5886737,32.1642695 64.1274695,31.1652523 C64.6662653,30.1662351 65.4548035,29.4001463 66.4931079,28.866963 C67.2844643,28.4572537 68.2694356,28.2524021 69.4480514,28.2524021 C70.9802519,28.2524021 72.1770903,28.5737104 73.0386023,29.2163367 C73.9001143,29.8589629 74.454336,30.7471208 74.7012841,31.8808369 L72.2262033,32.3438622 C72.0522172,31.737717 71.7252965,31.2592623 71.2454315,30.9084837 C70.7655665,30.5577052 70.1664458,30.3823186 69.4480514,30.3823186 C68.3592349,30.3823186 67.4935265,30.7274795 66.8509002,31.4178116 C66.208274,32.1081437 65.8869657,33.1324016 65.8869657,34.490616 C65.8869657,35.9554671 66.2124833,37.0540889 66.8635282,37.7865145 C67.5145731,38.51894 68.3676537,38.8851473 69.4227954,38.8851473 C69.9447539,38.8851473 70.4681076,38.7827215 70.9928722,38.5778668 C71.5176369,38.3730122 71.9680297,38.1246647 72.3440643,37.832817 L72.3440643,36.2669495 L69.4901446,36.2669495 Z" id="形状结合"></path>
                </g>
            </g>
        </g>
    </g>
</svg>