<?xml version="1.0" encoding="UTF-8"?>
<svg width="240px" height="50px" viewBox="0 0 240 50" version="1.1" xmlns="http://www.w3.org/2000/svg" xmlns:xlink="http://www.w3.org/1999/xlink">
    <!-- Generator: Sketch 54 (76480) - https://sketchapp.com -->
    <title>im_sport_logo</title>
    <desc>Created with Sketch.</desc>
    <g id="页面1" stroke="none" stroke-width="1" fill="none" fill-rule="evenodd">
        <g id="画板复制" transform="translate(-169.000000, -751.000000)" fill="#FFFFFF">
            <g id="矩形-4" transform="translate(87.000000, 128.000000)">
                <g id="编组-4" transform="translate(82.000000, 623.000000)">
                    <path d="M36.8055941,0 C44.092347,6.03447671e-16 50,5.9082509 50,13.1916513 L50,36.805631 C50,44.0917491 44.092347,50 36.8083689,50 L13.1944059,50 C5.90765303,50 1.25055521e-12,44.0917491 1.25055521e-12,36.8083487 L1.25055521e-12,13.1916513 C1.25055521e-12,5.90553321 5.90765303,0 13.1916311,0 L36.8055941,0 Z M44.8111288,35.1808787 L44.8111288,35.1840581 C45.4878875,34.2811112 45.4799567,32.9139732 44.7846929,32.1382019 L31.8839802,16.145867 C31.1966471,15.3700957 30.0863399,15.4718362 29.4095812,16.3779626 C28.7301789,17.2840889 28.7407533,18.6480475 29.4280863,19.4301776 L42.3340862,35.4129742 C43.0240629,36.1951043 44.1317265,36.0901844 44.8111288,35.1808787 Z M33.0939731,35.1811361 C33.7681819,34.2784963 33.7602501,32.9118234 33.0701775,32.1363159 L20.1676709,16.149421 C19.8773708,15.828724 19.4990257,15.6477051 19.1048005,15.6408915 C19.070429,15.6377132 19.0387016,15.625 19.0016862,15.625 C18.9805345,15.625 18.9593829,15.6345349 18.9355873,15.6345349 L18.8959279,15.6408915 C18.1752887,15.7092644 17.556205,16.2826869 17.317486,17.1029137 C17.2839282,17.2104448 17.257408,17.3209622 17.2381673,17.4334579 L17.2249476,17.4906675 C17.1973677,17.6559272 17.1849549,17.8243257 17.1879322,17.9928403 L17.1879322,33.4394227 C17.1879322,34.7234596 17.9996267,35.7723016 19.0016862,35.7723016 C20.0063896,35.7723016 20.8207281,34.7266379 20.8207281,33.4394227 L20.8207281,23.2879033 L30.6086542,35.4131526 C31.3066587,36.1950167 32.4144763,36.0901325 33.0939731,35.1811361 Z M12.5,33.5854926 L12.4965959,33.5854926 L12.4965959,17.973803 C12.4965959,16.682442 11.4515251,15.625 10.1579521,15.625 C8.86437908,15.625 7.8125,16.6792377 7.8125,17.973803 L7.8125,33.5854926 C7.8125,34.880058 8.86437908,35.9375 10.1579521,35.9375 C11.4515251,35.9375 12.5,34.8832623 12.5,33.5854926 Z M70.9605911,22.1305117 L80.5172414,24.1365855 L80.5172414,24.5444292 C83.3010754,25.5283734 85.2955665,28.1833041 85.2955665,31.3040732 L85.2955665,32.014652 C85.2955665,35.1354211 83.3010754,37.7903519 80.5172414,38.774296 L80.5172414,39.1821397 L67.3768473,39.1821397 L67.3768473,38.2232574 C65.2344803,36.9839651 63.7931034,34.6676343 63.7931034,32.014652 L63.7931034,30.4055664 L70.9605911,30.4055664 L70.9605911,32.9131588 L78.1280788,32.9131588 L78.1280788,29.904048 L68.5714286,27.8979741 L68.5714286,27.4901304 C65.7875946,26.5061863 63.7931034,23.8512555 63.7931034,20.7304864 L63.7931034,20.0199076 C63.7931034,16.8991385 65.7875946,14.2442078 68.5714286,13.2602636 L68.5714286,12.8524199 L78.1280788,12.8524199 L80.9072799,12.8524199 C83.3308637,12.8524199 85.2955665,14.8171228 85.2955665,17.2407066 L85.2955665,18.0452493 C85.2955665,20.0244964 83.6910697,21.6289932 81.7118227,21.6289932 C80.1075289,21.6289932 78.7494474,20.574833 78.2924666,19.1214008 L70.9605911,19.1214008 L70.9605911,22.1305117 Z M216.699507,22.1305117 L226.256158,24.1365855 L226.256158,24.5444292 C229.039992,25.5283734 231.034483,28.1833041 231.034483,31.3040732 L231.034483,32.014652 C231.034483,35.1354211 229.039992,37.7903519 226.256158,38.774296 L226.256158,39.1821397 L213.115764,39.1821397 L213.115764,38.2232574 C210.973397,36.9839651 209.53202,34.6676343 209.53202,32.014652 L209.53202,30.4055664 L216.699507,30.4055664 L216.699507,32.9131588 L223.866995,32.9131588 L223.866995,29.904048 L214.310345,27.8979741 L214.310345,27.4901304 C211.526511,26.5061863 209.53202,23.8512555 209.53202,20.7304864 L209.53202,20.0199076 C209.53202,16.8991385 211.526511,14.2442078 214.310345,13.2602636 L214.310345,12.8524199 L223.866995,12.8524199 L226.646196,12.8524199 C229.06978,12.8524199 231.034483,14.8171228 231.034483,17.2407066 L231.034483,18.0452493 C231.034483,20.0244964 229.429986,21.6289932 227.450739,21.6289932 C225.846445,21.6289932 224.488364,20.574833 224.031383,19.1214008 L216.699507,19.1214008 L216.699507,22.1305117 Z M113.965517,18.9083404 C113.192685,21.1251538 112.770936,23.519523 112.770936,26.0172798 C112.770936,26.3555378 112.778671,26.6918996 112.793965,27.0261812 C111.808994,28.3216692 110.291809,29.1517703 108.589901,29.1517703 L102.019704,29.1517703 L102.019704,32.9131588 L102.468958,32.9131588 C104.200089,32.9131588 105.603448,34.316518 105.603448,36.0476492 C105.603448,37.7787805 104.200089,39.1821397 102.468958,39.1821397 L94.4029634,39.1821397 C92.6718321,39.1821397 91.2684729,37.7787805 91.2684729,36.0476492 C91.2684729,34.316518 92.6718321,32.9131588 94.4029634,32.9131588 L94.8522167,32.9131588 L94.8522167,19.1214008 L94.4029634,19.1214008 C92.6718321,19.1214008 91.2684729,17.7180417 91.2684729,15.9869104 C91.2684729,14.2557791 92.6718321,12.8524199 94.4029634,12.8524199 L105.603448,12.8524199 L108.589901,12.8524199 C111.558772,12.8524199 113.965517,15.3784665 113.965517,18.4945027 L113.965517,18.9083404 Z M148.353695,38.2856882 C149.496085,36.6602908 150.417251,34.853129 151.070548,32.9131588 L153.3867,32.9131588 L153.3867,19.1214008 L151.070548,19.1214008 C150.417251,17.1814307 149.496085,15.3742688 148.353695,13.7488714 C148.919118,13.1943585 149.693769,12.8524199 150.548284,12.8524199 L158.614278,12.8524199 L167.721675,12.8524199 C170.690545,12.8524199 173.097291,15.3784665 173.097291,18.4945027 L173.097291,23.5096875 C173.097291,26.2809168 171.193716,28.5855034 168.684093,29.0616017 L170.012747,32.9131588 L171.754672,32.9131588 C173.485803,32.9131588 174.889163,34.316518 174.889163,36.0476492 C174.889163,37.7787805 173.485803,39.1821397 171.754672,39.1821397 L168.467003,39.1821397 C167.294227,39.1821397 166.271884,38.5380614 165.7344,37.5843311 C165.332864,37.2318514 165.015393,36.7736824 164.829452,36.2346702 L162.386096,29.1517703 L160.554187,29.1517703 L160.554187,33.585415 C161.281744,34.1594197 161.748768,35.0489948 161.748768,36.0476492 C161.748768,37.7787805 160.345409,39.1821397 158.614278,39.1821397 L150.548284,39.1821397 C149.693769,39.1821397 148.919118,38.8402011 148.353695,38.2856882 Z M102.019704,22.8827894 L107.992611,22.8827894 L107.992611,19.1214008 L105.603448,19.1214008 L102.019704,19.1214008 L102.019704,22.8827894 Z M160.554187,19.1214008 L160.554187,22.8827894 L167.124384,22.8827894 L167.124384,19.1214008 L160.554187,19.1214008 Z M139.72592,41.3791884 C138.197908,39.2814915 135.788922,37.9283435 133.078818,37.9283435 C130.368713,37.9283435 127.959727,39.2814915 126.431716,41.3791884 C124.753762,40.5438685 123.24121,39.402114 121.959682,38.0227996 C122.943167,36.5836341 123.522167,34.8193646 123.522167,32.9131588 C123.522167,28.9866469 121.06546,25.6623725 117.677324,24.541221 C118.047996,21.5209897 119.206297,18.7597033 120.929046,16.4916024 C121.383814,16.5719702 121.851045,16.6138085 122.327586,16.6138085 C126.021912,16.6138085 129.156692,14.0993549 130.26311,10.6120727 C131.176266,10.4365358 132.117338,10.3448276 133.078818,10.3448276 C134.503543,10.3448276 135.883457,10.5461954 137.194134,10.9232934 C138.384136,14.247975 141.441147,16.6138085 145.024631,16.6138085 C145.122354,16.6138085 145.219685,16.6120491 145.316598,16.6085588 C147.080325,18.9744723 148.234782,21.8648523 148.532208,25.0196566 C145.748207,26.4442888 143.830049,29.4436151 143.830049,32.9131588 C143.830049,34.4756687 144.219081,35.9428113 144.901028,37.2137059 C143.483628,38.9584779 141.721781,40.3856078 139.72592,41.3791884 Z M133.078818,34.166955 L139.895504,28.9688439 L137.291761,20.5581234 L128.865874,20.5581234 L126.262132,28.9688439 L133.078818,34.166955 Z M198.780788,19.1214008 L195.197044,19.1214008 L195.197044,32.9131588 L195.646298,32.9131588 C197.377429,32.9131588 198.780788,34.316518 198.780788,36.0476492 C198.780788,37.7787805 197.377429,39.1821397 195.646298,39.1821397 L187.580303,39.1821397 C185.849172,39.1821397 184.445813,37.7787805 184.445813,36.0476492 C184.445813,34.316518 185.849172,32.9131588 187.580303,32.9131588 L188.029557,32.9131588 L188.029557,19.1214008 L184.445813,19.1214008 L184.445813,21.1501323 C184.445813,22.7995049 183.108732,24.1365855 181.45936,24.1365855 C179.809987,24.1365855 178.472906,22.7995049 178.472906,21.1501323 L178.472906,17.2156001 C178.472906,15.0719274 180.018836,13.2893258 182.05665,12.921839 L182.05665,12.8524199 L201.169951,12.8524199 L201.169951,12.921839 C203.207765,13.2893258 204.753695,15.0719274 204.753695,17.2156001 L204.753695,21.1501323 C204.753695,22.7995049 203.416614,24.1365855 201.767241,24.1365855 C200.117869,24.1365855 198.780788,22.7995049 198.780788,21.1501323 L198.780788,19.1214008 Z" id="形状结合"></path>
                </g>
            </g>
        </g>
    </g>
</svg>