<?xml version="1.0" encoding="UTF-8"?>
<svg width="271px" height="86px" viewBox="0 0 271 86" version="1.1" xmlns="http://www.w3.org/2000/svg" xmlns:xlink="http://www.w3.org/1999/xlink">
    <!-- Generator: Sketch 54 (76480) - https://sketchapp.com -->
    <title>LOTTERY</title>
    <desc>Created with Sketch.</desc>
    <g id="页面1" stroke="none" stroke-width="1" fill="none" fill-rule="evenodd">
        <g id="画板复制-2" transform="translate(-3505.000000, -1364.000000)" fill="#FFFFFF" fill-rule="nonzero">
            <g id="矩形-4复制-8" transform="translate(3423.000000, 1154.000000)">
                <path d="M82.686,295 L82.686,211.677 L99.37,211.677 L99.37,280.838 L116.539,280.838 L116.539,295 L82.686,295 Z M138.17,295.776 C131.444633,295.776 126.336017,293.722854 122.844,289.6165 C119.351983,285.510146 117.606,279.738704 117.606,272.302 L117.606,232.629 C117.606,225.450964 119.351983,220.035185 122.844,216.3815 C126.336017,212.727815 131.444633,210.901 138.17,210.901 C144.895367,210.901 150.003983,212.727815 153.496,216.3815 C156.988017,220.035185 158.734,225.450964 158.734,232.629 L158.734,272.302 C158.734,279.803371 156.988017,285.59098 153.496,289.665 C150.003983,293.73902 144.895367,295.776 138.17,295.776 Z M138.17,280.45 C139.657341,280.45 140.659664,279.80334 141.177,278.51 C141.694336,277.21666 141.953,275.406012 141.953,273.078 L141.953,232.338 C141.953,230.527324 141.710502,229.056172 141.2255,227.9245 C140.740498,226.792828 139.754341,226.227 138.267,226.227 C135.486319,226.227 134.096,228.328646 134.096,232.532 L134.096,273.175 C134.096,275.567679 134.386997,277.378327 134.969,278.607 C135.551003,279.835673 136.617992,280.45 138.17,280.45 Z M169.695,295 L169.695,227.682 L159.801,227.682 L159.801,211.677 L196.273,211.677 L196.273,227.682 L186.379,227.682 L186.379,295 L169.695,295 Z M205.197,295 L205.197,227.682 L195.303,227.682 L195.303,211.677 L231.775,211.677 L231.775,227.682 L221.881,227.682 L221.881,295 L205.197,295 Z M233.521,295 L233.521,211.677 L266.889,211.677 L266.889,227.779 L250.496,227.779 L250.496,243.978 L266.21,243.978 L266.21,259.692 L250.496,259.692 L250.496,278.801 L267.956,278.801 L267.956,295 L233.521,295 Z M270.575,211.677 L296.183,211.677 C300.25702,211.677 303.409489,212.598491 305.6405,214.4415 C307.871511,216.284509 309.374996,218.87115 310.151,222.2015 C310.927004,225.53185 311.315,229.783641 311.315,234.957 C311.315,239.67769 310.700673,243.363653 309.472,246.015 C308.243327,248.666347 306.109349,250.509328 303.07,251.544 C305.592013,252.061336 307.418828,253.322323 308.5505,255.327 C309.682172,257.331677 310.248,260.04765 310.248,263.475 L310.054,295 L293.758,295 L293.758,262.408 C293.758,260.079988 293.305338,258.59267 292.4,257.946 C291.494662,257.29933 289.845679,256.976 287.453,256.976 L287.453,295 L270.575,295 L270.575,211.677 Z M291.527,242.523 C293.855012,242.523 295.019,240.001025 295.019,234.957 C295.019,232.758322 294.922001,231.109339 294.728,230.01 C294.533999,228.910661 294.178336,228.150835 293.661,227.7305 C293.143664,227.310165 292.400005,227.1 291.43,227.1 L287.55,227.1 L287.55,242.523 L291.527,242.523 Z M324.022,295 L324.022,267.549 L310.733,211.677 L327.223,211.677 L331.879,239.904 L336.535,211.677 L353.025,211.677 L339.736,267.549 L339.736,295 L324.022,295 Z" id="LOTTERY"></path>
            </g>
        </g>
    </g>
</svg>