<?xml version="1.0" encoding="UTF-8"?>
<svg width="206px" height="46px" viewBox="0 0 206 46" version="1.1" xmlns="http://www.w3.org/2000/svg" xmlns:xlink="http://www.w3.org/1999/xlink">
    <!-- Generator: Sketch 54 (76480) - https://sketchapp.com -->
    <title>pay_lkl</title>
    <desc>Created with Sketch.</desc>
    <g id="页面1" stroke="none" stroke-width="1" fill="none" fill-rule="evenodd">
        <g id="画板复制-2" transform="translate(-1115.000000, -1831.000000)" fill="#E0C9B2">
            <g id="创新支付和财务_第二屏" transform="translate(41.000000, 1140.000000)">
                <g id="支付云" transform="translate(365.000000, 199.000000)">
                    <g id="编组" transform="translate(709.000000, 492.000000)">
                        <polygon id="Fill-42" points="85.2364515 36.6146792 89.7467287 36.6146792 85.2341743 15.7001644 80.6983921 15.7001644"></polygon>
                        <polygon id="Fill-44" points="105.486244 8.80512871 92.8494515 8.80512871 95.6390554 6.94235644 91.1793327 0.619861386 87.500699 3.2509703 91.3095901 8.80512871 79.3295505 8.80512871 79.3295505 12.6313267 105.486244 12.6313267"></polygon>
                        <polygon id="Fill-46" points="96.3043703 39.8428317 103.203004 15.8627129 97.8961525 15.8627129 91.6178356 39.8428317 76.8805287 39.8428317 76.8805287 43.6799604 107.255103 43.6799604 107.255103 39.8428317"></polygon>
                        <path d="M77.8997248,12.6317366 L77.8997248,8.80553861 L72.6202,8.80553861 L72.6202,0.851637624 L67.5538238,0.851637624 L67.5538238,8.80553861 L62.6076851,8.80553861 L62.6076851,12.6317366 L67.5538238,12.6317366 L67.5538238,23.6334792 L62.6076851,24.6841921 L62.6076851,28.937598 L67.5538238,27.7283901 L67.5538238,40.2918554 L67.5538238,40.6753406 C67.5538238,40.6753406 67.8407545,41.8968455 66.3327743,41.8968455 L62.6227149,41.8968455 L62.6227149,42.115004 L62.6076851,42.115004 L62.6076851,45.928905 L68.3485762,45.928905 C68.3485762,45.928905 68.3604178,45.9316376 68.3781802,45.928905 L70.0378238,45.928905 C70.0378238,45.928905 72.6202,46.2431624 72.6202,41.1581129 L72.6202,26.5856772 L77.8997248,25.3509644 L77.8997248,21.5548257 L72.6202,22.6342317 L72.6202,12.6317366 L77.8997248,12.6317366 Z" id="Fill-48"></path>
                        <polygon id="Fill-50" points="182.444745 36.6146792 186.949101 36.6146792 182.439735 15.7001644 177.900764 15.7001644"></polygon>
                        <polygon id="Fill-52" points="202.692032 8.80512871 190.05524 8.80512871 192.847576 6.94235644 188.384665 0.619861386 184.706032 3.2509703 188.515378 8.80512871 176.538071 8.80512871 176.538071 12.6313267 202.692032 12.6313267"></polygon>
                        <polygon id="Fill-54" points="193.510204 39.8428317 200.408382 15.8627129 195.105174 15.8627129 188.822758 39.8428317 174.085907 39.8428317 174.085907 43.6799604 204.461392 43.6799604 204.461392 39.8428317"></polygon>
                        <path d="M175.105103,12.6317366 L175.105103,8.80553861 L169.827855,8.80553861 L169.827855,0.851637624 L164.758291,0.851637624 L164.758291,8.80553861 L159.816707,8.80553861 L159.816707,12.6317366 L164.758291,12.6317366 L164.758291,23.6334792 L159.816707,24.6841921 L159.816707,28.937598 L164.758291,27.7283901 L164.758291,40.2918554 L164.758291,40.6753406 C164.758291,40.6753406 165.046588,41.8968455 163.538608,41.8968455 L159.83037,41.8968455 L159.83037,42.115004 L159.816707,42.115004 L159.816707,45.928905 L165.558053,45.928905 C165.558053,45.928905 165.566251,45.9316376 165.586747,45.928905 L167.245479,45.928905 C167.245479,45.928905 169.827855,46.2431624 169.827855,41.1581129 L169.827855,26.5856772 L175.105103,25.3509644 L175.105103,21.5548257 L169.827855,22.6342317 L169.827855,12.6317366 L175.105103,12.6317366 Z" id="Fill-56"></path>
                        <polygon id="Fill-58" points="154.127053 21.9301129 154.127053 17.897598 132.226954 17.897598 132.226954 12.2496178 151.265034 12.2496178 151.265034 8.23122178 132.226954 8.23122178 132.226954 0.850271287 126.871826 0.850271287 126.871826 17.897598 110.332321 17.897598 110.332321 21.9301129 126.871826 21.9301129 126.871826 45.9275386 132.226954 45.9275386 132.226954 29.6339743 149.227826 38.5224495 151.541489 34.5869446 133.708519 25.4352218 132.226954 28.1000337 132.226954 21.9301129"></polygon>
                        <path d="M19.3227327,35.0775505 C18.2100792,35.0775505 17.3060198,34.1757683 17.3060198,33.062204 L17.3060198,0.455491089 L2.01261386,0.455491089 C0.900871287,0.455491089 0,1.35909505 0,2.4685604 L0,43.7496891 C0,44.8637089 0.900871287,45.7650356 2.01261386,45.7650356 L43.2932871,45.7650356 C44.406396,45.7650356 45.3104554,44.8637089 45.3104554,43.7496891 L45.3104554,35.0775505 L19.3227327,35.0775505 Z" id="Fill-60"></path>
                        <path d="M45.3011188,26.442303 C45.3011188,27.5549564 44.3993366,28.4544614 43.2880495,28.4544614 L30.015,28.4544614 C28.9023465,28.4544614 28.0051188,27.5549564 28.0051188,26.442303 L28.0051188,2.4685604 C28.0051188,1.35909505 28.9023465,0.455491089 30.015,0.455491089 L43.2880495,0.455491089 C44.3993366,0.455491089 45.3011188,1.35909505 45.3011188,2.4685604 L45.3011188,26.442303 Z" id="Fill-62"></path>
                    </g>
                </g>
            </g>
        </g>
    </g>
</svg>