<?xml version="1.0" encoding="UTF-8"?>
<svg width="270px" height="64px" viewBox="0 0 270 64" version="1.1" xmlns="http://www.w3.org/2000/svg" xmlns:xlink="http://www.w3.org/1999/xlink">
    <!-- Generator: Sketch 54 (76480) - https://sketchapp.com -->
    <title>pay_hftx</title>
    <desc>Created with Sketch.</desc>
    <g id="页面1" stroke="none" stroke-width="1" fill="none" fill-rule="evenodd">
        <g id="画板复制-2" transform="translate(-529.000000, -1358.000000)" fill="#E0C9B2">
            <g id="创新支付和财务_第二屏" transform="translate(41.000000, 1140.000000)">
                <g id="支付云" transform="translate(365.000000, 199.000000)">
                    <g id="编组" transform="translate(123.000000, 19.000000)">
                        <path d="M37.1406211,52.6353414 L21.4242211,52.6353414 C21.4242211,52.6353414 18.654412,52.8016079 16.8077048,50.9761611 C15.6202121,49.8023396 15.4857505,46.9504213 15.4857505,46.9504213 L15.4857505,20.2780902 L37.1406211,20.2780902 L37.1406211,24.2605211 L22.0325719,24.2605211 L22.0325719,47.7503921 C22.0325719,47.7503921 21.959046,48.4348724 22.3367472,48.8186792 C22.7144485,49.202486 23.4910022,49.1507144 23.4910022,49.1507144 L37.1406211,49.1507144 L37.1406211,52.6353414 Z M1.95145636,23.2026879 L5.38199075,18.3799641 C5.38199075,18.3799641 7.96345277,19.2824825 10.0720328,21.3359234 C12.1806129,23.3893644 12.7577404,25.9819269 12.7577404,25.9819269 L11.0792361,28.8029814 C11.0792361,28.8029814 9.56843121,26.6559533 7.45985113,25.3183543 C5.35076745,23.9802575 1.95145636,23.2026879 1.95145636,23.2026879 Z M6.25277607e-13,32.7647534 L2.93750838,28.0565245 C2.93750838,28.0565245 5.43486892,28.4711951 8.01582734,30.410639 C10.5967858,32.3500828 11.3939872,35.1706395 11.3939872,35.1706395 L9.86203096,37.7427921 C9.86203096,37.7427921 8.41417624,35.7724844 6.10616991,34.4448415 C3.79816359,33.1171986 6.25277607e-13,32.7647534 6.25277607e-13,32.7647534 Z M0.524501111,49.4618418 C0.524501111,49.4618418 4.7215172,47.1390889 6.96657332,44.9193815 C9.21162944,42.6996741 11.0789843,39.0079606 11.0789843,39.0079606 L13.6392951,41.123627 C13.6392951,41.123627 12.5479903,45.935897 10.3865321,48.6115928 C8.22557743,51.2872885 5.5816688,53.1953708 5.5816688,53.1953708 L0.524501111,49.4618418 Z M39.8317676,38.8835096 L38.1794506,34.8697171 C38.1794506,34.8697171 41.0434331,32.1317958 43.4355409,28.7721175 C45.8276487,25.4119415 47.9679557,20.2780902 47.9679557,20.2780902 L53.4134003,20.2780902 C53.4134003,20.2780902 52.9566336,22.5336395 52.2173464,24.3227466 C51.4775556,26.1118537 50.2341631,27.9940501 50.2341631,27.9940501 L50.2341631,53.1331453 L44.1909434,53.1331453 L44.2070587,34.9946659 C44.2070587,34.9946659 43.5564053,35.7672575 42.2817896,36.9341097 C41.0066702,38.100962 39.8317676,38.8835096 39.8317676,38.8835096 Z M77.9323542,31.2297752 L71.8891345,31.2297752 L71.8891345,49.0262634 C71.8891345,49.0262634 72.0150349,51.0329108 70.7243039,52.0598801 C69.4340764,53.0863517 67.3567197,53.1331453 67.3567197,53.1331453 L60.5162986,53.1331453 L59.0472926,49.6485182 L63.6743845,49.6485182 C63.6743845,49.6485182 64.5778458,49.6798799 64.9490002,49.2443015 C65.3810904,48.7360437 65.3423131,47.9529983 65.3423131,47.9529983 L65.3423131,31.2297752 L53.2558737,31.2297752 L53.2558737,27.7451482 L65.3423131,27.7451482 L65.3423131,20.2780902 L71.8891345,20.2780902 L71.8891345,27.7451482 L77.9323542,27.7451482 L77.9323542,31.2297752 Z M54.2001268,36.4586572 L56.859647,34.4345867 C56.859647,34.4345867 58.638368,35.2743818 60.4009738,37.048057 C62.1635795,38.8212344 63.3279065,41.6213811 63.3279065,41.6213811 L58.9843424,44.6574869 C58.9843424,44.6574869 58.7325415,42.3372231 57.5364876,40.2215567 C56.3404337,38.1058902 54.2001268,36.4586572 54.2001268,36.4586572 Z M102.157859,36.6638022 C102.957075,38.8372139 104.780617,40.98922 107.792155,42.9296595 C113.173642,46.1653846 117.380226,47.2421343 117.380226,47.2421343 L113.4335,51.9717689 C113.4335,51.9717689 109.879583,51.3286063 104.953856,47.6986205 C100.028128,44.0686347 98.4382576,40.2211086 98.4382576,40.2211086 C98.4382576,40.2211086 97.3524925,43.0924413 93.2607292,46.9504213 C89.1689658,50.8084012 84.6682779,52.4173033 84.6682779,52.4173033 C84.6682779,52.4173033 83.8655369,50.877596 82.984234,49.9596456 C82.1029312,49.0416953 80.7442139,47.5328518 80.7442139,47.5328518 C80.7442139,47.5328518 86.3890847,45.4171854 90.2919975,42.0256476 C92.3275553,40.2564527 94.0423189,37.5991757 94.9291614,35.4611081 L80.1988134,35.4611081 L80.1988134,31.976481 L95.8104643,31.976481 L95.8104643,25.0072269 L83.7240249,25.0072269 L83.7240249,21.5225999 L113.436522,21.5225999 L113.436522,25.0072269 L101.350082,25.0072269 L101.350082,31.8206684 C101.350082,31.8206684 101.348572,31.8789115 101.348572,31.976481 L116.458132,31.976481 L116.458132,35.4611081 L101.790734,35.4611081 C101.889943,35.8558665 102.009297,36.2605811 102.157859,36.6638022 Z M146.149729,32.578077 C149.045438,33.9883553 151.731146,36.311606 151.731146,36.311606 L147.974781,41.5385466 C147.974781,41.5385466 145.666775,38.7383998 142.918117,36.9960863 C140.65191,35.5594243 137.976778,34.1536262 137.105547,33.7036115 L137.105547,52.8844922 L130.558726,52.8844922 L130.558726,25.0074758 L116.961481,25.0074758 L116.961481,21.5228488 L151.206393,21.5228488 L151.206393,25.0074758 L137.105547,25.0074758 L137.105547,33.2725134 L139.938306,30.5659538 C139.938306,30.5659538 143.25402,31.1677986 146.149729,32.578077 Z M171.271393,38.2592138 C173.091913,37.3591844 174.954736,36.9191258 176.567268,36.918628 C178.578653,36.918628 180.201761,37.6031083 180.875077,38.9317468 C182.087246,41.3281746 179.754059,44.9108691 175.663807,46.9344418 C171.573051,48.9580145 167.272796,48.6573409 166.059116,46.2619087 C164.847451,43.8664765 167.180134,40.2837821 171.271393,38.2592138 Z M177.022524,25.3685827 C179.058586,24.1136192 181.201411,23.4769281 182.969556,23.4769281 C184.541297,23.4769281 185.817423,23.97971 186.460523,24.9992123 C187.827297,27.1666503 185.81692,30.8444253 181.969403,33.2144695 C178.124405,35.5845137 173.89818,35.7502823 172.530901,33.5838399 C171.165637,31.4164019 173.176015,27.7391247 177.022524,25.3685827 Z M187.727081,12.6457116 C189.517384,11.543076 191.4351,10.9969852 193.120654,10.9969852 C194.969879,10.9969852 196.540109,11.6535885 197.358966,12.9518609 C198.925167,15.4354044 197.150978,19.3232526 193.396124,21.6360494 C189.643285,23.9493439 185.33044,23.8124479 183.763736,21.3299 C182.199045,18.8468543 183.973234,14.9600017 187.727081,12.6457116 Z M202.223758,-5.68434189e-14 L202.328003,-5.68434189e-14 C205.197525,0.0134407043 207.522654,1.16585665 208.104817,3.11675 C208.910077,5.81434914 206.078324,9.0162236 201.779581,10.2672047 C197.483859,11.5206748 193.346268,10.350338 192.540505,7.65273881 C191.738268,4.95563747 194.57002,1.75426082 198.867756,0.502284099 C200.018486,0.166764295 201.157633,0.00497803865 202.223758,-5.68434189e-14 Z M202.333543,18.9235161 C203.950608,17.6098117 205.861776,16.9551996 207.65359,16.9551996 C209.490226,16.9551996 211.201464,17.6431646 212.342122,19.015112 C214.599264,21.7271475 213.773358,26.0814379 210.497933,28.7417017 C207.225529,31.4019656 202.743978,31.3616435 200.486332,28.6501058 C198.234225,25.9385682 199.060132,21.5842778 202.333543,18.9235161 Z M222.995814,14.0146722 C223.465171,13.6457995 224.053882,13.4710704 224.714607,13.4710704 C226.623257,13.4705726 229.133208,14.9291379 231.105312,17.3753461 C233.759796,20.6688165 234.431601,24.5004128 232.608563,25.9380704 C230.78351,27.3757279 227.153046,25.8713646 224.498058,22.5783921 C221.845085,19.2884063 221.171266,15.4538232 222.995814,14.0146722 Z M213.850912,4.7276433 C214.338399,4.65894637 214.819338,4.62559351 215.290709,4.62559351 C218.907576,4.62609131 221.925157,6.57748246 222.33106,9.3771314 C222.457968,10.2572486 222.30588,11.1264142 221.940265,11.9378345 C220.660614,11.573442 219.257579,11.3275269 217.776487,11.2344376 C213.680695,10.9760774 210.014979,11.9408213 207.893305,13.6000016 C207.441071,12.9886984 207.135888,12.2957555 207.025096,11.5385958 C206.57135,8.37455441 209.625191,5.32451014 213.850912,4.7276433 Z M187.98291,30.5472363 C189.74048,29.3768995 191.65467,28.7929755 193.333174,28.7929755 C194.43304,28.7929755 195.431682,29.0433709 196.218812,29.5441616 C195.98363,30.3013212 195.822981,31.1172218 195.761541,31.9759334 C195.639166,33.6888765 195.918665,35.291805 196.482699,36.608994 C195.803844,37.5259487 194.905418,38.3896384 193.818143,39.1134452 C190.287391,41.4650707 186.117066,41.4551146 184.503023,39.0895507 C182.893512,36.7234889 184.449641,32.9003552 187.98291,30.5472363 Z M201.350512,38.3647482 C201.849078,37.9844261 202.464983,37.8047189 203.147867,37.8047189 C205.074143,37.8047189 207.536755,39.2364028 209.421736,41.6477647 C211.973485,44.9133581 212.497231,48.7404742 210.593617,50.1940615 C208.687988,51.6501378 205.07515,50.1806208 202.522897,46.9125384 C199.971651,43.6484385 199.445891,39.8218201 201.350512,38.3647482 Z M258.463975,17.1647751 C260.135932,16.4578936 261.816954,16.1173957 263.300565,16.1173957 C265.536052,16.1173957 267.323335,16.8904851 267.955355,18.3490504 C269.002343,20.7738531 266.454622,24.1773381 262.263145,25.9505155 C258.071165,27.7217016 253.822278,27.1910427 252.77378,24.7667379 C251.722259,22.3394462 254.270987,18.9374546 258.463975,17.1647751 Z M252.213271,30.9798279 C254.150626,29.8841616 256.15899,29.3345861 257.832458,29.3345861 C259.472689,29.3345861 260.791118,29.862756 261.405512,30.9215849 C262.64135,33.0606481 260.533274,36.5537378 256.694822,38.7251582 C252.85637,40.8960809 248.741441,40.9214689 247.503588,38.7843969 C246.264225,36.6443381 248.373812,33.1517462 252.213271,30.9798279 Z M240.846982,42.3138263 C242.492248,41.4899609 244.192911,41.0907222 245.710767,41.0907222 C247.830426,41.0902244 249.594542,41.8687896 250.35901,43.3562276 C251.664345,45.9064768 249.52706,49.5762869 245.582348,51.5535638 C241.638644,53.5298452 237.380692,53.0624073 236.073342,50.5126559 C234.762467,47.9599177 236.901263,44.2906054 240.846982,42.3138263 Z M224.0005,35.2743818 C225.512312,34.3031665 227.177219,33.8307506 228.731837,33.8307506 C230.793582,33.8307506 232.660434,34.6620831 233.714472,36.2625225 C235.55715,39.0681451 234.199944,43.1760226 230.679768,45.4380433 C227.161104,47.6990685 222.813007,47.2555253 220.968818,44.4508983 C219.121103,41.6427867 220.479821,37.5359048 224.0005,35.2743818 Z M240.173163,25.0325651 C241.817926,23.9752297 243.605712,23.4535313 245.204647,23.4535313 C246.99344,23.4535313 248.54554,24.1071478 249.394613,25.3964598 C250.99808,27.8376899 249.471664,31.6324488 245.983719,33.8740596 C243.149952,35.6955239 239.892657,35.9279983 237.910984,34.6416731 C238.026813,34.2981885 238.132065,33.9462411 238.214152,33.5803553 C238.727826,31.2839861 238.420629,29.0732391 237.528247,27.4802667 C238.198541,26.5727703 239.090923,25.7274993 240.173163,25.0325651 Z M215.962514,53.1335933 C220.363489,53.41087 224.266401,52.2773706 226.291887,50.3862138 C226.407212,50.652041 226.51045,50.9258332 226.58448,51.2145594 C227.468804,54.6737984 224.898421,58.3007974 220.843925,59.3168151 C216.788924,60.3308416 212.784788,58.347591 211.897945,54.8888497 C211.687943,54.0684689 211.677368,53.2396255 211.828448,52.4381613 C213.100042,52.7980735 214.493004,53.040504 215.962514,53.1335933 Z M232.301869,54.1934177 C233.39821,53.8912508 234.48045,53.7483811 235.493696,53.7483811 C238.345593,53.7483811 240.652592,54.8798892 241.192453,56.7884693 C241.919653,59.3730669 239.121643,62.4027012 234.939735,63.5551172 C230.758834,64.7070353 226.77887,63.5446633 226.051166,60.9610613 C225.319936,58.3744724 228.118954,55.3468293 232.301869,54.1934177 Z" id="形状结合"></path>
                    </g>
                </g>
            </g>
        </g>
    </g>
</svg>