<?xml version="1.0" encoding="UTF-8"?>
<svg width="156px" height="53px" viewBox="0 0 156 53" version="1.1" xmlns="http://www.w3.org/2000/svg" xmlns:xlink="http://www.w3.org/1999/xlink">
    <!-- Generator: Sketch 54 (76480) - https://sketchapp.com -->
    <title>pay_cft</title>
    <desc>Created with Sketch.</desc>
    <g id="页面1" stroke="none" stroke-width="1" fill="none" fill-rule="evenodd">
        <g id="画板复制-2" transform="translate(-1321.000000, -1692.000000)" fill="#E0C9B2">
            <g id="创新支付和财务_第二屏" transform="translate(41.000000, 1140.000000)">
                <g id="支付云" transform="translate(365.000000, 199.000000)">
                    <g id="编组" transform="translate(915.000000, 353.000000)">
                        <path d="M14.3458983,42.3996871 C14.8343645,43.6222171 17.0229115,45.8053063 21.154408,46.5393701 L20.6632129,50.4198113 C20.6632129,50.4198113 16.0487079,51.1566039 11.1804188,46.0536327 C11.1804188,46.0536327 5.10051521,51.1566039 0.24587043,50.6681377 L0.000272886158,46.7822388 C0.000272886158,46.7822388 7.29179107,46.5393701 9.48033807,40.9452038 C11.1804188,35.3510376 11.6743428,27.3227267 11.6743428,27.3227267 L16.5262587,27.3227267 C16.5262587,27.3227267 13.8601609,41.1798859 14.3458983,42.3996871 Z M9.31196731,20.073233 L26.5392706,20.073233 L22.8307477,42.3844054 L16.8954737,42.3844054 L20.2274137,24.5840412 L10.0187425,24.3493591 L6.92967114,42.3844054 L1.71754549,42.1469945 C1.71754549,42.1469945 3.61683316,25.5364139 4.32906604,24.1092193 C5.03584119,22.6847536 6.93785772,20.073233 9.31196731,20.073233 Z M32.5364897,29.3898394 L37.8004637,29.3898394 C37.8004637,29.3898394 31.2702979,48.7620279 26.6421487,49.8126396 C24.5709427,50.2792749 23.6485875,50.415718 23.2392582,50.4211757 L23.8668964,46.2651195 C23.8859984,46.2623906 23.8914562,46.2432886 23.9078293,46.2405598 C24.7455898,45.6020061 25.5942658,44.5432078 26.8468133,42.864958 C28.1184628,41.1785215 32.5364897,29.3898394 32.5364897,29.3898394 Z M46.5617468,20.5155815 L46.5617468,23.481854 L48.8485328,23.481854 L48.8485328,26.6746221 L45.7703769,26.6746221 C45.7703769,26.6746221 43.6063897,48.1398474 40.8638838,49.6107038 L32.4453457,49.6107038 C32.4453457,49.6107038 40.2335167,40.1306386 41.0794638,34.0261752 C41.9226821,27.9244407 40.4490968,27.2913448 39.1883627,27.0839513 C37.9139844,26.8765579 27.391494,26.8765579 27.391494,26.8765579 L29.107948,23.3590553 L40.7465427,23.3590553 L40.7465427,20.5155815 L46.5617468,20.5155815 Z M104.246333,11.9264896 L103.618695,15.9242718 L105.089552,15.9242718 L104.246333,20.3422988 L101.92953,20.5524211 C101.92953,20.5524211 100.038429,38.0362374 97.9317477,42.8826956 C95.8250665,47.7155094 89.9307255,52.77209 79.8230221,52.77209 C79.8230221,52.77209 100.245822,45.1885836 93.2981407,29.1892681 L95.1946995,20.9726658 L70.1328346,20.9726658 C70.1328346,20.9726658 72.4496381,17.8208307 72.8698828,16.1316653 L96.2398535,16.1316653 L96.8838648,11.9264896 L104.246333,11.9264896 Z M64.6565551,11.7106367 L72.2427904,11.7106367 L66.5558428,19.9217812 L61.9222358,50.0374978 L54.3441872,50.0374978 C54.3441872,50.0374978 58.9777941,25.8188511 59.1879165,25.1857552 L55.39207,25.1857552 L56.022437,20.7677283 C56.022437,20.7677283 58.1345759,20.1319035 58.9832519,19.2914142 C59.8155547,18.4481959 64.6565551,11.7106367 64.6565551,11.7106367 Z M134.532877,32.0147314 C135.861832,32.0147314 135.204177,30.6721315 135.204177,30.6721315 L128.720402,30.6721315 C127.825335,30.8958981 128.720402,32.0147314 128.720402,32.0147314 L134.532877,32.0147314 Z M133.414043,37.81902 C134.303652,37.81902 134.085343,35.807849 134.085343,35.807849 C134.085343,35.807849 128.720402,35.3657734 127.825335,35.5868112 C126.930268,35.807849 127.38053,37.5952533 127.38053,37.5952533 C127.38053,37.5952533 132.521706,37.81902 133.414043,37.81902 Z M153.523025,25.3126473 C153.523025,25.3126473 152.401462,26.1967984 153.296529,27.7686227 L155.3077,27.7686227 C155.3077,27.7686227 151.730162,45.2005906 151.282629,45.8609751 L143.914703,45.8609751 C143.914703,45.8609751 152.183154,36.2581111 148.608345,30.6721315 L141.898074,30.6721315 L141.679765,32.2357692 L147.260287,32.2357692 C147.260287,32.2357692 147.49224,35.3657734 145.923145,35.5868112 C144.356778,35.807849 140.787427,35.807849 140.787427,35.807849 L140.560932,37.81902 L146.367949,38.0400578 C146.367949,38.0400578 146.146912,40.7307153 145.033536,40.7307153 L139.671323,40.7307153 L139.221061,45.8609751 L132.737286,45.8609751 L133.195735,41.1727909 L127.156764,41.1727909 L126.037931,45.6399373 L120.228184,45.8609751 C120.228184,45.8609751 122.015589,30.2245982 123.579226,28.4399227 C125.142864,26.6552472 129.170664,27.3156317 129.170664,27.3156317 L129.839235,25.9784895 L137.878461,25.9784895 L137.878461,26.8790138 L144.807041,26.8790138 C144.807041,26.8790138 146.146912,25.3126473 146.146912,24.1965429 L123.352731,24.1965429 L125.142864,20.842772 L155.976271,20.842772 C155.976271,20.842772 156.197309,25.0888806 153.523025,25.3126473 Z M120.90194,48.100006 C125.592853,48.3210438 152.854181,48.100006 152.854181,48.100006 L152.174694,51.2272814 L120.90194,51.2272814 C120.90194,51.2272814 116.208298,51.0035148 114.641932,49.2133816 C114.641932,49.2133816 113.081023,51.0035148 112.406994,51.0035148 L107.939848,51.0035148 L107.939848,47.6552016 C107.939848,47.6552016 110.390365,48.3210438 110.843356,45.8623395 C111.29089,43.4063641 113.525827,28.659596 113.525827,28.659596 L111.514656,28.659596 L111.956732,25.0902451 L120.227911,25.0902451 L116.20284,45.1964973 C116.20284,45.1964973 116.208298,47.8735105 120.90194,48.100006 Z M83.5694762,40.3317557 L84.3253709,32.3471067 L76.7200336,32.3471067 L75.5793694,40.3317557 L83.5694762,40.3317557 Z M88.7897884,43.7100864 C84.4972891,48.9112966 77.3749604,50.106538 72.8750676,46.3816419 C68.3806325,42.6622035 68.2196297,35.436178 72.5148579,30.2486121 C76.810086,25.0501308 83.9406014,23.8603471 88.4268498,27.5715989 C92.9267426,31.2937661 93.0904743,38.5225205 88.7897884,43.7100864 Z M112.406448,19.5001721 C104.41907,-7.8157325 29.1898138,8.16175215 29.1898138,8.16175215 C116.608895,-15.3828657 121.651831,19.5001721 121.651831,19.5001721 L112.406448,19.5001721 Z M2.76406391,17.1710887 L2.76406391,12.1336102 L0.875691686,12.1336102 L0.875691686,11.4650391 L5.4083308,11.4650391 L5.4083308,12.1336102 L3.50631427,12.1336102 L3.50631427,17.1710887 L2.76406391,17.1710887 Z M11.1026463,16.5049736 L11.1026463,17.1708158 L6.84016448,17.1708158 L6.84016448,11.4647662 L10.9689321,11.4647662 L10.9689321,12.1333373 L7.59333028,12.1333373 L7.59333028,13.8961819 L10.753352,13.8961819 L10.753352,14.5592953 L7.59333028,14.5592953 L7.59333028,16.5049736 L11.1026463,16.5049736 Z M13.5010427,12.6886607 L13.5010427,17.1721803 L12.7778944,17.1721803 L12.7778944,11.4661307 L13.5528911,11.4661307 L16.5491812,15.9414637 L16.5491812,11.4661307 L17.2723295,11.4661307 L17.2723295,17.1721803 L16.5000616,17.1721803 L13.5010427,12.6886607 Z M19.9395188,12.1344289 L19.9395188,14.1783462 L21.4185618,14.1783462 C21.9042991,14.1783462 22.2481357,14.0937515 22.4609869,13.9109178 C22.6629227,13.7253552 22.7638906,13.4688422 22.7638906,13.1359211 C22.7638906,12.9039678 22.7038556,12.6965744 22.5810568,12.5301138 C22.4609869,12.3554667 22.3054418,12.2463122 22.1007772,12.191735 C21.9834361,12.1562598 21.7432963,12.1344289 21.394002,12.1344289 L19.9395188,12.1344289 Z M19.9395188,14.8578327 L19.9395188,17.1719074 L19.1836241,17.1719074 L19.1836241,11.4658578 L21.3421537,11.4658578 C21.7132788,11.4658578 22.0025382,11.4822309 22.2072028,11.5177061 C22.4855467,11.5750122 22.7229576,11.6541492 22.9139779,11.7851346 C23.1022694,11.9161199 23.2550856,12.0989537 23.3696978,12.3336358 C23.4815812,12.5765044 23.5498027,12.8384752 23.5498027,13.1195479 C23.5498027,13.5943698 23.3942576,14.0173434 23.0804385,14.3502645 C22.7666194,14.6859145 22.2126605,14.8578327 21.3994598,14.8578327 L19.9395188,14.8578327 Z M26.1967984,13.1604808 L25.5718891,14.833273 L27.506652,14.833273 L26.9117602,13.2478044 C26.737113,12.7702536 26.60067,12.3718398 26.5078887,12.0689362 C26.4369383,12.4291459 26.3386992,12.8002711 26.1967984,13.1604808 Z M25.3590379,15.444538 L24.725942,17.1719074 L23.9291145,17.1719074 L26.1231192,11.4658578 L26.9363199,11.4658578 L29.2694966,17.1719074 L28.4126341,17.1719074 L27.7358764,15.444538 L25.3590379,15.444538 Z M32.2887091,17.1710887 L31.5328144,17.1710887 L31.5328144,14.7615039 L29.3278942,11.4650391 L30.2529783,11.4650391 L31.3718116,13.1924085 C31.5873916,13.5062276 31.7756831,13.8282333 31.9585168,14.1529678 C32.1249774,13.8555219 32.3460152,13.5198719 32.5834261,13.1405601 L33.6886151,11.4650391 L34.5645796,11.4650391 L32.2887091,14.7615039 L32.2887091,17.1710887 Z M34.9621748,17.1713616 L34.9621748,16.3799917 L35.7644601,16.3799917 L35.7644601,17.1713616 L34.9621748,17.1713616 Z M39.0734777,12.3289967 C38.770574,12.5336613 38.5686383,12.8229206 38.4512972,13.1776726 C38.3339562,13.5351535 38.2684635,13.8980921 38.2684635,14.274675 C38.2684635,14.7631412 38.3448716,15.1861148 38.4813147,15.5435957 C38.6232155,15.9065342 38.8442533,16.1794204 39.1389703,16.3622541 C39.4446028,16.5396301 39.7638796,16.6296826 40.1159028,16.6296826 C40.5306897,16.6296826 40.8908995,16.5041549 41.1910743,16.2640151 C41.4857913,16.0238753 41.6822693,15.6582078 41.7832372,15.1724705 L42.5418607,15.3662197 C42.3781291,15.991129 42.0943274,16.4659509 41.6849982,16.7824988 C41.275669,17.1072333 40.7735584,17.2736939 40.1786666,17.2736939 C39.559215,17.2736939 39.0571045,17.1481663 38.6805216,16.9025687 C38.2821078,16.6487846 37.9955773,16.2803883 37.7963704,15.8110241 C37.5944347,15.3362022 37.4934668,14.8177185 37.4934668,14.2801327 C37.4934668,13.6852409 37.6026213,13.1694861 37.8345745,12.7219528 C38.0637989,12.2771483 38.3830757,11.9414983 38.8033204,11.7150028 C39.2262939,11.4803207 39.6902004,11.3711663 40.1895821,11.3711663 C40.7599141,11.3711663 41.2401938,11.5157959 41.6276921,11.8023264 C42.0179193,12.0970435 42.2935343,12.4981861 42.4463506,13.0275853 L41.7013714,13.2076901 C41.570386,12.795632 41.3766368,12.4927284 41.1255816,12.2989792 C40.8745263,12.10523 40.5525206,12.0151776 40.1786666,12.0151776 C39.7284044,12.0151776 39.3681947,12.1270609 39.0734777,12.3289967 Z M48.0143198,16.0279686 C48.385445,15.6295548 48.5655498,15.0592227 48.5655498,14.325159 C48.5655498,13.8585236 48.4918706,13.457381 48.3281389,13.1080867 C48.1780515,12.7587924 47.9460983,12.491364 47.6431946,12.3003436 C47.3348333,12.1147811 46.9991833,12.0138132 46.6253292,12.0138132 C46.0850146,12.0138132 45.6211082,12.1993758 45.230881,12.5677721 C44.8542981,12.9361684 44.65782,13.5528911 44.65782,14.4124825 C44.65782,15.0919691 44.8461115,15.6377414 45.2172367,16.038884 C45.585633,16.4263824 46.0495394,16.631047 46.6062272,16.631047 C47.1765593,16.631047 47.6459235,16.4263824 48.0143198,16.0279686 Z M48.0470661,11.7463847 C48.4727685,11.9919823 48.7920453,12.3440054 49.0130831,12.7997253 C49.2341209,13.2472586 49.3432754,13.7575557 49.3432754,14.3306167 C49.3432754,14.9064065 49.2286632,15.4221613 48.9912522,15.8778812 C48.7538413,16.3417877 48.4263779,16.6828954 48.0034043,16.9284929 C47.5695154,17.1549884 47.1165243,17.2750583 46.6089561,17.2750583 C46.0740992,17.2750583 45.5938196,17.144073 45.1735749,16.8848311 C44.7451436,16.6255893 44.4313245,16.2708373 44.2102867,15.8205751 C43.9892489,15.3703129 43.8828233,14.8982199 43.8828233,14.3961094 C43.8828233,13.4464655 44.1366075,12.7014863 44.6469046,12.1693583 C45.1572017,11.6317726 45.8121285,11.367073 46.6226004,11.367073 C47.1465418,11.367073 47.6240926,11.4926006 48.0470661,11.7463847 Z M55.6573154,17.1710887 L55.6573154,12.3901232 L54.0008964,17.1710887 L53.318681,17.1710887 L51.6595331,12.3137151 L51.6595331,17.1710887 L50.9363848,17.1710887 L50.9363848,11.4650391 L52.0770489,11.4650391 L53.4251066,15.509212 C53.5479053,15.8885238 53.6434155,16.1695965 53.6952639,16.3551591 C53.7634854,16.1477656 53.869911,15.8421331 54.0008964,15.4355327 L55.3707849,11.4650391 L56.3886503,11.4650391 L56.3886503,17.1710887 L55.6573154,17.1710887 Z" id="形状结合"></path>
                    </g>
                </g>
            </g>
        </g>
    </g>
</svg>