<?xml version="1.0" encoding="UTF-8"?>
<svg width="189px" height="50px" viewBox="0 0 189 50" version="1.1" xmlns="http://www.w3.org/2000/svg" xmlns:xlink="http://www.w3.org/1999/xlink">
    <!-- Generator: Sketch 54 (76480) - https://sketchapp.com -->
    <title>pay_tlzf</title>
    <desc>Created with Sketch.</desc>
    <g id="页面1" stroke="none" stroke-width="1" fill="none" fill-rule="evenodd">
        <g id="画板复制-2" transform="translate(-605.000000, -1824.000000)" fill="#E0C9B2">
            <g id="创新支付和财务_第二屏" transform="translate(41.000000, 1140.000000)">
                <g id="支付云" transform="translate(365.000000, 199.000000)">
                    <g id="编组" transform="translate(199.000000, 485.000000)">
                        <path d="M0.000473408732,13.8645842 C2.40302272,14.9157156 4.79847091,15.8419367 7.18445092,16.6243932 C8.99287228,17.2159492 11.1587172,18.0314008 13.2535509,18.3684228 C14.1695968,18.516901 15.0738074,18.5758209 15.9283102,18.481549 C16.4632621,18.4249859 16.8206857,18.2906485 17.0692252,18.0808936 C17.5118624,17.7061629 17.6018101,17.079255 17.7035929,16.174245 C18.0917881,12.7474626 16.7118017,8.92238151 15.6537331,5.72656516 C15.04777,3.89769091 14.347125,2.09709821 13.5139257,0.331857472 L11.5114067,0.331857472 C12.5268685,2.48832647 13.4097757,4.68014742 14.1388252,6.90732032 C14.6785111,8.55472122 16.5177041,14.9345699 15.7744524,16.5607597 C14.8607735,17.0486166 11.473534,16.2897281 10.7018778,16.0752596 C9.26981638,15.6793177 7.85905836,15.1490384 6.54298209,14.6588247 C4.33926444,13.8386595 2.16631836,12.8982976 0.000473408732,11.9202269 L0.000473408732,13.8645842 Z M19.3155497,0.331857472 C20.2718353,2.91019308 21.1074017,5.53330783 21.772541,8.22005609 C22.3216951,10.447229 22.7524971,12.7168242 23.0365423,15.0429826 C23.1904002,17.4751968 23.0128719,19.7895712 21.8222489,21.4299017 C21.0837313,22.4480379 19.9546515,23.2069264 18.2740505,23.5769435 C14.181432,24.4748831 9.36923222,22.8746181 5.51331809,21.6090182 C3.69779561,21.0127487 1.86333677,20.3269208 0.000473408732,19.5326803 L0.000473408732,15.5119851 C2.44799655,16.5466189 4.88368448,17.6213182 7.44009163,18.342498 C9.00234045,18.783219 12.4250856,20.0040397 15.211096,20.2279354 C16.5721461,20.3387048 17.7817054,20.209081 18.5486275,19.6363794 C21.0647949,17.7580124 18.1888369,9.02372377 17.4763568,6.69285181 C16.8017493,4.49631727 16.0182579,2.37520023 15.1187813,0.331857472 L19.3155497,0.331857472 Z" id="Fill-1"></path>
                        <path d="M36.890939,0.332564511 C35.6983999,3.13715261 34.7226861,5.93231351 34.0580694,8.71333364 C33.6644843,10.356021 33.1954818,12.349871 33.0752851,14.2376651 C33.0234356,15.0460464 32.8726006,16.6651658 33.4099503,17.3627776 C33.9072344,18.0085399 35.3896595,17.9684744 36.0919849,17.9354792 C38.1353277,17.8412073 40.47327,17.0893892 42.0923894,16.5897483 C44.670725,15.793151 47.6473593,14.6171094 51.0458601,13.045126 L51.0458601,10.9758585 C49.0307989,11.9892811 46.8248372,12.9555677 44.2818535,13.8605777 C42.9502634,14.3342938 41.5149742,14.8857842 40.0608306,15.3029373 C39.186459,15.5527577 36.1461913,16.2574399 35.1469095,15.7200903 C34.8499531,14.5511191 34.9395113,13.1771066 35.2081862,11.7724558 C35.6135552,9.65369553 36.4242933,7.46423138 36.9215774,5.81918727 C37.506063,3.88190037 38.3945753,2.08130768 39.3019421,0.332564511 L36.890939,0.332564511 Z M35.6064848,0.332564511 C34.6708365,2.47017913 33.9213752,4.60779376 33.3133216,6.74540838 C32.6769865,8.99143565 32.2009136,11.2374629 31.8379669,13.485847 C31.6376391,14.7113813 31.5527945,15.8779957 31.6989159,17.1247411 C31.9133844,18.9724698 32.4907996,19.2505718 34.3668097,19.4673971 C35.604128,19.6111617 36.7730992,19.4037636 37.9679951,19.1233047 C40.3625006,18.5576735 42.7593629,17.8954137 45.1562251,17.0540372 C47.1194368,16.3634958 49.0826485,15.5527577 51.0458601,14.5746871 L51.0458601,18.6920109 C48.8964615,19.677152 46.7635605,20.4949604 44.647157,21.1713611 C42.8960571,21.7322787 40.8715687,22.4039658 38.8305827,22.8164052 C36.9121502,23.2029199 34.9748633,23.3608252 33.2284769,22.9837378 C31.3642507,22.5807255 30.0750829,21.9137521 29.2148521,20.8084144 C28.5879442,20.0000331 28.1872888,18.958329 27.9586795,17.6149548 C27.291706,13.6743907 28.6798593,9.33317118 29.7427746,5.5835076 C30.2329883,3.85361881 30.8033331,2.10723244 31.4868042,0.332564511 L35.6064848,0.332564511 Z" id="Fill-3"></path>
                        <path d="M0,35.1537191 L0,37.1536319 C2.23621425,36.1349847 4.48433593,35.207455 6.749128,34.4621604 C7.98273715,34.0556361 14.4699018,32.2519764 15.7392332,33.0159618 C16.4298638,34.621032 13.8935825,41.8450161 13.3339336,43.2771967 C12.5694769,45.2303825 11.7049979,47.1461869 10.7500225,49.0316187 L12.8600181,49.0316187 C13.8792936,46.8891887 14.8580838,44.7093772 15.6963665,42.3917213 C16.6918272,39.6441775 17.7349175,36.4480552 17.6991952,33.4995856 C17.6896693,32.6958823 17.65871,32.1865587 17.3586429,31.8571338 C17.1276389,31.6001357 16.7323124,31.4506095 16.0607337,31.3571556 C13.1029295,30.9366132 9.56880604,31.770689 6.76103543,32.6141102 C4.56054345,33.2752963 2.29813286,34.1514263 0,35.1537191 L0,35.1537191 Z M0,29.3946244 C2.39339225,28.4857855 4.75106223,27.7498363 7.07539143,27.1797677 C9.35923538,26.6237171 11.7931129,26.0746756 14.2127015,25.9508493 C15.5701478,25.8807589 16.9228312,25.9461766 18.2421738,26.2171928 C19.3519457,26.4438184 20.2402396,26.7685706 20.9451591,27.289576 C21.7429565,27.883008 22.3073684,28.7287655 22.7003134,29.9810474 C23.4862034,32.4972928 22.9837101,34.9364388 22.443113,37.4293208 C22.1025607,38.9900004 21.7000898,40.55068 21.2237928,42.1090233 C20.5188733,44.4173339 19.6520128,46.7233081 18.5898706,49.0316187 L14.3698795,49.0316187 C15.7749555,45.5995253 17.2871984,42.1650956 18.2469368,38.7330023 C18.7899153,36.7961708 19.466257,34.277589 19.313842,32.242631 C19.2447789,31.3408012 19.0090119,30.6258791 18.5470038,30.2193548 C17.7087212,29.4810692 16.1012189,29.4483603 14.598502,29.5838684 C13.6959192,29.6633042 12.8314403,29.8058214 12.1884394,29.8969389 C10.3523146,30.1539371 8.7591012,30.5698068 7.36831406,30.9810038 C4.13902063,31.9342333 1.92900271,32.6421463 0,33.5322944 L0,29.3946244 Z" id="Fill-5"></path>
                        <path d="M29.4561022,30.0463736 C29.3668205,29.5290642 29.0872279,28.6786925 29.6417141,28.3456303 C30.1515594,28.0385516 30.8940071,28.2322474 31.4484932,28.3267331 C36.7842481,29.229072 42.120003,30.133773 47.4557579,31.0361118 C47.8857196,31.1093382 48.2428463,31.1896511 48.4190602,31.664442 C48.6187692,32.1959243 48.4566525,32.5738672 48.0854286,32.9234645 C46.9600096,33.9817048 45.8322411,35.0399451 44.7044726,36.1005476 C44.561152,36.2328276 44.4530742,36.3462105 44.4483751,36.5588034 C44.4436761,36.7950178 44.5635015,36.8965899 44.7138706,37.0501293 C46.2950961,38.6705597 47.873972,40.2909902 49.452848,41.9114207 C49.8170233,42.2822772 50.1811985,42.6342366 50.1577033,43.2058754 C50.1412567,43.6452341 49.8452175,43.9216049 49.5585763,44.2050621 C48.1582637,45.5798296 46.7603006,46.9545972 45.3623375,48.3293647 C45.0005118,48.6813241 44.629288,49.0498185 44.0795008,49.0309213 C43.5438108,49.0096621 43.1984317,48.5561305 42.8530526,48.2041711 C41.3376136,46.6451564 39.8245241,45.0885038 38.3090852,43.5318512 C38.1892598,43.4279169 38.0647353,43.364139 37.9237643,43.3688633 C37.8015893,43.3759497 37.6676668,43.4350033 37.5172977,43.5672833 C36.2955484,44.7648901 35.0714497,45.9601347 33.8497004,47.1577415 C33.4996223,47.5002523 33.1542432,47.6372567 32.7054853,47.2569515 C32.3976984,46.9947536 32.3295624,46.5979135 32.2637759,46.2223327 C31.3286678,40.8295589 30.3912102,35.4367852 29.4561022,30.0463736 M31.6857945,30.9865068 C32.3718537,35.2950566 33.0555634,39.6012443 33.7416226,43.9097941 C33.7745159,44.1223871 33.7792149,44.2310457 33.8144577,44.2475807 C33.8520499,44.2641157 33.9178364,44.1885271 34.0823027,44.039712 C34.9798185,43.2176861 35.8773343,42.3956601 36.7771996,41.571272 C37.0896854,41.2854527 37.5149482,41.0823083 37.9402109,41.0397897 C38.5228913,40.9830983 38.7672411,41.2712798 39.1290669,41.6515849 C40.7525837,43.3452418 42.3761004,45.0412609 43.9972677,46.73728 C45.2683568,45.4829817 46.5394459,44.2263214 47.8105351,42.9720231 C46.0554453,41.1838805 44.3003555,39.3981 42.5476152,37.6123194 C42.2868188,37.3477594 42.0730126,37.0831993 42.0377699,36.6910834 C42.0001776,36.2871569 42.1528963,36.0391318 42.4230908,35.7769339 C43.2900629,34.9454594 44.1546854,34.1092605 45.0216575,33.277786 C45.2754054,33.0321231 45.3999298,32.9329131 45.3740851,32.8762216 C45.35059,32.8195302 45.1767256,32.8100816 44.8383951,32.7486659 C40.6609525,31.9880556 36.4858594,31.2250833 32.3084168,30.4644731 C31.9160473,30.3936087 31.751581,30.3463659 31.6622994,30.4125059 C31.5941634,30.4644731 31.6317556,30.6416338 31.6857945,30.9865068" id="Fill-7"></path>
                        <path d="M154.660769,45.4465181 L150.495987,45.4465181 L153.773347,41.137123 L154.660769,45.4465181 Z M155.003531,47.1018584 L155.477762,49.5952005 L158.191679,49.5952005 L155.825218,38.8871459 L152.90001,38.8871459 L144.887381,49.5952005 L147.829023,49.5952005 L149.634388,47.1018584 L155.003531,47.1018584 Z M93.628156,49.5952005 L95.7246334,38.8871459 L97.97371,38.8871459 L96.2340798,47.8044023 L102.145536,47.8227695 L101.762864,49.5768333 L93.628156,49.5952005 Z M166.298215,49.5952005 L163.574907,49.5952005 L164.361379,45.0057062 L160.50649,38.8871459 L163.410569,38.8871459 L165.359143,41.9108397 L166.035275,43.0358283 L169.967637,38.8871459 L173.01962,38.8871459 L167.0213,45.0057062 L166.298215,49.5952005 Z M137.933556,43.7360763 L139.015836,43.7360763 C140.504264,43.7360763 141.49968,43.6626076 141.990345,43.5179662 C142.48101,43.3710289 142.868377,43.1391435 143.136013,42.8154223 C143.410691,42.493997 143.537466,42.1427251 143.518684,41.7570147 C143.506946,41.4998745 143.42243,41.2863562 143.267483,41.1233477 C143.112536,40.9557473 142.903593,40.8386567 142.633609,40.7605962 C142.363626,40.6848317 141.772011,40.6480974 140.854069,40.6480974 L138.741157,40.6480974 L137.933556,43.7360763 Z M136.548425,49.5952005 L133.757035,49.5952005 L136.400521,38.8871459 L141.980955,38.8871459 C143.852055,38.8871459 146.324161,38.9743899 146.432154,41.2519178 C146.544843,43.6603117 144.246465,45.1985614 142.051385,45.4396304 C141.614717,45.4878442 140.783638,45.5108032 139.565193,45.5108032 L137.452282,45.5108032 L136.548425,49.5952005 Z M125.880571,49.5952005 L122.720595,49.5952005 L118.119144,42.3998653 L116.433511,49.5952005 L113.564647,49.5952005 L116.151789,38.8871459 L119.154471,38.8871459 L123.875653,46.0526344 L125.483814,38.8871459 L128.359721,38.8871459 L125.880571,49.5952005 Z M108.458445,49.5952005 L110.554922,38.8871459 L112.803999,38.8871459 L110.714564,49.5952005 L108.458445,49.5952005 Z M83.1199444,49.5952005 L85.2140741,38.8871459 L87.4631507,38.8871459 L85.7235205,47.8044023 L91.6349765,47.8227695 L91.2523048,49.5768333 L83.1199444,49.5952005 Z M77.9667888,45.4465181 L77.0770184,41.137123 L73.7996584,45.4465181 L77.9667888,45.4465181 Z M78.3095499,47.1018584 L72.9380601,47.1018584 L71.1350426,49.5952005 L68.1934007,49.5952005 L76.2036818,38.8871459 L79.1288899,38.8871459 L81.4953504,49.5952005 L78.7814334,49.5952005 L78.3095499,47.1018584 Z" id="Fill-9"></path>
                        <g transform="translate(55.231019, 10.144473)" id="Fill-11">
                            <path d="M113.036986,10.5549483 L115.653745,10.5549483 C116.420889,12.7998825 117.190386,15.0424685 117.957529,17.2850545 C117.990474,17.3789848 118.037538,17.4635221 118.1199,17.5245768 C118.209322,17.590328 118.312863,17.6091141 118.42111,17.6091141 L120.002461,17.6091141 C120.044819,18.4145664 120.084823,19.2176705 120.124828,20.0231229 L117.225684,20.0231229 C116.889176,20.0231229 116.656209,19.9268443 116.477366,19.7530733 C116.319701,19.6004365 116.206748,19.3890933 116.10556,19.1284368 C115.081917,16.2729555 114.060628,13.4127778 113.036986,10.5549483 L113.036986,10.5549483 Z M20.2761435,19.1284368 L25.7214513,19.1284368 L24.7213407,24.7994789 L19.2736797,24.7994789 L20.2761435,19.1284368 Z M21.1727132,14.0562003 L26.6203742,14.0562003 L26.0391334,17.3390645 L20.5914724,17.3390645 L21.1727132,14.0562003 Z M21.5021613,12.1893355 L21.9916272,9.43013287 L27.436935,9.43013287 L26.9498223,12.1893355 L21.5021613,12.1893355 Z M11.7787336,12.1893355 L12.2658462,9.43013287 L18.3959356,9.43013287 L17.9088229,12.1893355 L11.7787336,12.1893355 Z M10.8680447,17.3390645 L11.4492854,14.0562003 L17.5793748,14.0562003 L16.998134,17.3390645 L10.8680447,17.3390645 Z M10.5527157,19.1284368 L16.6828051,19.1284368 L15.6779881,24.7994789 L9.55025193,24.7994789 L10.5527157,19.1284368 Z M43.0151276,6.26937814 L43.6693176,2.56382765 L47.742709,2.56382765 L47.0885191,6.26937814 L43.0151276,6.26937814 Z M42.6668538,8.23486975 L46.7402453,8.23486975 L46.1142937,11.7854352 L42.0409023,11.7854352 L42.6668538,8.23486975 Z M41.7302797,13.5325389 L45.8036712,13.5325389 L45.1330088,17.3390645 L41.0596173,17.3390645 L41.7114541,13.6382105 L41.7302797,13.5325389 Z M29.3383217,19.1284368 L44.8153266,19.1284368 L43.7846244,24.9638569 L28.3358579,24.7994789 L29.3383217,19.1284368 Z M47.3120732,24.7994789 L51.2419194,2.56382765 L55.1223483,2.56382765 L57.0331478,6.59343769 L51.997297,6.59343769 L51.7619768,8.61763574 L58.6639163,8.61763574 L56.8237128,11.7854352 L50.4888949,11.7854352 L50.1900384,13.5325389 L55.9224367,13.5325389 L49.3923031,24.7994789 L47.3120732,24.7994789 Z M20.8926822,7.56326808 L9.11020329,7.56326808 C8.09362033,13.3094544 7.07939057,19.0556408 6.0628076,24.7994789 L3.91668802,24.7994789 C4.98974781,18.7315812 6.0628076,12.6613353 7.1335142,6.59343769 L3.8837432,6.59343769 C2.81068341,12.6613353 1.73997682,18.7315812 0.666917023,24.7994789 C0.596320984,25.2010309 0.523371744,25.6049312 0.452775705,26.0064833 C0.412771283,26.2389608 0.539844153,26.3845527 0.721040653,26.4714383 C0.939888374,26.5794581 1.18462131,26.5911994 1.42229464,26.5911994 L51.7196192,26.5911994 C54.1128249,22.5568929 56.5083839,18.520238 58.9039428,14.4859315 C60.3464552,18.520238 61.7889676,22.5568929 63.2338332,26.5911994 L80.614578,26.5911994 C81.9864943,25.7012098 83.3607639,24.8112201 84.7350335,23.9212305 C85.676314,24.8112201 86.6175945,25.7012098 87.558875,26.5911994 L122.87572,26.5911994 C123.492259,26.5911994 123.972312,26.5090104 124.261756,26.2389608 C124.633562,25.8890704 124.734749,25.2714786 124.894767,24.5881357 C126.106666,19.3444765 127.318564,14.098469 128.532816,8.85480976 L131.796706,8.85480976 C131.862596,8.2653971 131.930839,7.6783327 131.999082,7.08892004 L128.942273,7.08892004 C129.455271,4.8651201 129.970622,2.64132015 130.485973,0.417520201 L125.965473,0.417520201 C125.450122,2.64132015 124.937124,4.8651201 124.421773,7.08892004 L112.309846,7.08892004 C112.182773,7.6783327 112.058054,8.2653971 111.930981,8.85480976 L124.012316,8.85480976 C122.840422,13.9223497 121.760303,18.9875413 120.586055,24.0550812 L106.864538,24.0550812 C107.892887,18.2337506 108.921236,12.4147683 109.949585,6.59343769 C112.443979,4.53401577 114.938372,2.47694212 117.430412,0.417520201 L111.041471,0.417520201 C108.337643,2.64132015 105.633814,4.8651201 102.927633,7.08892004 C102.755849,9.00274999 102.584065,10.9189282 102.412282,12.8327581 C103.200604,12.1822908 103.988927,11.5341717 104.777249,10.8837043 C104.003046,15.274946 103.226489,19.6638395 102.449933,24.0550812 L91.2086902,24.0550812 C90.3144737,23.2050119 89.4202573,22.357291 88.528394,21.50957 C92.4205889,18.9499692 96.3151371,16.3880201 100.209685,13.8284194 C100.289694,12.7364796 100.372056,11.646888 100.452065,10.5549483 L89.6602838,10.5549483 C89.8555995,9.39960552 90.0509152,8.24426278 90.2462309,7.08892004 L102.308741,7.08892004 C102.412282,6.05803496 102.513469,5.02714987 102.61701,3.99626478 L90.7945268,3.99626478 C90.9898425,3.00060356 91.1851582,2.0072906 91.3804739,1.01397763 L87.0152855,1.01397763 C86.8552678,2.0072906 86.6952501,3.00060356 86.5352325,3.99626478 L74.3009389,3.99626478 C74.1526872,5.02714987 74.0044355,6.05803496 73.8561839,7.08892004 L86.0198814,7.08892004 C85.8245657,8.24426278 85.62925,9.39960552 85.4339343,10.5549483 L72.9596142,10.5549483 C72.8678393,11.2007191 72.7760645,11.8488382 72.6866428,12.494609 L95.0914724,12.494609 C91.895825,14.5962996 88.7001777,16.6979901 85.5021771,18.8020289 C83.6125564,17.0455323 81.7229358,15.2890356 79.8333152,13.5325389 L73.3714244,13.5325389 C76.1670275,16.0874432 78.9626307,18.6446957 81.7582338,21.2019482 C79.9580348,22.4019079 78.160189,23.6018675 76.3623432,24.7994789 L66.4977234,24.7994789 C65.2034627,21.044615 63.909202,17.2874028 62.6149412,13.5325389 L70.8276138,13.5325389 C70.9076226,12.950171 70.9876315,12.3678031 71.0699935,11.7854352 L60.3464552,11.7854352 C60.9653471,10.7287193 61.5842391,9.67435166 62.2007778,8.61763574 L71.1382364,8.61763574 C71.2182452,7.94368581 71.298254,7.26738762 71.3782629,6.59343769 L66.9801297,6.59343769 C67.6202004,5.25023434 68.2626244,3.90703099 68.9050483,2.56382765 L72.6866428,2.56382765 L72.6866428,0.696962856 L66.3612377,0.696962856 C65.3752464,2.74229523 64.389255,4.78762759 63.4056169,6.83295996 L60.449996,6.83295996 C59.4875367,4.78762759 58.5250774,2.74229523 57.5626181,0.696962856 L39.1370519,0.696962856 L39.1370519,2.56382765 L40.0642132,2.56382765 L37.4545129,17.3390645 L29.6536506,17.3390645 C30.230185,14.0796829 30.8067193,10.8226496 31.3809004,7.56326808 L26.8368687,7.56326808 C28.8535622,5.89600518 30.8679025,4.23109054 32.8822428,2.56382765 L32.8822428,0.696962856 L5.91690912,0.696962856 C5.62511216,0.696962856 5.34978761,0.725141947 5.14035269,0.861340888 C4.89091336,1.01867415 4.82737692,1.25819642 4.7803129,1.52589779 C4.6132356,2.46989734 4.44615831,3.41154864 4.27908102,4.35319994 L7.53120522,4.35319994 C7.63474607,3.75674251 7.74064013,3.16028508 7.84653419,2.56382765 L26.735681,2.56382765 C24.7872303,4.23109054 22.8387797,5.89600518 20.8926822,7.56326808 L20.8926822,7.56326808 Z"></path>
                        </g>
                    </g>
                </g>
            </g>
        </g>
    </g>
</svg>