<?xml version="1.0" encoding="UTF-8"?>
<svg width="100px" height="100px" viewBox="0 0 100 100" version="1.1" xmlns="http://www.w3.org/2000/svg" xmlns:xlink="http://www.w3.org/1999/xlink">
    <!-- Generator: Sketch 54 (76480) - https://sketchapp.com -->
    <title>pay_jd</title>
    <desc>Created with Sketch.</desc>
    <g id="页面1" stroke="none" stroke-width="1" fill="none" fill-rule="evenodd">
        <g id="画板复制-2" transform="translate(-1171.000000, -1526.000000)" fill="#E0C9B2" fill-rule="nonzero">
            <g id="创新支付和财务_第二屏" transform="translate(41.000000, 1140.000000)">
                <g id="支付云" transform="translate(365.000000, 199.000000)">
                    <g id="京东_1" transform="translate(765.000000, 187.000000)">
                        <path d="M8,0 L92,0 C96.418278,2.705415e-16 100,3.581722 100,8 L100,92 C100,96.418278 96.418278,100 92,100 L8,100 C3.581722,100 5.41083001e-16,96.418278 0,92 L0,8 C-5.41083001e-16,3.581722 3.581722,8.11624501e-16 8,0 Z M37.5,23.34 L30.1,23.34 L30.1,55.52 C30.2346991,58.1048353 29.9716328,60.6950266 29.32,63.2 C28.9796911,64.6870217 28.0857577,65.9885888 26.82,66.84 C25.3625911,67.9776544 23.6779891,68.7892642 21.88,69.22 L15.1,70 L15.1,76.66 L15.72,76.66 L25.24,75.4 C27.7918059,74.6699665 30.1904497,73.4841963 32.32,71.9 C35.78,68.84 37.6,64.22 37.6,58.04 L37.5,23.34 Z M85,50 C85.0639928,46.0358216 84.3856534,42.0946696 83,38.38 C81.8109023,35.1889351 79.8933653,32.319478 77.4,30 C72.36,25.62 65.1,23.4 55.58,23.4 L44.72,23.4 L44.72,76.66 L55.58,76.66 C65.1,76.66 72.36,74.34 77.4,69.86 C79.9929278,67.6352088 81.9523241,64.7651073 83.08,61.54 C84.4456503,57.8497981 85.0972203,53.9335911 85,50 Z M72.6,34.82 C74.4236528,36.5040419 75.7516246,38.6550795 76.44,41.04 C77.4415482,43.9191558 77.9289713,46.9520107 77.88,50 C77.9318973,52.9764001 77.4440155,55.9375718 76.44,58.74 C75.7812585,61.1379351 74.4485661,63.296619 72.6,64.96 C69,68.4 63.56,70 56.44,70 L51.74,70 L51.74,29.8 L56.44,29.8 C63.56,29.8 69,31.5 72.6,34.9 L72.6,34.82 Z" id="形状结合"></path>
                    </g>
                </g>
            </g>
        </g>
    </g>
</svg>