<?xml version="1.0" encoding="UTF-8"?>
<svg width="120px" height="113px" viewBox="0 0 120 113" version="1.1" xmlns="http://www.w3.org/2000/svg" xmlns:xlink="http://www.w3.org/1999/xlink">
    <!-- Generator: Sketch 54 (76480) - https://sketchapp.com -->
    <title>pay_yb</title>
    <desc>Created with Sketch.</desc>
    <g id="页面1" stroke="none" stroke-width="1" fill="none" fill-rule="evenodd">
        <g id="画板复制-2" transform="translate(-648.000000, -1523.000000)" fill="#E0C9B2">
            <g id="创新支付和财务_第二屏" transform="translate(41.000000, 1140.000000)">
                <g id="支付云" transform="translate(365.000000, 199.000000)">
                    <g id="易宝" transform="translate(242.000000, 184.000000)">
                        <path d="M12.7409441,56.2793292 C12.7409441,26.3724969 37.2406957,1.95249689 68.0534907,0.446534161 C66.9440497,0.398459627 65.8271553,0.372372671 64.7042981,0.372372671 C28.9688944,0.372372671 7.45341615e-05,25.4020621 7.45341615e-05,56.2793292 C7.45341615e-05,87.1573416 28.9688944,112.187776 64.7042981,112.187776 C65.8271553,112.187776 66.9440497,112.162062 68.0534907,112.113988 C37.2406957,110.607652 12.7409441,86.1865342 12.7409441,56.2793292" id="Fill-1"></path>
                        <path d="M70.4528571,10.2550435 C69.3247826,10.2550435 68.2090062,10.303118 67.1003106,10.3724348 C89.5078882,11.9834907 107.22354,31.9232422 107.22354,56.2992671 C107.22354,80.6756646 89.5078882,100.61877 67.1003106,102.229081 C68.2090062,102.29877 69.3247826,102.346845 70.4528571,102.346845 C97.6939752,102.346845 119.776211,81.7284596 119.776211,56.2992671 C119.776211,30.8704472 97.6939752,10.2550435 70.4528571,10.2550435" id="Fill-3"></path>
                        <path d="M74.8128075,45.339205 L66.1910683,51.9522484 C66.1910683,51.9522484 63.6889565,54.3660373 66.0818758,57.5434286 C68.4785217,60.7234286 71.1516894,59.0795776 71.5068447,58.8496398 L88.4834907,45.703677 C88.4834907,45.703677 91.2729317,43.3990807 88.5665963,39.8057888 C88.5665963,39.8057888 75.8182733,18.0183354 54.6915652,30.5240497 L37.8971553,38.7224348 C37.8971553,38.7224348 16.150323,47.2666584 28.2885839,63.2736149 C28.2885839,63.2736149 30.6841118,66.7793292 34.1354161,68.981441 C34.1354161,68.981441 51.1482112,82.8082733 53.4919379,83.9728696 C53.4919379,83.9728696 67.4950435,91.6424348 78.0833665,80.3978385 C78.0833665,80.3978385 97.7342981,58.5813168 99.397528,54.5132422 C99.397528,54.5132422 100.17641,52.843677 100.12759,51.159205 C100.12759,51.159205 98.9283354,46.3226832 92.9585217,51.8061615 C92.9585217,51.8061615 84.1504472,61.5228075 79.7301988,65.8197019 C79.7301988,65.8197019 74.4550435,72.6604472 67.4603851,67.9156025 C67.4603851,67.9156025 63.9338012,66.2609441 51.0688323,53.9382112 C51.0688323,53.9382112 45.4198882,48.8162236 49.1790186,44.290882 C49.1790186,44.290882 62.2679627,32.6874037 69.704236,37.5846708 C69.704236,37.5846708 73.0385217,39.6324969 74.8638634,41.1891429 C74.8638634,41.1891429 77.5497019,43.242559 74.8128075,45.339205" id="Fill-5"></path>
                    </g>
                </g>
            </g>
        </g>
    </g>
</svg>