<?xml version="1.0" encoding="UTF-8"?>
<svg width="196px" height="38px" viewBox="0 0 196 38" version="1.1" xmlns="http://www.w3.org/2000/svg" xmlns:xlink="http://www.w3.org/1999/xlink">
    <!-- Generator: Sketch 54 (76480) - https://sketchapp.com -->
    <title>pay_lianlian</title>
    <desc>Created with Sketch.</desc>
    <g id="页面1" stroke="none" stroke-width="1" fill="none" fill-rule="evenodd">
        <g id="画板复制-2" transform="translate(-1400.000000, -1564.000000)" fill="#E0C9B2" fill-rule="nonzero">
            <g id="创新支付和财务_第二屏" transform="translate(41.000000, 1140.000000)">
                <g id="支付云" transform="translate(365.000000, 199.000000)">
                    <g id="logo-wf45cf3b" transform="translate(994.000000, 225.000000)">
                        <path d="M33.25,10.73 C31.2692179,10.6899247 29.3077064,11.1254351 27.53,12 L27.53,13.44 C29.2907883,12.5054798 31.2566466,12.0243257 33.25,12.04 C36.42,12.04 38.89,12.87 38.89,16.22 L38.89,17.54 C32.34,17.26 26.18,17.68 26.18,22.99 C26.18,26.15 28.8,28.24 33.84,28.24 C36.0400384,28.2520709 38.226691,27.8972046 40.31,27.19 L40.31,16.14 C40.31,12.15 37.64,10.73 33.25,10.73 Z M38.89,26.2 C37.2733858,26.7124237 35.5858117,26.9655598 33.89,26.95 C29.63,26.95 27.65,25.45 27.65,23.02 C27.65,18.87 33.43,18.57 38.94,18.88 L38.89,26.2 Z" id="形状"></path>
                        <path d="M53.11,10.73 C50.7479386,10.6529803 48.433659,11.4067136 46.57,12.86 L46.57,11.68 L45.18,11.68 L45.18,27.81 L46.64,27.81 L46.64,15.35 C46.64,13.95 49.33,12.11 53.04,12.11 C56.95,12.11 59.04,13.94 59.04,16.98 L59.04,27.81 L60.43,27.81 L60.43,16.81 C60.42,13 57.75,10.73 53.11,10.73 Z" id="路径"></path>
                        <rect id="矩形" x="20.52" y="11.68" width="1.38" height="16.08"></rect>
                        <path d="M1.38,25 L1.38,0 L0,0 L0,25 C-9.83740664e-06,26.5425005 1.24750938,27.7944911 2.79,27.8 L17,27.8 L17,26.38 L2.79,26.38 C2.02284536,26.3801737 1.39632242,25.766981 1.38,25 Z" id="路径"></path>
                        <rect id="矩形" x="20.52" y="6.78" width="1.38" height="2.56"></rect>
                        <path d="M66.67,25 L66.67,0 L65.29,0 L65.29,25 C65.2899902,26.5425005 66.5375094,27.7944911 68.08,27.8 L82.27,27.8 L82.27,26.38 L68.08,26.38 C67.3128454,26.3801737 66.6863224,25.766981 66.67,25 Z" id="路径"></path>
                        <rect id="矩形" x="85.81" y="11.68" width="1.38" height="16.08"></rect>
                        <path d="M118.4,10.73 C116.037939,10.6529803 113.723659,11.4067136 111.86,12.86 L111.86,11.68 L110.47,11.68 L110.47,27.81 L111.93,27.81 L111.93,15.35 C111.93,13.95 114.62,12.11 118.33,12.11 C122.24,12.11 124.33,13.94 124.33,16.98 L124.33,27.81 L125.72,27.81 L125.72,16.81 C125.71,13 123,10.73 118.4,10.73 Z" id="路径"></path>
                        <path d="M98.54,10.73 C96.5593728,10.6914793 94.5982239,11.1269092 92.82,12 L92.82,13.44 C94.5807883,12.5054798 96.5466466,12.0243257 98.54,12.04 C101.71,12.04 104.18,12.87 104.18,16.22 L104.18,17.54 C97.63,17.26 91.47,17.68 91.47,22.99 C91.47,26.15 94.09,28.24 99.13,28.24 C101.330038,28.2520709 103.516691,27.8972046 105.6,27.19 L105.6,16.14 C105.6,12.15 102.93,10.73 98.54,10.73 Z M104.18,26.2 C102.547426,26.7176737 100.842556,26.9708723 99.13,26.95 C94.87,26.95 92.89,25.45 92.89,23.02 C92.89,18.87 98.67,18.57 104.18,18.88 L104.18,26.2 Z" id="形状"></path>
                        <rect id="矩形" x="85.81" y="6.78" width="1.38" height="2.56"></rect>
                        <path d="M168.3,10.73 C166.320091,10.7004523 164.361979,11.1462571 162.59,12.03 L162.59,13.47 C164.346897,12.5347131 166.30973,12.0534581 168.3,12.07 C171.48,12.07 173.94,12.9 173.94,16.25 L173.94,17.57 C167.4,17.29 161.24,17.71 161.24,23.02 C161.24,26.18 163.86,28.27 168.9,28.27 C171.096772,28.28208 173.280138,27.9271985 175.36,27.22 L175.36,16.14 C175.36,12.15 172.69,10.73 168.3,10.73 Z M173.94,26.2 C172.323848,26.7144125 170.635954,26.9675966 168.94,26.95 C164.68,26.95 162.7,25.45 162.7,23.02 C162.7,18.87 168.47,18.57 173.98,18.88 L173.94,26.2 Z" id="形状"></path>
                        <path d="M148.79,0 L140.26,0 C139.492324,1.08623227e-14 138.87,0.622324198 138.87,1.39 L138.87,27.77 L140.22,27.77 L140.22,17.1 L148.47,17.1 C154.82,17.1 159.31,14.05 159.31,8.49 L159.31,8.41 C159.31,3.13 155.3,0 148.79,0 Z M158,8.53 C158,13.13 154.31,15.83 148.55,15.83 L140.26,15.83 L140.26,1.69 C140.265303,1.4381784 140.468178,1.23530326 140.72,1.23 L148.72,1.23 C154.44,1.23 158.01,3.89 158.01,8.45 L158,8.53 Z" id="形状"></path>
                        <polygon id="路径" points="193.7 11.68 187.02 26.2 180.43 11.68 178.85 11.68 186.29 27.77 181.88 37.36 183.3 37.36 195.2 11.68"></polygon>
                    </g>
                </g>
            </g>
        </g>
    </g>
</svg>