<?xml version="1.0" encoding="UTF-8"?>
<svg width="110px" height="110px" viewBox="0 0 110 110" version="1.1" xmlns="http://www.w3.org/2000/svg" xmlns:xlink="http://www.w3.org/1999/xlink">
    <!-- Generator: Sketch 54 (76480) - https://sketchapp.com -->
    <title>pay_alipay</title>
    <desc>Created with Sketch.</desc>
    <g id="页面1" stroke="none" stroke-width="1" fill="none" fill-rule="evenodd">
        <g id="画板复制-2" transform="translate(-916.000000, -1339.000000)" fill="#E0C9B2" fill-rule="nonzero">
            <g id="创新支付和财务_第二屏" transform="translate(41.000000, 1140.000000)">
                <g id="支付云" transform="translate(365.000000, 199.000000)">
                    <g id="支付宝" transform="translate(510.000000, 0.000000)">
                        <path d="M109.337617,75.1015313 L109.337617,21.59925 C109.337617,10.0660859 99.9779805,0.706449219 88.4380195,0.706449219 L21.5551836,0.706449219 C10.0220195,0.706449219 0.662382813,10.0660859 0.662382813,21.59925 L0.662382813,88.4820859 C0.662382813,100.01525 10.0152227,109.374887 21.5551836,109.374887 L88.4380195,109.374887 C98.7145547,109.374887 107.266043,101.944203 109.011594,92.1701836 C103.469195,89.7725859 79.4518711,79.4008945 66.9406367,73.4304063 C57.4179883,84.9635703 47.4469727,91.8848281 32.4157969,91.8848281 C17.3846211,91.8848281 7.35254688,82.6270313 8.5546875,71.2976602 C9.34935547,63.8601797 14.4502969,51.7021563 36.6064102,53.7873242 C48.2821953,54.8808281 53.6277109,57.0611523 63.1503594,60.2059531 C65.6159258,55.6890898 67.6604258,50.7171758 69.2157773,45.4261484 L26.9886055,45.4261484 L26.9886055,41.2421055 L47.8814063,41.2421055 L47.8814063,33.7299727 L22.3970898,33.7299727 L22.3970898,29.1248633 L47.8814063,29.1248633 L47.8814063,18.2845273 C47.8814063,18.2845273 48.1123867,16.5864414 49.9869648,16.5864414 L60.4333086,16.5864414 L60.4333086,29.1248633 L87.6021172,29.1248633 L87.6021172,33.7299727 L60.4333086,33.7299727 L60.4333086,41.2421055 L82.596332,41.2421055 C80.5586289,49.5353125 77.4682031,57.1561953 73.5965898,63.8126016 C80.0356094,66.1423438 109.337164,75.1013047 109.337164,75.1013047 L109.337164,75.1013047 L109.337164,75.1013047 L109.337617,75.1015313 Z M30.7518086,84.7125391 C14.8717031,84.7125391 12.3585586,74.6872617 13.2008047,70.4964219 C14.0362539,66.3259727 18.6345664,60.8854141 27.4645,60.8854141 C37.6120078,60.8854141 46.6999961,63.4800078 57.6083008,68.7915391 C49.94675,78.7692383 40.5327383,84.7124258 30.7519219,84.7124258 L30.7519219,84.7124258 L30.7518086,84.7125391 Z" id="形状"></path>
                    </g>
                </g>
            </g>
        </g>
    </g>
</svg>