<?xml version="1.0" encoding="UTF-8"?>
<svg width="150px" height="138px" viewBox="0 0 150 138" version="1.1" xmlns="http://www.w3.org/2000/svg" xmlns:xlink="http://www.w3.org/1999/xlink">
    <!-- Generator: Sketch 54 (76480) - https://sketchapp.com -->
    <title>pay_wechat</title>
    <desc>Created with Sketch.</desc>
    <g id="页面1" stroke="none" stroke-width="1" fill="none" fill-rule="evenodd">
        <g id="画板复制-2" transform="translate(-894.000000, -1516.000000)" fill="#E0C9B2" fill-rule="nonzero">
            <g id="创新支付和财务_第二屏" transform="translate(41.000000, 1140.000000)">
                <g id="支付云" transform="translate(365.000000, 199.000000)">
                    <g id="微信支付" transform="translate(488.000000, 177.000000)">
                        <path d="M57.1610625,86.8201875 C48.18675,91.8035625 46.8556875,84.0225 46.8556875,84.0225 L35.6083125,57.8799375 C31.280625,45.4573125 39.3538125,52.27875 39.3538125,52.27875 C39.3538125,52.27875 46.281,57.4985625 51.5383125,60.6793125 C56.7928125,63.8600625 62.782125,61.6130625 62.782125,61.6130625 L136.312125,27.80775 C122.746125,10.9940625 100.336312,-4.97379915e-14 74.9656875,-4.97379915e-14 C33.5611875,-4.97379915e-14 -7.03437308e-13,29.2576875 -7.03437308e-13,65.350875 C-7.03437308e-13,86.1114375 11.113125,104.589 28.423125,116.565 L25.3014375,134.438812 C25.3014375,134.438812 23.7796875,139.656937 29.0536875,137.236687 C32.6475,135.5865 41.8093125,129.673125 47.263125,126.07425 C55.8369375,129.05025 65.1778125,130.702687 74.9698125,130.702687 C116.370937,130.702687 149.939062,101.445 149.939062,65.3510625 C149.939062,54.896625 147.110437,45.023625 142.099875,36.2600625 C118.673062,50.2996875 64.1833125,82.9273125 57.1610625,86.8201875 L57.1610625,86.8201875 L57.1610625,86.8201875 Z" id="路径"></path>
                    </g>
                </g>
            </g>
        </g>
    </g>
</svg>