<?xml version="1.0" encoding="UTF-8"?>
<svg width="120px" height="65px" viewBox="0 0 120 65" version="1.1" xmlns="http://www.w3.org/2000/svg" xmlns:xlink="http://www.w3.org/1999/xlink">
    <!-- Generator: Sketch 54 (76480) - https://sketchapp.com -->
    <title>pay_quick</title>
    <desc>Created with Sketch.</desc>
    <g id="页面1" stroke="none" stroke-width="1" fill="none" fill-rule="evenodd">
        <g id="画板复制-2" transform="translate(-1209.000000, -1368.000000)" fill="#E0C9B2">
            <g id="创新支付和财务_第二屏" transform="translate(41.000000, 1140.000000)">
                <g id="支付云" transform="translate(365.000000, 199.000000)">
                    <g id="编组" transform="translate(803.000000, 29.000000)">
                        <path d="M21.6466845,21.3261497 C23.5281818,21.3261497 25.3535294,21.5667914 27.0941711,22.0179144 C29.0327807,9.72497326 39.6765241,0.320695187 52.5133155,0.320695187 C62.0494652,0.320695187 70.3753476,5.5102139 74.8217647,13.2184492 C75.4487166,13.1725668 76.0814439,13.1485027 76.7199465,13.1485027 C84.2215508,13.1485027 90.9739572,16.3609091 95.6783422,21.4836898 C96.5353476,21.3803743 97.4074332,21.3261497 98.2923529,21.3261497 C110.245508,21.3261497 119.939198,31.0198396 119.939198,42.9726738 C119.939198,54.9258289 110.245508,64.6198396 98.2923529,64.6198396 L76.7199465,64.6198396 L21.6466845,64.6198396 C9.69385027,64.6198396 0.000160427808,54.9258289 0.000160427808,42.9726738 C0.000160427808,31.0198396 9.69385027,21.3261497 21.6466845,21.3261497 Z M78.0204385,25.606139 C77.2256791,25.606139 76.528139,26.250738 76.4626845,27.0454973 C76.3969091,27.8402567 76.9885668,28.4848556 77.7833262,28.4848556 C78.5780856,28.4848556 79.2756257,27.8402567 79.3410802,27.0454973 C79.4068556,26.250738 78.8158396,25.606139 78.0204385,25.606139 Z M59.2600107,23.4143743 C58.7315615,28.5730909 54.3255722,34.3545882 48.6153048,34.0594011 C45.3368021,33.8890267 43.3568021,31.1691337 43.2137005,28.1803636 C42.9451444,22.5503102 47.1550909,16.7325561 52.2695294,15.9471016 C57.126,15.2023957 59.7698503,18.4382246 59.2600107,23.4143743 Z M70.8919893,29.6213262 L69.3544492,36.2033583 C68.7573369,36.5755508 67.9105989,36.9676364 67.2018289,36.7905241 C66.6945561,36.6275294 66.6005455,36.1645348 66.5870695,35.9309519 C66.5870695,35.8802567 66.5886738,35.8285989 66.5896364,35.777262 L67.6651444,30.630738 C67.7347701,30.3358717 67.797016,30.0426096 67.8493155,29.7519144 L67.8557326,29.715016 L67.8547701,29.715016 C67.8611872,29.683893 67.8669626,29.6521283 67.8724171,29.6216471 C66.9191551,29.6213262 65.9662139,29.6216471 65.0132727,29.6216471 C65.0123102,29.6229305 65.0123102,29.623893 65.0119893,29.6251765 L64.9051444,29.6213262 L63.7089947,35.5494545 C63.6319893,35.8574759 63.568139,36.1549091 63.5296364,36.4356578 L63.4888877,36.6390802 C63.4888877,36.6390802 63.4953048,36.6400428 63.505893,36.6403636 C63.4285668,37.4591872 63.6056791,38.126246 64.3773369,38.5186524 C65.5908128,39.1346952 67.8602246,38.7657112 68.9572299,37.9032513 L68.7287807,38.8825027 L71.6665348,38.8825027 L73.750492,29.6213262 C72.7978717,29.6213262 71.8446096,29.6216471 70.8919893,29.6213262 Z M99.6310267,29.3110588 L96.3913476,29.3110588 L92.2551979,32.699615 L94.2159465,24.2453904 L91.3561604,24.2453904 L89.639262,31.3632513 C89.2054652,33.1048556 88.7784064,34.855123 88.4036471,36.6567273 L87.883861,38.8825027 L90.8212941,38.8825027 L91.8547701,34.4235722 L94.2120963,38.6665668 L97.5489947,38.6665668 L94.5297433,33.4237861 L99.6310267,29.3110588 Z M78.7991551,29.6213262 C78.8001176,29.6181176 78.8007594,29.6139465 78.8017219,29.610738 C77.9007594,29.6100963 77.0014011,29.610738 76.1007594,29.610738 C76.1001176,29.6139465 76.0988342,29.6181176 76.0978717,29.6216471 L76.0702781,29.6213262 L75.6627914,31.3632513 C75.2289947,33.1048556 74.8019358,34.855123 74.4271765,36.6567273 L73.9070695,38.8825027 L76.8445027,38.8825027 L78.9291016,29.6213262 L78.7991551,29.6213262 Z M88.4931658,29.928385 C83.4088877,27.7786524 77.4496364,32.4843209 79.4366952,36.9188663 C80.3633262,38.9845348 84.5614011,39.475123 86.9042888,38.0312727 C86.6530588,37.7527701 86.6912406,37.1842139 86.586,36.7600428 C79.7065348,39.2482781 82.0779786,28.6748021 87.6984064,31.5169412 C87.9175508,30.9419679 88.3975508,30.6272086 88.4931658,29.928385 Z M46.4395829,47.8006845 L48.4590481,53.2853904 L50.8651444,52.7585455 L48.7173369,47.3248556 L46.4395829,47.8006845 Z M16.9330588,39.7167273 L19.4485668,43.4912727 L21.6236471,42.3371551 L18.9987273,38.6450695 L16.9330588,39.7167273 Z M45.1125241,39.0663529 C43.3186203,42.4337326 40.7594759,44.7653904 37.590385,47.030631 C37.621508,47.1246417 37.6612941,47.210631 37.7023636,47.2946952 L38.3164813,48.7488128 C39.7298503,48.1866738 40.1421497,47.8956578 41.1300642,47.252984 C40.2316684,50.5577968 39.5354118,54.064107 38.6963743,57.4305241 L41.3514545,57.4305241 C41.4958396,56.7791872 41.6350909,56.1156578 41.770492,55.4428235 L43.1854652,48.7420749 C44.0553048,45.237369 45.2344492,41.9800428 47.3248235,39.7308449 L45.1125241,39.0663529 Z M25.6426845,48.1382246 C26.4753048,47.1265668 27.1972299,46.0026096 27.6342353,44.5985455 L24.9791551,43.9340535 C24.5565882,45.8806845 22.7957326,48.2691337 21.2318824,49.7944813 C20.2600107,50.7426096 17.4987273,52.7001497 17.3110267,52.7518075 L18.1218289,54.5540535 C20.7120963,53.604 22.2047166,51.8489198 24.3156257,50.1291337 C25.6991551,51.3278503 26.3212941,52.6144813 28.0766952,54.1109519 L29.8330588,52.5865668 C29.8330588,52.5865668 26.4964813,49.6549091 25.6426845,48.1382246 Z M36.0419358,40.5698824 L33.6467487,40.5698824 L22.988246,40.5698824 L22.3612941,42.9214332 L31.9843957,42.9214332 C32.3033262,42.9544813 32.7066417,42.9028235 33.0143422,42.9477433 L32.8532727,43.5512727 C32.6296364,44.2879572 32.4307059,45.0541604 32.2455722,45.8383316 L29.9639679,54.4221818 C29.9228984,54.5665668 29.7047166,55.2538396 29.1473904,55.4004706 C28.4113476,55.550631 27.3374439,55.3619679 26.5288877,55.4386524 L26.9707059,57.6503102 C30.9380856,58.2166203 32.2786203,56.4920214 33.0034332,53.9749091 L33.003754,53.9742674 L33.0063209,53.9633583 C33.1625775,53.4211123 33.2893155,52.8422888 33.4080321,52.2426096 L35.5311337,43.1556578 C35.641508,42.7019679 35.7441818,42.2675294 35.834984,41.8510588 L36.1343422,40.5698824 L36.0419358,40.5698824 Z M59.6880321,38.5135187 C57.7109198,37.9998289 55.3134866,37.3176898 53.5404385,36.6008984 C59.7409733,34.3208984 66.0708128,28.4322353 64.9795829,19.6010053 C64.4360535,15.2023957 60.3589412,12.3140535 56.2410802,11.9758717 C46.5162674,11.1756578 36.3772299,19.483893 37.4941283,29.7695615 C38.3716684,37.852877 48.9361604,38.5789733 55.661615,41.7477433 L55.2814011,43.2702032 C54.8957326,43.2833583 46.3446096,43.2945882 46.3446096,43.2945882 L45.6233262,45.4738396 L54.7937005,45.4738396 L53.125893,52.8695615 C53.0479251,53.130738 52.6722032,54.3278503 52.4973369,54.8235722 C52.3125241,55.3520214 51.4048235,55.406246 51.4048235,55.406246 L50.1018289,55.4059251 L50.1018289,55.4049626 L50.0588342,55.4049626 C49.9802246,55.404 49.9051444,55.404 49.8319893,55.4049626 L48.6887807,55.4049626 L49.3154118,57.6410053 C49.3154118,57.643893 49.3163743,57.6474225 49.3163743,57.6509519 C49.3176578,57.6515936 49.3176578,57.6515936 49.3179786,57.6515936 L49.3404385,57.7292406 L50.6010802,57.7802567 L50.5988342,57.7696684 C54.4224706,57.8806845 54.9932727,57.0811123 55.8666417,53.0155508 L55.8666417,53.0222888 L55.8958396,52.8917005 C55.9182995,52.7944813 55.9404385,52.697262 55.961615,52.5981176 L57.4975508,45.7330909 C57.5354118,45.6458182 57.5732727,45.5569412 57.6143422,45.4741604 L60.3178717,45.4738396 L61.0381925,43.2945882 L58.8056791,43.2945882 L58.1408663,43.2830374 L59.5340214,39.0028235 L59.6880321,38.5135187 Z M16.1299572,43.712984 L13.6933797,54.5052834 C13.4655722,55.4723422 13.2422567,56.4448556 13.032738,57.4305241 L15.6874973,57.4305241 L18.7850374,43.712984 L16.1299572,43.712984 Z M97.2400107,47.6027166 C94.0122032,46.0513797 89.4002246,47.4445348 89.7647166,50.8298824 C89.9944492,52.9497754 92.4865348,52.5894545 93.3319893,54.3971551 C92.6322032,55.8727701 90.1401176,54.9843209 89.0848235,54.3971551 C88.8528449,55.1258182 88.2781925,55.5153369 88.066107,56.2658182 C91.3596898,57.9612193 96.8180856,56.4958717 96.2203316,52.8692406 C95.9068556,50.9742674 93.5928449,51.2210053 92.6530588,49.6414332 C92.8786203,48.1494545 95.3694225,48.9365134 96.2203316,49.3022888 C96.4847166,48.6589733 96.9743422,48.2447487 97.2400107,47.6027166 Z M88.9295294,47.6027166 C85.7010802,46.0680642 81.0820428,47.4310588 81.4558396,50.8298824 C81.6862139,52.9311658 84.1568021,52.6225027 85.0234332,54.3971551 C84.3355187,55.9401497 81.8363743,54.9377968 80.7762674,54.3971551 C80.5943422,55.1768342 79.8483529,55.3962995 79.7565882,56.2658182 C83.0707059,57.9400428 88.503754,56.5257112 87.9108128,52.8692406 C87.5877112,50.879615 85.1052513,51.3214332 84.3435401,49.4717005 C84.846,48.2887059 87.0268556,48.9025027 87.9108128,49.3022888 C88.1267487,48.6121283 88.6622567,48.2412193 88.9295294,47.6027166 Z M64.1578717,48.9612193 L65.1765882,44.5449626 C70.5672834,43.7412193 68.4310267,50.0909519 64.1578717,48.9612193 Z M71.2924171,43.8653904 C69.8674973,41.8979037 65.9716684,42.6843209 62.4595829,42.5059251 C61.4277112,47.3630374 60.5251444,51.952877 59.2311337,56.9463529 L61.3118824,56.9463529 L62.4162674,56.9463529 L62.4797968,56.9463529 L63.8790481,51.0095615 C68.5885668,51.8530909 73.9179786,47.4878503 71.2924171,43.8653904 Z M76.034984,54.2280642 C75.370492,54.7545882 73.9122032,55.404 72.8845027,54.8874225 C72.6759465,54.7581176 72.628139,54.5739465 72.6191551,54.4860321 C72.5408663,52.4482781 74.463754,52.4091337 76.3731658,52.3590802 C76.3734866,52.3600428 76.3731658,52.3606845 76.3731658,52.3622888 C76.3760535,52.3600428 76.3808663,52.3590802 76.3808663,52.3590802 L76.034984,54.2280642 Z M79.9410802,48.6214332 C79.2329519,45.964107 74.323861,47.0434652 72.1276043,47.9425027 C72.0900642,48.4882781 72.4276043,48.6608984 72.2963743,49.3022888 C73.9564813,48.948385 77.6873904,47.9691337 76.7142353,50.8298824 C72.8845027,50.1705241 68.1560535,53.1628235 70.0885668,56.0960856 C71.0139144,57.501754 74.1092086,56.9688128 75.5241818,56.0960856 C75.4089947,57.4574759 77.6305989,56.4820749 78.5822567,56.7759786 C78.0663209,53.5805775 80.6469626,51.2665668 79.9410802,48.6214332 Z" id="形状结合"></path>
                    </g>
                </g>
            </g>
        </g>
    </g>
</svg>