<?xml version="1.0" encoding="UTF-8"?>
<svg width="166px" height="50px" viewBox="0 0 166 50" version="1.1" xmlns="http://www.w3.org/2000/svg" xmlns:xlink="http://www.w3.org/1999/xlink">
    <!-- Generator: Sketch 54 (76480) - https://sketchapp.com -->
    <title>pay_yzf</title>
    <desc>Created with Sketch.</desc>
    <g id="页面1" stroke="none" stroke-width="1" fill="none" fill-rule="evenodd">
        <g id="画板复制-2" transform="translate(-1008.000000, -1714.000000)" fill="#E0C9B2">
            <g id="创新支付和财务_第二屏" transform="translate(41.000000, 1140.000000)">
                <g id="支付云" transform="translate(365.000000, 199.000000)">
                    <g id="编组" transform="translate(602.000000, 375.000000)">
                        <path d="M150.177644,14.5557197 C150.179924,14.5672582 150.182295,14.5786372 150.184759,14.589854 L157.03125,14.5962772 C156.76155,18.4727087 154.266008,32.7451705 153.4959,37.8773474 C152.319616,45.8389659 152.839521,49.949846 145.687585,49.949846 C143.646961,49.9402111 141.024693,50.0911575 139.065303,49.9113065 C139.175783,48.7872377 139.903649,47.3869692 140.49504,46.5423118 C143.058819,42.8585778 145.040954,45.7040776 145.76882,41.9143601 C146.555176,37.906252 146.63966,33.1466236 148.264362,29.6523756 C149.183943,27.6740145 150.103524,25.9429486 151.689232,24.5362568 L152.209136,23.9035667 C148.010908,24.526622 147.936172,36.4449626 138.743612,38.2017215 C130.831317,39.7111853 122.993757,32.2377337 126.750067,24.6454521 C130.584362,16.9054357 141.905281,18.3442437 143.240785,25.374491 C143.994647,29.3055201 140.49504,32.5621079 136.68999,32.4111615 C131.256988,32.1959826 130.278918,26.9224943 131.929615,25.0725982 C132.023847,26.7747595 132.319543,27.5969355 133.469832,28.2296257 C134.551883,28.8301995 136.017363,28.7049462 137.031177,28.0080235 C139.377245,26.3925761 138.8086,23.4057648 136.105097,22.6060702 C131.049027,21.1030296 126.486865,27.2789846 129.768762,32.0707292 C131.273235,34.2610575 133.440587,35.2984124 136.309809,34.8487849 C142.048254,33.9366834 143.127056,28.1589699 145.544612,25.6346326 C147.2408,23.8650272 148.807012,23.1745278 152.215635,23.0878139 C151.055599,22.6767259 149.967049,22.8662118 148.65429,23.0267931 L149.944303,14.6027005 L129.320344,14.5962772 L130.230177,8.59375 L150.290298,8.59375 L150.340169,8.4321875 L151.59668,0.66875 L158.640951,0.66875 L157.46582,8.4321875 L165.135091,8.43875 C164.500326,15.08 163.019206,14.6042188 156.577148,14.5648438 L157.46582,8.4321875 L156.577148,14.5648438 L150.177644,14.5557197 Z M138.596274,39.2134637 L141.40625,37.9598747 C140.873935,38.7275765 139.802854,39.4985176 138.960829,40.1560849 C129.07268,47.8331031 110.009361,51.2731846 97.4564123,48.6493936 C91.3428585,47.3731298 88.8167833,46.0806698 83.9872372,43.119997 C83.6904314,43.2398492 79.9513239,46.0871483 77.7123759,47.2694739 C72.8505683,49.8122837 66.272449,51.55176 61.4912951,47.9529552 C59.5297961,46.4790973 58.2974069,43.8131961 58.6555095,40.2953726 C58.9748983,37.2440008 60.3944042,34.714148 61.8655285,33.0653707 C65.582053,28.9094153 72.6989393,28.5433803 78.18662,30.431862 C81.9870243,31.7308005 82.6451589,32.7446851 85.1292942,34.0986909 L94.5690083,27.4096434 C95.2561782,26.90756 95.4723302,26.9561487 95.9820618,26.2694281 L61.1170618,26.2370356 L61.85585,20.8534052 C63.1108223,20.5424373 78.1414539,20.8048164 80.9352995,20.7432707 C83.7420498,9.76869797 78.1414539,13.0856881 62.5559245,12.5512121 L63.3431051,7.11251448 L83.0806891,7.0736435 L83.6452653,3.1314785 L90.5718088,3.125 L90.0620771,7.06392576 L111.261107,7.080122 L108.651152,12.5512121 L89.1813382,12.5738869 L87.9876628,20.7238352 C92.3268342,20.9019939 96.933776,20.7497492 101.263269,20.7497492 C103.908712,20.7497492 108.118837,19.9431764 106.783211,24.9996428 C106.338002,26.7067266 105.005603,27.3869687 103.576418,28.4462028 L89.9427096,38.5656141 C96.5627688,43.3208304 105.999257,44.2051451 115.790621,43.7743251 C123.020423,43.4633573 131.934274,42.0931553 138.596274,39.2134637 Z M78.6544117,38.8927782 C77.4252486,37.4253987 73.6764626,35.9256268 71.2762072,35.4656536 C68.2210435,34.8825889 65.2658903,37.0269712 65.1239397,39.8418779 C64.9239184,43.6382767 68.4565524,44.046422 71.7536774,42.8090292 C73.6183919,42.1093516 77.670436,39.9455338 78.6544117,38.8927782 Z M152.998741,23.5245949 C152.560072,23.6273669 152.982494,23.4539392 152.51458,23.6594832 C152.225384,23.7847366 152.280623,23.8329109 152.209136,23.9035667 C152.719293,23.7847366 152.618561,23.8168528 152.998741,23.5245949 Z M45.8937104,30.5135559 L45.7033068,32.3685904 L54.3715092,32.3685904 C54.3166472,33.3432144 54.2682395,34.863628 53.8487062,35.5848498 C53.8164344,35.607591 53.7454365,35.5848498 53.7293006,35.6400785 C53.6324852,35.8707395 45.3773617,35.7862721 45.1062787,35.7927696 L44.6706096,38.560702 L55.46875,38.573697 L55.0459896,41.9588913 L44.2155774,41.9653888 C44.3382102,45.711194 50.9248822,48.2322216 54.9201296,49.4927354 C51.6477702,50.4283745 45.3612259,49.9410625 42.2469983,49.0703983 C38.4260185,47.9983118 35.7958678,45.7989101 34.8664402,41.9588913 L21.9770879,41.9653888 C21.2800173,42.6086407 20.9992527,43.1901664 20.263456,43.8464132 C15.5485477,48.0243018 3.71771003,50.1489823 0,46.9099816 L0.316263527,45.6234778 C5.72824245,46.3739383 8.97155719,46.0068299 12.6182693,42.0206175 L1.5103197,41.9588913 C1.9072627,37.0142985 0.913291613,38.8238505 13.7219645,38.560702 L14.1673151,35.8155108 L4.02106484,35.7602822 L4.38573605,32.4563065 L14.7546617,32.3685904 C14.8998847,31.4589412 14.7707976,30.6565007 15.5259574,30.4973121 L24.0586183,30.5200534 L23.8520788,32.3750879 L36.215401,32.3685904 C36.5736179,30.08797 35.9539995,30.4973121 40.023472,30.4973121 C41.9791424,30.4973121 43.9315856,30.4908146 45.8937104,30.5135559 Z M23.2324605,35.7667796 L22.8290632,38.5671995 L35.0794341,38.573697 C35.4376509,37.8719676 35.5409206,36.6634338 35.5796468,35.7602822 L23.2324605,35.7667796 Z M6.25,29.6875 C6.29850412,28.4149861 8.31950923,17.0604988 8.66873891,16.40625 L55.46875,16.4618611 L53.0952816,29.6875 L6.25,29.6875 Z M17.1634276,19.0167026 L16.6460503,21.8495998 L26.964494,21.8594135 L27.459236,19.049415 L17.1634276,19.0167026 Z M35.7405065,21.8201586 L45.5642082,21.8594135 L46.0330814,19.0330588 L37.3864131,18.9905326 C36.2578838,18.9839901 36.1544084,18.5554572 35.7405065,21.8201586 Z M16.2968206,24.3782712 L15.8117794,27.2635083 L26.1690263,27.286407 L26.5667602,24.3782712 L16.2968206,24.3782712 Z M35.3492399,24.3782712 L34.9353381,27.0377925 L44.7913758,27.0705049 L45.1567735,24.4207974 L35.3492399,24.3782712 Z M117.433196,22.1314823 C119.94797,22.1250491 122.164054,21.6425597 122.408145,24.2061866 C122.526978,25.4413594 121.017472,34.4542611 120.709147,36.4099514 C120.477903,37.8895855 120.256295,41.4889563 119.646069,42.5793823 C117.661228,43.0554385 114.911999,42.9750236 112.74409,42.9428576 L115.599306,23.7622964 L112.5,24.8302062 C112.625257,22.6847368 113.100591,20.3880873 113.386434,18.265134 C113.829651,14.96169 113.726876,16.8980808 116.476105,13.8004989 C118.358171,11.6936286 120.802287,7.37052376 121.736896,3.90625 L128.125,3.90625 C126.576953,9.6092745 122.844938,17.0782101 118.351747,20.9831575 C118.200797,21.1182546 117.956706,21.3080337 117.853931,21.4270478 C117.410714,21.9417031 117.670863,21.5299788 117.433196,22.1314823 Z M8.60432454,6.04069542 C8.50737749,3.54306193 9.05674412,3.92755767 11.0958638,3.92755767 L23.6408125,3.92755767 C33.5714223,3.91166942 30.039318,9.12301665 29.6806139,13.5335959 C33.0058978,13.5335959 38.5124904,12.1513178 39.0133836,9.66321728 L33.6909903,9.63779607 L34.2952936,7.72167267 L46.09375,7.72167267 C45.974182,12.0178565 40.8198303,14.5440888 36.4669076,15.3257909 C32.1463006,16.1011377 25.4149436,15.3416792 21.7955869,13.3715357 C21.7374187,9.05946364 24.6587565,6.03116247 19.4559314,6.03116247 L8.60432454,6.04069542 Z M33.59375,5.24604072 L34.0705815,3.125 L51.3073951,3.20453903 C58.7627196,4.0628977 55.7986321,9.32572999 54.964177,14.84375 L46.4295379,14.8271794 C46.5938515,13.0640643 47.1351196,10.9761648 47.4766341,9.30915936 C48.7846988,3.02557622 43.3430206,5.81607042 33.59375,5.24604072 Z M8.77837314,9.71254975 L9.23140422,7.82172354 L21.09375,7.8125 C20.8270721,11.7724742 17.0196832,13.989199 12.9648944,14.6717411 C9.31494187,15.2835694 2.56124446,14.2013404 0.78125,12.4058242 C5.54289584,12.4611654 12.0234894,13.3742961 14.1022916,9.72792232 L8.77837314,9.71254975 Z" id="形状结合"></path>
                    </g>
                </g>
            </g>
        </g>
    </g>
</svg>