<?xml version="1.0" encoding="UTF-8"?>
<svg width="130px" height="81px" viewBox="0 0 130 81" version="1.1" xmlns="http://www.w3.org/2000/svg" xmlns:xlink="http://www.w3.org/1999/xlink">
    <!-- Generator: Sketch 54 (76480) - https://sketchapp.com -->
    <title>pay_unionpay</title>
    <desc>Created with Sketch.</desc>
    <g id="页面1" stroke="none" stroke-width="1" fill="none" fill-rule="evenodd">
        <g id="画板复制-2" transform="translate(-900.000000, -1835.000000)" fill="#E0C9B2">
            <g id="创新支付和财务_第二屏" transform="translate(41.000000, 1140.000000)">
                <g id="支付云" transform="translate(365.000000, 199.000000)">
                    <g id="编组" transform="translate(494.000000, 496.000000)">
                        <path d="M39.049666,27.650826 C38.9919926,27.6831327 38.9357569,27.7159274 38.8810853,27.7491425 C38.7842351,27.2600801 39.1120359,27.1810777 39.0151857,26.6920152 C37.3128562,26.7785416 35.9532276,27.1886017 34.3291233,27.3541305 C33.7927219,31.025861 32.6267938,34.795404 32.1276425,38.0608365 C33.4783068,37.9236868 34.948311,37.9034104 36.4663905,37.9280346 L27.7144045,72.746616 C26.6330154,77.0507034 29.4379837,80.5688593 33.9480775,80.5688593 L6.4667695,80.5688593 C1.95667571,80.5688593 -0.851983353,77.0507034 0.233096495,72.746616 L16.468696,8.14081749 C17.5500851,3.83673004 22.1266123,0.31486692 26.6403969,0.31486692 L54.1217049,0.31486692 C49.6116111,0.31486692 45.0350838,3.83673004 43.9536947,8.14081749 L39.049666,27.650826 Z M38.4033625,30.2220562 L36.9356542,36.0611334 C37.3334565,34.0634317 37.6841738,32.0228786 38.3297839,30.2584092 C38.3539683,30.245962 38.3784867,30.2338373 38.4033625,30.2220562 Z M65.5902052,60.6690166 C67.0907012,60.9729889 69.2827264,60.6278308 70.9641444,60.7631646 C71.1824159,59.8983285 71.2860024,58.9313178 71.6485551,58.2014984 C71.6115599,59.0042997 71.6855502,59.7049264 71.9223193,60.252291 C73.1246623,61.0477941 75.5737426,60.6792353 77.5344866,60.7631646 C77.7823542,59.9275213 77.9673301,59.0298434 78.2188973,58.2014984 C77.1534364,58.0993237 76.5134199,58.3949005 75.4812547,58.3292168 C74.9929184,58.0153944 74.9189281,56.6396848 75.2074904,56.0229874 C78.2447939,56.3441079 79.8799804,55.3552026 79.7246007,52.6877126 L76.850076,52.6877126 C76.7945832,53.2752172 76.6946962,53.8262309 76.306247,54.0962641 L75.0706083,54.0962641 L75.0706083,52.815431 L71.3747908,52.815431 C71.5671657,54.4721211 71.5449686,56.3258624 71.6485551,58.07378 C70.5276014,57.8621323 69.029297,58.6722319 68.5002661,57.8146941 C69.0107994,55.9828473 69.3067608,53.9575984 70.00227,52.3045574 C73.4687174,51.9031567 77.2681214,53.1256043 79.1770722,51.5345979 C81.3745853,49.7027511 80.7567659,44.9954158 82.0515969,42.5578189 C78.0228229,42.4191532 73.4835155,42.4811879 71.7854372,44.0977379 C71.8779251,43.5832152 72.0813985,43.1781655 72.0592014,42.5578189 L70.3784599,42.5578189 L71.5749641,38.0321358 C72.6884152,38.1355424 74.3944405,37.919147 75.8185296,38.0118752 C75.8260075,35.173636 80.2566716,27.3150122 75.1268225,27.1881432 C74.8829255,27.1813699 74.6529469,27.1936339 74.433276,27.2207952 L79.566468,7.80489913 C80.7044351,3.51405411 85.5075432,1.98951966e-13 90.2441466,1.98951966e-13 L123.211941,1.98951966e-13 C127.94485,1.98951966e-13 130.889525,3.51405411 129.755252,7.80489913 L112.711608,72.2711465 C111.577336,76.5619915 106.774228,80.0760456 102.037624,80.0760456 L69.0735242,80.0760456 C64.333226,80.0760456 61.3885513,76.5619915 62.5228238,72.2711465 L65.5902052,60.6690166 Z M40.3372142,37.932225 C41.2509148,37.9070306 42.2218921,37.9361604 43.1499466,37.9291658 C43.0195712,35.5177117 45.2806522,31.3418706 44.9454013,28.6745992 C44.8033812,27.5549109 44.079138,27.0029978 43.1425084,26.8213473 L47.8590018,8.14081749 C48.9452185,3.83673004 53.5384695,0.31486692 58.0724049,0.31486692 L86.6291539,0.31486692 C81.8764923,0.31486692 77.0571007,3.83673004 75.9152756,8.14081749 L70.8533277,27.2638536 C69.528854,27.4212711 68.3480192,27.7137489 66.9646792,27.8224879 C66.4935706,31.4654385 65.5177028,34.6407865 64.7512166,38.0118752 C65.5799038,38.123533 66.8138083,38.0121677 68.0137075,37.9913761 L66.4606882,43.8583754 L62.6191904,43.8583754 C62.6895283,43.2973071 63.1004496,43.070574 63.1670854,42.5095057 L58.9208992,42.5095057 C58.3248783,43.4510244 58.0805467,44.7422501 57.1402404,45.3455907 L55.9111787,45.3455907 C55.6557411,46.133392 55.4077076,46.9211934 55.3595817,47.9088273 C57.7029434,48.1048169 59.2651846,47.524534 60.4276104,46.5599576 L65.745568,46.5599576 L65.2476311,48.4410646 L55.9891834,48.4410646 C55.7923759,49.2026549 55.6028576,49.9642452 55.4497851,50.7663064 L57.7385833,50.7663064 C57.4761733,51.3733711 57.5563541,52.3152412 57.0643354,52.7089135 L54.9067422,52.7089135 C54.7718926,53.6103126 54.4037898,54.2946401 54.3709885,55.2916979 C55.0452364,55.376319 56.0730088,55.1224556 56.5249371,55.4204692 C56.5723167,57.1202503 55.1837305,58.544093 55.4497851,59.9458606 C55.8290904,61.9766295 59.2420837,61.0751634 61.8725977,61.1912722 L58.8138497,72.746616 C57.6720246,77.0507034 60.6303897,80.5688593 65.3830512,80.5688593 L37.8087166,80.5688593 C33.2747813,80.5688593 30.460998,77.0507034 31.5472147,72.746616 L40.3372142,37.932225 Z M64.6321299,50.7663064 L64.1219905,52.693512 C63.0551473,52.7147649 61.9201192,52.8023049 61.1098226,52.576463 C61.3649434,51.9951526 61.281118,51.1011118 61.787715,50.7663064 L64.6321299,50.7663064 Z M63.4683261,55.1629266 L62.5622388,58.5859446 C61.5289261,58.7366422 60.2202605,59.0596163 59.6301219,58.3932466 C60.031026,57.4035472 60.1075623,56.0937591 60.5740689,55.1629266 L63.4683261,55.1629266 Z M29.3700359,19.2775665 C28.9715089,21.6132971 28.3280158,24.3149094 27.7466783,26.9389105 C27.1434035,29.6626975 26.8070321,32.6488846 25.3116419,33.9497978 C24.2074663,34.9143954 21.6590874,35.2765814 20.7121288,33.9497978 C19.5421414,32.312569 21.0119381,28.2804772 21.5238076,26.417806 C22.2184876,23.8714163 23.1215717,21.4174209 23.4177248,19.2775665 L18.1418126,19.2775665 C17.9845956,19.2997412 17.9955642,19.4808342 18.0065328,19.665623 C17.366696,21.8313478 16.8694513,24.3592587 16.2442393,26.9389105 C15.6446207,29.4150805 14.5514137,32.2571323 14.8914413,34.6002544 C15.4837474,38.6693039 23.4945052,38.7949603 27.2055591,36.8066327 C30.5034612,35.0437475 31.0994236,30.6901232 32.0756318,26.9389105 C32.7593433,24.3075179 33.4467109,21.7315619 34.1048288,19.2775665 L29.3700359,19.2775665 Z M87.0973808,22.0649353 C89.3050364,22.346212 91.4433607,22.0501312 91.6914939,24.0153672 C92.0235545,26.691197 89.2977383,28.8377824 85.7472443,28.3085381 C86.0537617,26.0842314 86.7434261,24.2337268 87.0973808,22.0649353 Z M83.4520122,38.0606977 C83.9227355,35.6957527 84.1745177,33.1235512 85.2071897,31.2989536 C92.0089584,32.1908969 97.5116769,27.886623 96.8220125,22.4535413 C96.2381697,17.8420836 88.4438682,19.7370004 83.1819849,19.3335904 C81.5691192,25.4106477 79.8978691,32.1205777 78.5915208,38.0608365 C80.288314,38.0680997 81.8537425,37.77572 83.4520122,38.0606977 Z M49.6675111,25.9787304 C48.3836018,26.1378939 46.8267658,26.463141 46.9651512,27.8021905 C47.1842615,29.874776 52.8042474,28.8955745 52.3698709,26.8299091 C52.2084212,26.0686924 51.2973838,25.7745859 49.6675111,25.9787304 Z M115.76091,27.4726135 C114.853883,28.9966387 114.130466,30.6953692 113.179373,32.1747887 C112.992092,30.3496757 113.315243,28.0376179 112.632219,26.6920152 C111.343287,27.0562944 109.830352,27.2161312 108.423911,27.4726135 C108.897621,30.9332658 109.367659,34.4013524 109.778942,37.9214788 C108.354139,40.0365284 107.314915,42.5195744 105.570633,44.3223846 L104.48367,44.3223846 C104.156847,45.050943 104.112781,46.0582865 103.800646,46.8017134 C109.195067,47.7644513 110.054355,44.0807709 111.684799,41.3189399 C114.538077,36.4680792 117.828343,31.3235649 120.112433,26.6920152 C118.742713,27.0339916 117.167352,27.1715256 115.76091,27.4726135 Z M59.3081575,29.6741528 C61.3533082,29.8464364 59.5992556,37.0785988 57.2331505,35.857633 C56.4382287,34.2658831 57.3898956,29.5093599 59.3081575,29.6741528 Z M62.3422954,36.7789753 C63.5850604,35.6516418 65.6973876,31.8988574 64.2792174,29.0149811 C63.4693675,27.3707971 61.2898638,26.9475789 58.6140004,27.3033818 C56.8263595,27.5430806 55.6694312,28.0299688 54.7476205,28.8838958 C53.5272477,30.0224652 51.3664041,34.3819872 52.9562476,36.9100606 C54.7774767,39.8126633 60.6815434,38.292074 62.3422954,36.7789753 Z M100.911434,29.9689984 C101.768352,32.1253857 101.058544,36.5170525 98.1935702,35.9084554 C97.4874405,33.9136093 98.1862147,29.4881315 100.911434,29.9689984 Z M93.4271949,35.1195332 C93.5485609,38.0798698 97.4322741,39.5900922 99.8228173,37.7567873 C99.9074057,38.1813026 99.5690519,38.1662755 99.8228173,38.4179793 C101.411609,38.4179793 102.77238,38.1925729 104.453116,38.2864922 C104.942257,34.4019897 106.247862,30.6151632 106.766426,27.1965004 C105.192345,27.6059886 102.956268,27.3730687 101.867651,28.2521534 C101.595497,27.7712866 101.084289,27.515826 100.642957,27.1965004 C96.5459343,26.9635805 93.2506625,30.7579205 93.4271949,35.1195332 Z M44.9793535,38.0137573 C46.1816966,38.1566247 48.1588829,37.9197656 49.7810917,38.0137573 C50.4070735,34.9872243 51.1971846,32.1185974 51.8995056,29.1634981 C50.1666049,29.3026058 48.6818067,29.674813 46.9565398,29.8214401 C46.5481249,32.7878183 45.8534378,35.4835005 44.9793535,38.0137573 Z M70.6903801,48.9692826 L76.5763117,48.9692826 C76.4579272,49.283105 76.2581532,49.5239454 76.306247,49.9946789 L70.4166159,49.9946789 C70.4869067,49.6334183 70.6163898,49.3268941 70.6903801,48.9692826 Z M71.6485551,45.2508526 L77.5344866,45.2508526 C77.4715948,45.7033407 77.2311262,45.9916193 77.2607224,46.5353348 C75.0595097,46.3601782 72.2737734,46.6083168 70.9641444,47.6848004 C71.2453077,46.9257882 71.4080864,46.053654 71.6485551,45.2508526 Z M91.8702216,47.4947045 C90.4989912,47.3602722 89.8854487,47.954015 88.8616459,48.1519292 C89.0205756,47.0839391 89.3384349,46.1615839 89.5417171,45.1346703 L92.5539888,45.1346703 C92.2398255,45.8367058 92.2361295,46.841214 91.8702216,47.4947045 Z M90.7724981,52.2185071 C89.6415101,52.4014844 88.5585707,52.6292726 87.7676184,53.137128 C87.5643362,52.2409125 88.2739757,51.087035 88.3109361,49.9854368 L91.3232079,49.9854368 C91.1531901,50.7434857 90.9757802,51.490332 90.7724981,52.2185071 Z M89.4086597,57.7302325 L86.5368374,57.7302325 C86.6070621,56.7070531 87.0321066,56.0199546 87.0801551,54.9743698 L90.0924269,54.9743698 C89.8780566,55.9079276 89.6932547,56.8638909 89.4086597,57.7302325 Z M96.2463317,49.9854368 C97.6582186,50.0750583 99.4360134,49.8136621 100.622442,50.1198691 C100.41916,50.6688011 100.415464,51.4044447 100.075428,51.8264128 L95.699318,51.8264128 C95.5625645,52.6143356 95.4036349,53.379853 95.1523042,54.0557489 C96.3830852,54.1416362 97.976078,53.88024 98.9814006,54.186447 C97.3921038,55.7697611 97.41428,58.8953127 94.0582767,58.7758173 C94.1174133,58.3575834 94.3169994,58.0700476 94.3317836,57.5995344 C94.0028361,57.5173813 93.3375491,57.7638406 93.23406,57.4651021 C94.4352727,53.4993484 95.226225,49.1415005 96.3830852,45.1346703 L97.6138662,45.1346703 C97.887373,44.3019367 98.1128314,43.4281266 98.2976334,42.5095057 C95.0968636,42.6626092 91.6447632,42.4684292 89.9519774,43.5588247 C89.9261051,43.1368566 90.195916,43.0024242 90.0924269,42.5095057 L86.2596345,42.5095057 C85.0103733,47.6067314 83.6797993,52.6292726 82.5672916,57.8609306 C82.2050798,57.8609306 81.7837313,57.8123856 81.6137135,57.9916287 C81.4954403,58.8430334 81.3069423,59.627222 81.0630037,60.3516629 L88.7211964,60.3516629 C88.8209895,60.7549599 88.488346,60.7362887 88.584443,61.1395857 L92.2767859,61.1395857 C92.5835571,60.7773653 92.5318126,60.0678613 93.5075669,60.3516629 C93.7145451,60.7512256 93.0973066,61.2180046 93.6443203,61.1395857 C98.3124175,61.9461797 99.5025421,59.4106366 101.032702,57.2037059 C101.20272,59.884884 102.344796,61.6325042 105.959522,61.0088876 C106.003875,60.0081136 106.451095,59.3882312 106.50284,58.3874572 C105.889297,58.4023942 105.334892,58.3725203 104.998552,58.1223268 C104.743525,57.0991474 104.42197,56.1357157 104.314785,54.9743698 C104.107807,54.7652529 102.906594,55.2245633 102.53699,54.8399375 C102.780929,54.5972124 102.906594,54.234992 103.220757,54.0557489 L107.596867,54.0557489 C107.803846,53.3350423 107.99604,52.5993987 108.143881,51.8264128 C106.820699,51.7367913 105.139001,51.9981875 104.041278,51.6957147 C104.340657,51.2364043 104.211296,50.3700626 104.588292,49.9854368 L108.694591,49.9854368 C108.764816,49.051879 109.049411,48.3199696 109.237909,47.4947045 L96.7933455,47.4947045 C96.6935525,48.4058569 96.4311337,49.1601717 96.2463317,49.9854368 Z M102.342857,42.5095057 L98.3706507,42.5095057 C98.3885596,43.744048 98.2918513,45.0932537 98.4995951,46.1366905 C99.2016262,47.2603915 101.379355,46.8858245 103.141597,46.9393341 C103.417395,46.1481568 103.571412,45.2270277 103.800646,44.389985 C103.352922,44.3517639 102.726109,44.4931821 102.475384,44.2562111 C102.557765,43.5452982 102.378675,43.098111 102.342857,42.5095057 Z" id="形状结合"></path>
                    </g>
                </g>
            </g>
        </g>
    </g>
</svg>