<?xml version="1.0" encoding="UTF-8"?>
<svg width="127px" height="70px" viewBox="0 0 127 70" version="1.1" xmlns="http://www.w3.org/2000/svg" xmlns:xlink="http://www.w3.org/1999/xlink">
    <!-- Generator: Sketch 54 (76480) - https://sketchapp.com -->
    <title>pay_kq</title>
    <desc>Created with Sketch.</desc>
    <g id="页面1" stroke="none" stroke-width="1" fill="none" fill-rule="evenodd">
        <g id="画板复制-2" transform="translate(-744.000000, -1703.000000)" fill="#E0C9B2">
            <g id="创新支付和财务_第二屏" transform="translate(41.000000, 1140.000000)">
                <g id="支付云" transform="translate(365.000000, 199.000000)">
                    <g id="编组" transform="translate(338.000000, 364.000000)">
                        <path d="M54.7267006,34.5930233 L54.3022136,39.5167489 C53.8671584,44.6307546 57.6258942,46.6060439 58.8817417,46.937675 L58.6052087,49.3134587 C55.0402222,49.3134587 48.176214,47.8455832 46.6649698,40.9211976 C46.0608243,38.1594171 46.5698565,34.5930233 46.5698565,34.5930233 L54.7267006,34.5930233 Z" id="Fill-1"></path>
                        <path d="M85.0188533,18.4005443 L63.8840055,18.3969032 C61.5324433,18.3969032 61.4411559,16.3724532 62.3905444,14.6574965 L65.2916564,8.09623949 L74.0260303,8.09623949 C74.0260303,8.09623949 72.4723196,12.0413682 72.1509881,12.8387685 C71.913641,13.4122413 71.3805228,14.3115922 73.1204598,14.3115922 L85.3785255,14.3115922 L85.0188533,18.4005443 Z" id="Fill-3"></path>
                        <path d="M85.0247888,25.1697691 L85.3785255,21.0998951 L62.553483,21.0998951 L62.201551,25.1697691 L67.2350802,25.1697691 L66.9174391,28.8099951 L55.9209194,28.8099951 L56.8738428,17.8313058 C57.0489064,15.8353453 55.1286213,14.2853487 52.4774007,14.2853487 L42.7767125,14.2853487 L43.2333216,9.04255319 C43.2820507,8.51138477 42.9066566,8.09623949 42.3760515,8.09623949 L34.8158315,8.09623949 L34.2762025,14.2853487 L23.6641008,14.2853487 L23.3121688,18.3570356 L33.9224657,18.3570356 L33.0110523,28.8099951 L22.4025601,28.8099951 L22.0470186,32.8780563 L32.1447582,32.8780563 C29.9104416,39.295586 24.0178375,45.1547544 20.8233783,46.9150429 L20.6086096,49.3134587 C24.5917573,49.3134587 36.7613834,41.9768082 40.4774238,32.8780563 L66.5618976,32.8780563 L65.4501536,45.6532913 C65.2119227,48.3617064 66.9842159,49.3134587 69.787038,49.3134587 C75.1183557,49.3134587 81.3466488,46.5851021 83.248886,45.6224727 L83.445607,43.3183257 C81.5199076,43.7769796 78.5149502,44.4513641 76.3636534,44.6145217 C74.936073,44.7232934 74.2448426,44.1866863 74.3657628,42.7817187 L75.2284473,32.8780563 L84.3570205,32.8780563 L84.712562,28.8099951 L75.5839888,28.8099951 L75.9016299,25.1697691 L85.0247888,25.1697691 Z M48.3083607,20.1282013 L47.5611822,28.8099951 L41.5115623,28.8099951 L42.4247806,18.3570356 L46.1101397,18.3570356 C47.4348476,18.3570356 48.3967949,19.1311275 48.3083607,20.1282013 L48.3083607,20.1282013 Z" id="Fill-5"></path>
                        <path d="M112.611331,7.36113222 C112.611331,4.92124062 114.586656,2.94408709 117.026547,2.94408709 C119.46461,2.94408709 121.443592,4.92124062 121.443592,7.36113222 C121.443592,9.79919481 119.46461,11.7763483 117.026547,11.7763483 C114.586656,11.7763483 112.611331,9.79919481 112.611331,7.36113222" id="Fill-7"></path>
                        <path d="M0.585020771,22.9439607 L0.0229454787,28.4444967 C-0.190500835,30.9414506 1.09017705,32.5916114 3.5857202,32.5916114 L11.2448854,32.5861832 L9.83436103,48.9864657 L17.4081477,48.9864657 L20.8677567,8.7909367 C20.9122247,8.26078635 20.5422511,7.84643676 20.0228651,7.84643676 L13.3722337,7.84643676 L11.5935144,28.520491 L8.5394534,28.520491 C7.38150714,28.520491 7.26766911,27.4945686 7.26766911,27.4945686 L7.72479996,23.0995679 L0.585020771,22.9439607 Z" id="Fill-9"></path>
                        <path d="M126.416411,50.3816534 C126.416411,54.7220789 120.260709,65.0305896 108.158975,65.0305896 C96.2937924,65.0305896 90.87104,50.918781 103.307888,39.2303768 C110.782541,32.204313 119.124548,33.3436747 122.348451,37.7275045 C125.869835,42.5092066 120.214116,46.1316534 112.044146,45.1369725 C104.280973,44.1911215 100.030223,36.7708023 99.7112374,27.373781 C99.7004851,27.0012279 99.7184057,26.6359087 99.7219898,26.2778236 C99.7327421,25.8021853 99.7452864,25.333781 99.764999,24.8762279 L99.764999,24.8780364 L115.574491,24.8780364 L115.922149,20.81793 L100.026639,20.81793 C100.139538,19.8702704 100.275734,18.955164 100.42089,18.0834619 L116.160492,18.0834619 L116.509942,14.021547 L101.266739,14.021547 C102.030154,10.9326108 102.77744,8.98303637 102.77744,8.98303637 C102.822241,8.44771722 102.451286,8.05888743 101.922631,8.08420658 L94.6881129,8.08420658 C94.6881129,8.08420658 93.9712917,10.3773981 93.2903115,14.021547 L88.3281167,14.021547 L87.9768743,18.0834619 L92.6433804,18.0834619 C92.530481,18.9569725 92.428334,19.8702704 92.3405234,20.81793 L87.7385313,20.81793 L87.3854968,24.8780364 L92.1003883,24.8780364 C92.1003883,24.8780364 91.7831949,34.6078236 97.0392864,41.0370789 C101.091118,46.2473981 105.949374,48.8878236 112.723334,48.8878236 C118.710583,48.8878236 123.789262,46.3125045 125.16735,42.3482491 C126.348313,38.9446321 123.764173,34.8356959 120.792949,32.7866534 C110.583623,25.751547 91.6702956,34.4486747 89.0736108,50.4992066 C87.0378386,63.0647385 96.4425328,69.9226108 104.668056,69.9226108 C116.610297,69.9226108 126.416411,60.1060151 126.416411,50.3816534" id="Fill-11"></path>
                        <path d="M0.592564437,22.5587939 C0.592564437,22.5587939 0.863554271,18.3528501 1.60064662,14.0039077 C2.39735673,9.29746907 5.19035862,0.104452004 20.588001,0.104452004 L37.7416575,0.104452004 L36.9142352,0.104452004 L39.4398604,0.104452004 L39.3675965,0.724708065 C39.2826863,1.41646338 38.8256168,1.8007719 37.6115824,1.8007719 L36.7137027,1.8007719 L36.5944672,1.8007719 L21.9284974,1.8007719 C11.2063329,1.8007719 9.37444166,10.511169 8.78007062,14.9047984 C8.22905796,18.9641687 7.8297996,22.8287036 7.8297996,22.8287036 L0.592564437,22.5587939 Z" id="Fill-13"></path>
                        <path d="M15.1275145,61.9454712 C14.1600652,62.5550378 13.3553476,62.8383069 12.7115736,62.8024501 C10.551354,62.7271507 9.50343287,61.6604092 9.57138679,59.5986398 C9.91652122,57.348622 11.3560715,56.1312817 13.8828847,55.9376546 C16.5348762,56.0541894 17.7920238,57.5601774 17.6543277,60.4592044 C16.9533293,64.537922 14.6536253,66.7090548 10.7516392,66.9779812 C10.0273934,66.9779812 9.7144477,66.8829605 9.80743728,66.6911263 C9.75378944,66.4239927 10.0309699,66.2733939 10.6461318,66.2357442 C13.0298841,65.9309609 14.5230822,64.4966866 15.1275145,61.9454712 Z M13.2498402,61.8863074 C14.5034114,61.8863074 15.2187159,61.0866994 15.397542,59.4838979 C15.4744372,57.7304975 14.9629945,56.8340761 13.8650021,56.7946335 C12.7205149,56.8340761 12.0534934,57.7304975 11.8621495,59.4838979 C11.7620068,61.0490497 12.2233782,61.8486577 13.2498402,61.8863074 Z M23.9615063,61.9454712 C22.9940398,62.5550378 22.1893079,62.8383069 21.5455224,62.8024501 C19.3852645,62.7271507 18.3373247,61.6604092 18.4034916,59.5986398 C18.7522087,57.348622 20.1899963,56.1312817 22.7168544,55.9376546 C25.368893,56.0541894 26.6242747,57.5601774 26.4865761,60.4592044 C25.7873535,64.537922 23.4876087,66.7090548 19.583765,66.9779812 C18.8630829,66.9779812 18.546555,66.8829605 18.6413345,66.6911263 C18.5876858,66.4239927 18.8666595,66.2733939 19.4782557,66.2357442 C21.8638386,65.9309609 23.3570633,64.4966866 23.9615063,61.9454712 Z M22.0837987,61.8863074 C23.3373921,61.8863074 24.0544976,61.0866994 24.2315386,59.4838979 C24.3084352,57.7304975 23.7969834,56.8340761 22.6971832,56.7946335 C21.5544639,56.8340761 20.8856423,57.7304975 20.6960833,59.4838979 C20.5959388,61.0490497 21.0573184,61.8486577 22.0837987,61.8863074 Z M28.0845092,65.4420323 L28.7890394,57.4143862 C28.8113464,57.177517 28.8559605,56.5853439 28.8764086,56.3540263 C28.8596783,56.0782957 29.1106323,55.9376546 29.6255528,55.9376546 L34.1371482,55.9376546 C36.3492614,55.9783665 37.4255752,56.7648464 37.3698077,58.2989447 C37.2006461,59.7571709 36.2302906,60.6805908 34.4587411,61.0766065 L34.4513055,61.1321227 C36.4923981,61.2912692 37.5240979,62.1758278 37.5371103,63.7894994 C37.2787207,65.8361975 35.8231874,66.8984079 33.1667927,66.9779812 L28.6496205,66.9779812 C28.136559,66.9779812 27.9134887,66.8188347 27.9804098,66.5060933 C27.9971401,66.3080854 28.0566255,65.7566243 28.0845092,65.4420323 Z M30.6405223,62.0185318 L30.3951451,64.794343 C30.2018175,65.6585456 30.6405223,66.0527108 31.7131184,65.9731375 C33.8099785,65.9731375 34.9402011,65.2643804 35.101927,63.8487167 C35.1316697,62.6292103 34.484766,61.8630864 33.1705105,61.5484944 L30.6405223,62.0185318 Z M30.9862812,58.063926 L30.7204558,61.0766065 C33.4084521,60.6417294 34.8156535,59.7183095 34.9402011,58.2989447 C34.9736616,57.4347422 34.2449655,56.9832102 32.7448182,56.9424983 C31.4454341,56.8647756 30.8598747,57.2348837 30.9862812,58.063926 Z M39.8748379,66.9779812 L39.0276931,66.9779812 C38.6501997,66.9779812 38.4924677,66.8398438 38.5544971,66.5617022 C38.5633585,66.4403653 38.6519719,65.4883371 38.6519719,65.4883371 L38.9833863,61.4991525 C39.0028813,61.2602121 38.8504661,61.0623395 38.5243685,60.9018015 C38.3435971,60.784198 38.2620727,60.6441938 38.2762508,60.4855225 C38.2496668,60.3287178 38.3932206,60.2092476 38.6998232,60.1308453 L38.8788224,60.0711102 C39.7348286,59.7126996 40.277143,59.5334943 40.5039935,59.5334943 C40.8868037,59.4569587 41.0232685,59.8527038 40.9116155,60.7225962 L40.5199439,65.4883371 C40.5199439,65.4883371 40.4277859,66.4403653 40.4171523,66.5617022 C40.3923405,66.8398438 40.2133413,66.9779812 39.8748379,66.9779812 Z M40.1761237,56.6736764 C40.8868037,56.716611 41.2359408,57.0694214 41.2164458,57.7470415 C41.118971,58.461996 40.6953986,58.8185398 39.9404118,58.8185398 C39.1482074,58.8185398 38.7831199,58.461996 38.843377,57.7470415 C38.9355351,57.0694214 39.3803747,56.716611 40.1761237,56.6736764 Z M47.7603176,66.9779812 L46.9474602,66.9779812 C46.5051145,66.9779812 46.3160779,66.8466862 46.3822407,66.5823219 C46.3954733,66.4332843 46.5088952,65.5053478 46.5088952,65.5053478 L47.225344,57.8086207 C47.2480284,57.5478049 47.1043606,57.3561852 46.7943405,57.244407 C46.5656062,57.1290803 46.4616361,56.9605258 46.4805398,56.7351952 C46.7924502,56.3927636 47.5826232,56.1283993 48.8472782,55.940328 C49.2121188,55.9048429 49.3633481,56.2224349 49.2990757,56.9037496 L48.4956701,65.5053478 C48.4956701,65.5053478 48.4162747,66.4332843 48.4011518,66.5823219 C48.376577,66.8466862 48.1629656,66.9779812 47.7603176,66.9779812 Z M43.3454237,66.9779812 L42.5303325,66.9779812 C42.0878004,66.9779812 41.8986841,66.8466862 41.966766,66.5823219 C41.978113,66.4332843 42.0896916,65.5053478 42.0896916,65.5053478 L42.8064423,57.8086207 C42.8329185,57.5478049 42.6891902,57.3561852 42.3771483,57.244407 C42.1464265,57.1290803 42.0424125,56.9605258 42.0651065,56.7351952 C42.3771483,56.3927636 43.163872,56.1283993 44.4309511,55.940328 C44.7959455,55.9048429 44.9472385,56.2224349 44.882939,56.9037496 L44.0829771,65.5053478 C44.0829771,65.5053478 43.9978748,66.4332843 43.9846367,66.5823219 C43.9600516,66.8466862 43.7463502,66.9779812 43.3454237,66.9779812 Z M51.1055154,66.9779812 C50.3892972,66.9352838 50.0379448,66.587605 50.0497692,65.9349448 C50.1359181,65.2477201 50.5396354,64.8573439 51.2659889,64.7699159 C51.9061934,64.8573439 52.2355862,65.2477201 52.2575458,65.9349448 C52.1393022,66.587605 51.7558551,66.9352838 51.1055154,66.9779812 Z M54.4694458,63.4754696 C54.8192808,61.0971306 56.1885842,59.8136698 58.5702887,59.6177635 C60.1410123,59.736772 60.9802628,60.2604094 61.089807,61.1923374 C61.0120659,61.6610478 60.6905005,61.8972339 60.1268775,61.8972339 C59.8600842,61.9356828 59.614493,61.7196366 59.3918708,61.2527571 C59.1356785,60.7071489 58.8211805,60.4343449 58.4448429,60.4343449 C57.3069959,60.5515224 56.640896,61.5640101 56.4430096,63.4754696 C56.3847038,65.0299037 56.9924978,65.8666249 58.2610912,65.9838025 C58.8229473,65.9838025 59.4077724,65.7311383 60.0137996,65.22581 C60.3000282,64.9530059 60.5014483,64.8156884 60.6127594,64.8156884 C60.8353816,64.8559682 60.9378585,64.9896239 60.9148896,65.22581 C60.4113393,66.3170263 59.3653681,66.8992525 57.7822767,66.9779812 C55.4959817,66.8992525 54.3917047,65.7311383 54.4694458,63.4754696 Z M69.9220501,63.3555313 C69.5259691,65.6527393 68.08219,66.8590023 65.5870621,66.9779812 C63.0353513,66.8590023 61.781399,65.6527393 61.8270305,63.3555313 C62.1829558,61.0583234 63.6486381,59.8136211 66.229553,59.6177635 C68.6954767,59.8136211 69.9275259,61.0583234 69.9220501,63.3555313 Z M63.8658438,63.3555313 C63.7453767,65.1841455 64.3422361,66.1195027 65.6582472,66.1597725 C66.9067237,66.0792329 67.6496038,65.1475366 67.8832368,63.3555313 C67.9617229,61.5635261 67.3849414,60.6135253 66.1547174,60.4945464 C64.822279,60.6135253 64.0611464,61.5635261 63.8658438,63.3555313 Z M81.5066255,66.9779812 L80.6248132,66.9779812 C80.2771582,66.9779812 80.1160057,66.8415719 80.1413555,66.56691 C80.1558411,66.4120671 80.1974873,65.8406228 80.23008,65.4479853 L80.5197924,62.0967414 C80.5541958,61.234045 80.2083515,60.7842631 79.4804489,60.7418656 C78.547937,60.8211304 77.9920512,61.254322 77.8127916,62.0377536 L77.517647,65.4479853 C77.4814329,65.8406228 77.4524617,66.4120671 77.4397868,66.56691 C77.4162476,66.8415719 77.2315559,66.9779812 76.883901,66.9779812 L76.018385,66.9779812 C75.5928698,66.9779812 75.4136102,66.8415719 75.4769848,66.56691 C75.4896597,66.4120671 75.5711414,65.8406228 75.6091661,65.4479853 L75.8952572,62.0967414 C75.9314713,61.234045 75.5874377,60.7842631 74.8595351,60.7418656 C73.9270231,60.8211304 73.3711374,61.254322 73.1882564,62.0377536 L72.8931118,65.4479853 C72.8605191,65.8406228 72.818873,66.4120671 72.806198,66.56691 C72.7808482,66.8415719 72.5780495,66.9779812 72.1905591,66.9779812 L71.3974712,66.9779812 C70.9683346,66.9779812 70.7926964,66.8415719 70.8542603,66.56691 C70.8687459,66.4120671 70.953849,65.8406228 70.9882523,65.4479853 L71.3033146,61.8018025 C71.3413394,61.3722976 71.2091581,61.0994791 70.9103921,60.9778167 C70.7257004,60.9003953 70.6424081,60.7418656 70.6605151,60.5077578 C70.7329432,60.1169637 71.3938498,59.8220247 72.6432348,59.6266276 C73.0343466,59.5510495 73.17196,59.958434 73.056075,60.8616845 L73.1158282,60.8616845 C73.6825782,60.0782529 74.5082588,59.6671818 75.5892484,59.6266276 C76.5507316,59.6671818 77.1880991,60.0782529 77.5049721,60.8616845 C78.1550144,60.0376988 79.0386374,59.6266276 80.1522197,59.6266276 C81.7239098,59.7058925 82.4844051,60.5077578 82.4318947,62.0377536 L82.1385608,65.4479853 C82.1023468,65.8406228 82.0715648,66.4120671 82.0607006,66.56691 C82.0371614,66.8415719 81.8488483,66.9779812 81.5066255,66.9779812 Z" id="形状结合"></path>
                    </g>
                </g>
            </g>
        </g>
    </g>
</svg>