<?xml version="1.0" encoding="UTF-8"?>
<svg width="160px" height="50px" viewBox="0 0 160 50" version="1.1" xmlns="http://www.w3.org/2000/svg" xmlns:xlink="http://www.w3.org/1999/xlink">
    <!-- Generator: Sketch 54 (76480) - https://sketchapp.com -->
    <title>pay_fuyou</title>
    <desc>Created with Sketch.</desc>
    <g id="页面1" stroke="none" stroke-width="1" fill="none" fill-rule="evenodd">
        <g id="画板复制-2" transform="translate(-406.000000, -1547.000000)" fill="#E0C9B2">
            <g id="创新支付和财务_第二屏" transform="translate(41.000000, 1140.000000)">
                <g id="支付云" transform="translate(365.000000, 199.000000)">
                    <g id="编组" transform="translate(0.000000, 208.000000)">
                        <path d="M45.7922958,0.000110903814 C71.0761474,0.000110903814 91.5811536,11.0960375 91.5811536,24.776023 C91.5811536,38.4582266 71.0761474,49.5530442 45.7922958,49.5530442 C20.5051171,49.5530442 0.000110903814,38.4582266 0.000110903814,24.776023 C0.000110903814,11.0960375 20.5051171,0.000110903814 45.7922958,0.000110903814 Z M16.6944621,26.7135126 L21.2892071,29.7112427 L33.0006499,20.6881084 L41.2774015,26.9419745 L33.468664,33.2180214 C29.4827809,36.4187054 36.4431043,43.9102581 42.8655442,45.4085686 C47.4037282,47.7730379 53.9714521,41.6755462 60.3173684,36.7447626 C65.5642278,32.6612842 70.6103514,28.6543294 73.4117817,26.7578742 L69.2484525,23.9364811 L46.1039355,40.7539355 C42.2699907,40.2238153 39.4619061,38.3517589 39.6548787,35.7333199 C43.1594393,32.7233903 47.3294227,29.892016 50.8384194,26.8754322 L39.0382535,17.1558219 L45.0337137,12.2749451 L61.9742714,24.4178037 L65.6352063,21.026365 L44.9294641,5.77265444 L16.6944621,26.7135126 Z" id="Fill-1"></path>
                        <g transform="translate(96.486318, 2.610673)" id="Fill-3">
                            <path d="M4.72694237,6.21416563 L4.72694237,7.99638993 C6.07885987,7.91875726 7.46737562,7.87883188 8.89692579,7.87883188 L16.2742475,7.87883188 C17.6195108,7.87883188 18.9736464,7.91875726 20.3233458,7.99638993 L20.3233458,6.21416563 C18.9736464,6.29401638 17.6195108,6.3295056 16.2742475,6.3295056 L8.77604063,6.3295056 C7.3475995,6.3295056 5.99679104,6.29401638 4.72694237,6.21416563 L4.72694237,6.21416563 Z M4.72694237,14.7825943 L20.678238,14.7825943 L20.678238,9.66438329 L4.72694237,9.66438329 L4.72694237,14.7825943 Z M6.86960406,13.2343771 L18.5333582,13.2343771 L18.5333582,11.2092734 L6.86960406,11.2092734 L6.86960406,13.2343771 Z M2.58317164,16.4461515 L23.2988951,16.4461515 C23.2168263,17.7204364 23.1757919,19.4283551 23.1757919,21.5643626 C23.1757919,23.7048062 23.2168263,25.5358282 23.2988951,27.0419019 L21.0331302,27.0419019 L21.0331302,25.7310189 L4.85115464,25.7310189 L4.85115464,27.158351 L2.58317164,27.158351 C2.66745854,25.4914666 2.7040568,23.6282825 2.7040568,21.5643626 C2.7040568,19.4982245 2.66745854,17.7925238 2.58317164,16.4461515 L2.58317164,16.4461515 Z M4.85115464,20.3743646 L11.9878151,20.3743646 L11.9878151,17.9943688 L4.85115464,17.9943688 L4.85115464,20.3743646 Z M4.85115464,24.1805835 L11.9878151,24.1805835 L11.9878151,21.9236909 L4.85115464,21.9236909 L4.85115464,24.1805835 Z M14.1304768,20.3743646 L21.0331302,20.3743646 L21.0331302,17.9943688 L14.1304768,17.9943688 L14.1304768,20.3743646 Z M14.1304768,24.1805835 L21.0331302,24.1805835 L21.0331302,21.9236909 L14.1304768,21.9236909 L14.1304768,24.1805835 Z M10.8011443,0.497074005 C11.75159,0.344026741 12.6621103,0.184325249 13.5382504,0.0235147181 C13.9352861,1.37432318 14.2458167,2.36802135 14.4898051,2.99906405 L25.0822284,2.99906405 C25.0079229,3.71439366 24.9646704,4.46410344 24.9646704,5.2626109 C24.9646704,6.05446414 25.0079229,6.88624274 25.0822284,7.76460095 L22.6966874,7.76460095 L22.6966874,4.54617226 L2.4656136,4.54617226 L2.4656136,7.87883188 L0.088944859,7.87883188 C0.169904643,6.92505908 0.213157131,6.05446414 0.213157131,5.2626109 C0.213157131,4.46410344 0.169904643,3.71439366 0.088944859,2.99906405 L11.6329229,2.99906405 C11.3944797,2.20277467 11.1172201,1.37432318 10.8011443,0.497074005 Z M44.3428939,15.3770388 L46.2471124,13.3530442 C47.515852,15.4957058 48.4696248,16.9041843 49.1006675,17.5762614 C49.7350373,18.2516656 50.4126596,18.9481416 51.121335,19.657926 C52.8702881,17.5973331 54.0979934,15.1829571 54.815541,12.4014894 L46.9591148,12.4014894 C46.4068138,13.6713381 45.7691169,14.859118 45.0537873,15.9703742 C44.3428939,17.0849575 43.5865299,18.176251 42.7935676,19.2409277 C42.0039324,20.3155856 41.1699357,21.3292465 40.2949046,22.2796922 C39.4232007,23.233465 38.589204,24.0630255 37.7973507,24.776137 C37.1574357,24.0630255 36.3256571,23.4319828 35.2953607,22.8730276 C36.4864677,22.0800653 37.6354312,21.1451461 38.7466874,20.0782515 C39.8590527,19.0080296 40.9104208,17.7725612 41.9019009,16.3884816 C42.893381,15.0010748 43.7229415,13.435113 44.4016729,11.6839417 C45.07375,9.93720667 45.5306737,8.27364946 45.7691169,6.68883396 L41.3706716,6.68883396 C39.7792019,6.68883396 38.2276575,6.72875933 36.729347,6.806392 L36.729347,4.54617226 C38.2276575,4.62935012 39.7359494,4.66262127 41.2442413,4.66262127 L46.003124,4.66262127 C46.0840837,2.68077011 46.0840837,1.13587998 46.003124,0.0235147181 C47.2774088,0.184325249 48.3487396,0.260848881 49.2160075,0.260848881 C48.9032587,1.13587998 48.7258126,1.92662417 48.6825601,2.64084473 C48.6448528,3.35839241 48.5827467,4.02825145 48.5106592,4.66262127 L57.9064303,4.66262127 C59.3359805,4.66262127 60.5692309,4.62935012 61.5973093,4.54617226 L61.5973093,6.806392 C60.6457546,6.72875933 59.4524295,6.68883396 58.0306426,6.68883396 L48.2666708,6.68883396 C48.0304457,7.87883188 47.74875,9.14535344 47.4371103,10.5005981 L57.9064303,10.5005981 C57.2742786,12.9571175 56.50017,15.1197419 55.5874316,16.9807079 C54.6746932,18.843892 53.7874627,20.2168812 52.9102135,21.0930214 C53.9382919,21.8848746 55.2103586,22.5159173 56.7142143,22.9939127 C58.2247243,23.4685811 60.047983,23.786875 62.1939718,23.9410313 C61.560711,24.8193895 61.0450083,25.8119786 60.6457546,26.9199078 C58.5829436,26.3676068 56.7419403,25.7310189 55.1149813,25.0156893 C53.4846953,24.3047958 52.1605037,23.5916843 51.121335,22.8730276 C50.0932566,23.6682079 48.8045543,24.4633883 47.2585551,25.2563505 C45.7092289,26.0470947 43.9425311,26.7624243 41.9662251,27.3979032 C41.6412769,26.60605 41.0512687,25.7310189 40.1740195,24.776137 C42.3155721,24.4633883 44.0456716,24.048608 45.3532276,23.5295782 C46.6652197,23.0116573 47.9894113,22.2796922 49.3402197,21.3292465 C48.6226721,20.6128078 47.9328503,19.8786246 47.2585551,19.1233696 C46.58426,18.3747689 45.6116335,17.1193377 44.3417848,15.3770388 L44.3428939,15.3770388 Z"></path>
                        </g>
                        <path d="M108.953016,34.4439229 L111.653302,34.4409577 L111.735371,43.9332152 C111.755334,46.458495 119.464258,47.7327799 119.932272,43.492927 C120.293818,40.2301368 119.828022,38.3225912 120.159625,35.2239386 C122.763646,33.3175021 124.279701,33.1334017 126.821617,35.2960261 L127.065605,48.2141024 C127.086677,49.1456944 123.998006,49.1556758 124.002442,48.2407193 L124.118891,37.1215029 L122.47086,37.0782504 L122.174747,45.0954871 C122.157002,45.6555514 121.423928,47.1139366 120.239476,47.7571787 C116.919015,49.5671289 108.93505,49.5560386 108.730987,43.7923673 L108.641843,36.0460686 L98.6079084,36.0460686 L98.6079084,40.1051482 L106.91904,40.1051482 L106.91904,42.425256 L98.6079084,42.5960479 L98.6079084,48.47395 L95.6334681,48.47395 L95.6334681,34.1351959 L108.953016,34.1351959 L108.953016,34.4439229 Z M128.48595,41.5349202 C128.48595,39.2747005 129.179099,37.5024575 130.572051,36.2270636 C131.963894,34.9450155 133.753882,34.3062096 135.956431,34.3062096 C137.397072,34.3062096 138.696865,34.607868 139.851373,35.2100757 C141.005882,35.8078472 141.892004,36.6473891 142.494211,37.7242651 C143.104182,38.7922689 143.403623,40.017756 143.403623,41.3752187 C143.403623,42.7592983 143.087547,43.9969849 142.452068,45.0860603 C141.811044,46.1740267 140.903851,47.0002602 139.736033,47.5603244 C138.562671,48.1214977 137.303913,48.4054115 135.947559,48.4054115 C134.476975,48.4054115 133.164982,48.0937718 132.009365,47.4716014 C130.85042,46.8527581 129.977607,46.0087801 129.382053,44.9363402 C128.784282,43.8683364 128.48595,42.7315723 128.48595,41.5349202 Z M130.614195,41.5637552 C130.614195,43.2073497 131.122134,44.5004882 132.124705,45.4409525 C133.142802,46.3891801 134.410432,46.8583033 135.934251,46.8583033 C137.490231,46.8583033 138.770061,46.385853 139.771523,45.4298621 C140.771875,44.4760893 141.278705,43.1208447 141.278705,41.3685645 C141.278705,40.2628534 141.060225,39.2935541 140.635463,38.4617755 C140.201829,37.6366511 139.574114,36.9956271 138.754535,36.5398124 C137.924974,36.0884339 136.9956,35.858863 135.967522,35.858863 C134.509137,35.858863 133.247051,36.295824 132.193465,37.1730732 C131.143206,38.0525404 130.613086,39.5142527 130.613086,41.5637552 L130.614195,41.5637552 Z M156.01261,34.3814024 L158.098711,34.3814024 L158.098711,42.6426275 C158.098711,44.0799409 157.921265,45.2200321 157.563045,46.0651192 C157.205935,46.9124243 156.557148,47.601137 155.621119,48.1301482 C154.682873,48.6613775 153.459604,48.9275466 151.934677,48.9275466 C150.460765,48.9275466 149.248586,48.6946486 148.314776,48.2299617 C147.372094,47.7697108 146.696689,47.1031789 146.298545,46.2292568 C145.892637,45.3497896 145.698555,44.1631188 145.698555,42.6426275 L145.698555,34.3814024 L147.781329,34.3814024 L147.781329,42.6326461 C147.781329,43.8736598 147.912195,44.7908344 148.167274,45.3797336 C148.419026,45.9653058 148.860423,46.4222295 149.475939,46.7383053 C150.094782,47.0577083 150.855583,47.2207369 151.750576,47.2207369 C153.287703,47.2207369 154.382324,46.9046611 155.035547,46.2669641 C155.687662,45.6414666 156.01261,44.430397 156.01261,42.6326461 L156.01261,34.3814024 Z" id="形状结合"></path>
                    </g>
                </g>
            </g>
        </g>
    </g>
</svg>