<?xml version="1.0" encoding="UTF-8"?>
<svg width="36px" height="36px" viewBox="0 0 36 36" version="1.1" xmlns="http://www.w3.org/2000/svg" xmlns:xlink="http://www.w3.org/1999/xlink">
    <!-- Generator: Sketch 54 (76480) - https://sketchapp.com -->
    <title>qq</title>
    <desc>Created with Sketch.</desc>
    <g id="页面1" stroke="none" stroke-width="1" fill="none" fill-rule="evenodd">
        <g id="画板复制" transform="translate(-1674.000000, -1048.000000)" fill="#FFFFFF">
            <g id="形状结合复制-5" transform="translate(1674.000000, 1048.000000)">
                <path d="M18,36 C27.9411255,36 36,27.9411255 36,18 C36,8.0588745 27.9411255,0 18,0 C8.0588745,0 0,8.0588745 0,18 C0,27.9411255 8.0588745,36 18,36 Z M25.3620597,21.9238289 C25.3620597,21.9238289 24.7731401,23.4550657 23.8308229,24.7507347 C23.8308229,24.7507347 25.4797976,25.3396543 25.3620597,26.8707991 C25.3620597,26.8707991 25.3620597,28.5197278 21.5928826,28.4020359 C21.5928826,28.4020359 19.0016365,28.1664221 18.1772412,27.1064129 L17.5882756,27.1064129 C16.8816182,28.284252 14.1726342,28.4020359 14.1726342,28.4020359 C10.4034571,28.6376037 10.4034571,26.8707991 10.4034571,26.8707991 C10.1678433,25.3396543 11.9346939,24.7507347 11.9346939,24.7507347 C10.9924227,23.4550657 10.4034571,21.9238289 10.4034571,21.9238289 C8.28343874,25.693006 8.40117664,21.3348633 8.40117664,21.3348633 C8.75448236,18.7436173 10.6390709,16.9769506 10.6390709,16.9769506 C10.4034571,14.7390103 11.3457744,14.3856586 11.3457744,14.3856586 C11.8170021,7.0831482 17.8238895,7.20084009 18.0595493,7.20084009 C18.2949331,7.20084009 24.4197884,6.96522626 24.6554022,14.3856586 C24.6554022,14.3856586 25.5976735,14.7390103 25.3620597,17.2126105 C25.3620597,17.2126105 27.2466483,18.8615392 27.6,21.5705231 C27.4820781,21.3348633 27.8354298,25.693006 25.3620597,21.9238289" id="形状结合复制-3"></path>
            </g>
        </g>
    </g>
</svg>