<?xml version="1.0" encoding="UTF-8"?>
<svg width="52px" height="52px" viewBox="0 0 52 52" version="1.1" xmlns="http://www.w3.org/2000/svg" xmlns:xlink="http://www.w3.org/1999/xlink">
    <!-- Generator: Sketch 54 (76480) - https://sketchapp.com -->
    <title>service_icon2</title>
    <desc>Created with Sketch.</desc>
    <g id="页面1" stroke="none" stroke-width="1" fill="none" fill-rule="evenodd">
        <g id="3_1" transform="translate(-794.000000, -8101.000000)" fill-rule="nonzero">
            <g id="服务优势" transform="translate(0.000000, 7811.000000)">
                <g id="vip" transform="translate(794.000000, 294.000000)">
                    <path d="M38.5284091,42.9090909 L13.4715909,42.9090909 C11,42.9090909 8.95454545,41.2045455 8.44318182,38.8181818 L2.13636364,7.45454545 C1.96590909,6.77272727 2.30681818,6.00568182 2.98863636,5.66477273 C3.58522727,5.32386364 4.4375,5.40909091 4.94886364,5.83522727 L15.5170455,14.8693182 L24.6363636,2.68181818 C25.3181818,1.82954545 26.6818182,1.82954545 27.3636364,2.68181818 L36.4829545,14.8693182 L47.0511364,5.83522727 C47.5625,5.32386364 48.4147727,5.32386364 49.0113636,5.66477273 C49.6079545,6.00568182 49.9488636,6.77272727 49.8636364,7.45454545 L43.5568182,38.8181818 C43.0454545,41.2045455 41,42.9090909 38.5284091,42.9090909 Z" id="路径" stroke="#E0C9B2" stroke-width="3"></path>
                    <path d="M26,34.3863636 C25.4034091,34.3863636 24.8068182,34.0454545 24.5511364,33.5340909 L19.4375,25.0113636 C18.9261364,24.2443182 19.1818182,23.1363636 20.0340909,22.7102273 C20.8011364,22.1988636 21.9090909,22.4545455 22.3352273,23.3068182 L26,29.3579545 L29.6647727,23.3068182 C30.1761364,22.5397727 31.1988636,22.1988636 31.9659091,22.7102273 C32.7329545,23.2215909 33.0738636,24.2443182 32.5625,25.0113636 L27.4488636,33.5340909 C27.1931818,34.0454545 26.5965909,34.3863636 26,34.3863636 Z" id="路径" fill="#E0C9B2"></path>
                </g>
            </g>
        </g>
    </g>
</svg>