<?xml version="1.0" encoding="UTF-8"?>
<svg width="52px" height="52px" viewBox="0 0 52 52" version="1.1" xmlns="http://www.w3.org/2000/svg" xmlns:xlink="http://www.w3.org/1999/xlink">
    <!-- Generator: Sketch 54 (76480) - https://sketchapp.com -->
    <title>service_icon1</title>
    <desc>Created with Sketch.</desc>
    <g id="页面1" stroke="none" stroke-width="1" fill="none" fill-rule="evenodd">
        <g id="3_1" transform="translate(-320.000000, -8101.000000)" fill="#E0C9B2" fill-rule="nonzero">
            <g id="服务优势" transform="translate(0.000000, 7811.000000)">
                <g id="形状-2" transform="translate(320.000000, 290.000000)">
                    <path d="M49.749989,37.4397337 L38.4128873,26.0523785 L49.3377164,15.0791144 C50.9872311,13.4230529 50.9872311,10.834968 49.3377164,9.17854278 L42.8444083,2.65650101 C41.1957423,1.00013639 38.6190539,1.00013639 36.9695393,2.65650101 L26.0447707,13.6297651 L14.7077296,2.24204614 C13.058215,0.58598462 10.4819509,0.58598462 8.83286063,2.24204614 L2.23649947,8.86762585 C0.587833511,10.5240511 0.587833511,13.112136 2.23649947,14.7688643 L13.5739649,26.1562195 L4.19474872,35.5762932 C3.57673389,36.1974602 2.64871142,40.2345307 1.51537103,47.3777395 L1.51537103,47.4812775 C1.51537103,48.3094598 1.82459061,49.137339 2.33991617,49.7581423 C2.8548174,50.3799762 3.78247615,50.6905294 4.60702129,50.5870521 L4.71007428,50.5870521 C11.9252383,49.4479528 15.9444867,48.5162326 16.6659789,47.7918913 L26.0447707,38.3715145 L37.3822362,49.7585666 C39.0313265,51.4149313 41.6080149,51.4149313 43.2566808,49.7585666 L49.853042,43.1333506 C51.3990793,41.6839407 51.3990793,38.992621 49.749989,37.4397337 Z M38.7455666,4.62208522 C39.5147056,3.85015771 40.763829,3.85015771 41.4364013,4.62208522 L47.5867855,10.7998694 C48.3555002,11.5721606 48.3555002,12.8269217 47.5867855,13.5026462 L44.5115631,16.591023 L35.6707685,7.61456214 L38.7455666,4.62208522 Z M11.6871253,20.3807663 L16.4775132,15.5689192 C16.8602035,15.183986 16.8602035,14.6066468 16.4775132,14.2217136 C16.0939742,13.8367803 15.5195447,13.8367803 15.1355814,14.2217136 L10.3455573,19.0335607 L7.95036333,16.6274553 L12.7407512,11.8159718 C13.1238658,11.4310386 13.1238658,10.8536994 12.7407512,10.4691299 C12.3576365,10.0841967 11.7827827,10.0841967 11.3996075,10.4691299 L6.60921962,15.2806133 L4.59756467,13.2594411 C3.83133539,12.4899384 3.83133539,11.3345325 4.59756467,10.5650298 L10.7286719,4.40634075 C11.4953255,3.63617121 12.6450938,3.63617121 13.4117474,4.40634075 L23.9505521,14.99158 L15.1355814,23.8450441 L11.6871253,20.3807663 L11.6871253,20.3807663 Z M4.50439264,48.6200736 C3.98864274,48.6200736 3.57637017,48.2059824 3.57637017,47.6883534 C4.19480934,43.7543965 5.01929387,39.1996968 5.63773303,37.4397337 L14.7077296,46.5495572 C12.9555257,47.1707243 8.52364104,47.9989672 4.50439264,48.6200736 L4.50439264,48.6200736 Z M16.816315,44.1275089 L7.91259744,35.1830551 L33.0755305,9.90633936 L41.9791875,18.8501264 L16.816315,44.1275089 Z M47.3129071,41.4441909 L41.3698412,47.4135656 C40.6265867,48.1597905 39.5125839,48.1597905 38.7697537,47.4135656 L36.1696662,44.8018391 L40.8126277,40.1386914 C41.1842246,39.7652153 41.1842246,39.2055769 40.8126277,38.8324645 C40.4410307,38.4593521 39.8837565,38.4593521 39.5125839,38.8324645 L34.8696224,43.496279 L31.9906857,40.6045516 L36.6340715,35.9411007 C37.0056684,35.5679883 37.0056684,35.0087137 36.6340715,34.6356012 C36.2624745,34.2621251 35.7052003,34.2621251 35.3336034,34.6356012 L30.6906419,39.2990521 L28.647768,37.246964 L37.1913457,28.6658629 L47.4057154,38.9259396 C48.0557373,39.5790531 48.0557373,40.6980267 47.3129071,41.4441909 L47.3129071,41.4441909 Z" id="形状"></path>
                </g>
            </g>
        </g>
    </g>
</svg>