<?xml version="1.0" encoding="UTF-8"?>
<svg width="188px" height="50px" viewBox="0 0 188 50" version="1.1" xmlns="http://www.w3.org/2000/svg" xmlns:xlink="http://www.w3.org/1999/xlink">
    <!-- Generator: Sketch 54 (76480) - https://sketchapp.com -->
    <title>sg_win</title>
    <desc>Created with Sketch.</desc>
    <g id="页面1" stroke="none" stroke-width="1" fill="none" fill-rule="evenodd">
        <g id="场馆" transform="translate(-382.000000, -2478.000000)" fill="#FFFFFF" fill-rule="nonzero">
            <g id="矩形-4复制-8" transform="translate(97.000000, 1855.000000)">
                <g id="编组-21" transform="translate(285.000000, 623.000000)">
                    <path d="M59.9191752,32.2802867 C60.0042002,33.7985914 60.3625148,35.0314363 60.9941295,35.9788584 C62.1966268,37.7522383 64.3161484,38.6389149 67.3527577,38.6389149 C68.7131587,38.6389149 69.9520768,38.4445748 71.069549,38.0558888 C73.2316149,37.3028097 74.3126316,35.9545754 74.3126316,34.0111454 C74.3126316,32.5535729 73.857147,31.5150681 72.9461642,30.8955997 C72.023035,30.2882779 70.5776306,29.7599158 68.6099077,29.3104976 L64.9842143,28.4906171 C62.615659,27.9561739 60.9394757,27.3670805 59.9556143,26.7233193 C58.2551131,25.6058471 57.4048752,23.935737 57.4048752,21.7129389 C57.4048752,19.3079443 58.2368937,17.3341778 59.9009556,15.7915803 C61.5650176,14.2489827 63.9213911,13.4776955 66.9701469,13.4776955 C69.7759739,13.4776955 72.1596765,14.1548492 74.1213262,15.509177 C76.0829758,16.8635048 77.0637859,19.0285748 77.0637859,22.004452 L73.6567273,22.004452 C73.4745307,20.5711724 73.0858505,19.4719363 72.4906751,18.7067107 C71.3853493,17.3098704 69.5087528,16.6114607 66.8608295,16.6114607 C64.7230565,16.6114607 63.1865552,17.0608722 62.2512795,17.9597085 C61.3160038,18.8585449 60.848373,19.9031229 60.848373,21.0934737 C60.848373,22.405289 61.3949545,23.3648431 62.4881339,23.972165 C63.2047737,24.360851 64.8262987,24.8467012 67.3527577,25.4297302 L71.1059881,26.2860498 C72.9158073,26.6990286 74.3126267,27.2638295 75.2964881,27.9804693 C76.9969894,29.2315524 77.8472272,31.0474175 77.8472272,33.4281193 C77.8472272,36.39185 76.7692471,38.5113716 74.6132544,39.7867475 C72.4572618,41.0621234 69.9520966,41.6998018 67.0976838,41.6998018 C63.76956,41.6998018 61.1641882,40.849564 59.2814904,39.1490627 C57.3987926,37.4607079 56.4756772,35.1711388 56.5121165,32.2802867 L59.9191752,32.2802867 Z M90.4423968,13.459476 C92.9567094,13.459476 95.130889,13.9453262 96.9650011,14.9170412 C99.6250709,16.3138815 101.252669,18.7613519 101.847845,22.2595259 L98.2585902,22.2595259 C97.8213185,20.3039495 96.9164225,18.879801 95.543875,17.9870379 C94.1713276,17.0942747 92.4404862,16.6478998 90.351299,16.6478998 C87.8734257,16.6478998 85.7873064,17.5770884 84.0928784,19.4354933 C82.3984503,21.2938982 81.551249,24.0632444 81.551249,27.743615 C81.551249,30.9259816 82.2496587,33.5161705 83.646499,35.5142595 C85.0433393,37.5123485 87.3207622,38.5113779 90.4788359,38.5113779 C92.895977,38.5113779 94.8970725,37.8099317 96.4821826,36.4070182 C98.0672927,35.0041047 98.8780553,32.7357915 98.9144946,29.6020106 L90.5334946,29.6020106 L90.5334946,26.5957824 L102.285114,26.5957824 L102.285114,40.9163605 L99.9530098,40.9163605 L99.0784707,37.4728627 C97.8516805,38.8211173 96.7645906,39.756379 95.8171685,40.2786758 C94.2259852,41.1775121 92.2036337,41.6269236 89.7500533,41.6269236 C86.5798331,41.6269236 83.8529988,40.600565 81.5694686,38.5478171 C79.0794489,35.9727723 77.8344578,32.4382121 77.8344578,27.9440302 C77.8344578,23.4619948 79.0490833,19.8970689 81.4783708,17.2491455 C83.7861939,14.7226865 86.7741727,13.459476 90.4423968,13.459476 Z M105.248509,28.8367889 L114.394731,28.8367889 L114.394731,32.2074084 L105.248509,32.2074084 L105.248509,28.8367889 Z M119.505408,14.1518194 L124.552227,35.9241997 L130.601123,14.1518194 L134.536549,14.1518194 L140.585445,35.9241997 L145.632264,14.1518194 L149.604129,14.1518194 L142.571377,40.9163605 L138.763488,40.9163605 L132.587056,18.7249303 L126.374184,40.9163605 L122.566295,40.9163605 L115.569982,14.1518194 L119.505408,14.1518194 Z M151.637044,14.1518194 L155.299177,14.1518194 L155.299177,40.9163605 L151.637044,40.9163605 L151.637044,14.1518194 Z M158.172115,14.1518194 L162.453713,14.1518194 L175.97263,35.8331019 L175.97263,14.1518194 L179.416128,14.1518194 L179.416128,40.9163605 L175.353165,40.9163605 L161.633832,19.2532976 L161.633832,40.9163605 L158.172115,40.9163605 L158.172115,14.1518194 Z M152.186279,6.21724894e-14 L154.111708,4.13610633 L158.675688,4.70660375 L155.324015,7.84433959 L156.179761,12.408319 L152.186279,10.1976415 L148.121485,12.408319 L148.977231,7.84433959 L145.625559,4.70660375 L150.189538,4.13610633 L152.186279,6.21724894e-14 Z M50.5272753,33.4020537 C47.1670024,45.4667233 34.6626159,52.5230311 22.5979463,49.1627582 C10.5332767,45.8024853 3.47696894,33.2980988 6.83724181,21.2334292 C10.1975147,9.16875963 22.7019012,2.11245188 34.7665708,5.47272474 C46.8312404,8.83299761 53.8875481,21.3373841 50.5272753,33.4020537 Z M13.1988443,18.1846054 C14.9103366,19.4682246 16.4078923,18.1846054 18.1193846,16.6870497 C19.7595647,15.1181818 22.7546762,10.2689536 34.5924978,8.70008573 C21.8276179,6.27547167 16.4078923,11.9804459 14.7677122,13.3353773 C13.05622,14.6189965 12.0578495,17.2575471 13.1988443,18.1846054 Z M45.7171975,24.816638 C45.7171975,17.614108 39.7982868,11.6951972 32.5957568,11.6951972 C25.3932268,11.6951972 19.474316,17.5427958 19.474316,24.816638 C19.474316,32.019168 25.3219146,37.9380787 32.5957568,37.9380787 C39.7982868,37.9380787 45.7171975,32.0904801 45.7171975,24.816638 Z M29.6006453,16.4731131 L33.5941273,20.6805316 L39.9409111,20.1100342 L37.3736727,25.6723841 L40.9392816,30.3076757 L34.5924978,29.8084904 L29.6006453,34.8716551 L28.7448992,28.4535591 L23.1825493,25.6723841 L28.7448992,22.6772726 L29.6006453,16.4731131 Z" id="形状结合"></path>
                </g>
            </g>
        </g>
    </g>
</svg>