<?xml version="1.0" encoding="UTF-8"?>
<svg width="36px" height="36px" viewBox="0 0 36 36" version="1.1" xmlns="http://www.w3.org/2000/svg" xmlns:xlink="http://www.w3.org/1999/xlink">
    <!-- Generator: Sketch 54 (76480) - https://sketchapp.com -->
    <title>skype_gold</title>
    <desc>Created with Sketch.</desc>
    <g id="页面1" stroke="none" stroke-width="1" fill="none" fill-rule="evenodd">
        <g id="画板复制" transform="translate(-1769.000000, -1104.000000)" fill="#E0C9B2" fill-rule="nonzero">
            <g id="形状结合-2复制" transform="translate(1769.000000, 1104.000000)">
                <path d="M-4.83879603e-12,18 C-4.8375863e-12,8.0588745 8.00786897,-6.08718376e-16 17.8860759,0 C27.7642829,6.08718376e-16 35.7721519,8.0588745 35.7721519,18 C35.7721519,27.9411255 27.7642829,36 17.8860759,36 C8.00786897,36 -4.8375863e-12,27.9411255 -4.83879603e-12,18 Z M27.1786834,19.7061822 C27.2556176,19.2174696 27.2942246,18.7234227 27.294147,18.228615 C27.294147,12.9994844 23.0819065,8.76047386 17.8856657,8.76047386 C17.3868537,8.76047386 16.895945,8.80183303 16.4177568,8.87667338 C15.5511772,8.3378681 14.5284884,8.02547771 13.4323364,8.02547771 C10.2926132,8.02547771 7.74684288,10.5863367 7.74684285,13.7466005 C7.74563579,14.8080915 8.03873447,15.8488695 8.59317488,16.751881 C8.51910954,17.234253 8.47823811,17.7254877 8.47823811,18.2288422 C8.47823811,23.4579728 12.6904786,27.6956199 17.8853646,27.6956199 C18.3844024,27.6956199 18.8756122,27.6570635 19.3538756,27.5810869 C20.2509599,28.1390662 21.2849275,28.4341347 22.3395218,28.4331158 C25.4798472,28.4331158 28.0253165,25.8708175 28.0253165,22.7108568 C28.0252412,21.6077187 27.7149044,20.579118 27.1786834,19.7061822 Z M22.3524682,22.534285 C21.9545176,23.1111165 21.3701239,23.5617495 20.6057605,23.8857295 C19.8402681,24.2102398 18.9356021,24.3718132 17.8910098,24.3718132 C16.6385227,24.3718132 15.6015326,24.1516098 14.7833515,23.7062793 C14.203173,23.3874502 13.7316838,22.9593904 13.3686583,22.4259634 C13.0053316,21.8920061 12.8211468,21.3693354 12.8211468,20.8596936 C12.8211468,20.5589686 12.9349545,20.2973303 13.1568495,20.0844746 C13.3810025,19.8698766 13.6697369,19.7619338 14.0102568,19.7619338 C14.2893567,19.7619338 14.5290153,19.8466973 14.7241895,20.0144822 C14.9179336,20.182267 15.0804408,20.4254982 15.213367,20.7469028 C15.3724871,21.1193625 15.5456826,21.4311469 15.7298674,21.6791503 C15.9126222,21.9245783 16.1700444,22.1295561 16.5037901,22.2899175 C16.8338475,22.4506577 17.2723685,22.5311035 17.821837,22.5311035 C18.5735551,22.5311035 19.1810565,22.3678637 19.6459972,22.0444138 C20.1132712,21.7189945 20.3379511,21.3225223 20.3379511,20.8437863 C20.3379511,20.4617065 20.2168422,20.1578757 19.9687534,19.9214619 C19.7184065,19.6822454 19.3950481,19.4994622 18.9934092,19.3721275 C18.5906413,19.2437323 18.049603,19.1070804 17.3717245,18.9636869 C16.4617143,18.7638601 15.6999101,18.530855 15.0836774,18.2636112 C14.4663157,17.9954584 13.974579,17.6286799 13.6104244,17.1655483 C13.2454419,16.6978717 13.063214,16.116571 13.063214,15.4275547 C13.063214,14.7708077 13.2553022,14.1832956 13.6403065,13.6725176 C14.0250097,13.1603761 14.5815535,12.7680701 15.3070778,12.4945391 C16.0300428,12.2213111 16.8814179,12.0849622 17.8564611,12.0849622 C18.63633,12.0849622 19.3105955,12.1756342 19.8817417,12.356751 C20.4512319,12.538398 20.9258071,12.7785235 21.3054673,13.0803847 C21.6828694,13.3808067 21.9600122,13.6982724 22.1357669,14.0310394 C22.3112204,14.3652456 22.3999634,14.6908921 22.3999634,15.008888 C22.3999634,15.304765 22.2861556,15.5729178 22.0642607,15.8084984 C21.8422905,16.0437759 21.5584486,16.1639144 21.22666,16.1627781 C20.9275384,16.1627781 20.6929228,16.093619 20.5304156,15.9462107 C20.3718225,15.8044836 20.2057023,15.577993 20.0257326,15.2625726 C19.7981924,14.82209 19.5257915,14.4797029 19.2089815,14.2342749 C18.9006017,13.9936192 18.3919294,13.8681025 17.6836419,13.8697689 C17.0285701,13.8697689 16.5041664,14.0043756 16.1083985,14.2676804 C15.7104479,14.5355302 15.5197898,14.8461783 15.5189618,15.2103813 C15.5197898,15.4385384 15.584597,15.6304116 15.7158673,15.7950907 C15.8490946,15.9612091 16.0341074,16.1049056 16.2724111,16.2261804 C16.503593,16.3460256 16.7461821,16.4421316 16.9965052,16.5130432 C17.242637,16.5830356 17.6510502,16.6845398 18.2194113,16.8191465 C18.9316881,16.9735994 19.5783297,17.1462322 20.1591104,17.3344694 C20.7387621,17.5237671 21.2329826,17.751697 21.6419226,18.0237887 C22.0539488,18.2944412 22.3758771,18.6400098 22.6054495,19.0571616 C22.8366779,19.4749194 22.9518405,19.9851672 22.9518405,20.5860112 C22.9514642,21.3086602 22.7512468,21.9585898 22.3524682,22.534285 Z" id="形状结合"></path>
            </g>
        </g>
    </g>
</svg>