<?xml version="1.0" encoding="UTF-8"?>
<svg width="413px" height="86px" viewBox="0 0 413 86" version="1.1" xmlns="http://www.w3.org/2000/svg" xmlns:xlink="http://www.w3.org/1999/xlink">
    <!-- Generator: Sketch 54 (76480) - https://sketchapp.com -->
    <title>SLOTGAMES</title>
    <desc>Created with Sketch.</desc>
    <g id="页面1" stroke="none" stroke-width="1" fill="none" fill-rule="evenodd">
        <g id="画板复制-2" transform="translate(-5140.000000, -1364.000000)" fill="#FFFFFF" fill-rule="nonzero">
            <g id="矩形-4复制-7" transform="translate(5059.000000, 1154.000000)">
                <path d="M102.474,295.776 C94.9079622,295.776 89.4436835,293.900685 86.081,290.15 C82.7183165,286.399315 81.037,280.353042 81.037,272.011 L81.037,263.863 L97.43,263.863 L97.43,274.242 C97.43,278.380687 98.7556534,280.45 101.407,280.45 C102.894341,280.45 103.928997,280.013504 104.511,279.1405 C105.093003,278.267496 105.384,276.796344 105.384,274.727 C105.384,272.010986 105.06067,269.763842 104.414,267.9855 C103.76733,266.207158 102.942838,264.719839 101.9405,263.5235 C100.938162,262.327161 99.1436796,260.468013 96.557,257.946 L89.379,250.768 C83.8176389,245.335973 81.037,239.322033 81.037,232.726 C81.037,225.612631 82.669817,220.196852 85.9355,216.4785 C89.201183,212.760148 93.970302,210.901 100.243,210.901 C107.744371,210.901 113.143984,212.88948 116.442,216.8665 C119.740016,220.84352 121.389,227.067624 121.389,235.539 L104.414,235.539 L104.317,229.816 C104.317,228.716661 104.009836,227.84367 103.3955,227.197 C102.781164,226.55033 101.924339,226.227 100.825,226.227 C99.5316602,226.227 98.5616699,226.582663 97.915,227.294 C97.2683301,228.005337 96.945,228.975327 96.945,230.204 C96.945,232.920014 98.4969845,235.732985 101.601,238.643 L111.301,247.955 C113.564345,250.153678 115.439659,252.239157 116.927,254.2115 C118.414341,256.183843 119.610662,258.51182 120.516,261.1955 C121.421338,263.87918 121.874,267.063982 121.874,270.75 C121.874,278.962708 120.370515,285.186812 117.3635,289.4225 C114.356485,293.658188 109.393368,295.776 102.474,295.776 Z M124.493,295 L124.493,211.677 L141.177,211.677 L141.177,280.838 L158.346,280.838 L158.346,295 L124.493,295 Z M179.977,295.776 C173.251633,295.776 168.143017,293.722854 164.651,289.6165 C161.158983,285.510146 159.413,279.738704 159.413,272.302 L159.413,232.629 C159.413,225.450964 161.158983,220.035185 164.651,216.3815 C168.143017,212.727815 173.251633,210.901 179.977,210.901 C186.702367,210.901 191.810983,212.727815 195.303,216.3815 C198.795017,220.035185 200.541,225.450964 200.541,232.629 L200.541,272.302 C200.541,279.803371 198.795017,285.59098 195.303,289.665 C191.810983,293.73902 186.702367,295.776 179.977,295.776 Z M179.977,280.45 C181.464341,280.45 182.466664,279.80334 182.984,278.51 C183.501336,277.21666 183.76,275.406012 183.76,273.078 L183.76,232.338 C183.76,230.527324 183.517502,229.056172 183.0325,227.9245 C182.547498,226.792828 181.561341,226.227 180.074,226.227 C177.293319,226.227 175.903,228.328646 175.903,232.532 L175.903,273.175 C175.903,275.567679 176.193997,277.378327 176.776,278.607 C177.358003,279.835673 178.424992,280.45 179.977,280.45 Z M211.502,295 L211.502,227.682 L201.608,227.682 L201.608,211.677 L238.08,211.677 L238.08,227.682 L228.186,227.682 L228.186,295 L211.502,295 Z M276.783,295.776 C270.76897,295.776 266.290848,293.658188 263.3485,289.4225 C260.406152,285.186812 258.935,278.76871 258.935,270.168 L258.935,234.278 C258.935,226.582628 260.64865,220.762686 264.076,216.818 C267.50335,212.873314 272.611966,210.901 279.402,210.901 C284.898694,210.901 289.166651,212.000322 292.206,214.199 C295.245349,216.397678 297.346994,219.598646 298.511,223.802 C299.675006,228.005354 300.257,233.404967 300.257,240.001 L283.961,240.001 L283.961,232.532 C283.961,230.527323 283.686169,228.975339 283.1365,227.876 C282.586831,226.776661 281.600674,226.227 280.178,226.227 C277.009317,226.227 275.425,228.296313 275.425,232.435 L275.425,272.787 C275.425,275.309013 275.74833,277.21666 276.395,278.51 C277.04167,279.80334 278.173325,280.45 279.79,280.45 C281.406675,280.45 282.53833,279.80334 283.185,278.51 C283.83167,277.21666 284.155,275.309013 284.155,272.787 L284.155,260.856 L279.693,260.856 L279.693,246.5 L300.063,246.5 L300.063,295 L293.37,295 L290.557,288.016 C287.582318,293.189359 282.991031,295.776 276.783,295.776 Z M301.518,295 L309.569,211.677 L337.796,211.677 L345.75,295 L329.939,295 L328.775,281.517 L318.687,281.517 L317.717,295 L301.518,295 Z M319.948,268.228 L327.514,268.228 L323.828,225.839 L323.052,225.839 L319.948,268.228 Z M347.884,295 L347.884,211.677 L373.298,211.677 L380.282,262.505 L387.266,211.677 L412.874,211.677 L412.874,295 L397.645,295 L397.645,234.957 L388.042,295 L373.104,295 L362.919,234.957 L362.919,295 L347.884,295 Z M417.336,295 L417.336,211.677 L450.704,211.677 L450.704,227.779 L434.311,227.779 L434.311,243.978 L450.025,243.978 L450.025,259.692 L434.311,259.692 L434.311,278.801 L451.771,278.801 L451.771,295 L417.336,295 Z M474.178,295.776 C466.611962,295.776 461.147683,293.900685 457.785,290.15 C454.422317,286.399315 452.741,280.353042 452.741,272.011 L452.741,263.863 L469.134,263.863 L469.134,274.242 C469.134,278.380687 470.459653,280.45 473.111,280.45 C474.598341,280.45 475.632997,280.013504 476.215,279.1405 C476.797003,278.267496 477.088,276.796344 477.088,274.727 C477.088,272.010986 476.76467,269.763842 476.118,267.9855 C475.47133,266.207158 474.646838,264.719839 473.6445,263.5235 C472.642162,262.327161 470.84768,260.468013 468.261,257.946 L461.083,250.768 C455.521639,245.335973 452.741,239.322033 452.741,232.726 C452.741,225.612631 454.373817,220.196852 457.6395,216.4785 C460.905183,212.760148 465.674302,210.901 471.947,210.901 C479.448371,210.901 484.847984,212.88948 488.146,216.8665 C491.444016,220.84352 493.093,227.067624 493.093,235.539 L476.118,235.539 L476.021,229.816 C476.021,228.716661 475.713836,227.84367 475.0995,227.197 C474.485164,226.55033 473.628339,226.227 472.529,226.227 C471.23566,226.227 470.26567,226.582663 469.619,227.294 C468.97233,228.005337 468.649,228.975327 468.649,230.204 C468.649,232.920014 470.200984,235.732985 473.305,238.643 L483.005,247.955 C485.268345,250.153678 487.143659,252.239157 488.631,254.2115 C490.118341,256.183843 491.314662,258.51182 492.22,261.1955 C493.125338,263.87918 493.578,267.063982 493.578,270.75 C493.578,278.962708 492.074515,285.186812 489.0675,289.4225 C486.060485,293.658188 481.097368,295.776 474.178,295.776 Z" id="SLOTGAMES"></path>
            </g>
        </g>
    </g>
</svg>