<?xml version="1.0" encoding="UTF-8"?>
<svg width="504px" height="80px" viewBox="0 0 504 80" version="1.1" xmlns="http://www.w3.org/2000/svg" xmlns:xlink="http://www.w3.org/1999/xlink">
    <!-- Generator: Sketch 54 (76480) - https://sketchapp.com -->
    <title>SPORTSEVENTS</title>
    <desc>Created with Sketch.</desc>
    <g id="页面1" stroke="none" stroke-width="1" fill="none" fill-rule="evenodd">
        <g id="画板复制" transform="translate(-211.000000, -312.000000)" fill="#FFFFFF" fill-rule="nonzero">
            <g id="矩形-4" transform="translate(129.000000, 115.000000)">
                <path d="M102.205,276.72 C95.1849649,276.72 90.1150156,274.980017 86.995,271.5 C83.8749844,268.019983 82.315,262.410039 82.315,254.67 L82.315,247.11 L97.525,247.11 L97.525,256.74 C97.525,260.580019 98.7549877,262.5 101.215,262.5 C102.595007,262.5 103.554997,262.095004 104.095,261.285 C104.635003,260.474996 104.905,259.11001 104.905,257.19 C104.905,254.669987 104.605003,252.585008 104.005,250.935 C103.404997,249.284992 102.640005,247.905006 101.71,246.795 C100.779995,245.684994 99.115012,243.960012 96.715,241.62 L90.055,234.96 C84.8949742,229.919975 82.315,224.340031 82.315,218.22 C82.315,211.619967 83.8299849,206.595017 86.86,203.145 C89.8900152,199.694983 94.3149709,197.97 100.135,197.97 C107.095035,197.97 112.104985,199.814982 115.165,203.505 C118.225015,207.195018 119.755,212.969961 119.755,220.83 L104.005,220.83 L103.915,215.52 C103.915,214.499995 103.630003,213.690003 103.06,213.09 C102.489997,212.489997 101.695005,212.19 100.675,212.19 C99.474994,212.19 98.575003,212.519997 97.975,213.18 C97.374997,213.840003 97.075,214.739994 97.075,215.88 C97.075,218.400013 98.5149856,221.009986 101.395,223.71 L110.395,232.35 C112.495011,234.39001 114.234993,236.324991 115.615,238.155 C116.995007,239.985009 118.104996,242.144988 118.945,244.635 C119.785004,247.125012 120.205,250.079983 120.205,253.5 C120.205,261.120038 118.810014,266.89498 116.02,270.825 C113.229986,274.75502 108.625032,276.72 102.205,276.72 Z M125.335,198.69 L145.765,198.69 C151.945031,198.69 156.354987,200.68498 158.995,204.675 C161.635013,208.66502 162.955,214.499962 162.955,222.18 C162.955,229.860038 161.785012,235.64998 159.445,239.55 C157.104988,243.450019 152.90503,245.4 146.845,245.4 L140.545,245.4 L140.545,276 L125.335,276 L125.335,198.69 Z M141.445,231.45 C143.305009,231.45 144.669996,231.105003 145.54,230.415 C146.410004,229.724997 146.979999,228.735006 147.25,227.445 C147.520001,226.154994 147.655,224.310012 147.655,221.91 C147.655,218.669984 147.295004,216.330007 146.575,214.89 C145.854996,213.449993 144.415011,212.73 142.255,212.73 L140.545,212.73 L140.545,231.45 L141.445,231.45 Z M186.265,276.72 C180.024969,276.72 175.285016,274.815019 172.045,271.005 C168.804984,267.194981 167.185,261.840035 167.185,254.94 L167.185,218.13 C167.185,211.469967 168.804984,206.445017 172.045,203.055 C175.285016,199.664983 180.024969,197.97 186.265,197.97 C192.505031,197.97 197.244984,199.664983 200.485,203.055 C203.725016,206.445017 205.345,211.469967 205.345,218.13 L205.345,254.94 C205.345,261.900035 203.725016,267.269981 200.485,271.05 C197.244984,274.830019 192.505031,276.72 186.265,276.72 Z M186.265,262.5 C187.645007,262.5 188.574998,261.900006 189.055,260.7 C189.535002,259.499994 189.775,257.820011 189.775,255.66 L189.775,217.86 C189.775,216.179992 189.550002,214.815005 189.1,213.765 C188.649998,212.714995 187.735007,212.19 186.355,212.19 C183.774987,212.19 182.485,214.13998 182.485,218.04 L182.485,255.75 C182.485,257.970011 182.754997,259.649994 183.295,260.79 C183.835003,261.930006 184.824993,262.5 186.265,262.5 Z M211.555,198.69 L235.315,198.69 C239.095019,198.69 242.01999,199.544991 244.09,201.255 C246.16001,202.965009 247.554996,205.364985 248.275,208.455 C248.995004,211.545015 249.355,215.489976 249.355,220.29 C249.355,224.670022 248.785006,228.089988 247.645,230.55 C246.504994,233.010012 244.525014,234.719995 241.705,235.68 C244.045012,236.160002 245.739995,237.329991 246.79,239.19 C247.840005,241.050009 248.365,243.569984 248.365,246.75 L248.185,276 L233.065,276 L233.065,245.76 C233.065,243.599989 232.645004,242.220003 231.805,241.62 C230.964996,241.019997 229.435011,240.72 227.215,240.72 L227.215,276 L211.555,276 L211.555,198.69 Z M230.995,227.31 C233.155011,227.31 234.235,224.970023 234.235,220.29 C234.235,218.24999 234.145001,216.720005 233.965,215.7 C233.784999,214.679995 233.455002,213.975002 232.975,213.585 C232.494998,213.194998 231.805,213 230.905,213 L227.305,213 L227.305,227.31 L230.995,227.31 Z M261.145,276 L261.145,213.54 L251.965,213.54 L251.965,198.69 L285.805,198.69 L285.805,213.54 L276.625,213.54 L276.625,276 L261.145,276 Z M308.485,276.72 C301.464965,276.72 296.395016,274.980017 293.275,271.5 C290.154984,268.019983 288.595,262.410039 288.595,254.67 L288.595,247.11 L303.805,247.11 L303.805,256.74 C303.805,260.580019 305.034988,262.5 307.495,262.5 C308.875007,262.5 309.834997,262.095004 310.375,261.285 C310.915003,260.474996 311.185,259.11001 311.185,257.19 C311.185,254.669987 310.885003,252.585008 310.285,250.935 C309.684997,249.284992 308.920005,247.905006 307.99,246.795 C307.059995,245.684994 305.395012,243.960012 302.995,241.62 L296.335,234.96 C291.174974,229.919975 288.595,224.340031 288.595,218.22 C288.595,211.619967 290.109985,206.595017 293.14,203.145 C296.170015,199.694983 300.594971,197.97 306.415,197.97 C313.375035,197.97 318.384985,199.814982 321.445,203.505 C324.505015,207.195018 326.035,212.969961 326.035,220.83 L310.285,220.83 L310.195,215.52 C310.195,214.499995 309.910003,213.690003 309.34,213.09 C308.769997,212.489997 307.975005,212.19 306.955,212.19 C305.754994,212.19 304.855003,212.519997 304.255,213.18 C303.654997,213.840003 303.355,214.739994 303.355,215.88 C303.355,218.400013 304.794986,221.009986 307.675,223.71 L316.675,232.35 C318.775011,234.39001 320.514993,236.324991 321.895,238.155 C323.275007,239.985009 324.384996,242.144988 325.225,244.635 C326.065004,247.125012 326.485,250.079983 326.485,253.5 C326.485,261.120038 325.090014,266.89498 322.3,270.825 C319.509986,274.75502 314.905032,276.72 308.485,276.72 Z M352.675,276 L352.675,198.69 L383.635,198.69 L383.635,213.63 L368.425,213.63 L368.425,228.66 L383.005,228.66 L383.005,243.24 L368.425,243.24 L368.425,260.97 L384.625,260.97 L384.625,276 L352.675,276 Z M396.865,276 L387.325,198.6 L402.085,198.6 L407.755,251.25 L412.795,198.6 L427.555,198.6 L418.015,276 L396.865,276 Z M431.965,276 L431.965,198.69 L462.925,198.69 L462.925,213.63 L447.715,213.63 L447.715,228.66 L462.295,228.66 L462.295,243.24 L447.715,243.24 L447.715,260.97 L463.915,260.97 L463.915,276 L431.965,276 Z M469.045,276 L469.045,198.69 L484.975,198.69 L492.085,235.68 L492.085,198.69 L507.025,198.69 L507.025,276 L491.905,276 L484.165,237.3 L484.165,276 L469.045,276 Z M520.525,276 L520.525,213.54 L511.345,213.54 L511.345,198.69 L545.185,198.69 L545.185,213.54 L536.005,213.54 L536.005,276 L520.525,276 Z M567.865,276.72 C560.844965,276.72 555.775016,274.980017 552.655,271.5 C549.534984,268.019983 547.975,262.410039 547.975,254.67 L547.975,247.11 L563.185,247.11 L563.185,256.74 C563.185,260.580019 564.414988,262.5 566.875,262.5 C568.255007,262.5 569.214997,262.095004 569.755,261.285 C570.295003,260.474996 570.565,259.11001 570.565,257.19 C570.565,254.669987 570.265003,252.585008 569.665,250.935 C569.064997,249.284992 568.300005,247.905006 567.37,246.795 C566.439995,245.684994 564.775012,243.960012 562.375,241.62 L555.715,234.96 C550.554974,229.919975 547.975,224.340031 547.975,218.22 C547.975,211.619967 549.489985,206.595017 552.52,203.145 C555.550015,199.694983 559.974971,197.97 565.795,197.97 C572.755035,197.97 577.764985,199.814982 580.825,203.505 C583.885015,207.195018 585.415,212.969961 585.415,220.83 L569.665,220.83 L569.575,215.52 C569.575,214.499995 569.290003,213.690003 568.72,213.09 C568.149997,212.489997 567.355005,212.19 566.335,212.19 C565.134994,212.19 564.235003,212.519997 563.635,213.18 C563.034997,213.840003 562.735,214.739994 562.735,215.88 C562.735,218.400013 564.174986,221.009986 567.055,223.71 L576.055,232.35 C578.15501,234.39001 579.894993,236.324991 581.275,238.155 C582.655007,239.985009 583.764996,242.144988 584.605,244.635 C585.445004,247.125012 585.865,250.079983 585.865,253.5 C585.865,261.120038 584.470014,266.89498 581.68,270.825 C578.889986,274.75502 574.285032,276.72 567.865,276.72 Z" id="SPORTSEVENTS"></path>
            </g>
        </g>
    </g>
</svg>