<?xml version="1.0" encoding="UTF-8"?>
<svg width="36px" height="36px" viewBox="0 0 36 36" version="1.1" xmlns="http://www.w3.org/2000/svg" xmlns:xlink="http://www.w3.org/1999/xlink">
    <!-- Generator: Sketch 54 (76480) - https://sketchapp.com -->
    <title>telegram_gold</title>
    <desc>Created with Sketch.</desc>
    <g id="页面1" stroke="none" stroke-width="1" fill="none" fill-rule="evenodd">
        <g id="画板复制" transform="translate(-1722.000000, -1105.000000)" fill="#E0C9B2">
            <g id="形状结合复制-7" transform="translate(1722.000000, 1105.000000)">
                <path d="M18,36 C8.0588745,36 0,27.9411255 0,18 C0,8.0588745 8.0588745,0 18,0 C27.9411255,0 36,8.0588745 36,18 C36,27.9411255 27.9411255,36 18,36 Z M24.2729816,27.4573205 L27.5465155,11.2969351 C27.7981669,9.99356409 27.1397028,9.28918782 26.0356234,9.73285934 C24.9314948,10.1765818 7.43122197,17.2071591 6.64715348,17.5525255 C5.86298664,17.8979427 5.70900568,18.7234314 6.64715348,19.1163976 L11.3666133,20.5822191 C11.567659,20.6446844 11.784934,20.6139863 11.9625211,20.4981175 L24.0213793,13.382064 L14.7665876,21.7016052 C14.5661813,21.881772 14.4453473,22.1388113 14.432118,22.4132614 L14.222515,26.7551842 C14.2098759,27.0170599 14.4713632,27.2000776 14.7004904,27.0884852 C14.9060607,26.9883472 15.05714,26.831904 15.2081702,26.6754608 L17.2903803,24.7358297 C17.5437038,24.4997649 17.922976,24.4823031 18.1956271,24.6939825 L22.7622371,28.2392311 C23.5176339,28.7607425 24.0213793,28.4999868 24.2729816,27.4573205 Z" id="形状结合复制-2"></path>
            </g>
        </g>
    </g>
</svg>