<?xml version="1.0" encoding="UTF-8"?>
<svg width="180px" height="50px" viewBox="0 0 180 50" version="1.1" xmlns="http://www.w3.org/2000/svg" xmlns:xlink="http://www.w3.org/1999/xlink">
    <!-- Generator: Sketch 54 (76480) - https://sketchapp.com -->
    <title>yabo_gambling_logo</title>
    <desc>Created with Sketch.</desc>
    <g id="页面1" stroke="none" stroke-width="1" fill="none" fill-rule="evenodd">
        <g id="画板复制-2" transform="translate(-5311.000000, -758.000000)" fill="#FFFFFF" fill-rule="nonzero">
            <g id="矩形-4复制-6" transform="translate(5059.000000, 135.000000)">
                <g id="编组-21" transform="translate(252.000000, 623.000000)">
                    <path d="M59.3924715,19.8704104 C59.3924715,19.8704104 60.5032397,20.8423326 59.2536254,21.9531009 L59.1147794,22.0919469 C57.1709349,24.1746375 34.8167232,46.2511571 31.3455724,49.7223079 C31.0678803,50 30.3736501,50 30.3736501,50 C30.2348041,50 29.6794199,50 29.4017279,49.7223079 C25.930577,46.112311 2.60444307,23.0638692 1.49367479,21.9531009 C0.38290651,20.8423326 1.49367479,19.8704104 1.49367479,19.8704104 C1.49367479,19.8704104 18.155199,3.34773218 20.6544276,0.848503548 L20.9321197,0.431965443 C21.904042,-0.539956803 22.8759642,0.431965443 22.8759642,0.431965443 L30.5124961,7.92965134 L38.1490281,0.431965443 C38.1490281,0.431965443 39.1209503,-0.539956803 40.0928726,0.431965443 C40.9259488,1.40388769 59.3924715,19.8704104 59.3924715,19.8704104 Z M53.8386301,21.5365628 C53.8386301,21.5365628 54.3940142,20.9811786 54.1163221,20.2869485 C53.560938,19.8704104 39.8151805,6.26349892 39.8151805,6.26349892 C39.8151805,6.26349892 39.2597964,5.70811478 38.5655662,6.26349892 C37.871336,6.81888306 33.705955,11.1231102 33.705955,11.1231102 L39.8151805,17.0934897 C39.8151805,17.0934897 41.3424869,18.6207961 42.3144091,20.4257945 C43.2863314,22.230793 44.1194076,25.8407899 42.7309472,28.7565566 C40.2317186,34.171552 35.6497994,32.7830916 35.6497994,32.7830916 C35.6497994,32.7830916 33.2894168,32.3665535 31.4844184,27.9234804 C31.4844184,27.9234804 32.7340327,29.7284789 35.3721074,29.5896328 C38.1490281,29.4507868 39.3986424,27.0904042 39.1209503,24.5911756 C38.9821043,22.369639 36.2051836,19.3150262 31.0678803,14.594261 L30.6513422,14.1777229 C25.2363468,19.1761802 22.181734,22.369639 22.181734,24.5911756 C22.042888,27.0904042 23.2925023,29.4507868 25.930577,29.5896328 C28.5686517,29.7284789 29.818266,27.9234804 29.818266,27.9234804 C28.0132675,32.3665535 25.6528849,32.7830916 25.6528849,32.7830916 C25.6528849,32.7830916 21.0709658,34.032706 18.5717371,28.7565566 C17.0444307,25.8407899 17.8775069,22.369639 18.9882752,20.4257945 C20.0990435,18.48195 21.4875039,17.0934897 21.4875039,17.0934897 L27.5967294,11.1231102 C27.5967294,11.1231102 23.2925023,6.81888306 22.7371182,6.26349892 C22.042888,5.70811478 21.4875039,6.26349892 21.4875039,6.26349892 C21.4875039,6.26349892 7.74174637,19.7315643 7.18636223,20.2869485 C6.63097809,20.9811786 7.18636223,21.5365628 7.18636223,21.5365628 L8.01943844,22.369639 C12.0459735,26.396174 29.1240358,43.6130824 29.5405739,43.8907745 C29.957112,44.3073126 30.2348041,44.4461586 30.3736501,44.4461586 C30.5124961,44.4461586 30.5124961,44.4461586 30.5124961,44.4461586 C30.5124961,44.4461586 30.5124961,44.4461586 30.6513422,44.4461586 C30.7901882,44.4461586 31.0678803,44.3073126 31.4844184,43.8907745 C31.7621105,43.4742363 52.3113237,23.0638692 53.8386301,21.5365628 Z M30.5124961,30.422709 C30.5124961,30.422709 30.7901882,32.7830916 34.6778772,35.8377044 L26.2082691,35.8377044 C30.2348041,32.7830916 30.5124961,30.422709 30.5124961,30.422709 Z M94.9370565,25.2854057 L94.7982104,25.2854057 L94.7982104,28.6177106 L71.7497686,28.6177106 L71.7497686,25.2854057 L77.9978402,25.2854057 L77.9978402,10.42888 L72.3051527,10.42888 L72.3051527,7.09657513 L94.2428263,7.09657513 L94.2428263,10.42888 L88.5501388,10.42888 L88.5501388,25.2854057 L94.9370565,25.2854057 Z M84.5236038,25.2854057 L84.5236038,10.42888 L82.0243752,10.42888 L82.0243752,25.2854057 L84.5236038,25.2854057 Z M90.2162913,13.6223388 C90.3551373,13.0669546 90.4939833,12.7892626 90.6328294,12.6504165 C90.9105214,12.5115705 91.3270595,12.3727245 91.7435977,12.3727245 L94.1039803,12.3727245 L92.8543659,21.6754088 C92.8543659,22.0919469 92.7155199,22.508485 92.4378278,22.6473311 C92.1601358,22.7861771 91.7435977,22.9250231 91.3270595,22.9250231 L88.966677,22.9250231 L90.2162913,13.6223388 Z M75.3597655,22.9250231 C74.8043814,22.9250231 74.5266893,22.7861771 74.2489972,22.6473311 C74.1101512,22.508485 73.8324591,22.0919469 73.8324591,21.6754088 L72.5828448,12.3727245 L74.9432274,12.3727245 C75.4986115,12.3727245 75.7763036,12.5115705 76.0539957,12.6504165 C76.3316878,12.7892626 76.4705338,13.2058007 76.4705338,13.6223388 L77.8589941,22.9250231 L75.3597655,22.9250231 Z M110.487812,26.118482 L111.598581,28.6177106 L108.543968,28.6177106 C108.12743,28.6177106 107.710892,28.4788645 107.572046,28.3400185 C107.294354,28.2011725 107.155508,27.9234804 107.016662,27.5069423 L106.044739,25.1465597 L108.960506,25.1465597 C109.377044,25.1465597 109.793582,25.1465597 109.932428,25.2854057 C110.071274,25.4242518 110.348966,25.7019438 110.487812,26.118482 Z M100.07436,29.4507868 L100.07436,15.2884912 L98.5470534,15.2884912 L98.5470534,11.5396483 L100.07436,11.5396483 L100.07436,5.98580685 L103.823203,5.98580685 L103.823203,11.5396483 L105.211663,11.5396483 L105.211663,15.2884912 L103.823203,15.2884912 L103.823203,29.4507868 L100.07436,29.4507868 Z M111.598581,10.9842641 L111.737427,10.9842641 L111.737427,10.42888 L105.350509,10.42888 L105.350509,7.65195927 L111.737427,7.65195927 L111.737427,5.98580685 L115.763962,5.98580685 L115.763962,7.65195927 L117.56896,7.65195927 L117.152422,6.12465288 L119.512805,6.12465288 C119.790497,6.12465288 120.068189,6.12465288 120.207035,6.26349892 C120.345881,6.40234496 120.484727,6.68003703 120.623573,6.9577291 L120.762419,7.65195927 L122.012033,7.65195927 L122.012033,10.42888 L115.48627,10.42888 L115.48627,10.9842641 L121.456649,10.9842641 L121.456649,20.9811786 L117.846652,20.9811786 L117.846652,19.8704104 L115.069732,19.8704104 L115.069732,21.1200247 L111.459735,21.1200247 L111.459735,19.8704104 L109.099352,19.8704104 L109.099352,20.9811786 L105.489355,20.9811786 L105.489355,10.9842641 L109.377044,10.9842641 L109.377044,11.9561864 C109.793582,11.2619562 110.21012,10.9842641 110.904351,10.9842641 L111.598581,10.9842641 Z M115.48627,13.4834927 L115.48627,14.316569 L117.846652,14.316569 L117.846652,13.4834927 L115.48627,13.4834927 Z M115.48627,16.6769516 L115.48627,17.5100278 L117.846652,17.5100278 L117.846652,16.6769516 L115.48627,16.6769516 Z M111.737427,17.5100278 L111.737427,16.6769516 L109.377044,16.6769516 L109.377044,17.5100278 L111.737427,17.5100278 Z M111.737427,13.4834927 L109.377044,13.4834927 L109.377044,14.316569 L111.737427,14.316569 L111.737427,13.4834927 Z M120.068189,24.5911756 L120.068189,26.9515582 C120.068189,27.6457883 119.790497,28.2011725 119.512805,28.4788645 C119.235113,28.8954027 118.679728,29.0342487 117.985498,29.0342487 L113.681271,29.0342487 C112.848195,29.0342487 112.431657,28.6177106 112.431657,27.7846344 L112.431657,26.118482 L115.625116,26.118482 C115.902808,26.118482 116.041654,25.9796359 116.041654,25.7019438 L116.041654,24.5911756 L104.656279,24.5911756 L104.656279,21.8142549 L116.041654,21.8142549 L116.041654,21.3977168 L120.068189,21.3977168 L120.068189,21.8142549 L122.150879,21.8142549 L122.150879,24.5911756 L120.068189,24.5911756 Z M146.032397,25.0077137 C146.587782,25.0077137 146.865474,25.1465597 147.143166,25.2854057 C147.420858,25.4242518 147.559704,25.7019438 147.837396,26.257328 L149.08701,29.0342487 L146.310089,29.0342487 L145.893551,29.0342487 C145.199321,29.0342487 144.643937,28.6177106 144.366245,27.7846344 L143.255477,25.0077137 L146.032397,25.0077137 Z M126.038568,14.8719531 C126.038568,14.1777229 126.455106,13.7611848 127.288183,13.7611848 L128.537797,13.7611848 L128.398951,24.5911756 C128.398951,25.2854057 127.982413,25.7019438 127.149337,25.7019438 L125.760876,25.7019438 L126.038568,14.8719531 Z M133.536254,14.1777229 C134.230484,14.1777229 134.508176,14.455415 134.508176,15.2884912 L134.647023,24.7300216 L133.536254,24.7300216 C132.842024,24.7300216 132.564332,24.3134835 132.564332,23.6192533 L132.425486,14.1777229 L133.536254,14.1777229 Z M138.257019,25.0077137 L141.03394,25.0077137 L139.923172,27.7846344 C139.64548,28.6177106 139.090096,29.0342487 138.395865,29.0342487 L137.979327,29.0342487 L135.063561,29.0342487 L136.313175,26.257328 C136.452021,25.8407899 136.729713,25.4242518 137.007405,25.2854057 C137.285097,25.1465597 137.701635,25.0077137 138.257019,25.0077137 Z M136.174329,21.2588707 L136.313175,21.2588707 L136.313175,11.4008022 L134.924715,11.4008022 L134.924715,8.06849738 L136.313175,8.06849738 L136.313175,5.98580685 L139.923172,5.98580685 L139.923172,8.06849738 L144.088553,8.06849738 L144.088553,5.98580685 L147.69855,5.98580685 L147.69855,7.92965134 L149.08701,7.92965134 L149.08701,11.2619562 L147.69855,11.2619562 L147.69855,21.2588707 L149.225856,21.2588707 L149.225856,24.5911756 L135.202407,24.5911756 L135.202407,21.2588707 L136.174329,21.2588707 Z M139.784326,11.4008022 L139.784326,12.6504165 L143.949707,12.6504165 L143.949707,11.4008022 L139.784326,11.4008022 Z M139.784326,15.7050293 L139.784326,16.9546436 L143.949707,16.9546436 L143.949707,15.7050293 L139.784326,15.7050293 Z M139.784326,20.1481024 L139.784326,21.2588707 L143.949707,21.2588707 L143.949707,20.1481024 L139.784326,20.1481024 Z M132.28664,29.4507868 L128.676643,29.4507868 L128.676643,13.3446467 L125.760876,13.3446467 L125.760876,9.7346498 L128.676643,9.7346498 L128.676643,5.98580685 L132.28664,5.98580685 L132.28664,9.7346498 L134.508176,9.7346498 L134.508176,13.3446467 L132.28664,13.3446467 L132.28664,29.4507868 Z M162.693922,22.0919469 L163.388152,19.5927183 L162.277384,19.5927183 L162.277384,7.3742672 L165.19315,7.3742672 L165.331996,6.68003703 C165.470842,6.26349892 165.609688,6.12465288 165.748534,5.98580685 C165.88738,5.84696081 166.165073,5.84696081 166.442765,5.84696081 L169.636223,5.84696081 L169.219685,7.3742672 L175.190065,7.3742672 L175.190065,16.6769516 C175.190065,17.6488738 175.051219,18.48195 174.495835,18.8984881 C174.079297,19.3150262 173.24622,19.5927183 172.135452,19.5927183 L167.275841,19.5927183 L166.859303,20.9811786 C166.859303,21.3977168 166.581611,21.6754088 166.442765,21.8142549 C166.303919,21.9531009 166.026226,22.0919469 165.609688,22.0919469 L162.693922,22.0919469 Z M170.4693,10.42888 L170.4693,11.9561864 L172.135452,11.9561864 L172.135452,10.42888 L170.4693,10.42888 Z M170.4693,14.8719531 L170.4693,16.5381055 L171.85776,16.5381055 C171.996606,16.3992595 172.135452,16.3992595 172.135452,16.2604135 L172.135452,14.8719531 L170.4693,14.8719531 Z M165.748534,10.42888 L165.748534,11.9561864 L167.275841,11.9561864 L167.275841,10.42888 L165.748534,10.42888 Z M165.748534,14.8719531 L165.748534,16.5381055 L167.275841,16.5381055 L167.275841,14.8719531 L165.748534,14.8719531 Z M161.583153,29.1730947 L158.389695,29.1730947 L158.389695,20.9811786 L157.001234,20.9811786 L157.001234,27.7846344 C157.001234,28.3400185 156.862388,28.7565566 156.584696,29.0342487 C156.307004,29.3119408 155.890466,29.4507868 155.335082,29.4507868 L153.391237,29.4507868 L153.391237,6.81888306 L156.862388,6.81888306 L156.862388,12.7892626 L157.973156,12.7892626 L157.973156,6.26349892 L161.305461,6.26349892 L161.305461,12.7892626 L162.138537,12.7892626 L162.138537,16.1215674 L156.862388,16.1215674 L156.862388,17.6488738 L161.583153,17.6488738 L161.583153,29.1730947 Z M172.55199,22.508485 L176.161987,22.508485 L176.161987,25.7019438 L172.55199,25.7019438 L172.55199,29.4507868 L168.525455,29.4507868 L168.525455,25.7019438 L161.999691,25.7019438 L161.999691,22.508485 L168.525455,22.508485 L168.525455,20.1481024 L172.55199,20.1481024 L172.55199,22.508485 Z M75.4986115,39.1700093 C75.4986115,39.0311632 76.3316878,37.9203949 77.5813021,35.6988584 L79.2474545,35.6988584 L75.9151496,40.2807775 L75.9151496,43.4742363 L74.6655353,43.4742363 L74.6655353,40.2807775 L71.4720765,35.5600123 L72.9993829,35.5600123 L75.2209195,38.8923172 C75.2209195,39.0311632 75.2209195,39.0311632 75.2209195,39.0311632 C75.2209195,39.1700093 75.3597655,39.1700093 75.3597655,39.3088553 C75.3597655,39.3088553 75.3597655,39.3088553 75.4986115,39.1700093 C75.3597655,39.1700093 75.3597655,39.1700093 75.4986115,39.1700093 Z M83.4128355,35.6988584 L84.5236038,35.6988584 L87.8559087,43.6130824 L86.4674483,43.6130824 L85.7732181,41.6692379 L82.3020673,41.6692379 L81.4689911,43.6130824 L80.0805307,43.6130824 L83.4128355,35.6988584 Z M82.7186054,40.5584696 L85.35668,40.5584696 L84.2459118,37.7815489 C84.1070657,37.5038568 84.1070657,37.2261648 84.1070657,37.0873187 C83.9682197,37.2261648 83.9682197,37.5038568 83.8293737,37.7815489 L82.7186054,40.5584696 Z M94.6593644,39.4477013 C95.4924406,39.8642394 96.0478247,40.4196236 96.0478247,41.3915458 C96.0478247,42.9188522 95.0759025,43.6130824 93.270904,43.6130824 L89.6609071,43.6130824 L89.6609071,35.6988584 L92.993212,35.6988584 C94.6593644,35.8377044 95.4924406,36.5319346 95.6312866,37.7815489 C95.6312866,38.6146251 95.3535946,39.1700093 94.6593644,39.4477013 Z M90.9105214,36.9484727 L90.9105214,39.0311632 L92.8543659,39.0311632 C93.8262882,39.0311632 94.3816723,38.6146251 94.3816723,37.9203949 C94.2428263,37.3650108 93.8262882,36.9484727 92.8543659,36.9484727 L90.9105214,36.9484727 Z M93.132058,42.5023141 C94.1039803,42.5023141 94.6593644,42.085776 94.6593644,41.2526998 C94.6593644,40.5584696 94.1039803,40.1419315 92.993212,40.1419315 L90.9105214,40.1419315 L90.9105214,42.5023141 L93.132058,42.5023141 Z M101.879358,35.5600123 C104.239741,35.8377044 105.489355,37.0873187 105.767047,39.7253934 C105.767047,42.3634681 104.378587,43.6130824 101.879358,43.7519284 C99.3801296,43.6130824 98.1305153,42.224622 97.9916692,39.7253934 C97.9916692,37.0873187 99.3801296,35.6988584 101.879358,35.5600123 Z M101.740512,42.6411601 C103.406665,42.6411601 104.239741,41.6692379 104.378587,39.7253934 C104.239741,37.9203949 103.406665,36.9484727 101.879358,36.8096267 C100.213206,36.9484727 99.3801296,37.9203949 99.2412836,39.7253934 C99.2412836,41.5303919 100.213206,42.5023141 101.740512,42.6411601 Z M114.792039,40.4196236 L114.792039,39.3088553 L118.540882,39.3088553 L118.540882,42.3634681 C117.846652,43.3353903 116.735884,43.7519284 115.069732,43.7519284 C112.431657,43.6130824 111.182043,42.3634681 111.043197,39.7253934 C111.182043,37.0873187 112.431657,35.6988584 114.930886,35.5600123 C116.735884,35.6988584 117.985498,36.3930886 118.540882,37.9203949 L117.152422,38.336933 C116.87473,37.3650108 116.041654,36.8096267 114.930886,36.8096267 C113.403579,36.9484727 112.570503,37.9203949 112.431657,39.7253934 C112.570503,41.5303919 113.403579,42.5023141 115.069732,42.6411601 C116.041654,42.6411601 116.87473,42.3634681 117.291268,41.8080839 L117.291268,40.4196236 L114.792039,40.4196236 Z M123.400494,35.6988584 L124.511262,35.6988584 L127.843567,43.6130824 L126.455106,43.6130824 L125.760876,41.6692379 L122.289725,41.6692379 L121.456649,43.6130824 L120.068189,43.6130824 L123.400494,35.6988584 Z M122.706263,40.5584696 L125.344338,40.5584696 L124.23357,37.7815489 C124.094724,37.5038568 124.094724,37.2261648 124.094724,37.0873187 C123.955878,37.2261648 123.955878,37.5038568 123.817032,37.7815489 L122.706263,40.5584696 Z M133.952792,41.1138537 L135.896637,35.8377044 L137.423943,35.8377044 L137.423943,43.7519284 L136.174329,43.7519284 L136.174329,39.0311632 C136.174329,38.7534712 136.174329,38.059241 136.313175,37.3650108 C136.313175,37.7815489 136.035483,38.336933 135.896637,38.7534712 L133.952792,43.7519284 L132.98087,43.7519284 L131.037026,38.7534712 C130.89818,38.198087 130.759334,37.7815489 130.620488,37.3650108 C130.759334,37.9203949 130.759334,38.4757791 130.759334,39.0311632 L130.759334,43.7519284 L129.648565,43.7519284 L129.648565,35.8377044 L131.175872,35.8377044 L133.258562,41.1138537 C133.397408,41.2526998 133.397408,41.5303919 133.536254,41.8080839 C133.6751,41.94693 133.6751,42.085776 133.6751,42.085776 C133.6751,41.6692379 133.813946,41.3915458 133.952792,41.1138537 Z M145.060475,39.4477013 C146.032397,39.8642394 146.448936,40.4196236 146.448936,41.3915458 C146.448936,42.9188522 145.477013,43.6130824 143.672015,43.6130824 L140.062018,43.6130824 L140.062018,35.6988584 L143.394323,35.6988584 C145.060475,35.8377044 145.893551,36.5319346 146.032397,37.7815489 C146.032397,38.6146251 145.754705,39.1700093 145.060475,39.4477013 Z M141.311632,36.9484727 L141.311632,39.0311632 L143.255477,39.0311632 C144.227399,39.0311632 144.782783,38.6146251 144.782783,37.9203949 C144.643937,37.3650108 144.227399,36.9484727 143.255477,36.9484727 L141.311632,36.9484727 Z M143.533169,42.5023141 C144.643937,42.5023141 145.060475,42.085776 145.060475,41.2526998 C145.060475,40.5584696 144.505091,40.1419315 143.394323,40.1419315 L141.311632,40.1419315 L141.311632,42.5023141 L143.533169,42.5023141 Z M149.920086,35.8377044 L149.920086,42.5023141 L153.807775,42.5023141 L153.807775,43.6130824 L148.531626,43.6130824 L148.531626,35.8377044 L149.920086,35.8377044 Z M156.029312,35.8377044 L157.278926,35.8377044 L157.278926,43.7519284 L156.029312,43.7519284 L156.029312,35.8377044 Z M165.19315,40.6973156 L165.054304,40.6973156 L165.054304,35.9765504 L166.303919,35.9765504 L166.303919,43.8907745 L165.054304,43.8907745 C163.526998,41.6692379 162.41623,40.0030855 161.721999,38.8923172 C161.444307,38.336933 161.166615,37.9203949 161.027769,37.5038568 C161.166615,37.9203949 161.166615,38.4757791 161.166615,39.0311632 L161.166615,43.7519284 L159.917001,43.7519284 L159.917001,35.8377044 L161.305461,35.8377044 C162.832768,38.059241 163.943536,39.5865474 164.637766,40.6973156 C164.915458,41.1138537 165.054304,41.5303919 165.331996,42.085776 C165.19315,41.5303919 165.19315,41.1138537 165.19315,40.6973156 Z M172.413144,40.4196236 L172.413144,39.3088553 L176.161987,39.3088553 L176.161987,42.3634681 C175.467757,43.3353903 174.356989,43.7519284 172.690836,43.7519284 C170.052761,43.6130824 168.803147,42.3634681 168.664301,39.7253934 C168.803147,37.0873187 170.052761,35.6988584 172.55199,35.5600123 C174.356989,35.6988584 175.606603,36.3930886 176.161987,37.9203949 L174.773527,38.336933 C174.495835,37.3650108 173.662758,36.8096267 172.55199,36.8096267 C171.024684,36.9484727 170.191608,37.9203949 170.052761,39.7253934 C170.191608,41.5303919 171.024684,42.5023141 172.690836,42.6411601 C173.662758,42.6411601 174.495835,42.3634681 174.912373,41.8080839 L174.912373,40.4196236 L172.413144,40.4196236 Z" id="形状结合"></path>
                </g>
            </g>
        </g>
    </g>
</svg>