<?xml version="1.0" encoding="UTF-8"?>
<svg width="180px" height="50px" viewBox="0 0 180 50" version="1.1" xmlns="http://www.w3.org/2000/svg" xmlns:xlink="http://www.w3.org/1999/xlink">
    <!-- Generator: Sketch 54 (76480) - https://sketchapp.com -->
    <title>yabo_caipiao</title>
    <desc>Created with Sketch.</desc>
    <g id="页面1" stroke="none" stroke-width="1" fill="none" fill-rule="evenodd">
        <g id="画板复制-2" transform="translate(-3505.000000, -1777.000000)" fill="#FFFFFF">
            <g id="矩形-4复制-8" transform="translate(3423.000000, 1154.000000)">
                <g id="编组-22" transform="translate(82.000000, 623.000000)">
                    <path d="M34.2994356,12.5 C40.908631,19.1091954 41.1959874,29.5977011 35.3051828,36.4942529 L35.0178264,36.7816092 L35.0178264,36.7816092 L21.7994356,50 L18.6385161,46.8390805 L22.8051828,42.6724138 L22.8051828,42.6724138 L22.8051828,42.6724138 L22.8051828,42.6724138 L30.7074816,34.7701149 C30.8511598,34.6264368 31.1385161,34.4827586 31.2821943,34.1954023 C36.3109299,29.1666667 36.4546081,20.9770115 31.5695506,15.8045977 L31.2821943,15.5172414 L34.2994356,12.5 Z M28.408631,6.46551724 L31.7132287,9.77011494 L24.6729989,16.8103448 L25.2477115,16.954023 L26.2534586,17.3850575 L25.9661023,17.6724138 C26.540815,17.9597701 26.9718494,18.3908046 27.5465621,18.8218391 L27.8339184,19.1091954 L28.1212747,19.3965517 C30.9948379,22.5574713 31.1385161,27.1551724 28.6959874,30.4597701 C28.5523092,30.7471264 28.408631,31.0344828 28.1212747,31.3218391 L28.1212747,31.3218391 L15.6212747,43.8218391 L12.4603552,40.6609195 L19.5005851,33.6206897 C18.2074816,33.3333333 17.0580563,32.6149425 16.0523092,31.7528736 L15.7649529,31.4655172 L15.4775966,31.1781609 C13.178746,28.7356322 12.6040333,25.2873563 13.6097805,22.4137931 C14.040815,21.2643678 14.6155276,20.1149425 15.4775966,19.2528736 L15.7649529,18.9655172 C16.0523092,18.6781609 16.3396655,18.5344828 16.6270218,18.3908046 C16.9143782,18.2471264 17.0580563,18.1034483 17.3454127,17.9597701 L28.408631,6.46551724 Z M69.9316195,36.0632184 L72.3741483,39.7988506 L74.9603552,36.0632184 L76.2534586,36.0632184 L72.9488609,40.5172414 L72.9488609,43.5344828 L71.9431138,43.5344828 L71.9431138,40.3735632 L68.7821943,36.0632184 L69.9316195,36.0632184 Z M79.8454127,36.0632184 L83.5810448,43.5344828 L82.4316195,43.5344828 L81.5695506,41.954023 L76.9718494,41.954023 L76.1097805,43.5344828 L74.9603552,43.5344828 L78.6959874,36.0632184 L79.8454127,36.0632184 Z M144.644263,35.0574713 C145.218976,35.0574713 145.793689,35.2011494 146.224723,35.3448276 C146.655757,35.4885057 147.086792,35.7758621 147.517826,36.2068966 C147.948861,36.4942529 148.236217,36.9252874 148.379895,37.5 C148.523574,37.9310345 148.667252,38.5057471 148.667252,39.0804598 C148.667252,39.6551724 148.523574,40.0862069 148.379895,40.6609195 C148.236217,41.091954 147.805183,41.5229885 147.517826,41.954023 C147.086792,42.2413793 146.655757,42.5287356 146.224723,42.816092 C145.793689,42.9597701 145.218976,43.1034483 144.644263,43.1034483 C144.069551,43.1034483 143.494838,42.9597701 143.063803,42.816092 C142.632769,42.6724138 142.058056,42.3850575 141.7707,41.954023 C141.339666,41.6666667 141.052309,41.2356322 140.908631,40.6609195 C140.764953,40.2298851 140.621275,39.6551724 140.621275,39.0804598 C140.621275,38.5057471 140.764953,38.0747126 140.908631,37.5 C141.052309,37.0689655 141.483344,36.637931 141.7707,36.2068966 C142.201734,35.9195402 142.632769,35.6321839 143.063803,35.3448276 C143.638516,35.2011494 144.069551,35.0574713 144.644263,35.0574713 Z M105.420125,35.0574713 C106.138516,35.0574713 106.713229,35.2011494 107.287941,35.4885057 C107.718976,35.7758621 108.15001,36.0632184 108.437367,36.3505747 L107.718976,37.0689655 C107.43162,36.7816092 107.144263,36.637931 106.856907,36.3505747 C106.425872,36.0632184 105.85116,35.9195402 105.420125,35.9195402 C104.989091,35.9195402 104.558056,36.0632184 104.2707,36.2068966 C103.839666,36.3505747 103.552309,36.637931 103.264953,36.9252874 C102.977597,37.2126437 102.69024,37.5 102.546562,37.9310345 C102.402884,38.362069 102.259206,38.6494253 102.259206,39.0804598 C102.259206,39.5114943 102.402884,39.9425287 102.546562,40.2298851 C102.69024,40.6609195 102.977597,40.9482759 103.264953,41.2356322 C103.552309,41.5229885 103.839666,41.6666667 104.2707,41.954023 C104.701734,42.0977011 104.989091,42.2413793 105.420125,42.2413793 C105.994838,42.2413793 106.425872,42.0977011 107.000585,41.8103448 C107.287941,41.6666667 107.575298,41.3793103 107.862654,41.091954 L108.581045,41.8103448 C108.293689,42.2413793 107.862654,42.5287356 107.287941,42.6724138 C106.713229,42.9597701 106.138516,43.1034483 105.420125,43.1034483 C104.845413,43.1034483 104.2707,42.9597701 103.839666,42.816092 C103.408631,42.6724138 102.833918,42.3850575 102.546562,41.954023 C102.115528,41.6666667 101.828171,41.2356322 101.684493,40.6609195 C101.540815,40.2298851 101.397137,39.6551724 101.397137,39.0804598 C101.397137,38.5057471 101.540815,38.0747126 101.684493,37.5 C101.828171,37.0689655 102.259206,36.637931 102.546562,36.2068966 C102.977597,35.9195402 103.408631,35.6321839 103.839666,35.3448276 C104.2707,35.2011494 104.845413,35.0574713 105.420125,35.0574713 Z M95.6500104,35.0574713 C96.224723,35.0574713 96.7994356,35.2011494 97.2304701,35.3448276 C97.6615046,35.4885057 98.0925391,35.7758621 98.5235736,36.2068966 C98.9546081,36.4942529 99.2419644,36.9252874 99.3856425,37.5 C99.5293207,37.9310345 99.6729989,38.5057471 99.6729989,39.0804598 C99.6729989,39.6551724 99.5293207,40.0862069 99.3856425,40.6609195 C99.2419644,41.091954 98.8109299,41.5229885 98.5235736,41.954023 C98.0925391,42.2413793 97.6615046,42.5287356 97.2304701,42.816092 C96.7994356,42.9597701 96.224723,43.1034483 95.6500104,43.1034483 C95.0752977,43.1034483 94.5005851,42.9597701 94.0695506,42.816092 C93.6385161,42.6724138 93.0638035,42.3850575 92.7764471,41.954023 C92.3454127,41.6666667 92.0580563,41.2356322 91.9143782,40.6609195 C91.7707,40.2298851 91.6270218,39.6551724 91.6270218,39.0804598 C91.6270218,38.5057471 91.7707,38.0747126 91.9143782,37.5 C92.0580563,37.0689655 92.4890908,36.637931 92.7764471,36.2068966 C93.2074816,35.9195402 93.6385161,35.6321839 94.0695506,35.3448276 C94.6442632,35.2011494 95.0752977,35.0574713 95.6500104,35.0574713 Z M87.4603552,35.2011494 C87.7477115,35.2011494 88.0350678,35.2011494 88.3224241,35.3448276 C88.6097805,35.4885057 88.7534586,35.6321839 89.040815,35.7758621 C89.1844931,35.9195402 89.3281713,36.2068966 89.4718494,36.3505747 C89.6155276,36.637931 89.6155276,36.9252874 89.6155276,37.2126437 C89.6155276,37.5 89.6155276,37.7873563 89.4718494,37.9310345 C89.3281713,38.2183908 89.1844931,38.362069 89.040815,38.5057471 L88.7534586,38.7931034 L89.1844931,39.2241379 C89.3281713,39.3678161 89.4718494,39.3678161 89.6155276,39.5114943 C89.7592058,39.6551724 89.9028839,39.7988506 89.9028839,39.9425287 C90.0465621,40.0862069 90.0465621,40.2298851 90.0465621,40.3735632 C90.0465621,40.5172414 90.0465621,40.6609195 90.0465621,40.8045977 C90.0465621,41.091954 90.0465621,41.3793103 89.9028839,41.6666667 C89.7592058,41.954023 89.6155276,42.0977011 89.4718494,42.3850575 C89.3281713,42.5287356 89.040815,42.6724138 88.7534586,42.816092 C88.4661023,42.9597701 88.178746,42.9597701 87.8913897,42.9597701 L84.8741483,42.9597701 L84.8741483,35.3448276 L87.4603552,35.3448276 L87.4603552,35.2011494 Z M136.31093,35.2011494 L139.902884,42.816092 L138.897137,42.816092 L138.178746,41.2356322 L133.724723,41.2356322 L133.006332,42.816092 L132.000585,42.816092 L135.592539,35.2011494 L136.31093,35.2011494 Z M130.276447,35.2011494 L130.276447,42.816092 L129.2707,42.816092 L129.2707,35.2011494 L130.276447,35.2011494 Z M125.104033,35.2011494 C125.39139,35.2011494 125.822424,35.2011494 126.10978,35.3448276 C126.397137,35.4885057 126.684493,35.6321839 126.971849,35.9195402 C127.259206,36.2068966 127.402884,36.3505747 127.546562,36.637931 C127.69024,36.9252874 127.69024,37.2126437 127.69024,37.6436782 C127.69024,38.0747126 127.69024,38.362069 127.546562,38.6494253 C127.402884,38.9367816 127.259206,39.2241379 126.971849,39.5114943 C126.684493,39.7988506 126.540815,39.9425287 126.10978,40.0862069 C125.822424,40.2298851 125.535068,40.2298851 125.104033,40.2298851 L123.379895,40.2298851 L123.379895,42.9597701 L122.374148,42.9597701 L122.374148,35.3448276 L125.104033,35.3448276 L125.104033,35.2011494 Z M120.218976,35.2011494 L120.218976,42.816092 L119.213229,42.816092 L119.213229,35.2011494 L120.218976,35.2011494 Z M114.040815,35.2011494 L117.632769,42.816092 L116.483344,42.816092 L115.764953,41.2356322 L111.31093,41.2356322 L110.592539,42.816092 L109.586792,42.816092 L113.178746,35.2011494 L114.040815,35.2011494 Z M87.0293207,39.2241379 L86.7419644,39.2241379 C86.4546081,39.2241379 86.3109299,39.2241379 86.0235736,39.2241379 L85.7362172,39.2241379 L85.7362172,42.0977011 L87.316677,42.0977011 C87.4603552,42.0977011 87.7477115,42.0977011 87.8913897,42.0977011 C88.0350678,42.0977011 88.3224241,41.954023 88.4661023,41.8103448 C88.6097805,41.6666667 88.7534586,41.5229885 88.8971368,41.3793103 C89.040815,41.2356322 89.040815,40.9482759 89.040815,40.6609195 C89.040815,40.5172414 89.040815,40.2298851 88.8971368,40.0862069 C88.7534586,39.9425287 88.7534586,39.7988506 88.6097805,39.6551724 C88.4661023,39.5114943 88.3224241,39.3678161 88.178746,39.3678161 C88.0350678,39.3678161 87.7477115,39.2241379 87.6040333,39.2241379 C87.316677,39.2241379 87.1729989,39.2241379 87.0293207,39.2241379 Z M144.644263,35.9195402 C144.213229,35.9195402 143.782194,36.0632184 143.494838,36.2068966 C143.063803,36.3505747 142.776447,36.637931 142.489091,36.9252874 C142.201734,37.2126437 142.058056,37.5 141.7707,37.9310345 C141.627022,38.362069 141.483344,38.6494253 141.483344,39.0804598 C141.483344,39.5114943 141.627022,39.9425287 141.7707,40.2298851 C141.914378,40.6609195 142.201734,40.9482759 142.489091,41.2356322 C142.776447,41.5229885 143.063803,41.6666667 143.494838,41.954023 C143.925872,42.0977011 144.213229,42.2413793 144.644263,42.2413793 C145.075298,42.2413793 145.506332,42.0977011 145.793689,41.954023 C146.224723,41.8103448 146.512079,41.5229885 146.799436,41.2356322 C147.086792,40.9482759 147.23047,40.6609195 147.517826,40.2298851 C147.661505,39.7988506 147.805183,39.5114943 147.805183,39.0804598 C147.805183,38.6494253 147.661505,38.2183908 147.517826,37.9310345 C147.374148,37.5 147.086792,37.2126437 146.799436,36.9252874 C146.512079,36.637931 146.224723,36.4942529 145.793689,36.2068966 C145.506332,36.0632184 145.075298,35.9195402 144.644263,35.9195402 Z M95.6500104,35.9195402 C95.2189759,35.9195402 94.7879414,36.0632184 94.5005851,36.2068966 C94.0695506,36.3505747 93.7821943,36.637931 93.4948379,36.9252874 C93.2074816,37.2126437 93.0638035,37.5 92.7764471,37.9310345 C92.632769,38.362069 92.4890908,38.6494253 92.4890908,39.0804598 C92.4890908,39.5114943 92.632769,39.9425287 92.7764471,40.2298851 C92.9201253,40.6609195 93.2074816,40.9482759 93.4948379,41.2356322 C93.7821943,41.5229885 94.0695506,41.6666667 94.5005851,41.954023 C94.9316195,42.0977011 95.2189759,42.2413793 95.6500104,42.2413793 C96.0810448,42.2413793 96.5120793,42.0977011 96.7994356,41.954023 C97.2304701,41.8103448 97.5178264,41.5229885 97.8051828,41.2356322 C98.0925391,40.9482759 98.2362172,40.6609195 98.5235736,40.2298851 C98.6672517,39.7988506 98.8109299,39.5114943 98.8109299,39.0804598 C98.8109299,38.6494253 98.6672517,38.2183908 98.5235736,37.9310345 C98.3798954,37.5 98.0925391,37.2126437 97.8051828,36.9252874 C97.5178264,36.637931 97.2304701,36.4942529 96.7994356,36.2068966 C96.5120793,36.0632184 96.0810448,35.9195402 95.6500104,35.9195402 Z M79.4143782,37.3563218 L77.4028839,41.2356322 L81.2821943,41.2356322 L79.4143782,37.3563218 Z M135.879895,36.4942529 L134.012079,40.5172414 L137.747712,40.5172414 L135.879895,36.4942529 Z M113.60978,36.4942529 L111.741964,40.5172414 L115.477597,40.5172414 L113.60978,36.4942529 Z M124.816677,35.7758621 L123.379895,35.7758621 L123.379895,39.5114943 L124.816677,39.5114943 C125.104033,39.5114943 125.39139,39.5114943 125.535068,39.3678161 C125.822424,39.2241379 125.966102,39.0804598 126.10978,38.9367816 C126.253459,38.7931034 126.397137,38.5057471 126.540815,38.362069 C126.684493,38.0747126 126.684493,37.9310345 126.684493,37.6436782 C126.684493,37.3563218 126.684493,37.2126437 126.540815,36.9252874 C126.397137,36.637931 126.253459,36.4942529 126.10978,36.3505747 C125.966102,36.2068966 125.678746,36.0632184 125.535068,35.9195402 C125.247712,35.9195402 124.960355,35.7758621 124.816677,35.7758621 Z M87.0293207,35.7758621 L85.7362172,35.7758621 L85.7362172,38.6494253 L86.0235736,38.6494253 C86.1672517,38.6494253 86.3109299,38.6494253 86.4546081,38.6494253 L86.8856425,38.6494253 C87.0293207,38.6494253 87.316677,38.6494253 87.4603552,38.6494253 C87.6040333,38.6494253 87.8913897,38.5057471 88.0350678,38.362069 C88.178746,38.2183908 88.3224241,38.0747126 88.4661023,37.9310345 C88.6097805,37.7873563 88.6097805,37.5 88.6097805,37.2126437 C88.6097805,36.9252874 88.6097805,36.7816092 88.4661023,36.4942529 C88.3224241,36.3505747 88.178746,36.2068966 88.0350678,36.0632184 C87.8913897,35.9195402 87.7477115,35.9195402 87.4603552,35.7758621 C87.4603552,35.7758621 87.316677,35.7758621 87.0293207,35.7758621 Z M21.6557575,0 L24.816677,3.16091954 L12.0293207,15.9482759 C7.28794139,20.9770115 7.28794139,28.8793103 12.0293207,34.0517241 L12.316677,34.3390805 L9.15575748,37.5 C2.40288392,30.7471264 2.25920576,19.683908 8.86840116,12.7873563 L9.15575748,12.5 L21.6557575,0 Z M167.201734,29.5977011 L168.494838,32.3275862 L163.897137,32.3275862 L162.604033,29.5977011 L167.201734,29.5977011 Z M77.6902402,11.7816092 L77.6902402,13.7931034 L70.5063322,13.7931034 L70.5063322,17.9597701 L76.9718494,17.9597701 L76.9718494,25.4310345 L70.5063322,25.4310345 L70.5063322,30.4597701 L78.1212747,30.4597701 L78.1212747,32.4712644 L48.9546081,32.4712644 L48.9546081,30.4597701 L56.5695506,30.4597701 L56.5695506,25.4310345 L50.1040333,25.4310345 L50.1040333,17.9597701 L56.5695506,17.9597701 L56.5695506,13.7931034 L49.3856425,13.7931034 L49.3856425,11.7816092 L77.6902402,11.7816092 L77.6902402,11.7816092 Z M114.471849,25 L113.178746,32.3275862 L109.155757,32.3275862 L110.448861,25 L114.471849,25 Z M85.5925391,11.7816092 L85.5925391,16.2356322 L87.4603552,16.2356322 L87.4603552,18.2471264 L85.5925391,18.2471264 L85.5925391,32.3275862 L80.9948379,32.3275862 L80.9948379,18.2471264 L79.1270218,18.2471264 L79.1270218,16.2356322 L80.9948379,16.2356322 L80.9948379,11.637931 L85.5925391,11.637931 L85.5925391,11.7816092 Z M146.368401,29.5977011 L145.075298,32.3275862 L140.477597,32.3275862 L141.7707,29.5977011 L146.368401,29.5977011 Z M126.397137,25 L127.69024,32.3275862 L123.667252,32.3275862 L122.374148,25 L126.397137,25 Z M120.793689,20.4022989 L120.793689,21.6954023 L127.833918,21.6954023 L127.833918,23.7068966 L120.793689,23.7068966 L120.793689,32.3275862 L116.052309,32.3275862 L116.052309,23.7068966 L109.012079,23.7068966 L109.012079,21.6954023 L116.052309,21.6954023 L116.052309,20.4022989 L120.793689,20.4022989 Z M137.604033,11.7816092 L134.155757,17.816092 L138.035068,17.816092 L134.443114,24.2816092 L138.035068,24.2816092 L133.868401,32.4712644 L128.839666,32.4712644 L132.718976,24.8563218 L129.127022,24.8563218 L132.575298,18.8218391 L128.695987,18.8218391 L132.718976,11.7816092 L137.604033,11.7816092 Z M106.856907,25.7183908 L106.856907,26.4367816 L108.15001,26.4367816 L108.15001,28.3045977 L106.856907,28.3045977 L106.856907,30.0287356 L106.282194,32.183908 L94.2132287,32.183908 L95.362654,29.3103448 L100.104033,29.3103448 L99.3856425,31.0344828 L101.828171,31.0344828 L102.115528,30.0287356 L102.115528,28.1609195 L88.3224241,28.1609195 L88.3224241,26.2931034 L102.115528,26.2931034 L102.115528,25.5747126 L106.856907,25.5747126 L106.856907,25.7183908 Z M168.925872,26.2931034 L168.925872,28.3045977 L156.713229,28.3045977 L156.713229,30.4597701 L156.282194,32.183908 L151.540815,32.183908 L152.115528,29.8850575 L152.115528,28.1609195 L139.902884,28.1609195 L139.902884,26.2931034 L168.925872,26.2931034 Z M65.7649529,13.7931034 L61.3109299,13.7931034 L61.3109299,19.9712644 L56.5695506,19.9712644 L56.5695506,23.4195402 L61.3109299,23.4195402 L61.3109299,30.4597701 L65.7649529,30.4597701 L65.7649529,23.4195402 L70.5063322,23.4195402 L70.5063322,19.8275862 L65.7649529,19.8275862 L65.7649529,13.7931034 Z M19.9316195,21.2643678 L18.7821943,22.4137931 L18.4948379,22.1264368 L18.4948379,22.1264368 L18.3511598,22.2701149 C18.3511598,22.2701149 18.2074816,22.4137931 18.2074816,22.4137931 L18.0638035,22.5574713 C17.0580563,24.137931 17.3454127,26.2931034 18.7821943,27.7298851 C19.3569069,28.3045977 20.0752977,28.7356322 20.9373667,28.8793103 L20.9373667,28.8793103 L20.9373667,28.8793103 C20.9373667,28.8793103 20.9373667,28.8793103 20.9373667,28.8793103 C21.9431138,29.0229885 22.9488609,28.8793103 23.8109299,28.4482759 C23.9546081,28.3045977 24.0982862,28.1609195 24.2419644,28.0172414 L24.5293207,27.8735632 L24.6729989,27.7298851 C26.1097805,26.1494253 26.1097805,23.7068966 24.6729989,22.1264368 L24.5293207,21.9827586 L24.3856425,21.8390805 C23.0925391,20.9770115 21.3684012,20.8333333 19.9316195,21.2643678 Z M100.535068,10.7758621 L100.535068,12.3563218 L103.264953,12.3563218 L102.977597,10.9195402 L106.856907,10.9195402 L107.144263,12.3563218 L108.15001,12.3563218 L108.15001,14.0804598 L100.678746,14.0804598 L100.678746,15.6609195 L107.862654,15.6609195 L107.862654,24.7126437 L103.264953,24.7126437 L103.264953,23.8505747 L100.678746,23.8505747 L100.678746,24.8563218 L95.9373667,24.8563218 L95.9373667,23.8505747 L93.3511598,23.8505747 L93.3511598,24.7126437 L88.7534586,24.7126437 L88.7534586,15.6609195 L95.9373667,15.6609195 L95.9373667,14.0804598 L88.4661023,14.0804598 L88.4661023,12.3563218 L95.9373667,12.3563218 L95.9373667,10.7758621 L100.535068,10.7758621 L100.535068,10.7758621 Z M168.207482,22.8448276 L168.207482,24.5689655 L140.764953,24.5689655 L140.764953,22.8448276 L168.207482,22.8448276 Z M95.9373667,20.545977 L93.3511598,20.545977 L93.3511598,22.4137931 L95.9373667,22.4137931 L95.9373667,20.545977 Z M103.264953,20.545977 L100.678746,20.545977 L100.678746,22.4137931 L103.264953,22.4137931 L103.264953,20.545977 Z M168.925872,11.7816092 L168.925872,13.7931034 L160.592539,13.7931034 L160.592539,15.5172414 L168.35116,15.5172414 L168.35116,21.5517241 L140.621275,21.5517241 L140.621275,15.5172414 L148.379895,15.5172414 L148.379895,13.7931034 L140.046562,13.7931034 L140.046562,11.7816092 L168.925872,11.7816092 Z M163.60978,17.3850575 L160.592539,17.3850575 L160.592539,19.3965517 L163.60978,19.3965517 L163.60978,17.3850575 Z M148.379895,17.3850575 L145.218976,17.3850575 L145.218976,19.3965517 L148.236217,19.3965517 L148.236217,17.3850575 L148.379895,17.3850575 Z M155.85116,17.3850575 L152.977597,17.3850575 L152.977597,19.3965517 L155.85116,19.3965517 L155.85116,17.3850575 Z M113.753459,15.2298851 L114.328171,19.1091954 L110.017826,19.1091954 L109.443114,15.2298851 L113.753459,15.2298851 Z M120.075298,15.2298851 L120.65001,19.1091954 L116.339666,19.1091954 L115.764953,15.2298851 L120.075298,15.2298851 Z M127.402884,15.2298851 L126.828171,19.1091954 L122.517826,19.1091954 L123.092539,15.2298851 L127.402884,15.2298851 Z M103.264953,17.3850575 L100.678746,17.3850575 L100.678746,19.1091954 L103.264953,19.1091954 L103.264953,17.3850575 Z M95.9373667,17.3850575 L93.3511598,17.3850575 L93.3511598,19.1091954 L95.9373667,19.1091954 L95.9373667,17.3850575 Z M155.85116,13.6494253 L152.977597,13.6494253 L152.977597,15.3735632 L155.85116,15.3735632 L155.85116,13.6494253 Z M127.833918,11.7816092 L127.833918,13.7931034 L109.012079,13.9367816 L109.012079,11.9252874 L127.833918,11.7816092 Z" id="形状结合"></path>
                </g>
            </g>
        </g>
    </g>
</svg>